<svg width="75" height="40" viewBox="0 0 75 40" fill="none" xmlns="http://www.w3.org/2000/svg">
<path d="M8.20814 39.9999C3.04346 37.6712 0 31.7351 0 24.6575C0 14.9315 6.08695 2.05479 16.6469 0L16.9235 1.68949C7.70091 4.10958 3.59682 17.7625 3.59682 26.21C3.59682 32.0547 5.53359 36.4383 9.13042 38.5387L8.20814 39.9999Z" fill="#050505"/>
<path d="M58.0303 38.3104C67.2529 35.8904 71.357 22.2374 71.357 13.7899C71.357 7.94519 69.4202 3.56164 65.8234 1.46118L66.7456 0C71.9103 2.32876 74.9999 8.26483 74.9999 15.3424C74.9999 25.0685 68.8669 37.9451 58.3069 39.9999L58.0303 38.3104Z" fill="#050505"/>
<path d="M26.2588 9.83241L33.0398 23.7378L30.3689 23.7378L24.9976 12.378L19.6411 23.7378L16.9702 23.7378L23.766 9.83241L26.2588 9.83241Z" fill="#050505"/>
<path d="M52.561 9.83192L45.78 23.7373L48.4509 23.7373L53.8222 12.3775L59.1788 23.7373L61.8496 23.7373L55.0538 9.83192L52.561 9.83192Z" fill="#050505"/>
<path d="M35.1994 26.6113L35.6996 28.4597C34.7476 28.5858 34.087 28.7927 33.7179 29.0803C33.0515 29.5803 32.8806 30.43 33.2052 31.6295C33.457 32.5603 33.9249 33.2932 34.6089 33.8283C35.2929 34.3633 36.0551 34.6107 36.8955 34.5704C37.9301 34.5136 38.5736 34.1778 38.8258 33.563C39.078 32.9481 39.0613 32.113 38.7757 31.0577C38.7438 30.9397 38.7077 30.8194 38.6674 30.6966C38.6354 30.5786 38.5993 30.4582 38.559 30.3354L40.2281 30.2509C40.2562 30.4331 40.2837 30.5874 40.3108 30.7137C40.3379 30.8399 40.3709 30.9752 40.41 31.1194C40.5891 31.7814 40.8484 32.3203 41.1879 32.736C41.7803 33.457 42.5806 33.7926 43.5888 33.7429C44.3378 33.7057 44.8475 33.4264 45.118 32.9051C45.3884 32.3837 45.434 31.792 45.2549 31.13C44.9356 29.9502 44.2955 29.1576 43.3344 28.7523C42.8053 28.5273 42.1095 28.4204 41.247 28.4315L40.7734 26.6814C41.8928 26.6233 42.9012 26.7843 43.7986 27.1643C45.3921 27.8094 46.4345 29.0397 46.9258 30.8553C47.3142 32.2907 47.2719 33.419 46.7988 34.24C46.334 35.0658 45.4548 35.5133 44.1611 35.5826C43.2359 35.6244 42.4239 35.4289 41.725 34.9961C41.2899 34.7252 40.9089 34.3661 40.5822 33.9189C40.565 34.6681 40.3017 35.2683 39.7924 35.7196C39.2898 36.1691 38.5908 36.4178 37.6957 36.4656C36.2607 36.5372 34.9717 36.1521 33.8287 35.3103C32.6875 34.475 31.8969 33.2447 31.4571 31.6191C31.0066 29.9543 31.166 28.7212 31.9353 27.92C32.713 27.1235 33.8011 26.6873 35.1994 26.6113Z" fill="#050505"/>
<path d="M7.69464 13.834L10.2696 14.1088L9.13387 11.5817L10.3671 11.2612L11.4452 13.783L13.4553 12.5L14.3923 13.6912L12.2971 14.9266L14.7042 16.6319L14.0057 17.688L11.6729 15.9298L11.1144 18.3053L9.78631 17.7313L10.4298 15.4035L7.83225 15.1311L7.69464 13.834Z" fill="#050505"/>
</svg>
