<svg width="75" height="40" viewBox="0 0 75 40" fill="none" xmlns="http://www.w3.org/2000/svg">
<path d="M8.2081 39.9999C3.04345 37.6712 0 31.7351 0 24.6575C0 14.9315 6.08693 2.05479 16.6468 0L16.9235 1.68949C7.70087 4.10958 3.5968 17.7625 3.5968 26.21C3.5968 32.0547 5.53356 36.4383 9.13037 38.5387L8.2081 39.9999Z" fill="#050505"/>
<path d="M58.0308 38.3104C67.2534 35.8904 71.3574 22.2374 71.3574 13.7899C71.3574 7.94519 69.4207 3.56164 65.8239 1.46118L66.7461 0C71.9107 2.32876 75.0003 8.26483 75.0003 15.3424C75.0003 25.0685 68.8673 37.9451 58.3074 39.9999L58.0308 38.3104Z" fill="#050505"/>
<path d="M28.5421 21.3611L11.4395 29.5033V26.2963L25.4113 19.8467L11.4395 13.415V10.208L28.5421 18.368V21.3611Z" fill="#050505"/>
<path d="M57.0727 20.0433C57.0727 22.6558 54.7933 24.7736 51.9814 24.7736C49.1696 24.7736 46.8901 22.6558 46.8901 20.0433C46.8901 17.4308 49.1696 15.313 51.9814 15.313C54.7933 15.313 57.0727 17.4308 57.0727 20.0433Z" fill="#050505"/>
<path d="M67.7237 9.80403C68.9827 12.1188 69.2226 15.0805 68.4432 18.6892C67.6038 22.5947 65.9071 25.8413 63.3531 28.4291C60.3434 31.468 56.6623 32.9874 52.3096 32.9874C48.2448 32.9874 45.337 31.6579 43.5863 28.9989C42.0635 26.4348 41.7218 23.1941 42.5611 19.2768C43.3166 15.7394 44.8514 12.7123 47.1656 10.1958C50.1393 6.96695 53.8564 5.35254 58.317 5.35254C62.9814 5.35254 66.117 6.83637 67.7237 9.80403ZM64.756 18.7426C65.4155 15.6681 65.1337 13.1931 63.9107 11.3175C62.6996 9.44198 60.6852 8.5042 57.8673 8.5042C55.1334 8.5042 52.6993 9.43604 50.565 11.2997C48.4426 13.1516 46.9917 15.8877 46.2123 19.5083C45.5888 22.4047 45.8046 24.8501 46.8598 26.8444C47.915 28.8268 50.1033 29.818 53.4248 29.818C56.5783 29.818 59.0964 28.7021 60.9789 26.4704C62.8735 24.2269 64.1325 21.6509 64.756 18.7426Z" fill="#050505"/>
<path d="M25.9221 27.9193L25.6791 27.6598L25.6083 28.0081L25.4222 28.9235L25.4052 29.0075L25.4585 29.0745C26.6556 30.5775 27.5867 31.636 28.2488 32.2417C29.2777 33.1905 30.507 33.9693 31.9345 34.5793L31.9346 34.5793C32.4828 34.8133 33.0628 35.0039 33.6742 35.1514C34.2885 35.3047 34.9235 35.3916 35.5791 35.4122L35.5792 35.4122C36.103 35.4285 36.5264 35.4159 36.845 35.3718C37.1609 35.3297 37.9849 35.1785 39.3086 34.9203L39.4288 34.8969L39.4532 34.7768L39.6348 33.8835L39.6848 33.6376L39.4353 33.6644C37.966 33.8224 36.8662 33.871 36.1287 33.8146L36.1281 33.8146C34.9274 33.7267 33.6461 33.395 32.2831 32.8154C30.919 32.2298 29.7686 31.5534 28.8291 30.7876C28.2087 30.2818 27.2411 29.3282 25.9221 27.9193Z" fill="#050505" stroke="#050505" stroke-width="0.367068"/>
</svg>
