<svg width="75" height="40" viewBox="0 0 75 40" fill="none" xmlns="http://www.w3.org/2000/svg">
<path d="M66.819 9.46946C68.2302 12.0648 68.4991 15.3854 67.6254 19.4314C66.6846 23.8101 64.7827 27.4502 61.9199 30.3516C58.5463 33.7587 54.42 35.4623 49.541 35.4623C44.9846 35.4623 41.7253 33.9717 39.7629 30.9904C38.056 28.1156 37.6729 24.4822 38.6138 20.0902C39.4605 16.1241 41.1809 12.7302 43.775 9.90867C47.1083 6.28857 51.2749 4.47852 56.2748 4.47852C61.5032 4.47852 65.0179 6.14217 66.819 9.46946ZM63.4924 19.4913C64.2316 16.0442 63.9158 13.2692 62.5448 11.1664C61.1873 9.06353 58.9293 8.01211 55.7708 8.01211C52.7063 8.01211 49.9778 9.05688 47.5854 11.1464C45.2064 13.2227 43.5801 16.2904 42.7064 20.3497C42.0075 23.5972 42.2495 26.3389 43.4322 28.5748C44.615 30.7974 47.0679 31.9088 50.791 31.9088C54.3259 31.9088 57.1484 30.6577 59.2586 28.1556C61.3822 25.6401 62.7935 22.752 63.4924 19.4913Z" fill="black"/>
<path d="M35.5084 9.46946C36.9197 12.0648 37.1885 15.3854 36.3149 19.4314C35.374 23.8101 33.4722 27.4502 30.6093 30.3516C27.2357 33.7587 23.1094 35.4623 18.2305 35.4623C13.6741 35.4623 10.4147 33.9717 8.4524 30.9904C6.74544 28.1156 6.36238 24.4822 7.30322 20.0902C8.14998 16.1241 9.87039 12.7302 12.4644 9.90867C15.7977 6.28857 19.9643 4.47852 24.9642 4.47852C30.1927 4.47852 33.7074 6.14217 35.5084 9.46946ZM32.1819 19.4913C32.9211 16.0442 32.6052 13.2692 31.2343 11.1664C29.8768 9.06353 27.6188 8.01211 24.4602 8.01211C21.3957 8.01211 18.6673 9.05688 16.2749 11.1464C13.8959 13.2227 12.2695 16.2904 11.3959 20.3497C10.697 23.5972 10.9389 26.3389 12.1217 28.5748C13.3045 30.7974 15.7574 31.9088 19.4805 31.9088C23.0153 31.9088 25.8379 30.6577 27.9481 28.1556C30.0717 25.6401 31.483 22.752 32.1819 19.4913Z" fill="black"/>
<ellipse cx="60.0273" cy="16.303" rx="5.09129" ry="4.73029" fill="black"/>
<ellipse cx="14.7081" cy="19.9158" rx="5.02843" ry="4.73029" fill="black"/>
<path d="M8.2081 39.9999C3.04345 37.6711 0 31.7351 0 24.6575C0 14.9315 6.08693 2.05479 16.6468 0L16.9235 1.68949C7.70087 4.10958 3.5968 17.7625 3.5968 26.21C3.5968 32.0547 5.53356 36.4382 9.13037 38.5387L8.2081 39.9999Z" fill="black"/>
<path d="M58.0308 38.3104C67.2534 35.8903 71.3574 22.2374 71.3574 13.7899C71.3574 7.94518 69.4207 3.56163 65.8239 1.46118L66.7461 0C71.9107 2.32876 75.0003 8.26482 75.0003 15.3424C75.0003 25.0684 68.8673 37.9451 58.3074 39.9999L58.0308 38.3104Z" fill="black"/>
</svg>
