<svg width="75" height="40" viewBox="0 0 75 40" fill="none" xmlns="http://www.w3.org/2000/svg">
<path d="M66.8191 9.47338C68.2303 12.0687 68.4992 15.3893 67.6255 19.4353C66.6847 23.8141 64.7828 27.4541 61.9199 30.3556C58.5463 33.7627 54.42 35.4663 49.5411 35.4663C44.9847 35.4663 41.7253 33.9757 39.763 30.9944C38.056 28.1196 37.6729 24.4862 38.6138 20.0941C39.4605 16.128 41.1809 12.7341 43.775 9.91259C47.1083 6.29248 51.2749 4.48242 56.2748 4.48242C61.5033 4.48242 65.018 6.14607 66.8191 9.47338ZM63.4925 19.4952C64.2317 16.0481 63.9159 13.2732 62.5449 11.1703C61.1874 9.06745 58.9294 8.01602 55.7708 8.01602C52.7063 8.01602 49.9779 9.0608 47.5854 11.1503C45.2064 13.2266 43.5801 16.2944 42.7065 20.3537C42.0075 23.6011 42.2495 26.3428 43.4323 28.5788C44.615 30.8014 47.068 31.9127 50.791 31.9127C54.3259 31.9127 57.1485 30.6617 59.2587 28.1595C61.3823 25.6441 62.7936 22.756 63.4925 19.4952Z" fill="#050505"/>
<path d="M35.508 9.47338C36.9193 12.0687 37.1881 15.3893 36.3145 19.4353C35.3736 23.8141 33.4718 27.4541 30.6089 30.3556C27.2353 33.7627 23.109 35.4663 18.23 35.4663C13.6736 35.4663 10.4143 33.9757 8.45192 30.9944C6.74495 28.1196 6.36189 24.4862 7.30274 20.0941C8.1495 16.128 9.86991 12.7341 12.464 9.91259C15.7973 6.29248 19.9639 4.48242 24.9638 4.48242C30.1922 4.48242 33.707 6.14608 35.508 9.47338ZM32.1815 19.4952C32.9207 16.0481 32.6048 13.2732 31.2339 11.1703C29.8764 9.06745 27.6184 8.01602 24.4598 8.01602C21.3953 8.01602 18.6668 9.0608 16.2744 11.1503C13.8954 13.2266 12.2691 16.2944 11.3954 20.3537C10.6965 23.6011 10.9384 26.3428 12.1212 28.5788C13.304 30.8014 15.7569 31.9127 19.48 31.9127C23.0149 31.9127 25.8375 30.6617 27.9476 28.1595C30.0713 25.6441 31.4825 22.756 32.1815 19.4952Z" fill="#050505"/>
<ellipse cx="58.3926" cy="14.0694" rx="6.22271" ry="5.85063" fill="#050505"/>
<ellipse cx="29.7305" cy="14.0694" rx="6.22271" ry="5.85063" fill="#050505"/>
<path d="M8.20813 40C3.04346 37.6712 0 31.7351 0 24.6575C0 14.9315 6.08695 2.05479 16.6469 0L16.9235 1.6895C7.7009 4.10959 3.59681 17.7625 3.59681 26.21C3.59681 32.0548 5.53358 36.4383 9.13041 38.5388L8.20813 40Z" fill="#050505"/>
<path d="M58.0303 38.3105C67.2529 35.8904 71.357 22.2374 71.357 13.7899C71.357 7.9452 69.4202 3.56164 65.8234 1.46119L66.7456 0C71.9103 2.32877 74.9999 8.26484 74.9999 15.3425C74.9999 25.0685 68.8669 37.9452 58.3069 40L58.0303 38.3105Z" fill="#050505"/>
</svg>
