<svg width="75" height="40" viewBox="0 0 75 40" fill="none" xmlns="http://www.w3.org/2000/svg">
<path d="M66.8191 9.4729C68.2303 12.0682 68.4992 15.3889 67.6255 19.4349C66.6847 23.8136 64.7828 27.4537 61.9199 30.3551C58.5463 33.7622 54.42 35.4658 49.5411 35.4658C44.9847 35.4658 41.7253 33.9752 39.763 30.9939C38.056 28.1191 37.6729 24.4857 38.6138 20.0937C39.4605 16.1275 41.1809 12.7337 43.775 9.9121C47.1083 6.29199 51.2749 4.48193 56.2748 4.48193C61.5033 4.48193 65.018 6.14559 66.8191 9.4729ZM63.4925 19.4947C64.2317 16.0477 63.9159 13.2727 62.5449 11.1698C61.1874 9.06696 58.9294 8.01554 55.7708 8.01554C52.7063 8.01554 49.9779 9.06031 47.5854 11.1499C45.2064 13.2261 43.5801 16.2939 42.7065 20.3532C42.0075 23.6006 42.2495 26.3424 43.4323 28.5783C44.615 30.8009 47.068 31.9123 50.791 31.9123C54.3259 31.9123 57.1485 30.6612 59.2587 28.1591C61.3823 25.6436 62.7936 22.7555 63.4925 19.4947Z" fill="#050505"/>
<path d="M35.508 9.4729C36.9193 12.0682 37.1881 15.3889 36.3145 19.4349C35.3736 23.8136 33.4718 27.4537 30.6089 30.3551C27.2353 33.7622 23.109 35.4658 18.23 35.4658C13.6736 35.4658 10.4143 33.9752 8.45192 30.9939C6.74495 28.1191 6.36189 24.4857 7.30274 20.0937C8.1495 16.1275 9.86991 12.7337 12.464 9.9121C15.7973 6.29199 19.9639 4.48193 24.9638 4.48193C30.1922 4.48193 33.707 6.14559 35.508 9.4729ZM32.1815 19.4947C32.9207 16.0477 32.6048 13.2727 31.2339 11.1698C29.8764 9.06696 27.6184 8.01554 24.4598 8.01554C21.3953 8.01554 18.6668 9.06031 16.2744 11.1499C13.8954 13.2261 12.2691 16.2939 11.3954 20.3532C10.6965 23.6006 10.9384 26.3424 12.1212 28.5783C13.304 30.8009 15.7569 31.9123 19.48 31.9123C23.0149 31.9123 25.8375 30.6612 27.9476 28.1591C30.0713 25.6436 31.4825 22.7555 32.1815 19.4947Z" fill="#050505"/>
<path d="M8.20813 40C3.04346 37.6712 0 31.7352 0 24.6575C0 14.9315 6.08695 2.0548 16.6469 0L16.9235 1.6895C7.7009 4.10959 3.59681 17.7626 3.59681 26.21C3.59681 32.0548 5.53358 36.4384 9.13041 38.5388L8.20813 40Z" fill="#050505"/>
<path d="M58.0303 38.3105C67.2529 35.8904 71.357 22.2374 71.357 13.79C71.357 7.94521 69.4202 3.56164 65.8234 1.46119L66.7456 0C71.9103 2.32877 74.9999 8.26484 74.9999 15.3425C74.9999 25.0685 68.8669 37.9452 58.3069 40L58.0303 38.3105Z" fill="#050505"/>
<path d="M28.871 18.8151L29.0107 19.0867L28.871 18.8151C28.0036 19.2622 27.1454 19.5925 26.2835 19.8297C26.0878 19.8835 25.9221 19.7138 25.9787 19.5213C26.2338 18.6538 26.5847 17.8081 27.0503 16.9344C27.1631 16.7229 27.2172 16.4272 27.0688 16.1593C26.8327 15.7331 26.438 15.4493 25.9659 15.3666C25.4938 15.2839 25.0248 15.4164 24.6554 15.7366C24.4232 15.9378 24.3714 16.234 24.4045 16.4715C24.5419 17.4556 24.5905 18.3739 24.5351 19.2776C24.523 19.475 24.3125 19.578 24.1482 19.4624C23.4109 18.9438 22.721 18.3391 22.0415 17.6143C21.8683 17.4295 21.58 17.2747 21.2584 17.3599C20.3383 17.6037 19.7835 18.5952 20.1182 19.5109C20.2288 19.8133 20.5085 19.9615 20.7516 20.0037C21.7282 20.1731 22.6185 20.414 23.4556 20.7395C23.6407 20.8115 23.6743 21.0435 23.5146 21.166C22.7972 21.7165 22.0086 22.2038 21.118 22.6484C20.8972 22.7586 20.6728 22.9798 20.6504 23.2992C20.5931 24.119 21.1469 24.8804 21.9557 25.0221C22.0736 25.0427 22.1958 25.046 22.3152 25.0391C22.6329 25.0206 22.8736 24.8129 23.0001 24.5793C23.4729 23.7062 23.965 22.9358 24.5222 22.2397C24.647 22.0837 24.8793 22.1223 24.9446 22.3137C25.2352 23.1645 25.4435 24.0634 25.587 25.0496C25.6227 25.2946 25.7625 25.5693 26.0504 25.6932C26.1632 25.7417 26.2849 25.7803 26.4124 25.8026C27.2213 25.9443 28.0052 25.4172 28.2353 24.6276C28.325 24.3201 28.1908 24.036 28.0216 23.8575C27.339 23.1374 26.767 22.4118 26.2839 21.651C26.1764 21.4817 26.2882 21.2747 26.4873 21.2698C27.381 21.2475 28.2889 21.3218 29.2638 21.4946C29.5021 21.5368 29.8082 21.4955 30.0176 21.2602C30.6826 20.5131 30.5011 19.3791 29.6973 18.8347C29.4224 18.6485 29.098 18.6982 28.871 18.8151Z" fill="#050505" stroke="#050505" stroke-width="0.61178"/>
<path d="M44.3662 21.1411L44.5761 20.9182L44.3662 21.1411C44.585 21.347 44.8785 21.3717 45.109 21.3193C46.0909 21.0963 47.014 20.9672 47.9317 20.9427C48.1311 20.9374 48.2504 21.1394 48.1479 21.3123C47.6931 22.0796 47.1484 22.8086 46.4835 23.5377C46.3102 23.7278 46.1759 24.0347 46.2945 24.352C46.6244 25.2344 47.6624 25.6852 48.545 25.2811C48.8415 25.1454 48.9682 24.8506 48.9898 24.6019C49.0749 23.6244 49.2395 22.7258 49.4939 21.8721C49.55 21.6838 49.7761 21.6287 49.9126 21.7744C50.5338 22.437 51.0968 23.1761 51.6252 24.0209C51.7549 24.2283 51.9929 24.4268 52.3087 24.4221C53.1353 24.41 53.8598 23.799 53.9322 22.9803C53.9426 22.8622 53.9353 22.7414 53.918 22.6246C53.8714 22.3095 53.642 22.09 53.3982 21.9868C52.4817 21.5985 51.666 21.1823 50.9189 20.6962C50.7501 20.5864 50.769 20.3493 50.9569 20.2678C51.7847 19.9087 52.668 19.6258 53.6442 19.3987C53.8849 19.3426 54.1484 19.1806 54.2485 18.8826C54.2873 18.7671 54.3154 18.6437 54.3267 18.5158C54.399 17.6971 53.7926 16.9709 52.9807 16.8167C52.6705 16.7578 52.4014 16.9124 52.2373 17.0943C51.5687 17.8354 50.8847 18.4665 50.1567 19.0122C49.9967 19.1321 49.7832 19.0392 49.7608 18.8438C49.6596 17.9647 49.6544 17.0631 49.7422 16.087C49.7642 15.8431 49.6948 15.5387 49.4376 15.352C48.6357 14.7698 47.5206 15.04 47.0401 15.8763C46.871 16.1705 46.9516 16.4955 47.0913 16.7125C47.6132 17.5236 48.0185 18.3359 48.3313 19.1596C48.4031 19.3487 48.2491 19.531 48.0507 19.4922C47.152 19.316 46.2671 19.0429 45.3437 18.6582C45.1262 18.5676 44.833 18.5413 44.5813 18.7065C44.1702 18.9763 43.9153 19.3932 43.8731 19.8717C43.8308 20.3502 44.0086 20.8047 44.3662 21.1411Z" fill="#050505" stroke="#050505" stroke-width="0.61178"/>
</svg>
