<svg width="75" height="40" viewBox="0 0 75 40" fill="none" xmlns="http://www.w3.org/2000/svg">
<path d="M8.20812 40C3.04345 37.6712 0 31.7351 0 24.6575C0 14.9315 6.08694 2.05479 16.6468 0L16.9235 1.6895C7.70089 4.10959 3.59681 17.7625 3.59681 26.21C3.59681 32.0548 5.53357 36.4383 9.13039 38.5388L8.20812 40Z" fill="#050505"/>
<path d="M58.0303 38.3105C67.2529 35.8904 71.3569 22.2374 71.3569 13.7899C71.3569 7.9452 69.4202 3.56164 65.8234 1.46119L66.7456 0C71.9103 2.32876 74.9999 8.26483 74.9999 15.3425C74.9999 25.0685 68.8668 37.9452 58.3069 40L58.0303 38.3105Z" fill="#050505"/>
<path d="M36.6058 2.73514L39.8897 2.76573L39.6979 22.9534L36.4141 22.9229L36.6058 2.73514ZM44.9913 2.81324L48.3338 2.84437L48.142 23.0321L44.7996 23.001L44.9913 2.81324Z" fill="#050505"/>
<path d="M23.662 33.9366L52.4809 23.1521L52.4523 26.1715L23.6333 36.9561L23.662 33.9366Z" fill="#050505"/>
</svg>
