<svg width="75" height="40" viewBox="0 0 75 40" fill="none" xmlns="http://www.w3.org/2000/svg">
<path d="M8.20812 40C3.04345 37.6712 0 31.7352 0 24.6575C0 14.9315 6.08694 2.0548 16.6468 0L16.9235 1.6895C7.70089 4.10959 3.59681 17.7626 3.59681 26.21C3.59681 32.0548 5.53357 36.4384 9.13039 38.5388L8.20812 40Z" fill="#050505"/>
<path d="M58.0303 38.3105C67.2529 35.8904 71.3569 22.2374 71.3569 13.79C71.3569 7.94521 69.4202 3.56164 65.8234 1.46119L66.7456 0C71.9103 2.32877 74.9999 8.26484 74.9999 15.3425C74.9999 25.0685 68.8668 37.9452 58.3069 40L58.0303 38.3105Z" fill="#050505"/>
<path d="M24.1832 34.7159L51.2145 29.2651L50.753 31.93L23.7217 37.3808L24.1832 34.7159Z" fill="#050505"/>
<path d="M14.2541 13.9121L14.2541 11.0004L32.5098 11.0004L32.5098 13.9121L14.2541 13.9121Z" fill="#050505"/>
<path d="M46.1847 13.9121L46.1847 11.0004L64.4404 11.0004L64.4404 13.9121L46.1847 13.9121Z" fill="#050505"/>
<path d="M42.5606 11.0277L39.5677 10.9998L39.396 29.0762L42.3889 29.104L42.5606 11.0277Z" fill="#050505"/>
</svg>
