<svg width="70" height="70" viewBox="0 0 70 70" fill="none" xmlns="http://www.w3.org/2000/svg">
<rect x="0.5" y="0.5" width="69" height="69" rx="34.5" fill="white"/>
<rect x="0.5" y="0.5" width="69" height="69" rx="34.5" stroke="#050505"/>
<g clip-path="url(#clip0_3037_2647)">
<path fill-rule="evenodd" clip-rule="evenodd" d="M57.6686 34.9998C57.6686 47.5194 47.5194 57.6686 34.9998 57.6686C22.4802 57.6686 12.3311 47.5194 12.3311 34.9998C12.3311 22.4802 22.4802 12.3311 34.9998 12.3311C47.5194 12.3311 57.6686 22.4802 57.6686 34.9998ZM35.8122 29.0661C33.6073 29.9832 29.2006 31.8813 22.5922 34.7605C21.5191 35.1872 20.957 35.6047 20.9058 36.0129C20.8193 36.7028 21.6833 36.9744 22.8597 37.3444C23.0197 37.3947 23.1855 37.4468 23.3555 37.5021C24.5129 37.8783 26.0699 38.3185 26.8793 38.336C27.6135 38.3518 28.4329 38.0491 29.3376 37.4279C35.512 33.26 38.6993 31.1533 38.8994 31.1079C39.0406 31.0759 39.2362 31.0356 39.3688 31.1534C39.5013 31.2712 39.4883 31.4943 39.4742 31.5542C39.3887 31.919 35.9975 35.0718 34.2425 36.7033C33.6954 37.212 33.3073 37.5727 33.228 37.6551C33.0503 37.8397 32.8692 38.0143 32.6951 38.1821C31.6198 39.2187 30.8135 39.996 32.7398 41.2654C33.6655 41.8754 34.4062 42.3799 35.1452 42.8831C35.9522 43.4327 36.7572 43.9809 37.7987 44.6636C38.064 44.8376 38.3174 45.0182 38.5643 45.1942C39.5035 45.8638 40.3473 46.4653 41.3897 46.3694C41.9955 46.3136 42.6212 45.7441 42.9389 44.0453C43.6899 40.0307 45.166 31.3321 45.5072 27.7476C45.5371 27.4336 45.4995 27.0317 45.4693 26.8553C45.4391 26.6788 45.376 26.4274 45.1467 26.2414C44.8751 26.021 44.4558 25.9745 44.2682 25.9778C43.4156 25.9928 42.1075 26.4477 35.8122 29.0661Z" fill="#050505"/>
</g>
<defs>
<clipPath id="clip0_3037_2647">
<rect width="45.3375" height="45.3375" fill="white" transform="translate(12.3311 12.3311)"/>
</clipPath>
</defs>
</svg>
