<svg width="70" height="70" viewBox="0 0 70 70" fill="none" xmlns="http://www.w3.org/2000/svg">
<rect x="0.5" y="0.5" width="69" height="69" rx="34.5" fill="white"/>
<rect x="0.5" y="0.5" width="69" height="69" rx="34.5" stroke="#050505"/>
<g clip-path="url(#clip0_3037_2645)">
<path fill-rule="evenodd" clip-rule="evenodd" d="M15.518 15.518C12.3311 18.705 12.3311 23.8343 12.3311 34.0931V35.9066C12.3311 46.1653 12.3311 51.2946 15.518 54.4816C18.705 57.6686 23.8343 57.6686 34.0931 57.6686H35.9066C46.1653 57.6686 51.2946 57.6686 54.4816 54.4816C57.6686 51.2946 57.6686 46.1653 57.6686 35.9066V34.0931C57.6686 23.8343 57.6686 18.705 54.4816 15.518C51.2946 12.3311 46.1653 12.3311 35.9066 12.3311H34.0931C23.8343 12.3311 18.705 12.3311 15.518 15.518ZM19.9819 26.1213C20.2275 37.9091 26.1213 44.993 36.4545 44.993H37.0402V38.2491C40.8372 38.6269 43.7084 41.4038 44.8607 44.993H50.2257C48.7523 39.6281 44.8795 36.6623 42.4615 35.5288C44.8795 34.1309 48.2798 30.7306 49.0921 26.1213H44.2182C43.1604 29.8617 40.0249 33.262 37.0402 33.5831V26.1213H32.1662V39.1936C29.1437 38.438 25.3279 34.7732 25.1579 26.1213H19.9819Z" fill="#050505"/>
</g>
<defs>
<clipPath id="clip0_3037_2645">
<rect width="45.3375" height="45.3375" fill="white" transform="translate(12.3311 12.3311)"/>
</clipPath>
</defs>
</svg>
