<svg width="1032" height="356" viewBox="0 0 1032 356" fill="none" xmlns="http://www.w3.org/2000/svg">
<path d="M128.516 214.905L155.469 88.1467L38.8672 214.905H128.516ZM108.203 313.928L122.656 245.569H0L7.22656 211.194L173.242 33.4592H202.93L164.258 214.905H205.469L199.023 245.569H157.812L143.359 313.928H108.203Z" fill="black"/>
<path d="M748.999 76.094C760.226 96.9428 762.364 123.619 755.414 156.121C747.93 191.297 732.801 220.539 710.028 243.847C683.192 271.218 650.368 284.903 611.557 284.903C575.312 284.903 549.385 272.929 533.775 248.979C520.197 225.885 517.149 196.697 524.634 161.414C531.369 129.553 545.055 102.289 565.69 79.6222C592.205 50.5407 625.35 36 665.123 36C706.714 36 734.672 49.3647 748.999 76.094ZM722.537 156.603C728.418 128.911 725.905 106.619 715 89.7259C704.201 72.833 686.239 64.3865 661.113 64.3865C636.736 64.3865 615.032 72.7795 596.001 89.5655C577.076 106.245 564.139 130.889 557.19 163.499C551.63 189.587 553.555 211.612 562.963 229.574C572.372 247.429 591.884 256.356 621.501 256.356C649.62 256.356 672.072 246.306 688.858 226.206C705.751 205.998 716.978 182.797 722.537 156.603Z" fill="black"/>
<path d="M499.929 76.094C511.155 96.9428 513.294 123.619 506.344 156.121C498.86 191.297 483.731 220.539 460.958 243.847C434.122 271.218 401.298 284.903 362.487 284.903C326.242 284.903 300.315 272.929 284.705 248.979C271.126 225.885 268.079 196.697 275.563 161.414C282.299 129.553 295.984 102.289 316.619 79.6222C343.135 50.5407 376.279 36 416.052 36C457.643 36 485.602 49.3647 499.929 76.094ZM473.467 156.603C479.347 128.911 476.835 106.619 465.929 89.7259C455.131 72.833 437.169 64.3865 412.043 64.3865C387.666 64.3865 365.962 72.7795 346.931 89.5655C328.006 106.245 315.069 130.889 308.12 163.499C302.56 189.587 304.484 211.612 313.893 229.574C323.302 247.429 342.814 256.356 372.43 256.356C400.549 256.356 423.002 246.306 439.788 226.206C456.681 205.998 467.907 182.797 473.467 156.603Z" fill="black"/>
<path d="M282.762 321.332C241.679 302.625 217.469 254.938 217.469 198.082C217.469 119.949 265.889 16.5068 349.89 0L352.091 13.5723C278.727 33.0136 246.08 142.692 246.08 210.553C246.08 257.506 261.487 292.721 290.099 309.594L282.762 321.332Z" fill="black"/>
<path d="M679.09 307.76C752.453 288.319 785.1 178.64 785.1 110.779C785.1 63.8263 769.694 28.6118 741.082 11.7382L748.418 0C789.502 18.7077 814.079 66.394 814.079 123.251C814.079 201.383 765.292 304.826 681.291 321.332L679.09 307.76Z" fill="black"/>
<path d="M584.217 235.001H560.354L628.564 160.128L594.658 88.9336H619.417L644.772 144.815L693.693 88.9336H717.259L653.124 160.128L688.622 235.001H664.062L637.414 174.943L584.217 235.001Z" fill="black"/>
<path d="M336.333 233.067H312.469L380.68 158.194L346.773 87H371.532L396.887 142.881L445.808 87H469.374L405.24 158.194L440.737 233.067H416.177L389.529 173.009L336.333 233.067Z" fill="black"/>
<line x1="405.693" y1="313.038" x2="559.693" y2="298.038" stroke="black" stroke-width="16"/>
<path d="M502.469 305.5V305.5C504.061 324.611 512.948 347.823 532.12 347.383C538.436 347.238 543.293 343.469 543.969 333V301" stroke="black" stroke-width="16" stroke-linejoin="round"/>
<path d="M954.595 214.905L981.548 88.1467L864.946 214.905H954.595ZM934.282 313.928L948.735 245.569H826.079L833.306 211.194L999.321 33.4592H1029.01L990.337 214.905H1031.55L1025.1 245.569H983.892L969.438 313.928H934.282Z" fill="black"/>
</svg>
