<svg width="299" height="141" viewBox="0 0 299 141" fill="none" xmlns="http://www.w3.org/2000/svg">
<rect x="0.5" y="0.5" width="139.795" height="139.795" rx="12.7749" fill="white"/>
<rect x="0.5" y="0.5" width="139.795" height="139.795" rx="12.7749" stroke="black"/>
<path d="M50.1588 112.634C43.713 112.634 38.3088 106.988 38.5932 100.156C38.6103 99.7467 38.8297 99.3752 39.1628 99.1365C48.9128 92.1477 56.9754 84.7709 63.8722 76.4827C64.5196 75.7047 64.1382 74.5266 63.1576 74.2764C52.6775 71.6024 41.7741 70.4318 29.7512 70.5898C29.3437 70.5952 28.9475 70.4268 28.6904 70.1105C23.2239 63.3842 26.694 53.4937 34.8927 51.1904C35.2957 51.0772 35.7272 51.1765 36.0601 51.4302C45.6686 58.7535 55.1041 64.1905 65.2386 68.2664C66.1747 68.6429 67.1772 67.924 67.1186 66.9167C66.4881 56.0753 64.1681 45.5448 60.3329 34.2739C60.2045 33.8965 60.237 33.4788 60.4456 33.139C62.6933 29.4772 66.3062 27.4531 70.3225 27.4531C74.3387 27.4531 77.9516 29.4772 80.1994 33.139C80.408 33.4788 80.4404 33.8965 80.3121 34.274C76.4854 45.5394 74.355 56.0651 73.7465 66.9009C73.6897 67.9124 74.6999 68.6316 75.6376 68.248C85.5939 64.1757 95.1855 58.7464 104.586 51.4381C104.918 51.1796 105.352 51.0766 105.758 51.1876C114.172 53.4877 117.646 63.3997 111.954 70.1292C111.696 70.4338 111.307 70.5953 110.908 70.59C98.887 70.4309 88.169 71.6012 77.7088 74.2758C76.7283 74.5265 76.3469 75.7047 76.9943 76.4827C83.8912 84.7709 91.9537 92.1477 101.704 99.1365C102.037 99.3752 102.256 99.7467 102.273 100.156C102.558 106.988 97.1536 112.634 90.7077 112.634C89.1577 112.634 87.6076 112.294 86.2057 111.762C85.8249 111.618 85.5401 111.298 85.4145 110.911C81.7081 99.4745 77.2381 89.5402 71.4826 80.4092C70.9424 79.5522 69.7026 79.5523 69.164 80.4103C63.4387 89.5309 59.161 99.453 55.4641 110.873C55.3317 111.282 55.0212 111.613 54.6146 111.753C53.0585 112.29 51.5229 112.634 50.1588 112.634Z" fill="#FF5C39"/>
<rect x="158.295" y="0.5" width="139.795" height="139.795" rx="12.7749" fill="#FCCACA"/>
<rect x="158.295" y="0.5" width="139.795" height="139.795" rx="12.7749" stroke="black"/>
<path d="M207.954 112.634C201.508 112.634 196.104 106.988 196.388 100.156C196.405 99.7467 196.625 99.3752 196.958 99.1365C206.708 92.1477 214.77 84.7709 221.667 76.4827C222.315 75.7047 221.933 74.5266 220.952 74.2764C210.472 71.6024 199.569 70.4318 187.546 70.5898C187.139 70.5952 186.742 70.4268 186.485 70.1105C181.019 63.3842 184.489 53.4937 192.688 51.1904C193.091 51.0772 193.522 51.1765 193.855 51.4302C203.464 58.7535 212.899 64.1905 223.034 68.2664C223.97 68.6429 224.972 67.924 224.914 66.9167C224.283 56.0753 221.963 45.5448 218.128 34.2739C217.999 33.8965 218.032 33.4788 218.24 33.139C220.488 29.4772 224.101 27.4531 228.117 27.4531C232.134 27.4531 235.747 29.4772 237.994 33.139C238.203 33.4788 238.235 33.8965 238.107 34.274C234.28 45.5394 232.15 56.0651 231.541 66.9009C231.485 67.9124 232.495 68.6316 233.433 68.248C243.389 64.1757 252.98 58.7464 262.38 51.4381C262.713 51.1796 263.146 51.0766 263.553 51.1876C271.967 53.4877 275.441 63.3997 269.749 70.1292C269.491 70.4338 269.102 70.5953 268.703 70.59C256.682 70.4309 245.964 71.6012 235.504 74.2758C234.523 74.5265 234.142 75.7047 234.789 76.4827C241.686 84.7709 249.749 92.1477 259.499 99.1365C259.832 99.3752 260.051 99.7467 260.068 100.156C260.353 106.988 254.948 112.634 248.503 112.634C246.953 112.634 245.403 112.294 244.001 111.762C243.62 111.618 243.335 111.298 243.209 110.911C239.503 99.4745 235.033 89.5402 229.278 80.4092C228.737 79.5522 227.498 79.5523 226.959 80.4103C221.234 89.5309 216.956 99.453 213.259 110.873C213.127 111.282 212.816 111.613 212.41 111.753C210.853 112.29 209.318 112.634 207.954 112.634Z" fill="#050505"/>
</svg>
