<svg width="299" height="141" viewBox="0 0 299 141" fill="none" xmlns="http://www.w3.org/2000/svg">
<rect x="0.5" y="0.5" width="139.795" height="139.795" rx="12.7749" fill="#050505"/>
<rect x="0.5" y="0.5" width="139.795" height="139.795" rx="12.7749" stroke="black"/>
<path d="M38.2415 100.141C37.9492 107.165 43.5047 112.986 50.1588 112.986C51.5771 112.986 53.154 112.629 54.7294 112.086C55.2464 111.907 55.6344 111.49 55.799 110.981C59.4897 99.5804 63.7564 89.6867 69.4621 80.5975C69.8627 79.9594 70.7826 79.9587 71.1849 80.5969C76.9221 89.699 81.3806 99.6058 85.0797 111.019C85.2352 111.499 85.5917 111.906 86.081 112.091C87.5151 112.635 89.1076 112.986 90.7077 112.986C97.3619 112.986 102.917 107.165 102.625 100.141C102.603 99.6133 102.321 99.1458 101.909 98.8504C92.1801 91.8769 84.1404 84.5201 77.2649 76.2575C76.7829 75.6783 77.0661 74.8035 77.796 74.6168C88.2225 71.9508 98.9092 70.7832 110.904 70.942C111.398 70.9485 111.891 70.7486 112.223 70.3565C118.094 63.4158 114.494 53.2108 105.851 50.8481C105.328 50.7051 104.781 50.8401 104.37 51.1602C94.9951 58.4485 85.4315 63.8618 75.5043 67.9222C74.8057 68.208 74.0557 67.6735 74.0979 66.9206C74.7044 56.1199 76.8279 45.6257 80.6454 34.3872C80.8042 33.9198 80.7676 33.3918 80.4994 32.9549C78.1902 29.1929 74.4659 27.1011 70.3225 27.1011C66.179 27.1011 62.4548 29.1929 60.1456 32.9549C59.8774 33.3918 59.8406 33.9197 59.9997 34.3873C63.827 45.6352 66.139 56.1341 66.7672 66.9371C66.8108 67.6861 66.0672 68.2203 65.3699 67.9398C55.2675 63.8768 45.8593 58.4563 36.2735 51.1503C35.8613 50.8361 35.3169 50.7057 34.7975 50.8516C26.3688 53.2195 22.7821 63.3987 28.4173 70.3325C28.7484 70.7399 29.251 70.9484 29.7559 70.9418C41.7524 70.7841 52.6245 71.9522 63.0706 74.6175C63.8003 74.8037 64.0837 75.6782 63.6017 76.2575C56.7262 84.5201 48.6864 91.8769 38.9577 98.8504C38.5456 99.1458 38.2635 99.6133 38.2415 100.141Z" fill="white" stroke="black" stroke-width="0.703974"/>
<rect x="158.295" y="0.5" width="139.795" height="139.795" rx="12.7749" fill="#FF5C39"/>
<rect x="158.295" y="0.5" width="139.795" height="139.795" rx="12.7749" stroke="black"/>
<path d="M207.954 112.634C201.508 112.634 196.104 106.988 196.388 100.156C196.405 99.7467 196.625 99.3752 196.958 99.1365C206.708 92.1477 214.77 84.7709 221.667 76.4827C222.315 75.7047 221.933 74.5266 220.952 74.2764C210.472 71.6024 199.569 70.4318 187.546 70.5898C187.139 70.5952 186.742 70.4268 186.485 70.1105C181.019 63.3842 184.489 53.4937 192.688 51.1904C193.091 51.0772 193.522 51.1765 193.855 51.4302C203.464 58.7535 212.899 64.1905 223.034 68.2664C223.97 68.6429 224.972 67.924 224.914 66.9167C224.283 56.0753 221.963 45.5448 218.128 34.2739C217.999 33.8965 218.032 33.4788 218.24 33.139C220.488 29.4772 224.101 27.4531 228.117 27.4531C232.134 27.4531 235.747 29.4772 237.994 33.139C238.203 33.4788 238.235 33.8965 238.107 34.274C234.28 45.5394 232.15 56.0651 231.541 66.9009C231.485 67.9124 232.495 68.6316 233.433 68.248C243.389 64.1757 252.98 58.7464 262.38 51.4381C262.713 51.1796 263.146 51.0766 263.553 51.1876C271.967 53.4877 275.441 63.3997 269.749 70.1292C269.491 70.4338 269.102 70.5953 268.703 70.59C256.682 70.4309 245.964 71.6012 235.504 74.2758C234.523 74.5265 234.142 75.7047 234.789 76.4827C241.686 84.7709 249.749 92.1477 259.499 99.1365C259.832 99.3752 260.051 99.7467 260.068 100.156C260.353 106.988 254.948 112.634 248.503 112.634C246.953 112.634 245.403 112.294 244.001 111.762C243.62 111.618 243.335 111.298 243.209 110.911C239.503 99.4745 235.033 89.5402 229.278 80.4092C228.737 79.5522 227.498 79.5523 226.959 80.4103C221.234 89.5309 216.956 99.453 213.259 110.873C213.127 111.282 212.816 111.613 212.41 111.753C210.853 112.29 209.318 112.634 207.954 112.634Z" fill="white"/>
</svg>
