<svg width="141" height="141" viewBox="0 0 141 141" fill="none" xmlns="http://www.w3.org/2000/svg">
<rect x="0.5" y="140.293" width="139.795" height="139.795" rx="12.7749" transform="rotate(-90 0.5 140.293)" fill="white"/>
<rect x="0.5" y="140.293" width="139.795" height="139.795" rx="12.7749" transform="rotate(-90 0.5 140.293)" stroke="black"/>
<path d="M112.636 90.6342C112.636 97.08 106.99 102.484 100.158 102.2C99.7487 102.183 99.3772 101.963 99.1385 101.63C92.1496 91.8802 84.7729 83.8176 76.4846 76.9207C75.7067 76.2734 74.5286 76.6547 74.2783 77.6354C71.6044 88.1155 70.4338 99.0188 70.5918 111.042C70.5972 111.449 70.4287 111.845 70.1125 112.103C63.3861 117.569 53.4957 114.099 51.1924 105.9C51.0792 105.497 51.1785 105.066 51.4322 104.733C58.7555 95.1243 64.1925 85.6888 68.2683 75.5544C68.6448 74.6182 67.926 73.6158 66.9187 73.6744C56.0773 74.3048 45.5468 76.6249 34.2758 80.46C33.8984 80.5884 33.4807 80.556 33.141 80.3474C29.4791 78.0996 27.4551 74.4867 27.4551 70.4705C27.4551 66.4543 29.4791 62.8413 33.141 60.5936C33.4807 60.385 33.8985 60.3526 34.2759 60.4808C45.5413 64.3075 56.0671 66.438 66.9028 67.0465C67.9143 67.1033 68.6335 66.0931 68.25 65.1554C64.1776 55.199 58.7484 45.6075 51.44 36.2074C51.1815 35.8749 51.0785 35.4414 51.1896 35.0352C53.4897 26.6206 63.4017 23.1469 70.1311 28.8391C70.4357 29.0967 70.5973 29.4857 70.592 29.8846C70.4328 41.9059 71.6031 52.6239 74.2778 63.0841C74.5285 64.0647 75.7067 64.446 76.4846 63.7987C84.7729 56.9018 92.1496 48.8392 99.1385 39.0892C99.3772 38.7562 99.7487 38.5367 100.158 38.5196C106.99 38.2353 112.636 43.6394 112.636 50.0852C112.636 51.6353 112.296 53.1853 111.764 54.5872C111.62 54.9681 111.3 55.2529 110.913 55.3785C99.4765 59.0849 89.5422 63.5549 80.4112 69.3103C79.5541 69.8506 79.5542 71.0903 80.4123 71.629C89.5329 77.3543 99.455 81.632 110.875 85.3288C111.284 85.4613 111.615 85.7717 111.755 86.1783C112.292 87.7345 112.636 89.27 112.636 90.6342Z" fill="#D9D9D9"/>
</svg>
