<svg width="142" height="141" viewBox="0 0 142 141" fill="none" xmlns="http://www.w3.org/2000/svg">
<rect x="1.29492" y="140.293" width="139.795" height="139.795" rx="12.7749" transform="rotate(-90 1.29492 140.293)" fill="#D9D9D9"/>
<rect x="1.29492" y="140.293" width="139.795" height="139.795" rx="12.7749" transform="rotate(-90 1.29492 140.293)" stroke="black"/>
<path d="M113.431 90.6342C113.431 97.08 107.784 102.484 100.953 102.2C100.544 102.183 100.172 101.963 99.9334 101.63C92.9445 91.8802 85.5678 83.8176 77.2795 76.9207C76.5016 76.2734 75.3235 76.6547 75.0733 77.6354C72.3993 88.1155 71.2287 99.0188 71.3867 111.042C71.3921 111.449 71.2237 111.845 70.9074 112.103C64.1811 117.569 54.2906 114.099 51.9873 105.9C51.8741 105.497 51.9734 105.066 52.2271 104.733C59.5504 95.1243 64.9874 85.6888 69.0632 75.5544C69.4397 74.6182 68.7209 73.6158 67.7136 73.6744C56.8722 74.3048 46.3417 76.6249 35.0708 80.46C34.6934 80.5884 34.2757 80.556 33.9359 80.3474C30.274 78.0996 28.25 74.4867 28.25 70.4705C28.25 66.4543 30.274 62.8413 33.9359 60.5936C34.2756 60.385 34.6934 60.3526 35.0709 60.4808C46.3363 64.3075 56.862 66.438 67.6977 67.0465C68.7093 67.1033 69.4284 66.0931 69.0449 65.1554C64.9725 55.199 59.5433 45.6075 52.235 36.2074C51.9765 35.8749 51.8734 35.4414 51.9845 35.0352C54.2846 26.6206 64.1966 23.1469 70.9261 28.8391C71.2307 29.0967 71.3922 29.4857 71.3869 29.8846C71.2278 41.9059 72.3981 52.6239 75.0727 63.0841C75.3234 64.0647 76.5016 64.446 77.2795 63.7987C85.5678 56.9018 92.9445 48.8392 99.9334 39.0892C100.172 38.7562 100.544 38.5367 100.953 38.5196C107.784 38.2353 113.431 43.6394 113.431 50.0852C113.431 51.6353 113.091 53.1853 112.559 54.5872C112.415 54.9681 112.095 55.2529 111.708 55.3785C100.271 59.0849 90.3371 63.5549 81.2061 69.3103C80.3491 69.8506 80.3492 71.0903 81.2072 71.629C90.3278 77.3543 100.25 81.632 111.67 85.3288C112.079 85.4613 112.41 85.7717 112.55 86.1783C113.087 87.7345 113.431 89.27 113.431 90.6342Z" fill="#FCCACA"/>
</svg>
