<svg width="81" height="23" viewBox="0 0 81 23" fill="none" xmlns="http://www.w3.org/2000/svg">
<path d="M71.457 21.8074C76.3549 20.3572 78.512 12.4073 78.512 7.7202C78.512 4.53505 77.5477 2.15266 75.7205 1.01326L76.2534 0.132812C79.2226 1.45348 80.999 4.87169 80.999 8.96319C80.999 14.4271 77.5223 21.6779 71.6093 22.8173L71.457 21.8074Z" fill="white"/>
<path d="M62.9475 16.288H67.4139C69.0381 16.288 70.0024 15.2262 70.0024 13.8279C70.0024 12.326 69.0381 11.6527 67.4647 11.6527H62.9475V16.288ZM67.1855 4.99752H62.9475V8.72647H67.3886C68.7843 8.72647 69.5203 8.07908 69.5203 6.86199C69.5203 5.54132 68.8351 4.99752 67.1855 4.99752ZM67.1348 19.2142H59.5469V2.01953H67.8454C71.1444 2.01953 72.9209 3.83222 72.9209 6.70662C72.9209 8.18267 72.0327 9.42565 70.8653 9.91767C72.2864 10.4615 73.4284 11.6268 73.4284 14.0868C73.4284 17.2202 71.3728 19.2142 67.1348 19.2142Z" fill="white"/>
<path d="M50.4392 16.7276C52.977 16.7276 55.0072 14.9149 55.0072 10.8493C55.0072 6.7837 53.383 4.63437 50.4392 4.63437C47.47 4.63437 45.8205 6.7837 45.8205 10.8493C45.8205 14.9149 47.5208 16.7276 50.4392 16.7276ZM50.4392 19.8091C45.2622 19.8091 42.3438 16.5722 42.3438 10.7716C42.3438 4.94512 45.2622 1.44922 50.4392 1.44922C55.6162 1.44922 58.4839 4.94512 58.4839 10.8493C58.4839 16.7535 55.6162 19.8091 50.4392 19.8091Z" fill="white"/>
<path d="M33.4392 16.7276C35.977 16.7276 38.0072 14.9149 38.0072 10.8493C38.0072 6.7837 36.383 4.63437 33.4392 4.63437C30.47 4.63437 28.8205 6.7837 28.8205 10.8493C28.8205 14.9149 30.5208 16.7276 33.4392 16.7276ZM33.4392 19.8091C28.2622 19.8091 25.3438 16.5722 25.3438 10.7716C25.3438 4.94512 28.2622 1.44922 33.4392 1.44922C38.6162 1.44922 41.4839 4.94512 41.4839 10.8493C41.4839 16.7535 38.6162 19.8091 33.4392 19.8091Z" fill="white"/>
<path d="M24.2801 19.2142H21.0317L13.8245 7.66476V19.2142H10.5508V2.01953H14.2813L20.981 13.0769V2.01953H24.2801V19.2142Z" fill="white"/>
<path d="M4.74561 22.8173C1.77643 21.4966 0 18.0784 0 13.9869C0 8.52296 3.47673 1.27222 9.38972 0.132812L9.54198 1.14274C4.6441 2.59289 2.48701 10.5428 2.48701 15.2299C2.48701 18.4151 3.45136 20.7974 5.27854 21.9368L4.74561 22.8173Z" fill="white"/>
</svg>
