<svg width="115" height="39" viewBox="0 0 115 39" fill="none" xmlns="http://www.w3.org/2000/svg">
<path d="M82.2468 24.9095C85.8239 24.9095 88.6856 22.4055 88.6856 16.7895C88.6856 11.1735 86.3962 8.2045 82.2468 8.2045C78.0616 8.2045 75.7365 11.1735 75.7365 16.7895C75.7365 22.4055 78.1332 24.9095 82.2468 24.9095ZM82.2468 29.1662C74.9496 29.1662 70.8359 24.6948 70.8359 16.6822C70.8359 8.63375 74.9496 3.80469 82.2468 3.80469C89.5441 3.80469 93.5862 8.63375 93.5862 16.7895C93.5862 24.9452 89.5441 29.1662 82.2468 29.1662Z" fill="#FF5C39"/>
<path d="M33.657 24.9759C37.2341 24.9759 40.0957 22.4719 40.0957 16.8559C40.0957 11.2399 37.8064 8.27091 33.657 8.27091C29.4718 8.27091 27.1467 11.2399 27.1467 16.8559C27.1467 22.4719 29.5433 24.9759 33.657 24.9759ZM33.657 29.2326C26.3597 29.2326 22.2461 24.7613 22.2461 16.7486C22.2461 8.70016 26.3597 3.87109 33.657 3.87109C40.9542 3.87109 44.9963 8.70016 44.9963 16.8559C44.9963 25.0117 40.9542 29.2326 33.657 29.2326Z" fill="#FF5C39"/>
<path d="M100.598 31.9379C108.211 29.9204 111.599 18.5384 111.599 11.4961C111.599 6.62359 110 2.9692 107.031 1.21813L107.792 0C112.056 1.9414 114.606 6.89006 114.606 12.7904C114.606 20.8986 109.543 31.6334 100.826 33.3463L100.598 31.9379Z" fill="#FF5C39"/>
<path d="M6.77586 33.3463C2.5124 31.405 0 26.4563 0 20.556C0 12.4478 5.02479 1.713 13.742 0L13.9704 1.40846C6.35712 3.426 2.9692 14.8079 2.9692 21.8502C2.9692 26.7228 4.56799 30.3772 7.53719 32.1282L6.77586 33.3463Z" fill="#FF5C39"/>
<path d="M47.4069 27.6336C49.8176 31.7262 56.9784 31.8411 61.0679 30.695C63.8973 29.9019 65.7592 28.3788 66.2928 26.3696L67.1241 26.6134C66.6906 29.4052 64.232 31.6916 60.8057 32.6519C56.0974 33.9715 49.0397 32.7787 46.6262 27.9954L47.4069 27.6336Z" fill="#FF5C39"/>
</svg>
