<svg width="93" height="50" viewBox="0 0 93 50" fill="none" xmlns="http://www.w3.org/2000/svg">
<path d="M10.1598 50C3.76711 47.089 0 39.6689 0 30.8219C0 18.6644 7.53426 2.56849 20.605 0L20.9475 2.11187C9.53197 5.13699 4.45204 22.2032 4.45204 32.7626C4.45204 40.0685 6.84932 45.5479 11.3014 48.1735L10.1598 50Z" fill="black"/>
<path d="M71.8301 47.8881C83.2456 44.863 88.3255 27.7968 88.3255 17.2374C88.3255 9.93151 85.9283 4.45205 81.4762 1.82648L82.6177 0C89.0104 2.91096 92.8347 10.3311 92.8347 19.1781C92.8347 31.3356 85.2433 47.4315 72.1725 50L71.8301 47.8881Z" fill="black"/>
<path d="M32.503 12.294L40.8963 29.6758L37.5904 29.6758L30.9419 15.476L24.3118 29.6758L21.0059 29.6758L29.4175 12.294L32.503 12.294Z" fill="black"/>
<path d="M65.0595 12.294L56.6662 29.6758L59.9721 29.6758L66.6206 15.476L73.2507 29.6758L76.5566 29.6758L68.145 12.294L65.0595 12.294Z" fill="black"/>
<path d="M43.57 33.2617L44.1891 35.5722C43.0107 35.7299 42.1931 35.9885 41.7362 36.348C40.9113 36.973 40.6998 38.0351 41.1015 39.5345C41.4133 40.6979 41.9924 41.614 42.839 42.2829C43.6857 42.9517 44.6291 43.261 45.6693 43.2105C46.95 43.1396 47.7464 42.7199 48.0586 41.9513C48.3707 41.1827 48.3501 40.1388 47.9966 38.8197C47.9571 38.6723 47.9124 38.5218 47.8625 38.3683C47.823 38.2208 47.7783 38.0703 47.7283 37.9169L49.7944 37.8111C49.8291 38.0389 49.8632 38.2318 49.8967 38.3896C49.9302 38.5475 49.9711 38.7166 50.0194 38.8968C50.2412 39.7243 50.5621 40.3979 50.9824 40.9176C51.7156 41.8188 52.7062 42.2383 53.9541 42.1762C54.8812 42.1297 55.5122 41.7806 55.8469 41.1289C56.1816 40.4772 56.238 39.7376 56.0163 38.9101C55.6211 37.4353 54.8288 36.4446 53.6393 35.9379C52.9843 35.6567 52.1231 35.5231 51.0555 35.5369L50.4693 33.3494C51.8548 33.2767 53.103 33.4779 54.2139 33.953C56.1862 34.7593 57.4764 36.2972 58.0845 38.5667C58.5653 40.361 58.5129 41.7713 57.9273 42.7976C57.3521 43.8298 56.2638 44.3893 54.6625 44.4759C53.5173 44.5281 52.5122 44.2837 51.6472 43.7427C51.1086 43.404 50.6371 42.9552 50.2326 42.3962C50.2113 43.3327 49.8855 44.083 49.2551 44.6471C48.6329 45.209 47.7678 45.5198 46.6598 45.5796C44.8836 45.6691 43.2881 45.1878 41.8733 44.1355C40.4608 43.0914 39.4823 41.5534 38.9378 39.5215C38.3802 37.4404 38.5775 35.8991 39.5298 34.8975C40.4924 33.9019 41.8391 33.3567 43.57 33.2617Z" fill="black"/>
<path d="M9.52537 17.2977L12.7126 17.6411L11.3068 14.4822L12.8332 14.0816L14.1677 17.2339L16.6558 15.6301L17.8155 17.1191L15.2222 18.6633L18.2017 20.795L17.3371 22.1152L14.4496 19.9174L13.7583 22.8868L12.1144 22.1693L12.9109 19.2594L9.6957 18.9189L9.52537 17.2977Z" fill="black"/>
</svg>
