<svg width="93" height="50" viewBox="0 0 93 50" fill="none" xmlns="http://www.w3.org/2000/svg">
<path d="M10.1598 50C3.76711 47.089 0 39.6689 0 30.8219C0 18.6644 7.53426 2.56849 20.605 0L20.9475 2.11187C9.53197 5.13699 4.45204 22.2032 4.45204 32.7626C4.45204 40.0685 6.84932 45.5479 11.3014 48.1735L10.1598 50Z" fill="black"/>
<path d="M71.8301 47.8881C83.2456 44.863 88.3255 27.7968 88.3255 17.2374C88.3255 9.93151 85.9283 4.45205 81.4762 1.82648L82.6177 0C89.0104 2.91096 92.8347 10.3311 92.8347 19.1781C92.8347 31.3356 85.2433 47.4315 72.1725 50L71.8301 47.8881Z" fill="black"/>
<path d="M26.8681 45.247L60.3268 38.4336L59.7556 41.7647L26.2969 48.5781L26.8681 45.247Z" fill="black"/>
<path d="M53.5538 13.7284L49.8493 13.6936L49.6367 36.2891L53.3412 36.3239L53.5538 13.7284Z" fill="black"/>
<path d="M29.4104 25.0496C29.4104 28.3152 26.589 30.9625 23.1085 30.9625C19.6281 30.9625 16.8066 28.3152 16.8066 25.0496C16.8066 21.784 19.6281 19.1367 23.1085 19.1367C26.589 19.1367 29.4104 21.784 29.4104 25.0496Z" fill="black"/>
<path d="M74.844 22.2527C74.844 25.5183 72.0226 28.1656 68.5421 28.1656C65.0617 28.1656 62.2402 25.5183 62.2402 22.2527C62.2402 18.9871 65.0617 16.3398 68.5421 16.3398C72.0226 16.3398 74.844 18.9871 74.844 22.2527Z" fill="black"/>
<path d="M42.592 12.2519C44.1504 15.1454 44.4472 18.8475 43.4825 23.3584C42.4436 28.2402 40.3435 32.2985 37.1821 35.5332C33.4568 39.3319 28.9004 41.2312 23.5128 41.2312C18.4814 41.2312 14.8822 39.5693 12.7153 36.2455C10.8304 33.0404 10.4074 28.9895 11.4463 24.0929C12.3814 19.6711 14.2811 15.8873 17.1456 12.7415C20.8264 8.70551 25.4274 6.6875 30.9486 6.6875C36.722 6.6875 40.6032 8.54229 42.592 12.2519ZM38.9186 23.4252C39.735 19.582 39.3862 16.4882 37.8723 14.1438C36.3733 11.7993 33.8798 10.6271 30.392 10.6271C27.008 10.6271 23.9951 11.7919 21.3533 14.1215C18.7263 16.4363 16.9304 19.8565 15.9657 24.3822C15.1939 28.0028 15.4611 31.0595 16.7671 33.5523C18.0732 36.0303 20.7819 37.2693 24.8931 37.2693C28.7965 37.2693 31.9133 35.8745 34.2435 33.0849C36.5885 30.2805 38.1469 27.0605 38.9186 23.4252Z" fill="black"/>
<path d="M88.0276 9.4511C89.586 12.3446 89.8828 16.0467 88.9181 20.5576C87.8791 25.4394 85.779 29.4977 82.6177 32.7325C78.8924 36.5311 74.3359 38.4304 68.9483 38.4304C63.9169 38.4304 60.3178 36.7685 58.1509 33.4447C56.2659 30.2396 55.8429 26.1887 56.8819 21.2921C57.8169 16.8703 59.7167 13.0865 62.5812 9.94076C66.2619 5.90473 70.8629 3.88672 76.3841 3.88672C82.1576 3.88672 86.0387 5.74151 88.0276 9.4511ZM84.3542 20.6244C85.1705 16.7812 84.8217 13.6874 83.3078 11.343C81.8088 8.99853 79.3154 7.8263 75.8275 7.8263C72.4436 7.8263 69.4307 8.99111 66.7888 11.3207C64.1618 13.6355 62.3659 17.0557 61.4012 21.5814C60.6294 25.202 60.8966 28.2587 62.2027 30.7515C63.5088 33.2295 66.2174 34.4685 70.3286 34.4685C74.232 34.4685 77.3488 33.0737 79.679 30.2841C82.024 27.4797 83.5824 24.2598 84.3542 20.6244Z" fill="black"/>
</svg>
