<svg width="93" height="50" viewBox="0 0 93 50" fill="none" xmlns="http://www.w3.org/2000/svg">
<path d="M82.7044 11.8364C84.4512 15.0805 84.7839 19.2313 83.7026 24.2888C82.538 29.7622 80.1839 34.3123 76.6403 37.9391C72.4646 42.1981 67.3572 44.3275 61.3181 44.3275C55.6783 44.3275 51.6439 42.4642 49.215 38.7376C47.1022 35.1442 46.628 30.6024 47.7926 25.1123C48.8407 20.1546 50.9702 15.9123 54.181 12.3854C58.3069 7.86023 63.4642 5.59766 69.653 5.59766C76.1246 5.59766 80.4751 7.67722 82.7044 11.8364ZM78.5868 24.3637C79.5018 20.0548 79.1109 16.5861 77.4139 13.9575C75.7337 11.3289 72.9387 10.0147 69.0291 10.0147C65.236 10.0147 61.8588 11.3206 58.8975 13.9326C55.9528 16.5279 53.9398 20.3626 52.8584 25.4367C51.9933 29.4961 52.2928 32.9232 53.7568 35.7181C55.2208 38.4964 58.257 39.8856 62.8653 39.8856C67.2407 39.8856 70.7344 38.3217 73.3463 35.1941C75.9749 32.0498 77.7217 28.4396 78.5868 24.3637Z" fill="black"/>
<path d="M43.9505 11.8364C45.6973 15.0805 46.03 19.2313 44.9486 24.2888C43.7841 29.7622 41.43 34.3123 37.8864 37.9391C33.7107 42.1981 28.6032 44.3275 22.5642 44.3275C16.9244 44.3275 12.89 42.4642 10.4611 38.7377C8.34826 35.1442 7.87411 30.6024 9.03867 25.1123C10.0868 20.1546 12.2163 15.9123 15.4271 12.3854C19.553 7.86023 24.7103 5.59766 30.8991 5.59766C37.3707 5.59766 41.7212 7.67722 43.9505 11.8364ZM39.8329 24.3637C40.7479 20.0548 40.357 16.5861 38.66 13.9575C36.9797 11.3289 34.1848 10.0147 30.2752 10.0147C26.4821 10.0147 23.1049 11.3206 20.1436 13.9326C17.1989 16.5279 15.1859 20.3626 14.1045 25.4367C13.2394 29.4961 13.5389 32.9232 15.0029 35.7181C16.4669 38.4964 19.5031 39.8856 24.1114 39.8856C28.4868 39.8856 31.9805 38.3217 34.5924 35.1941C37.221 32.0498 38.9678 28.4396 39.8329 24.3637Z" fill="black"/>
<path d="M10.1598 50C3.76711 47.089 0 39.6689 0 30.8219C0 18.6644 7.53426 2.56849 20.605 0L20.9475 2.11187C9.53197 5.13699 4.45204 22.2032 4.45204 32.7626C4.45204 40.0685 6.84932 45.5479 11.3014 48.1735L10.1598 50Z" fill="black"/>
<path d="M71.8301 47.8881C83.2456 44.863 88.3255 27.7968 88.3255 17.2374C88.3255 9.93151 85.9283 4.45205 81.4762 1.82648L82.6177 0C89.0104 2.91096 92.8347 10.3311 92.8347 19.1781C92.8347 31.3356 85.2433 47.4315 72.1725 50L71.8301 47.8881Z" fill="black"/>
<path d="M25.5433 29.1355C25.4788 30.1588 26.1654 31.1129 27.1746 31.2914C27.3162 31.3164 27.4625 31.3212 27.6051 31.3139C28.0194 31.2928 28.3301 31.0201 28.4918 30.7189C29.0652 29.6507 29.6617 28.7059 30.3343 27.8509C30.4941 27.6478 30.7943 27.6981 30.8776 27.9471C31.2266 28.9907 31.4782 30.0931 31.6529 31.3004C31.6985 31.6162 31.8784 31.9762 32.2551 32.1362C32.3911 32.1939 32.5376 32.24 32.6909 32.2671C33.7 32.4456 34.6722 31.785 34.9627 30.8016C35.0801 30.404 34.9062 30.036 34.6896 29.805C33.8583 28.9183 33.16 28.0249 32.5687 27.0893C32.4306 26.8708 32.5742 26.6061 32.8293 26.6003C33.9152 26.576 35.0192 26.6681 36.203 26.8789C36.5119 26.9339 36.9129 26.8813 37.1827 26.5695C37.9893 25.6371 37.7711 24.2348 36.7891 23.5468C36.4307 23.2957 36.0041 23.3633 35.7106 23.5156C34.6607 24.0607 33.6217 24.4663 32.5787 24.7598C32.3273 24.8305 32.1125 24.6122 32.1858 24.3631C32.4995 23.2971 32.9283 22.2567 33.4946 21.1824C33.6375 20.9114 33.7079 20.5303 33.5155 20.1841C33.2205 19.6534 32.73 19.2988 32.143 19.195C31.5561 19.0911 30.9737 19.256 30.5146 19.6533C30.2151 19.9125 30.1503 20.2947 30.1922 20.5989C30.359 21.8091 30.4193 22.9394 30.3551 24.0513C30.3403 24.3069 30.0689 24.4381 29.8582 24.2874C28.9673 23.6499 28.1318 22.9086 27.3087 22.0235C27.0846 21.7825 26.7059 21.5753 26.2846 21.6932C25.1555 22.0093 24.4801 23.2359 24.8794 24.3729C25.0194 24.7716 25.3866 24.966 25.7017 25.0215C26.8874 25.2302 27.97 25.5252 28.9884 25.922C29.2258 26.0144 29.2701 26.3118 29.0655 26.4696C28.1891 27.1457 27.2267 27.7454 26.1416 28.2931C25.8589 28.4358 25.5694 28.7217 25.5433 29.1355Z" fill="black" stroke="black" stroke-width="0.792007"/>
<path d="M64.768 30.5396C65.7931 30.5141 66.6832 29.7465 66.7726 28.7256C66.7851 28.5823 66.7771 28.4362 66.7573 28.2947C66.6999 27.8838 66.4011 27.5983 66.0868 27.4636C64.9724 26.9861 63.979 26.4747 63.0683 25.8796C62.852 25.7383 62.8757 25.4348 63.1165 25.3301C64.1255 24.8909 65.2016 24.5435 66.3889 24.2637C66.6995 24.1905 67.0423 23.9798 67.1686 23.5906C67.2143 23.4499 67.2473 23.3 67.2609 23.1449C67.3502 22.124 66.6068 21.2135 65.6018 21.0104C65.1954 20.9282 64.8442 21.1338 64.633 21.3698C63.8226 22.2757 62.9939 23.0496 62.1137 23.7207C61.9082 23.8773 61.6319 23.7575 61.6038 23.5039C61.4843 22.4243 61.4793 21.3165 61.5855 20.1188C61.6132 19.8062 61.5256 19.4114 61.1913 19.17C60.1918 18.4482 58.8141 18.7886 58.2148 19.8271C57.9961 20.2062 58.1008 20.6251 58.2783 20.9041C58.9134 21.9022 59.4085 22.9016 59.7923 23.9149C59.8848 24.1592 59.6861 24.3923 59.4316 24.3411C58.3422 24.1221 57.2682 23.7861 56.1484 23.3162C55.8659 23.1976 55.4801 23.1609 55.1521 23.3829C54.6493 23.7233 54.3391 24.243 54.2871 24.8368C54.2351 25.4306 54.4504 25.9963 54.8865 26.4188C55.1709 26.6944 55.5573 26.7255 55.8567 26.6571C57.0476 26.3848 58.1683 26.2257 59.2815 26.1921C59.5374 26.1844 59.692 26.4432 59.5602 26.6664C59.0034 27.6097 58.3382 28.507 57.5286 29.4046C57.3082 29.6489 57.135 30.0443 57.2894 30.4537C57.7032 31.5507 58.9843 32.1159 60.082 31.6185C60.4669 31.444 60.6283 31.0613 60.6559 30.7425C60.7599 29.5431 60.9589 28.4388 61.2648 27.3895C61.3361 27.145 61.6284 27.0747 61.8036 27.2647C62.5539 28.0784 63.2356 28.9846 63.8764 30.0174C64.0433 30.2865 64.3535 30.5499 64.768 30.5396Z" fill="black" stroke="black" stroke-width="0.792007"/>
</svg>
