<svg width="75" height="40" viewBox="0 0 75 40" fill="none" xmlns="http://www.w3.org/2000/svg">
<path d="M8.20805 40C3.04343 37.6712 0 31.7352 0 24.6575C0 14.9315 6.08689 2.0548 16.6467 0L16.9234 1.6895C7.70083 4.10959 3.59678 17.7626 3.59678 26.21C3.59678 32.0548 5.53353 36.4384 9.13032 38.5388L8.20805 40Z" fill="black"/>
<path d="M58.0303 38.3105C67.2528 35.8904 71.3568 22.2374 71.3568 13.79C71.3568 7.94521 69.4201 3.56164 65.8233 1.46119L66.7456 0C71.9102 2.32877 74.9997 8.26484 74.9997 15.3425C74.9997 25.0685 68.8667 37.9452 58.3069 40L58.0303 38.3105Z" fill="black"/>
<path d="M32.2751 32.1481C32.2751 32.2659 32.2426 32.3569 32.1777 32.4212C32.1128 32.4855 32.0263 32.5176 31.9181 32.5176H30.4092C30.1712 32.5176 30.0522 32.3944 30.0522 32.1481C30.1063 30.2415 30.4849 28.7098 31.188 27.553C31.9019 26.3855 32.9295 25.8018 34.2708 25.8018C34.8765 25.8018 35.4174 25.9356 35.8933 26.2034C36.3801 26.4712 36.7911 26.7925 37.1264 27.1674C37.4617 27.5423 37.8457 28.0297 38.2784 28.6295C38.7002 29.24 39.0626 29.6952 39.3655 29.9951C39.6792 30.2951 40.0145 30.445 40.3714 30.445C41.0745 30.445 41.5937 30.0862 41.9291 29.3685C42.2752 28.6509 42.4591 27.6708 42.4807 26.4284C42.4807 26.182 42.5997 26.0588 42.8377 26.0588H44.3304C44.4494 26.0588 44.5413 26.091 44.6062 26.1552C44.6711 26.2195 44.7036 26.3105 44.7036 26.4284C44.6495 28.3242 44.2709 29.8291 43.5678 30.9431C42.8647 32.057 41.8425 32.614 40.5012 32.614C39.9171 32.614 39.3979 32.4855 38.9436 32.2284C38.4893 31.9713 38.0999 31.6661 37.7754 31.3126C37.4509 30.9591 37.0777 30.4879 36.6559 29.8987C36.3206 29.4382 36.0447 29.0847 35.8284 28.8383C35.6229 28.592 35.3903 28.3885 35.1307 28.2278C34.8819 28.0564 34.6061 27.9708 34.3032 27.9708C33.6326 27.9708 33.1296 28.3403 32.7943 29.0793C32.4698 29.8184 32.2967 30.8413 32.2751 32.1481Z" fill="black"/>
<path d="M28.542 21.3607L11.4395 29.5028V26.2958L25.4112 19.8463L11.4395 13.4145V10.2075L28.542 18.3675V21.3607Z" fill="black"/>
<path d="M46.3457 21.3607L63.4482 29.5028V26.2958L49.4765 19.8463L63.4482 13.4145V10.2075L46.3457 18.3675V21.3607Z" fill="black"/>
</svg>
