<svg width="52" height="28" viewBox="0 0 52 28" fill="none" xmlns="http://www.w3.org/2000/svg">
<path d="M46.3162 6.63064C47.2944 8.44735 47.4807 10.7718 46.8751 13.604C46.223 16.6691 44.9047 19.2172 42.9203 21.2482C40.5819 23.6332 37.7217 24.8257 34.3398 24.8257C31.1816 24.8257 28.9223 23.7822 27.5621 21.6954C26.3789 19.683 26.1134 17.1396 26.7656 14.0652C27.3525 11.2889 28.545 8.91317 30.3431 6.93808C32.6536 4.404 35.5417 3.13696 39.0074 3.13696C42.6315 3.13696 45.0678 4.30152 46.3162 6.63064ZM44.0103 13.6459C44.5227 11.233 44.3038 9.29049 43.3535 7.81849C42.4126 6.34648 40.8474 5.61048 38.658 5.61048C36.5339 5.61048 34.6426 6.34183 32.9843 7.80451C31.3353 9.25788 30.208 11.4053 29.6024 14.2468C29.118 16.5201 29.2857 18.4393 30.1055 20.0044C30.9254 21.5603 32.6256 22.3382 35.2063 22.3382C37.6565 22.3382 39.613 21.4624 41.0757 19.711C42.5477 17.9501 43.5259 15.9285 44.0103 13.6459Z" fill="black"/>
<path d="M24.6128 6.63064C25.591 8.44735 25.7774 10.7718 25.1718 13.604C24.5196 16.6691 23.2013 19.2172 21.2169 21.2482C18.8785 23.6332 16.0184 24.8257 12.6365 24.8257C9.4782 24.8257 7.21895 23.7822 5.85875 21.6954C4.67556 19.683 4.41004 17.1396 5.06219 14.0652C5.64913 11.2889 6.84164 8.91317 8.63972 6.93808C10.9502 4.404 13.8383 3.13696 17.304 3.13696C20.9281 3.13696 23.3644 4.30152 24.6128 6.63064ZM22.307 13.6459C22.8194 11.233 22.6004 9.29049 21.6502 7.81849C20.7092 6.34648 19.144 5.61048 16.9547 5.61048C14.8305 5.61048 12.9393 6.34183 11.2809 7.80451C9.63192 9.25788 8.50463 11.4053 7.89906 14.2468C7.4146 16.5201 7.5823 18.4393 8.40215 20.0044C9.22199 21.5603 10.9222 22.3382 13.5029 22.3382C15.9531 22.3382 17.9096 21.4624 19.3723 19.711C20.8443 17.9501 21.8225 15.9285 22.307 13.6459Z" fill="black"/>
<ellipse cx="40.4752" cy="9.84667" rx="4.31329" ry="4.09545" fill="black"/>
<ellipse cx="20.608" cy="9.84667" rx="4.31329" ry="4.09545" fill="black"/>
<path d="M5.68949 28C2.10958 26.3699 0 22.2146 0 17.2603C0 10.4521 4.21919 1.43836 11.5388 0L11.7306 1.18265C5.33791 2.87671 2.49314 12.4338 2.49314 18.347C2.49314 22.4384 3.83562 25.5068 6.32877 26.9772L5.68949 28Z" fill="black"/>
<path d="M40.2244 26.8174C46.6171 25.1233 49.4618 15.5662 49.4618 9.65297C49.4618 5.56164 48.1193 2.49315 45.6262 1.02283L46.2654 0C49.8454 1.63014 51.9869 5.78539 51.9869 10.7397C51.9869 17.5479 47.7358 26.5616 40.4161 28L40.2244 26.8174Z" fill="black"/>
</svg>
