<svg width="93" height="50" viewBox="0 0 93 50" fill="none" xmlns="http://www.w3.org/2000/svg">
<path d="M10.1598 50C3.76711 47.089 0 39.6689 0 30.8219C0 18.6644 7.53426 2.56849 20.605 0L20.9475 2.11187C9.53197 5.13699 4.45204 22.2032 4.45204 32.7626C4.45204 40.0685 6.84932 45.5479 11.3014 48.1735L10.1598 50Z" fill="black"/>
<path d="M71.8301 47.8881C83.2456 44.863 88.3255 27.7968 88.3255 17.2374C88.3255 9.93151 85.9283 4.45205 81.4762 1.82648L82.6177 0C89.0104 2.91096 92.8347 10.3311 92.8347 19.1781C92.8347 31.3356 85.2433 47.4315 72.1725 50L71.8301 47.8881Z" fill="black"/>
<path d="M45.3116 3.4294L49.3762 3.46763L49.1389 28.7023L45.0742 28.6641L45.3116 3.4294ZM55.6909 3.52703L59.8282 3.56594L59.5908 28.8006L55.4536 28.7617L55.6909 3.52703Z" fill="black"/>
<path d="M29.2894 42.4288L64.9608 28.9482L64.9253 32.7225L29.2539 46.2031L29.2894 42.4288Z" fill="black"/>
</svg>
