<svg width="300" height="315" viewBox="0 0 300 315" fill="none" xmlns="http://www.w3.org/2000/svg">
<rect y="15" width="300" height="300" rx="30" fill="black"/>
<rect x="0.5" y="0.5" width="299" height="299" rx="29.5" fill="white" stroke="black"/>
<path d="M29.4243 83.755C29.4243 83.8293 29.4021 83.8887 29.3575 83.9332C29.313 83.9777 29.2536 84 29.1794 84H19.6257C19.4698 84 19.3919 83.9183 19.3919 83.755L19.5143 75.9384L19.3919 68.6562C19.3919 68.4929 19.4698 68.4112 19.6257 68.4112H29.0012C29.0754 68.4112 29.1348 68.4335 29.1794 68.4781C29.2239 68.5226 29.2462 68.582 29.2462 68.6562V69.7586C29.2462 69.8328 29.2239 69.8922 29.1794 69.9367C29.1348 69.9813 29.0754 70.0035 29.0012 70.0035H21.5743L21.4629 74.8806H28.4667C28.541 74.8806 28.6004 74.9028 28.6449 74.9474C28.6894 74.9919 28.7117 75.0513 28.7117 75.1255V76.2279C28.7117 76.3021 28.6894 76.3615 28.6449 76.406C28.6004 76.4506 28.541 76.4729 28.4667 76.4729H21.4629L21.5743 82.4077H29.1794C29.3427 82.4077 29.4243 82.4894 29.4243 82.6527V83.755ZM36.1252 84.2561C34.9895 84.2561 34.017 84.0148 33.2079 83.5323C32.4062 83.0424 31.7938 82.3483 31.3707 81.4501C30.955 80.5519 30.7471 79.5015 30.7471 78.299C30.7471 77.089 30.955 76.0312 31.3707 75.1255C31.7938 74.2199 32.4136 73.5184 33.2302 73.0211C34.0467 72.5237 35.0266 72.275 36.1698 72.275C37.0903 72.275 37.8957 72.4383 38.586 72.765C39.2764 73.0916 39.8257 73.5555 40.234 74.1568C40.6423 74.7507 40.8947 75.4447 40.9912 76.239V76.2836C40.9912 76.4246 40.9132 76.4951 40.7573 76.4951H39.3432C39.1947 76.4951 39.1094 76.4209 39.0871 76.2724C38.9386 75.4336 38.6009 74.7989 38.0738 74.3684C37.5542 73.9304 36.9195 73.7114 36.1698 73.7114C35.0637 73.7188 34.236 74.116 33.6867 74.9028C33.1448 75.6897 32.8739 76.818 32.8739 78.2878C32.8739 79.7799 33.1448 80.9119 33.6867 81.684C34.236 82.4485 35.0674 82.8308 36.1809 82.8308C37.0123 82.8308 37.699 82.5785 38.2409 82.0737C38.7902 81.5689 39.1131 80.8563 39.2096 79.9358C39.2319 79.7799 39.3172 79.702 39.4657 79.702H40.9021C41.0802 79.702 41.1619 79.7762 41.147 79.9247C41.058 80.7709 40.8019 81.5206 40.3787 82.1739C39.9556 82.8271 39.3803 83.3393 38.6528 83.7105C37.9254 84.0742 37.0828 84.2561 36.1252 84.2561ZM42.4345 84.167C42.1673 84.167 41.9149 84.1336 41.6773 84.0668C41.5437 84.0371 41.4769 83.948 41.4769 83.7996V82.8642C41.4769 82.7158 41.54 82.6416 41.6662 82.6416C41.733 82.6416 41.7961 82.649 41.8555 82.6638C41.9223 82.6712 41.9891 82.675 42.0559 82.675C42.3603 82.675 42.6015 82.6081 42.7797 82.4745C42.9578 82.3335 43.0952 82.0959 43.1917 81.7619C43.2956 81.4279 43.3773 80.9528 43.4366 80.3366C43.5034 79.6092 43.5703 78.5254 43.6371 77.0853C43.7039 75.6452 43.7595 74.2088 43.8041 72.7761C43.8115 72.7019 43.8375 72.6425 43.882 72.5979C43.9266 72.5534 43.986 72.5311 44.0602 72.5311H51.6096C51.7729 72.5311 51.8546 72.6128 51.8546 72.7761L51.8212 78.1876L51.9214 83.755C51.9214 83.9183 51.8397 84 51.6764 84L50.073 84.0111C49.9097 84.0111 49.828 83.9295 49.828 83.7662L49.8614 78.1876L49.7946 74.0232H45.5523C45.4112 77.1855 45.2962 79.3382 45.2071 80.4814C45.1328 81.3276 45.0066 82.0143 44.8285 82.5413C44.6503 83.0684 44.372 83.473 43.9934 83.755C43.6148 84.0297 43.0952 84.167 42.4345 84.167ZM54.4579 84C54.302 84 54.224 83.9183 54.224 83.755L54.2908 78.0763L54.2129 72.7761C54.2129 72.6128 54.2908 72.5311 54.4467 72.5311H56.0501C56.2134 72.5311 56.2951 72.6128 56.2951 72.7761L56.2617 77.8647L56.206 81.7619L61.5173 72.7093C61.5693 72.5905 61.6695 72.5311 61.818 72.5311H63.7888C63.9522 72.5311 64.0338 72.6128 64.0338 72.7761L63.9559 78.0763L64.0338 83.755C64.0338 83.9183 63.9522 84 63.7888 84H62.1966C62.0332 84 61.9516 83.9183 61.9516 83.755L61.9961 78.3546L62.0295 74.836L56.7628 83.8218C56.696 83.9406 56.5957 84 56.4621 84H54.4579ZM79.4333 72.5311C79.5075 72.5311 79.5669 72.5534 79.6114 72.5979C79.656 72.6425 79.6782 72.7019 79.6782 72.7761V73.7894C79.6782 73.9527 79.5966 74.0343 79.4333 74.0343H75.7365L75.6808 78.0763L75.7588 83.755C75.7588 83.9183 75.6771 84 75.5138 84H73.877C73.7137 84 73.632 83.9183 73.632 83.755L73.71 78.0763L73.6543 74.0343H69.9687C69.8944 74.0343 69.835 74.0121 69.7905 73.9675C69.746 73.923 69.7237 73.8636 69.7237 73.7894V72.7761C69.7237 72.6128 69.8054 72.5311 69.9687 72.5311H79.4333ZM85.4038 84.2561C84.2309 84.2561 83.2325 84.0074 82.4085 83.5101C81.592 83.0127 80.9721 82.3149 80.549 81.4167C80.1259 80.5185 79.9143 79.4793 79.9143 78.299C79.9143 77.1038 80.1259 76.0534 80.549 75.1478C80.9796 74.2422 81.5994 73.537 82.4085 73.0322C83.2177 72.5274 84.179 72.275 85.2924 72.275C86.3911 72.275 87.3338 72.5126 88.1207 72.9877C88.915 73.4627 89.5237 74.1494 89.9468 75.0476C90.3774 75.9458 90.6075 77.0185 90.6372 78.2656C90.6372 78.4363 90.5555 78.5217 90.3922 78.5217H82.0077C82.0745 81.3945 83.2139 82.8308 85.4261 82.8308C86.2575 82.8308 86.9256 82.6119 87.4303 82.1739C87.9425 81.7285 88.284 81.0827 88.4547 80.2364C88.4919 80.088 88.5809 80.0137 88.722 80.0137H90.1918C90.2734 80.0137 90.3365 80.0323 90.3811 80.0694C90.4256 80.1065 90.4442 80.1622 90.4367 80.2364C90.3105 81.0307 90.0322 81.7322 89.6016 82.3409C89.1785 82.9422 88.6106 83.4136 87.898 83.755C87.1854 84.0891 86.354 84.2561 85.4038 84.2561ZM88.4213 77.1298C88.3991 76.4914 88.2654 75.9124 88.0205 75.3928C87.7755 74.8657 87.4229 74.45 86.9627 74.1457C86.5024 73.8413 85.9494 73.6892 85.3036 73.6892C84.3608 73.6892 83.6185 73.9898 83.0766 74.5911C82.5347 75.1849 82.197 76.0312 82.0633 77.1298H88.4213ZM97.9787 73.0211C98.9808 73.0211 99.8308 73.2586 100.529 73.7337C101.234 74.2088 101.761 74.862 102.11 75.6934C102.459 76.5248 102.633 77.4713 102.633 78.5328C102.633 79.6686 102.421 80.667 101.998 81.5281C101.575 82.3817 100.967 83.0461 100.172 83.5212C99.3779 83.9889 98.4389 84.2227 97.3551 84.2227C96.2119 84.2227 95.2506 83.948 94.4712 83.3987C93.6918 82.8494 93.1053 82.0588 92.7119 81.027C92.3259 79.9952 92.1329 78.7592 92.1329 77.3191C92.1329 74.914 92.5115 73.0396 93.2686 71.696C94.0258 70.3524 95.2395 69.5062 96.9097 69.1573C97.2141 69.0905 97.5964 69.0237 98.0566 68.9568C98.5243 68.89 98.9882 68.8307 99.4485 68.7787C100.562 68.6451 101.349 68.5337 101.809 68.4446H101.854C102.002 68.4446 102.076 68.5226 102.076 68.6785V69.792C102.076 69.9478 102.006 70.0369 101.865 70.0592C101.323 70.178 100.488 70.3005 99.3594 70.4266C98.3127 70.5528 97.589 70.6605 97.1881 70.7496C96.0895 70.9945 95.2878 71.5327 94.783 72.3641C94.2782 73.1881 93.9738 74.3053 93.8699 75.7157C94.2262 74.8843 94.7459 74.2273 95.4288 73.7448C96.1117 73.2623 96.9617 73.0211 97.9787 73.0211ZM97.3663 82.7974C98.3758 82.7974 99.1553 82.4337 99.7046 81.7062C100.261 80.9713 100.54 79.9543 100.54 78.6553C100.54 77.3488 100.272 76.3244 99.738 75.5821C99.2109 74.8323 98.4538 74.4575 97.4665 74.4575C96.8132 74.4575 96.2453 74.6208 95.7628 74.9474C95.2803 75.274 94.9055 75.7528 94.6382 76.3838C94.3784 77.0148 94.2485 77.7719 94.2485 78.6553C94.2485 79.4867 94.3673 80.2142 94.6048 80.8377C94.8424 81.4538 95.195 81.9363 95.6626 82.2852C96.1303 82.6267 96.6982 82.7974 97.3663 82.7974ZM109.599 84.2561C108.426 84.2561 107.427 84.0074 106.603 83.5101C105.787 83.0127 105.167 82.3149 104.744 81.4167C104.321 80.5185 104.109 79.4793 104.109 78.299C104.109 77.1038 104.321 76.0534 104.744 75.1478C105.174 74.2422 105.794 73.537 106.603 73.0322C107.412 72.5274 108.374 72.275 109.487 72.275C110.586 72.275 111.529 72.5126 112.315 72.9877C113.11 73.4627 113.718 74.1494 114.142 75.0476C114.572 75.9458 114.802 77.0185 114.832 78.2656C114.832 78.4363 114.75 78.5217 114.587 78.5217H106.202C106.269 81.3945 107.409 82.8308 109.621 82.8308C110.452 82.8308 111.12 82.6119 111.625 82.1739C112.137 81.7285 112.479 81.0827 112.649 80.2364C112.687 80.088 112.776 80.0137 112.917 80.0137H114.387C114.468 80.0137 114.531 80.0323 114.576 80.0694C114.62 80.1065 114.639 80.1622 114.631 80.2364C114.505 81.0307 114.227 81.7322 113.796 82.3409C113.373 82.9422 112.805 83.4136 112.093 83.755C111.38 84.0891 110.549 84.2561 109.599 84.2561ZM112.616 77.1298C112.594 76.4914 112.46 75.9124 112.215 75.3928C111.97 74.8657 111.618 74.45 111.157 74.1457C110.697 73.8413 110.144 73.6892 109.498 73.6892C108.556 73.6892 107.813 73.9898 107.271 74.5911C106.729 75.1849 106.392 76.0312 106.258 77.1298H112.616ZM128.165 72.7761C128.165 72.6128 128.243 72.5311 128.399 72.5311H130.002C130.166 72.5311 130.247 72.6128 130.247 72.7761L130.169 78.0763L130.247 83.755C130.247 83.9183 130.166 84 130.002 84H128.399C128.243 84 128.165 83.9183 128.165 83.755L128.221 78.6776H122.631L122.698 83.755C122.698 83.9183 122.616 84 122.453 84H120.849C120.694 84 120.616 83.9183 120.616 83.755L120.682 78.0763L120.616 72.7761C120.616 72.6128 120.694 72.5311 120.849 72.5311H122.453C122.616 72.5311 122.698 72.6128 122.698 72.7761L122.642 77.1744H128.221L128.165 72.7761ZM135.98 84.0334L131.493 72.8206L131.471 72.7204C131.471 72.661 131.489 72.6165 131.527 72.5868C131.571 72.5497 131.627 72.5311 131.694 72.5311H133.497C133.638 72.5311 133.731 72.5979 133.776 72.7316L136.994 81.361L139.744 72.7427C139.781 72.6016 139.87 72.5311 140.011 72.5311H141.626C141.774 72.5311 141.848 72.5942 141.848 72.7204L141.826 72.8206L136.682 87.5854C136.637 87.719 136.548 87.7858 136.415 87.7858H134.956C134.882 87.7858 134.826 87.7673 134.789 87.7302C134.752 87.7005 134.733 87.6559 134.733 87.5965C134.733 87.5743 134.741 87.5409 134.756 87.4963L135.98 84.0334ZM157.08 72.5311C157.147 72.5311 157.199 72.546 157.236 72.5757C157.273 72.6054 157.292 72.6425 157.292 72.687C157.292 72.7241 157.27 72.7724 157.225 72.8318L153.773 77.5529L157.726 83.6994C157.756 83.7365 157.771 83.781 157.771 83.833C157.771 83.8849 157.752 83.9258 157.715 83.9555C157.678 83.9852 157.626 84 157.559 84H155.733C155.599 84 155.499 83.9443 155.432 83.833L154.475 82.185L152.136 78.5551H150.889L150.945 83.755C150.945 83.9183 150.867 84 150.711 84H149.063C148.9 84 148.818 83.9183 148.818 83.755L148.885 78.5551H147.627L145.288 82.185L144.331 83.833C144.264 83.9443 144.164 84 144.03 84H142.204C142.137 84 142.085 83.9852 142.048 83.9555C142.011 83.9258 141.993 83.8849 141.993 83.833C141.993 83.781 142.007 83.7365 142.037 83.6994L145.99 77.5529L142.538 72.8318C142.494 72.7724 142.471 72.7241 142.471 72.687C142.471 72.6425 142.49 72.6054 142.527 72.5757C142.564 72.546 142.616 72.5311 142.683 72.5311H144.242C144.361 72.5311 144.461 72.5831 144.542 72.687L147.627 77.0741H148.874L148.818 72.7761C148.818 72.6128 148.9 72.5311 149.063 72.5311H150.711C150.867 72.5311 150.945 72.6128 150.945 72.7761L150.889 77.0741H152.136L155.221 72.687C155.302 72.5831 155.403 72.5311 155.521 72.5311H157.08ZM166.621 72.7761C166.621 72.6128 166.699 72.5311 166.855 72.5311H168.458C168.622 72.5311 168.703 72.6128 168.703 72.7761L168.625 78.0763L168.703 83.755C168.703 83.9183 168.622 84 168.458 84H166.855C166.699 84 166.621 83.9183 166.621 83.755L166.677 78.6776H161.087L161.154 83.755C161.154 83.9183 161.072 84 160.909 84H159.305C159.15 84 159.072 83.9183 159.072 83.755L159.138 78.0763L159.072 72.7761C159.072 72.6128 159.15 72.5311 159.305 72.5311H160.909C161.072 72.5311 161.154 72.6128 161.154 72.7761L161.098 77.1744H166.677L166.621 72.7761ZM178.89 72.7872C178.882 72.7056 178.901 72.6425 178.946 72.5979C178.99 72.5534 179.053 72.5311 179.135 72.5311H180.727C180.89 72.5311 180.972 72.6128 180.972 72.7761L180.883 78.1431L180.972 83.755C180.972 83.9183 180.89 84 180.727 84H179.146C179.064 84 179.001 83.9777 178.957 83.9332C178.912 83.8887 178.894 83.8293 178.901 83.755L178.934 82.0291C178.556 82.7269 178.058 83.2651 177.442 83.6437C176.826 84.0223 176.106 84.2116 175.282 84.2116C174.28 84.2116 173.423 83.9555 172.71 83.4433C171.997 82.9236 171.456 82.2184 171.084 81.3276C170.721 80.4294 170.539 79.4162 170.539 78.2878C170.539 77.1744 170.728 76.1648 171.107 75.2592C171.485 74.3461 172.035 73.6261 172.755 73.099C173.482 72.572 174.336 72.3084 175.316 72.3084C176.132 72.3084 176.845 72.4829 177.453 72.8318C178.07 73.1807 178.563 73.6966 178.934 74.3795L178.89 72.7872ZM175.783 82.7863C176.793 82.7863 177.58 82.4077 178.144 81.6506C178.708 80.886 178.99 79.7613 178.99 78.2767C178.99 76.8292 178.712 75.712 178.155 74.9251C177.598 74.1308 176.815 73.7337 175.806 73.7337C174.751 73.7337 173.957 74.1308 173.423 74.9251C172.888 75.7194 172.621 76.7921 172.621 78.1431C172.621 79.5683 172.888 80.7004 173.423 81.5392C173.957 82.3706 174.744 82.7863 175.783 82.7863ZM19.5032 103C19.3473 103 19.2694 102.918 19.2694 102.755L19.3362 97.0763L19.2582 91.7761C19.2582 91.6128 19.3362 91.5311 19.4921 91.5311H21.0955C21.2588 91.5311 21.3404 91.6128 21.3404 91.7761L21.307 96.8647L21.2514 100.762L26.5627 91.7093C26.6146 91.5905 26.7149 91.5311 26.8633 91.5311H28.8342C28.9975 91.5311 29.0792 91.6128 29.0792 91.7761L29.0012 97.0763L29.0792 102.755C29.0792 102.918 28.9975 103 28.8342 103H27.2419C27.0786 103 26.9969 102.918 26.9969 102.755L27.0415 97.3546L27.0749 93.836L21.8081 102.822C21.7413 102.941 21.6411 103 21.5075 103H19.5032ZM38.9159 91.7761C38.9159 91.6128 38.9938 91.5311 39.1497 91.5311H40.7531C40.9165 91.5311 40.9981 91.6128 40.9981 91.7761L40.9202 97.0763L40.9981 102.755C40.9981 102.918 40.9165 103 40.7531 103H39.1497C38.9938 103 38.9159 102.918 38.9159 102.755L38.9716 97.6776H33.3819L33.4487 102.755C33.4487 102.918 33.367 103 33.2037 103H31.6003C31.4444 103 31.3665 102.918 31.3665 102.755L31.4333 97.0763L31.3665 91.7761C31.3665 91.6128 31.4444 91.5311 31.6003 91.5311H33.2037C33.367 91.5311 33.4487 91.6128 33.4487 91.7761L33.393 96.1744H38.9716L38.9159 91.7761ZM56.8863 97.2544C56.8863 98.4125 56.671 99.4294 56.2405 100.305C55.8099 101.174 55.1455 101.864 54.2473 102.376C53.3491 102.889 52.2208 103.174 50.8624 103.234L50.8958 106.541C50.8958 106.704 50.8141 106.786 50.6508 106.786H49.0362C48.8729 106.786 48.7913 106.704 48.7913 106.541L48.8135 103.234C47.4625 103.174 46.3379 102.892 45.4397 102.388C44.5489 101.875 43.8882 101.185 43.4577 100.317C43.0271 99.448 42.8119 98.4384 42.8119 97.2878C42.8119 96.1372 43.0271 95.1277 43.4577 94.2592C43.8957 93.3832 44.56 92.6892 45.4508 92.1769C46.349 91.6573 47.4737 91.3641 48.8247 91.2973L48.7913 87.6562C48.7913 87.4929 48.8729 87.4112 49.0362 87.4112H50.6508C50.8141 87.4112 50.8958 87.4929 50.8958 87.6562L50.8512 91.2973C52.9223 91.3864 54.4441 91.958 55.4165 93.0121C56.3964 94.0587 56.8863 95.4729 56.8863 97.2544ZM44.8718 97.299C44.8718 98.6871 45.1873 99.7709 45.8183 100.55C46.4492 101.322 47.4588 101.753 48.8469 101.842L48.8804 96.8313L48.8469 92.7003C47.4959 92.7894 46.4938 93.2348 45.8405 94.0365C45.1947 94.8307 44.8718 95.9183 44.8718 97.299ZM50.8067 96.7979L50.8401 101.831C52.2134 101.742 53.2192 101.304 53.8576 100.517C54.5034 99.7226 54.8263 98.6463 54.8263 97.2878C54.8263 95.9145 54.4997 94.8307 53.8465 94.0365C53.1932 93.2422 52.1911 92.7968 50.8401 92.7003L50.8067 96.7979ZM63.8558 103.256C62.7052 103.256 61.7216 103.011 60.9051 102.521C60.0885 102.031 59.465 101.337 59.0344 100.439C58.6113 99.5408 58.3998 98.4904 58.3998 97.2878C58.3998 96.0778 58.6113 95.0238 59.0344 94.1255C59.465 93.2199 60.0885 92.5184 60.9051 92.0211C61.7291 91.5237 62.7126 91.275 63.8558 91.275C64.999 91.275 65.9789 91.52 66.7954 92.0099C67.612 92.4999 68.2318 93.1976 68.6549 94.1033C69.0781 95.0015 69.2896 96.0519 69.2896 97.2544C69.2896 98.4644 69.0781 99.5222 68.6549 100.428C68.2318 101.326 67.612 102.024 66.7954 102.521C65.9789 103.011 64.999 103.256 63.8558 103.256ZM63.8558 101.831C64.9545 101.831 65.7784 101.441 66.3278 100.662C66.8845 99.8822 67.1629 98.7576 67.1629 97.2878C67.1629 95.8255 66.8808 94.6971 66.3166 93.9028C65.7599 93.1011 64.9359 92.7003 63.8447 92.7003C62.7386 92.7077 61.9072 93.1086 61.3505 93.9028C60.7937 94.6971 60.5154 95.8292 60.5154 97.299C60.5154 98.7613 60.7975 99.8822 61.3616 100.662C61.9258 101.441 62.7572 101.831 63.8558 101.831ZM76.795 91.2973C77.7971 91.2973 78.6545 91.5571 79.3672 92.0767C80.0798 92.5889 80.618 93.2941 80.9817 94.1924C81.3529 95.0906 81.5385 96.1038 81.5385 97.2322C81.5385 98.3456 81.3454 99.3589 80.9594 100.272C80.5809 101.178 80.0315 101.898 79.3115 102.432C78.5914 102.959 77.7415 103.223 76.7616 103.223C75.9525 103.223 75.2473 103.052 74.646 102.71C74.0447 102.362 73.5585 101.857 73.1873 101.196L73.2319 106.541C73.2319 106.704 73.1502 106.786 72.9869 106.786H71.3389C71.1756 106.786 71.094 106.704 71.094 106.541L71.1831 97.9782L71.1051 91.7761C71.1051 91.6128 71.1831 91.5311 71.3389 91.5311H72.9424C73.1057 91.5311 73.1873 91.6165 73.1873 91.7872L73.1317 93.4575C73.5177 92.7745 74.0187 92.2438 74.6349 91.8652C75.2584 91.4866 75.9785 91.2973 76.795 91.2973ZM76.2271 101.786C77.2887 101.786 78.0904 101.389 78.6323 100.595C79.1816 99.8006 79.4562 98.7279 79.4562 97.3769C79.4562 95.9591 79.1853 94.8345 78.6434 94.0031C78.1089 93.1642 77.3184 92.7448 76.2717 92.7448C75.2695 92.7448 74.4864 93.1271 73.9222 93.8917C73.3581 94.6563 73.076 95.7698 73.076 97.2322C73.076 98.6797 73.3506 99.8006 73.9 100.595C74.4567 101.389 75.2324 101.786 76.2271 101.786ZM83.6217 103C83.4658 103 83.3879 102.918 83.3879 102.755L83.4547 97.3769L83.399 91.7761C83.399 91.6128 83.477 91.5311 83.6328 91.5311H85.6928C85.8338 91.5311 85.9266 91.5979 85.9712 91.7316L89.4341 100.651L92.9304 91.7316C92.975 91.5979 93.0677 91.5311 93.2088 91.5311H95.291C95.4469 91.5311 95.5248 91.6128 95.5248 91.7761L95.458 97.3769L95.5248 102.755C95.5248 102.918 95.4469 103 95.291 103H93.7878C93.7136 103 93.6542 102.978 93.6096 102.933C93.5651 102.889 93.5428 102.829 93.5428 102.755L93.554 97.6219L93.5874 93.8249L90.1133 102.8C90.0688 102.933 89.976 103 89.8349 103H88.7883C88.6546 103 88.5619 102.933 88.5099 102.8L84.9913 93.7692L85.047 97.6219L85.0804 102.755C85.0804 102.918 84.995 103 84.8243 103H83.6217ZM105.729 91.7872C105.721 91.7056 105.74 91.6425 105.785 91.5979C105.829 91.5534 105.892 91.5311 105.974 91.5311H107.566C107.729 91.5311 107.811 91.6128 107.811 91.7761L107.722 97.1431L107.811 102.755C107.811 102.918 107.729 103 107.566 103H105.985C105.903 103 105.84 102.978 105.796 102.933C105.751 102.889 105.733 102.829 105.74 102.755L105.773 101.029C105.395 101.727 104.897 102.265 104.281 102.644C103.665 103.022 102.945 103.212 102.121 103.212C101.119 103.212 100.262 102.955 99.549 102.443C98.8364 101.924 98.2945 101.218 97.9233 100.328C97.5596 99.4294 97.3777 98.4162 97.3777 97.2878C97.3777 96.1744 97.567 95.1648 97.9456 94.2592C98.3242 93.3461 98.8735 92.6261 99.5936 92.099C100.321 91.572 101.175 91.3084 102.155 91.3084C102.971 91.3084 103.684 91.4829 104.292 91.8318C104.909 92.1807 105.402 92.6966 105.773 93.3795L105.729 91.7872ZM102.622 101.786C103.632 101.786 104.419 101.408 104.983 100.651C105.547 99.886 105.829 98.7613 105.829 97.2767C105.829 95.8292 105.551 94.712 104.994 93.9251C104.437 93.1308 103.654 92.7337 102.645 92.7337C101.59 92.7337 100.796 93.1308 100.262 93.9251C99.7272 94.7194 99.46 95.7921 99.46 97.1431C99.46 98.5683 99.7272 99.7004 100.262 100.539C100.796 101.371 101.583 101.786 102.622 101.786ZM119.359 105.728C119.277 105.728 119.214 105.706 119.17 105.661C119.125 105.617 119.103 105.557 119.103 105.483L119.058 103H110.317C110.162 103 110.084 102.918 110.084 102.755L110.15 97.0763L110.084 91.7761C110.084 91.6128 110.162 91.5311 110.317 91.5311H111.965C112.129 91.5311 112.21 91.6128 112.21 91.7761L112.132 97.0763L112.188 101.508H117.444L117.488 97.0763L117.41 91.7761C117.41 91.6128 117.492 91.5311 117.655 91.5311H119.303C119.467 91.5311 119.548 91.6128 119.548 91.7761L119.47 97.0763L119.515 101.508H120.673C120.747 101.508 120.806 101.53 120.851 101.575C120.896 101.619 120.918 101.679 120.918 101.753V105.483C120.918 105.646 120.836 105.728 120.673 105.728H119.359ZM122.654 103C122.498 103 122.42 102.918 122.42 102.755L122.487 97.0763L122.409 91.7761C122.409 91.6128 122.487 91.5311 122.643 91.5311H124.247C124.41 91.5311 124.492 91.6128 124.492 91.7761L124.458 96.8647L124.402 100.762L129.714 91.7093C129.766 91.5905 129.866 91.5311 130.014 91.5311H131.985C132.149 91.5311 132.23 91.6128 132.23 91.7761L132.152 97.0763L132.23 102.755C132.23 102.918 132.149 103 131.985 103H130.393C130.23 103 130.148 102.918 130.148 102.755L130.193 97.3546L130.226 93.836L124.959 102.822C124.892 102.941 124.792 103 124.659 103H122.654ZM134.309 103C134.168 103 134.097 102.948 134.097 102.844C134.097 102.8 134.112 102.751 134.142 102.699L136.825 98.3122C135.919 98.1267 135.222 97.7592 134.732 97.2099C134.249 96.6531 134.008 95.9071 134.008 94.9718C134.008 93.8212 134.405 92.9601 135.199 92.3885C136.001 91.8169 137.174 91.5311 138.718 91.5311H143.061C143.217 91.5311 143.294 91.6128 143.294 91.7761L143.228 97.0985L143.294 102.755C143.294 102.918 143.217 103 143.061 103H141.402C141.238 103 141.157 102.918 141.157 102.755L141.212 98.5349H138.651L137.204 101.063L136.202 102.833C136.135 102.944 136.038 103 135.912 103H134.309ZM141.235 97.1097L141.179 92.9453H138.618C137.816 92.9453 137.193 93.1271 136.747 93.4909C136.309 93.8472 136.09 94.3482 136.09 94.9941C136.09 95.6918 136.309 96.2189 136.747 96.5752C137.185 96.9315 137.812 97.1097 138.629 97.1097H141.235ZM154.663 103.256C153.528 103.256 152.555 103.015 151.746 102.532C150.944 102.042 150.332 101.348 149.909 100.45C149.493 99.5519 149.285 98.5015 149.285 97.299C149.285 96.089 149.493 95.0312 149.909 94.1255C150.332 93.2199 150.952 92.5184 151.768 92.0211C152.585 91.5237 153.565 91.275 154.708 91.275C155.628 91.275 156.434 91.4383 157.124 91.765C157.814 92.0916 158.364 92.5555 158.772 93.1568C159.18 93.7507 159.433 94.4447 159.529 95.239V95.2836C159.529 95.4246 159.451 95.4951 159.295 95.4951H157.881C157.733 95.4951 157.647 95.4209 157.625 95.2724C157.477 94.4336 157.139 93.7989 156.612 93.3684C156.092 92.9304 155.458 92.7114 154.708 92.7114C153.602 92.7188 152.774 93.116 152.225 93.9028C151.683 94.6897 151.412 95.818 151.412 97.2878C151.412 98.7799 151.683 99.9119 152.225 100.684C152.774 101.449 153.605 101.831 154.719 101.831C155.55 101.831 156.237 101.578 156.779 101.074C157.328 100.569 157.651 99.8563 157.748 98.9358C157.77 98.7799 157.855 98.702 158.004 98.702H159.44C159.618 98.702 159.7 98.7762 159.685 98.9247C159.596 99.7709 159.34 100.521 158.917 101.174C158.494 101.827 157.918 102.339 157.191 102.71C156.463 103.074 155.621 103.256 154.663 103.256ZM171.782 91.7761C171.782 91.6128 171.863 91.5311 172.026 91.5311H173.674C173.83 91.5311 173.908 91.6128 173.908 91.7761L173.841 97.0763L173.908 102.755C173.908 102.918 173.83 103 173.674 103H172.026C171.863 103 171.782 102.918 171.782 102.755L171.848 98.0895C170.661 98.3197 169.644 98.4347 168.797 98.4347C167.699 98.4347 166.852 98.2714 166.259 97.9448C165.672 97.6107 165.275 97.1579 165.067 96.5863C164.867 96.0148 164.763 95.2947 164.755 94.4262L164.744 91.7761C164.744 91.7019 164.767 91.6425 164.811 91.5979C164.856 91.5534 164.919 91.5311 165 91.5311H166.593C166.667 91.5311 166.726 91.5534 166.771 91.5979C166.815 91.6425 166.838 91.7019 166.838 91.7761V94.4262C166.838 94.9829 166.897 95.4432 167.016 95.8069C167.142 96.1706 167.38 96.4564 167.728 96.6643C168.085 96.8647 168.597 96.9649 169.265 96.9649C169.681 96.9649 170.115 96.9389 170.568 96.887C171.028 96.835 171.455 96.7608 171.848 96.6643L171.782 91.7761ZM181.248 103.256C180.075 103.256 179.076 103.007 178.252 102.51C177.436 102.013 176.816 101.315 176.393 100.417C175.97 99.5185 175.758 98.4793 175.758 97.299C175.758 96.1038 175.97 95.0534 176.393 94.1478C176.823 93.2422 177.443 92.537 178.252 92.0322C179.062 91.5274 180.023 91.275 181.136 91.275C182.235 91.275 183.178 91.5126 183.965 91.9877C184.759 92.4627 185.368 93.1494 185.791 94.0476C186.221 94.9458 186.451 96.0185 186.481 97.2656C186.481 97.4363 186.399 97.5217 186.236 97.5217H177.852C177.918 100.394 179.058 101.831 181.27 101.831C182.101 101.831 182.769 101.612 183.274 101.174C183.786 100.728 184.128 100.083 184.299 99.2364C184.336 99.088 184.425 99.0137 184.566 99.0137H186.036C186.117 99.0137 186.18 99.0323 186.225 99.0694C186.269 99.1065 186.288 99.1622 186.281 99.2364C186.154 100.031 185.876 100.732 185.446 101.341C185.022 101.942 184.455 102.414 183.742 102.755C183.029 103.089 182.198 103.256 181.248 103.256ZM184.265 96.1298C184.243 95.4914 184.109 94.9124 183.864 94.3928C183.619 93.8657 183.267 93.45 182.807 93.1457C182.346 92.8413 181.793 92.6892 181.147 92.6892C180.205 92.6892 179.462 92.9898 178.921 93.5911C178.379 94.1849 178.041 95.0312 177.907 96.1298H184.265ZM188.524 103C188.368 103 188.29 102.918 188.29 102.755L188.357 97.0763L188.29 91.7761C188.29 91.6128 188.368 91.5311 188.524 91.5311H195.194C195.268 91.5311 195.327 91.5534 195.372 91.5979C195.416 91.6425 195.439 91.7019 195.439 91.7761V92.7894C195.439 92.9527 195.357 93.0343 195.194 93.0343H190.395L190.339 97.0763L190.417 102.755C190.417 102.918 190.335 103 190.172 103H188.524ZM201.125 103.256C199.974 103.256 198.991 103.011 198.174 102.521C197.357 102.031 196.734 101.337 196.303 100.439C195.88 99.5408 195.669 98.4904 195.669 97.2878C195.669 96.0778 195.88 95.0238 196.303 94.1255C196.734 93.2199 197.357 92.5184 198.174 92.0211C198.998 91.5237 199.982 91.275 201.125 91.275C202.268 91.275 203.248 91.52 204.064 92.0099C204.881 92.4999 205.501 93.1976 205.924 94.1033C206.347 95.0015 206.559 96.0519 206.559 97.2544C206.559 98.4644 206.347 99.5222 205.924 100.428C205.501 101.326 204.881 102.024 204.064 102.521C203.248 103.011 202.268 103.256 201.125 103.256ZM201.125 101.831C202.223 101.831 203.047 101.441 203.597 100.662C204.153 99.8822 204.432 98.7576 204.432 97.2878C204.432 95.8255 204.15 94.6971 203.586 93.9028C203.029 93.1011 202.205 92.7003 201.114 92.7003C200.008 92.7077 199.176 93.1086 198.619 93.9028C198.063 94.6971 197.784 95.8292 197.784 97.299C197.784 98.7613 198.066 99.8822 198.631 100.662C199.195 101.441 200.026 101.831 201.125 101.831ZM26.8076 109.776C26.8076 109.613 26.8856 109.531 27.0415 109.531H28.6449C28.8082 109.531 28.8899 109.613 28.8899 109.776L28.8119 115.076L28.8899 120.755C28.8899 120.918 28.8082 121 28.6449 121H27.0415C26.8856 121 26.8076 120.918 26.8076 120.755L26.8633 115.678H21.2736L21.3404 120.755C21.3404 120.918 21.2588 121 21.0955 121H19.4921C19.3362 121 19.2582 120.918 19.2582 120.755L19.325 115.076L19.2582 109.776C19.2582 109.613 19.3362 109.531 19.4921 109.531H21.0955C21.2588 109.531 21.3404 109.613 21.3404 109.776L21.2848 114.174H26.8633L26.8076 109.776ZM39.0765 109.787C39.0691 109.706 39.0876 109.642 39.1322 109.598C39.1767 109.553 39.2398 109.531 39.3215 109.531H40.9137C41.077 109.531 41.1587 109.613 41.1587 109.776L41.0696 115.143L41.1587 120.755C41.1587 120.918 41.077 121 40.9137 121H39.3326C39.2509 121 39.1878 120.978 39.1433 120.933C39.0988 120.889 39.0802 120.829 39.0876 120.755L39.121 119.029C38.7424 119.727 38.2451 120.265 37.629 120.644C37.0128 121.022 36.2928 121.212 35.4688 121.212C34.4667 121.212 33.6093 120.955 32.8967 120.443C32.184 119.924 31.6421 119.218 31.271 118.328C30.9072 117.429 30.7254 116.416 30.7254 115.288C30.7254 114.174 30.9147 113.165 31.2932 112.259C31.6718 111.346 32.2211 110.626 32.9412 110.099C33.6687 109.572 34.5223 109.308 35.5022 109.308C36.3188 109.308 37.0314 109.483 37.6401 109.832C38.2562 110.181 38.7499 110.697 39.121 111.38L39.0765 109.787ZM35.9699 119.786C36.9794 119.786 37.7663 119.408 38.3305 118.651C38.8946 117.886 39.1767 116.761 39.1767 115.277C39.1767 113.829 38.8983 112.712 38.3416 111.925C37.7848 111.131 37.0017 110.734 35.9921 110.734C34.938 110.734 34.1438 111.131 33.6093 111.925C33.0748 112.719 32.8076 113.792 32.8076 115.143C32.8076 116.568 33.0748 117.7 33.6093 118.539C34.1438 119.371 34.9306 119.786 35.9699 119.786ZM49.856 109.776C49.856 109.613 49.9377 109.531 50.101 109.531H51.749C51.9048 109.531 51.9828 109.613 51.9828 109.776L51.916 115.076L51.9828 120.755C51.9828 120.918 51.9048 121 51.749 121H50.101C49.9377 121 49.856 120.918 49.856 120.755L49.9229 116.09C48.7351 116.32 47.7182 116.435 46.8719 116.435C45.7733 116.435 44.927 116.271 44.3332 115.945C43.7467 115.611 43.3496 115.158 43.1417 114.586C42.9413 114.015 42.8374 113.295 42.83 112.426L42.8188 109.776C42.8188 109.702 42.8411 109.642 42.8856 109.598C42.9302 109.553 42.9933 109.531 43.0749 109.531H44.6672C44.7414 109.531 44.8008 109.553 44.8454 109.598C44.8899 109.642 44.9122 109.702 44.9122 109.776V112.426C44.9122 112.983 44.9716 113.443 45.0903 113.807C45.2165 114.171 45.4541 114.456 45.803 114.664C46.1593 114.865 46.6715 114.965 47.3396 114.965C47.7553 114.965 48.1895 114.939 48.6423 114.887C49.1026 114.835 49.5294 114.761 49.9229 114.664L49.856 109.776ZM62.1839 109.787C62.1764 109.706 62.195 109.642 62.2395 109.598C62.2841 109.553 62.3472 109.531 62.4288 109.531H64.0211C64.1844 109.531 64.2661 109.613 64.2661 109.776L64.177 115.143L64.2661 120.755C64.2661 120.918 64.1844 121 64.0211 121H62.44C62.3583 121 62.2952 120.978 62.2507 120.933C62.2061 120.889 62.1876 120.829 62.195 120.755L62.2284 119.029C61.8498 119.727 61.3525 120.265 60.7363 120.644C60.1202 121.022 59.4002 121.212 58.5762 121.212C57.574 121.212 56.7167 120.955 56.004 120.443C55.2914 119.924 54.7495 119.218 54.3783 118.328C54.0146 117.429 53.8327 116.416 53.8327 115.288C53.8327 114.174 54.022 113.165 54.4006 112.259C54.7792 111.346 55.3285 110.626 56.0486 110.099C56.776 109.572 57.6297 109.308 58.6096 109.308C59.4261 109.308 60.1388 109.483 60.7475 109.832C61.3636 110.181 61.8572 110.697 62.2284 111.38L62.1839 109.787ZM59.0772 119.786C60.0868 119.786 60.8737 119.408 61.4378 118.651C62.002 117.886 62.2841 116.761 62.2841 115.277C62.2841 113.829 62.0057 112.712 61.449 111.925C60.8922 111.131 60.1091 110.734 59.0995 110.734C58.0454 110.734 57.2511 111.131 56.7167 111.925C56.1822 112.719 55.915 113.792 55.915 115.143C55.915 116.568 56.1822 117.7 56.7167 118.539C57.2511 119.371 58.038 119.786 59.0772 119.786ZM75.5022 109.531C75.5764 109.531 75.6358 109.553 75.6803 109.598C75.7249 109.642 75.7471 109.702 75.7471 109.776V110.789C75.7471 110.953 75.6655 111.034 75.5022 111.034H71.8054L71.7497 115.076L71.8277 120.755C71.8277 120.918 71.746 121 71.5827 121H69.9459C69.7826 121 69.7009 120.918 69.7009 120.755L69.7789 115.076L69.7232 111.034H66.0376C65.9633 111.034 65.9039 111.012 65.8594 110.968C65.8149 110.923 65.7926 110.864 65.7926 110.789V109.776C65.7926 109.613 65.8742 109.531 66.0376 109.531H75.5022ZM79.3696 113.84H81.3516C84.5955 113.84 86.2175 115.021 86.2175 117.381C86.2175 119.794 84.5955 121 81.3516 121H77.5323C77.3765 121 77.2985 120.918 77.2985 120.755L77.3653 115.466L77.2985 109.776C77.2985 109.613 77.3765 109.531 77.5323 109.531H79.1803C79.3436 109.531 79.4253 109.613 79.4253 109.776L79.3696 113.84ZM79.3585 115.254L79.403 119.586H81.3516C82.2498 119.586 82.9364 119.419 83.4115 119.085C83.8866 118.743 84.1242 118.198 84.1242 117.448C84.1242 116.713 83.894 116.164 83.4338 115.8C82.981 115.436 82.2869 115.254 81.3516 115.254H79.3585ZM101.156 109.531C101.319 109.531 101.401 109.613 101.401 109.776L101.323 115.076L101.401 120.755C101.401 120.918 101.319 121 101.156 121H99.5076C99.3517 121 99.2738 120.918 99.2738 120.755L99.3406 115.076L99.2961 111.034H94.007L93.9513 115.076L94.0293 120.755C94.0293 120.918 93.9476 121 93.7843 121H92.1364C91.9805 121 91.9025 120.918 91.9025 120.755L91.9693 115.076L91.9025 109.776C91.9025 109.613 91.9805 109.531 92.1364 109.531H101.156ZM107.137 121.033L102.65 109.821L102.627 109.72C102.627 109.661 102.646 109.616 102.683 109.587C102.727 109.55 102.783 109.531 102.85 109.531H104.654C104.795 109.531 104.888 109.598 104.932 109.732L108.15 118.361L110.9 109.743C110.938 109.602 111.027 109.531 111.168 109.531H112.782C112.931 109.531 113.005 109.594 113.005 109.72L112.983 109.821L107.838 124.585C107.794 124.719 107.705 124.786 107.571 124.786H106.112C106.038 124.786 105.983 124.767 105.945 124.73C105.908 124.7 105.89 124.656 105.89 124.597C105.89 124.574 105.897 124.541 105.912 124.496L107.137 121.033ZM123.495 109.531C123.569 109.531 123.629 109.553 123.673 109.598C123.718 109.642 123.74 109.702 123.74 109.776V110.789C123.74 110.953 123.658 111.034 123.495 111.034H119.798L119.743 115.076L119.821 120.755C119.821 120.918 119.739 121 119.576 121H117.939C117.775 121 117.694 120.918 117.694 120.755L117.772 115.076L117.716 111.034H114.03C113.956 111.034 113.897 111.012 113.852 110.968C113.808 110.923 113.785 110.864 113.785 110.789V109.776C113.785 109.613 113.867 109.531 114.03 109.531H123.495ZM127.362 113.84H129.344C132.588 113.84 134.21 115.021 134.21 117.381C134.21 119.794 132.588 121 129.344 121H125.525C125.369 121 125.291 120.918 125.291 120.755L125.358 115.466L125.291 109.776C125.291 109.613 125.369 109.531 125.525 109.531H127.173C127.336 109.531 127.418 109.613 127.418 109.776L127.362 113.84ZM127.351 115.254L127.396 119.586H129.344C130.243 119.586 130.929 119.419 131.404 119.085C131.879 118.743 132.117 118.198 132.117 117.448C132.117 116.713 131.887 116.164 131.427 115.8C130.974 115.436 130.28 115.254 129.344 115.254H127.351ZM149.148 109.531C149.312 109.531 149.393 109.613 149.393 109.776L149.315 115.076L149.393 120.755C149.393 120.918 149.312 121 149.148 121H147.5C147.345 121 147.267 120.918 147.267 120.755L147.333 115.076L147.289 111.034H142L141.944 115.076L142.022 120.755C142.022 120.918 141.94 121 141.777 121H140.129C139.973 121 139.895 120.918 139.895 120.755L139.962 115.076L139.895 109.776C139.895 109.613 139.973 109.531 140.129 109.531H149.148ZM156.688 121.256C155.537 121.256 154.554 121.011 153.737 120.521C152.921 120.031 152.297 119.337 151.867 118.439C151.444 117.541 151.232 116.49 151.232 115.288C151.232 114.078 151.444 113.024 151.867 112.126C152.297 111.22 152.921 110.518 153.737 110.021C154.561 109.524 155.545 109.275 156.688 109.275C157.831 109.275 158.811 109.52 159.628 110.01C160.444 110.5 161.064 111.198 161.487 112.103C161.91 113.001 162.122 114.052 162.122 115.254C162.122 116.464 161.91 117.522 161.487 118.428C161.064 119.326 160.444 120.024 159.628 120.521C158.811 121.011 157.831 121.256 156.688 121.256ZM156.688 119.831C157.787 119.831 158.611 119.441 159.16 118.662C159.717 117.882 159.995 116.758 159.995 115.288C159.995 113.825 159.713 112.697 159.149 111.903C158.592 111.101 157.768 110.7 156.677 110.7C155.571 110.708 154.739 111.109 154.183 111.903C153.626 112.697 153.348 113.829 153.348 115.299C153.348 116.761 153.63 117.882 154.194 118.662C154.758 119.441 155.589 119.831 156.688 119.831ZM164.193 121C164.038 121 163.96 120.918 163.96 120.755L164.026 115.076L163.96 109.776C163.96 109.613 164.038 109.531 164.193 109.531H170.863C170.937 109.531 170.997 109.553 171.041 109.598C171.086 109.642 171.108 109.702 171.108 109.776V110.789C171.108 110.953 171.027 111.034 170.863 111.034H166.064L166.008 115.076L166.086 120.755C166.086 120.918 166.005 121 165.841 121H164.193ZM178.321 109.297C179.323 109.297 180.181 109.557 180.893 110.077C181.606 110.589 182.144 111.294 182.508 112.192C182.879 113.091 183.065 114.104 183.065 115.232C183.065 116.346 182.872 117.359 182.486 118.272C182.107 119.178 181.558 119.898 180.838 120.432C180.118 120.959 179.268 121.223 178.288 121.223C177.479 121.223 176.773 121.052 176.172 120.71C175.571 120.362 175.085 119.857 174.713 119.196L174.758 124.541C174.758 124.704 174.676 124.786 174.513 124.786H172.865C172.702 124.786 172.62 124.704 172.62 124.541L172.709 115.978L172.631 109.776C172.631 109.613 172.709 109.531 172.865 109.531H174.468C174.632 109.531 174.713 109.616 174.713 109.787L174.658 111.457C175.044 110.775 175.545 110.244 176.161 109.865C176.785 109.487 177.505 109.297 178.321 109.297ZM177.753 119.786C178.815 119.786 179.616 119.389 180.158 118.595C180.708 117.801 180.982 116.728 180.982 115.377C180.982 113.959 180.711 112.834 180.17 112.003C179.635 111.164 178.844 110.745 177.798 110.745C176.796 110.745 176.013 111.127 175.448 111.892C174.884 112.656 174.602 113.77 174.602 115.232C174.602 116.68 174.877 117.801 175.426 118.595C175.983 119.389 176.759 119.786 177.753 119.786ZM187.823 121.033L183.335 109.821L183.313 109.72C183.313 109.661 183.332 109.616 183.369 109.587C183.413 109.55 183.469 109.531 183.536 109.531H185.34C185.481 109.531 185.573 109.598 185.618 109.732L188.836 118.361L191.586 109.743C191.623 109.602 191.712 109.531 191.853 109.531H193.468C193.616 109.531 193.691 109.594 193.691 109.72L193.668 109.821L188.524 124.585C188.48 124.719 188.39 124.786 188.257 124.786H186.798C186.724 124.786 186.668 124.767 186.631 124.73C186.594 124.7 186.576 124.656 186.576 124.597C186.576 124.574 186.583 124.541 186.598 124.496L187.823 121.033ZM208.922 109.531C208.989 109.531 209.041 109.546 209.078 109.576C209.115 109.605 209.134 109.642 209.134 109.687C209.134 109.724 209.112 109.772 209.067 109.832L205.615 114.553L209.568 120.699C209.598 120.736 209.613 120.781 209.613 120.833C209.613 120.885 209.594 120.926 209.557 120.955C209.52 120.985 209.468 121 209.401 121H207.575C207.441 121 207.341 120.944 207.274 120.833L206.317 119.185L203.979 115.555H202.731L202.787 120.755C202.787 120.918 202.709 121 202.553 121H200.905C200.742 121 200.66 120.918 200.66 120.755L200.727 115.555H199.469L197.131 119.185L196.173 120.833C196.106 120.944 196.006 121 195.872 121H194.046C193.979 121 193.928 120.985 193.89 120.955C193.853 120.926 193.835 120.885 193.835 120.833C193.835 120.781 193.85 120.736 193.879 120.699L197.832 114.553L194.38 109.832C194.336 109.772 194.314 109.724 194.314 109.687C194.314 109.642 194.332 109.605 194.369 109.576C194.406 109.546 194.458 109.531 194.525 109.531H196.084C196.203 109.531 196.303 109.583 196.385 109.687L199.469 114.074H200.716L200.66 109.776C200.66 109.613 200.742 109.531 200.905 109.531H202.553C202.709 109.531 202.787 109.613 202.787 109.776L202.731 114.074H203.979L207.063 109.687C207.145 109.583 207.245 109.531 207.364 109.531H208.922ZM215.066 121.256C213.893 121.256 212.895 121.007 212.071 120.51C211.254 120.013 210.635 119.315 210.211 118.417C209.788 117.519 209.577 116.479 209.577 115.299C209.577 114.104 209.788 113.053 210.211 112.148C210.642 111.242 211.262 110.537 212.071 110.032C212.88 109.527 213.841 109.275 214.955 109.275C216.054 109.275 216.996 109.513 217.783 109.988C218.577 110.463 219.186 111.149 219.609 112.048C220.04 112.946 220.27 114.018 220.3 115.266C220.3 115.436 220.218 115.522 220.055 115.522H211.67C211.737 118.394 212.876 119.831 215.088 119.831C215.92 119.831 216.588 119.612 217.093 119.174C217.605 118.728 217.946 118.083 218.117 117.236C218.154 117.088 218.243 117.014 218.384 117.014H219.854C219.936 117.014 219.999 117.032 220.043 117.069C220.088 117.107 220.107 117.162 220.099 117.236C219.973 118.031 219.695 118.732 219.264 119.341C218.841 119.942 218.273 120.414 217.56 120.755C216.848 121.089 216.016 121.256 215.066 121.256ZM218.084 114.13C218.061 113.491 217.928 112.912 217.683 112.393C217.438 111.866 217.085 111.45 216.625 111.146C216.165 110.841 215.612 110.689 214.966 110.689C214.023 110.689 213.281 110.99 212.739 111.591C212.197 112.185 211.859 113.031 211.726 114.13H218.084ZM229.658 109.776C229.658 109.613 229.736 109.531 229.892 109.531H231.495C231.659 109.531 231.74 109.613 231.74 109.776L231.662 115.076L231.74 120.755C231.74 120.918 231.659 121 231.495 121H229.892C229.736 121 229.658 120.918 229.658 120.755L229.714 115.678H224.124L224.191 120.755C224.191 120.918 224.109 121 223.946 121H222.343C222.187 121 222.109 120.918 222.109 120.755L222.175 115.076L222.109 109.776C222.109 109.613 222.187 109.531 222.343 109.531H223.946C224.109 109.531 224.191 109.613 224.191 109.776L224.135 114.174H229.714L229.658 109.776ZM234.266 121C234.11 121 234.032 120.918 234.032 120.755L234.099 115.076L234.021 109.776C234.021 109.613 234.099 109.531 234.255 109.531H235.858C236.022 109.531 236.103 109.613 236.103 109.776L236.07 114.865L236.014 118.762L241.326 109.709C241.378 109.591 241.478 109.531 241.626 109.531H243.597C243.76 109.531 243.842 109.613 243.842 109.776L243.764 115.076L243.842 120.755C243.842 120.918 243.76 121 243.597 121H242.005C241.842 121 241.76 120.918 241.76 120.755L241.804 115.355L241.838 111.836L236.571 120.822C236.504 120.941 236.404 121 236.27 121H234.266ZM245.92 121C245.779 121 245.709 120.948 245.709 120.844C245.709 120.8 245.724 120.751 245.753 120.699L248.437 116.312C247.531 116.127 246.834 115.759 246.344 115.21C245.861 114.653 245.62 113.907 245.62 112.972C245.62 111.821 246.017 110.96 246.811 110.389C247.613 109.817 248.786 109.531 250.33 109.531H254.672C254.828 109.531 254.906 109.613 254.906 109.776L254.839 115.099L254.906 120.755C254.906 120.918 254.828 121 254.672 121H253.013C252.85 121 252.768 120.918 252.768 120.755L252.824 116.535H250.263L248.816 119.063L247.813 120.833C247.747 120.944 247.65 121 247.524 121H245.92ZM252.846 115.11L252.791 110.945H250.23C249.428 110.945 248.804 111.127 248.359 111.491C247.921 111.847 247.702 112.348 247.702 112.994C247.702 113.692 247.921 114.219 248.359 114.575C248.797 114.932 249.424 115.11 250.241 115.11H252.846ZM26.0616 133.865C27.0118 134.073 27.7021 134.418 28.1327 134.9C28.5632 135.375 28.7785 135.999 28.7785 136.771C28.7785 137.966 28.3146 138.805 27.3867 139.287C26.4588 139.762 25.3564 140 24.0796 140H19.4921C19.3362 140 19.2582 139.918 19.2582 139.755L19.325 134.076L19.2694 128.776C19.2694 128.613 19.3473 128.531 19.5032 128.531H24.0573C25.4678 128.531 26.5478 128.769 27.2976 129.244C28.0547 129.711 28.4333 130.417 28.4333 131.359C28.4333 132.027 28.2255 132.566 27.8098 132.974C27.4015 133.382 26.8188 133.672 26.0616 133.842V133.865ZM21.3627 129.945L21.3293 133.263H24.0351C25.594 133.263 26.3734 132.71 26.3734 131.604C26.3734 131.062 26.1655 130.65 25.7498 130.368C25.3341 130.086 24.7588 129.945 24.0239 129.945H21.3627ZM21.3182 134.644L21.3516 138.586H24.0351C24.8739 138.586 25.5271 138.426 25.9948 138.107C26.4625 137.78 26.6963 137.279 26.6963 136.604C26.6963 135.958 26.4439 135.472 25.9391 135.145C25.4418 134.811 24.8108 134.644 24.0462 134.644H21.3182ZM33.8901 142.728C33.8159 142.728 33.7565 142.706 33.7119 142.661C33.6674 142.617 33.6451 142.557 33.6451 142.483V138.764C33.6451 138.69 33.6674 138.63 33.7119 138.586C33.7565 138.541 33.8159 138.519 33.8901 138.519H34.547C34.844 138.2 35.0741 137.792 35.2374 137.294C35.4081 136.797 35.538 136.17 35.6271 135.412C35.7162 134.655 35.7941 133.672 35.861 132.462C35.9352 131.244 35.9909 130.016 36.028 128.776C36.0354 128.702 36.0614 128.642 36.1059 128.598C36.1505 128.553 36.2098 128.531 36.2841 128.531H43.711C43.8743 128.531 43.956 128.613 43.956 128.776L43.9671 133.909L44.1119 138.519L45.3033 138.508C45.474 138.508 45.5594 138.59 45.5594 138.753V142.483C45.5594 142.557 45.5371 142.617 45.4926 142.661C45.448 142.706 45.3849 142.728 45.3033 142.728H43.9782C43.904 142.728 43.8446 142.706 43.8001 142.661C43.7555 142.617 43.7333 142.557 43.7333 142.483L43.6776 140H35.5492L35.4935 142.483C35.4935 142.557 35.4712 142.617 35.4267 142.661C35.3822 142.706 35.3228 142.728 35.2485 142.728H33.8901ZM42.0631 138.519L42.0519 133.909L41.9628 130.034H37.765C37.6759 132.373 37.5534 134.18 37.3976 135.457C37.3159 136.184 37.2046 136.778 37.0635 137.239C36.9299 137.699 36.7517 138.126 36.529 138.519H42.0631ZM47.2811 140C47.1252 140 47.0473 139.918 47.0473 139.755L47.1141 134.076L47.0361 128.776C47.0361 128.613 47.1141 128.531 47.27 128.531H48.8734C49.0367 128.531 49.1184 128.613 49.1184 128.776L49.085 133.865L49.0293 137.762L54.3406 128.709C54.3926 128.591 54.4928 128.531 54.6412 128.531H56.6121C56.7754 128.531 56.8571 128.613 56.8571 128.776L56.7791 134.076L56.8571 139.755C56.8571 139.918 56.7754 140 56.6121 140H55.0198C54.8565 140 54.7748 139.918 54.7748 139.755L54.8194 134.355L54.8528 130.836L49.586 139.822C49.5192 139.941 49.419 140 49.2854 140H47.2811ZM66.4478 136.671C66.4478 135.988 66.1954 135.483 65.6906 135.156C65.1933 134.822 64.54 134.655 63.7309 134.655H62.339C62.1757 134.655 62.0941 134.574 62.0941 134.41V133.542C62.0941 133.46 62.1164 133.397 62.1609 133.353C62.2054 133.308 62.2648 133.286 62.339 133.286H63.7309C64.5029 133.286 65.0931 133.141 65.5013 132.851C65.917 132.555 66.1249 132.109 66.1249 131.515C66.1249 130.951 65.9096 130.509 65.4791 130.19C65.0485 129.864 64.4584 129.7 63.7086 129.7C62.9069 129.7 62.2574 129.875 61.76 130.224C61.2627 130.573 60.9769 131.088 60.9027 131.771C60.8878 131.92 60.8024 131.994 60.6466 131.994H59.2102C59.1285 131.994 59.0654 131.972 59.0209 131.927C58.9838 131.883 58.9689 131.823 58.9763 131.749C59.0654 130.613 59.5405 129.756 60.4016 129.177C61.2627 128.591 62.3836 128.297 63.7643 128.297C65.1302 128.297 66.2065 128.561 66.9934 129.088C67.7877 129.607 68.1848 130.354 68.1848 131.326C68.1848 132.009 67.9733 132.558 67.5501 132.974C67.1344 133.39 66.5554 133.679 65.8131 133.842V133.865C66.7484 134.073 67.4351 134.414 67.8731 134.889C68.311 135.364 68.53 135.991 68.53 136.771C68.53 137.535 68.3036 138.178 67.8508 138.697C67.4054 139.217 66.8078 139.603 66.0581 139.855C65.3158 140.1 64.4992 140.223 63.6084 140.223C62.0644 140.223 60.8618 139.889 60.0007 139.221C59.1396 138.545 58.6831 137.55 58.6312 136.236C58.6312 136.073 58.7128 135.991 58.8761 135.991H60.3793C60.5278 135.991 60.6094 136.073 60.6243 136.236C60.7208 137.951 61.7303 138.809 63.653 138.809C64.4992 138.809 65.1747 138.623 65.6795 138.252C66.1917 137.881 66.4478 137.354 66.4478 136.671ZM78.2232 128.787C78.2158 128.706 78.2344 128.642 78.2789 128.598C78.3234 128.553 78.3865 128.531 78.4682 128.531H80.0605C80.2238 128.531 80.3054 128.613 80.3054 128.776L80.2164 134.143L80.3054 139.755C80.3054 139.918 80.2238 140 80.0605 140H78.4793C78.3977 140 78.3346 139.978 78.29 139.933C78.2455 139.889 78.2269 139.829 78.2344 139.755L78.2678 138.029C77.8892 138.727 77.3918 139.265 76.7757 139.644C76.1596 140.022 75.4395 140.212 74.6155 140.212C73.6134 140.212 72.756 139.955 72.0434 139.443C71.3308 138.924 70.7889 138.218 70.4177 137.328C70.054 136.429 69.8721 135.416 69.8721 134.288C69.8721 133.174 70.0614 132.165 70.44 131.259C70.8186 130.346 71.3679 129.626 72.0879 129.099C72.8154 128.572 73.6691 128.308 74.6489 128.308C75.4655 128.308 76.1781 128.483 76.7868 128.832C77.403 129.181 77.8966 129.697 78.2678 130.38L78.2232 128.787ZM75.1166 138.786C76.1262 138.786 76.913 138.408 77.4772 137.651C78.0414 136.886 78.3234 135.761 78.3234 134.277C78.3234 132.829 78.0451 131.712 77.4883 130.925C76.9316 130.131 76.1484 129.734 75.1389 129.734C74.0848 129.734 73.2905 130.131 72.756 130.925C72.2216 131.719 71.9543 132.792 71.9543 134.143C71.9543 135.568 72.2216 136.7 72.756 137.539C73.2905 138.371 74.0774 138.786 75.1166 138.786ZM82.823 140C82.6671 140 82.5891 139.918 82.5891 139.755L82.6559 134.076L82.578 128.776C82.578 128.613 82.6559 128.531 82.8118 128.531H84.4152C84.5785 128.531 84.6602 128.613 84.6602 128.776L84.6268 133.865L84.5711 137.762L89.8824 128.709C89.9344 128.591 90.0346 128.531 90.1831 128.531H92.1539C92.3172 128.531 92.3989 128.613 92.3989 128.776L92.321 134.076L92.3989 139.755C92.3989 139.918 92.3172 140 92.1539 140H90.5617C90.3983 140 90.3167 139.918 90.3167 139.755L90.3612 134.355L90.3946 130.836L85.1279 139.822C85.0611 139.941 84.9608 140 84.8272 140H82.823ZM87.5219 127.251C88.2122 127.251 88.8135 127.124 89.3257 126.872C89.8379 126.62 90.2313 126.263 90.506 125.803C90.7806 125.343 90.918 124.808 90.918 124.2H89.27C89.2552 124.756 89.0993 125.198 88.8024 125.525C88.5128 125.851 88.0971 126.015 87.5553 126.015C86.9985 126.015 86.5754 125.851 86.2859 125.525C86.0038 125.198 85.8628 124.756 85.8628 124.2H84.2148C84.2148 124.808 84.3484 125.343 84.6157 125.803C84.8829 126.263 85.2652 126.62 85.7625 126.872C86.2599 127.124 86.8463 127.251 87.5219 127.251ZM102.236 128.776C102.236 128.613 102.314 128.531 102.469 128.531H104.073C104.236 128.531 104.318 128.613 104.318 128.776L104.24 134.076L104.318 139.755C104.318 139.918 104.236 140 104.073 140H102.469C102.314 140 102.236 139.918 102.236 139.755L102.291 134.678H96.7016L96.7684 139.755C96.7684 139.918 96.6868 140 96.5235 140H94.9201C94.7642 140 94.6862 139.918 94.6862 139.755L94.753 134.076L94.6862 128.776C94.6862 128.613 94.7642 128.531 94.9201 128.531H96.5235C96.6868 128.531 96.7684 128.613 96.7684 128.776L96.7128 133.174H102.291L102.236 128.776Z" fill="#787878"/>
<path d="M36.5824 37.9624L36.7333 45.9303H39.2663C39.3334 45.9303 39.3893 45.9526 39.434 45.9974C39.4788 46.0309 39.5011 46.0868 39.5011 46.1651V54.0491C39.5011 54.1274 39.4788 54.1833 39.434 54.2169C39.3893 54.2616 39.3334 54.284 39.2663 54.284H35.8611C35.7045 54.284 35.6262 54.2057 35.6262 54.0491L35.492 49H20.0427L19.8917 54.0491C19.8917 54.2057 19.8134 54.284 19.6569 54.284H16.2348C16.0783 54.284 16 54.2057 16 54.0491V46.1651C16 46.0085 16.0783 45.9303 16.2348 45.9303H17.7613C18.4435 45.058 18.9859 44.018 19.3885 42.8102C19.791 41.6024 20.0762 40.1374 20.244 38.4153C20.3782 36.9279 20.5012 35.0268 20.613 32.7119C20.736 30.3858 20.8199 28.0654 20.8646 25.7505C20.8646 25.6722 20.887 25.6163 20.9317 25.5827C20.9764 25.538 21.0324 25.5156 21.0995 25.5156H36.2804C36.437 25.5156 36.5153 25.5939 36.5153 25.7505L36.5824 37.9624ZM23.9176 38.2643C23.5821 41.7646 22.8999 44.3199 21.8711 45.9303H32.6068L32.59 37.9624L32.4894 28.5854H24.4879C24.3425 32.7231 24.1524 35.9494 23.9176 38.2643ZM65.2896 31.7222C65.4238 31.7222 65.4909 31.7725 65.4909 31.8732C65.4909 31.9067 65.4742 31.9515 65.4406 32.0074L60.2908 39.2372L66.1787 48.7148C66.2011 48.7819 66.2122 48.8267 66.2122 48.849C66.2122 48.9497 66.1451 49 66.0109 49H61.8676C61.7446 49 61.6551 48.9497 61.5992 48.849L59.905 45.8296L57.1204 41.1831H55.3591L55.4262 48.7652C55.4262 48.9217 55.3479 49 55.1914 49H51.5681C51.4115 49 51.3332 48.9217 51.3332 48.7652L51.3835 41.1831H49.639L46.8544 45.8296L45.1602 48.849C45.0931 48.9497 44.998 49 44.875 49H40.7317C40.6758 49 40.6311 48.9888 40.5975 48.9665C40.564 48.9329 40.5472 48.8938 40.5472 48.849L40.5807 48.7148L46.4518 39.2372L41.3188 32.0074C41.2853 31.9515 41.2685 31.9067 41.2685 31.8732C41.2685 31.7725 41.3356 31.7222 41.4698 31.7222H45.026C45.1714 31.7222 45.2664 31.7725 45.3112 31.8732L49.6558 38.3482H51.3835L51.3332 31.9571C51.3332 31.8005 51.4115 31.7222 51.5681 31.7222H55.1914C55.3479 31.7222 55.4262 31.8005 55.4262 31.9571L55.3759 38.3482H57.1037L61.4315 31.8732C61.4986 31.7725 61.5992 31.7222 61.7334 31.7222H65.2896ZM73.077 49.1006L66.1994 31.9906C66.1882 31.9682 66.1826 31.9347 66.1826 31.89C66.1826 31.7781 66.2497 31.7222 66.3839 31.7222H70.4266C70.5608 31.7222 70.6558 31.7837 70.7117 31.9067L75.0563 43.9509L78.73 31.9067C78.7635 31.7837 78.8474 31.7222 78.9816 31.7222H82.6217C82.8118 31.7222 82.8733 31.8117 82.8062 31.9906L75.0228 54.5188C74.9669 54.6418 74.8774 54.7033 74.7544 54.7033H71.3995C71.2094 54.7033 71.1479 54.6139 71.215 54.435L73.077 49.1006ZM95.0728 31.9571C95.0728 31.8005 95.1511 31.7222 95.3077 31.7222H98.931C99.0875 31.7222 99.1658 31.8005 99.1658 31.9571L99.1155 40.2269L99.1658 48.7652C99.1658 48.9217 99.0875 49 98.931 49H95.3077C95.1511 49 95.0728 48.9217 95.0728 48.7652L95.1232 41.334H87.8262L87.8766 48.7652C87.8766 48.9217 87.7983 49 87.6417 49H84.0184C83.8618 49 83.7836 48.9217 83.7836 48.7652L83.8507 40.2269L83.7836 31.9571C83.7836 31.8005 83.8618 31.7222 84.0184 31.7222H87.6417C87.7983 31.7222 87.8766 31.8005 87.8766 31.9571L87.8262 38.4488H95.1232L95.0728 31.9571ZM101.398 49.0168C101.242 49.0168 101.164 48.9441 101.164 48.7987L101.231 40.294L101.197 31.9235C101.197 31.7781 101.275 31.7054 101.432 31.7054H105.055C105.212 31.7054 105.29 31.7781 105.29 31.9235L105.24 37.8617H107.756C110.306 37.8617 112.229 38.3146 113.526 39.2204C114.824 40.1263 115.472 41.513 115.472 43.3805C115.472 47.1268 112.9 49 107.756 49L101.398 49.0168ZM116.865 49C116.708 49 116.63 48.9217 116.63 48.7652L116.697 40.5289L116.63 31.9571C116.63 31.8005 116.708 31.7222 116.865 31.7222H120.488C120.644 31.7222 120.723 31.8005 120.723 31.9571L120.672 40.5289L120.723 48.7652C120.723 48.9217 120.644 49 120.488 49H116.865ZM105.223 40.5456L105.24 46.3161H107.773C110.166 46.3161 111.362 45.3767 111.362 43.498C111.362 42.525 111.072 41.7925 110.49 41.3005C109.92 40.7972 109.014 40.5456 107.773 40.5456H105.223Z" fill="#1A0000"/>
<rect x="16.5" y="241.5" width="80" height="42" rx="21" fill="#1A0000" stroke="black"/>
<path d="M39.647 273.232C39.6724 273.283 39.6851 273.33 39.6851 273.372C39.6851 273.499 39.6046 273.563 39.4434 273.563H38.1454C37.9927 273.563 37.8782 273.495 37.8018 273.359C36.9365 271.612 36.2791 269.852 35.8294 268.079C35.3883 266.297 35.1677 264.392 35.1677 262.365C35.1677 258.539 36.0373 254.959 37.7764 251.625C37.8527 251.489 37.9673 251.421 38.12 251.421H39.4179C39.5791 251.421 39.6597 251.485 39.6597 251.612C39.6597 251.655 39.647 251.701 39.6215 251.752C38.0945 255.171 37.331 258.709 37.331 262.365C37.331 266.115 38.103 269.737 39.647 273.232ZM47.6356 270.318C46.3461 270.318 45.2178 269.953 44.2507 269.224C43.2836 268.494 42.5328 267.438 41.9983 266.055C41.4724 264.672 41.2094 263.022 41.2094 261.105C41.2094 259.154 41.4724 257.487 41.9983 256.104C42.5243 254.713 43.2708 253.661 44.238 252.948C45.2135 252.227 46.3503 251.867 47.6483 251.867C48.9462 251.867 50.0745 252.223 51.0332 252.936C52.0003 253.648 52.7468 254.7 53.2728 256.091C53.8072 257.483 54.0745 259.158 54.0745 261.118C54.0745 263.035 53.8072 264.685 53.2728 266.068C52.7468 267.451 52.0003 268.507 51.0332 269.236C50.0661 269.958 48.9335 270.318 47.6356 270.318ZM47.6483 268.422C48.8953 268.422 49.8625 267.803 50.5496 266.564C51.2368 265.326 51.5803 263.51 51.5803 261.118C51.5803 259.523 51.4234 258.178 51.1095 257.084C50.7956 255.981 50.3418 255.154 49.7479 254.603C49.1626 254.043 48.4585 253.763 47.6356 253.763C46.3715 253.763 45.3959 254.386 44.7088 255.633C44.0301 256.88 43.6908 258.709 43.6908 261.118C43.6908 262.704 43.8477 264.045 44.1616 265.139C44.484 266.225 44.9378 267.044 45.5232 267.595C46.117 268.146 46.8254 268.422 47.6483 268.422ZM58.5676 269.72C58.5676 269.805 58.5422 269.873 58.4913 269.924C58.4404 269.975 58.3725 270 58.2877 270H56.2389C56.1541 270 56.0862 269.975 56.0353 269.924C55.9844 269.873 55.959 269.805 55.959 269.72V267.697C55.959 267.51 56.0523 267.417 56.2389 267.417H58.2877C58.4743 267.417 58.5676 267.51 58.5676 267.697V269.72ZM66.8465 270.318C65.557 270.318 64.4287 269.953 63.4616 269.224C62.4945 268.494 61.7437 267.438 61.2093 266.055C60.6833 264.672 60.4203 263.022 60.4203 261.105C60.4203 259.154 60.6833 257.487 61.2093 256.104C61.7353 254.713 62.4818 253.661 63.4489 252.948C64.4245 252.227 65.5613 251.867 66.8592 251.867C68.1572 251.867 69.2855 252.223 70.2441 252.936C71.2112 253.648 71.9578 254.7 72.4837 256.091C73.0182 257.483 73.2854 259.158 73.2854 261.118C73.2854 263.035 73.0182 264.685 72.4837 266.068C71.9578 267.451 71.2112 268.507 70.2441 269.236C69.277 269.958 68.1445 270.318 66.8465 270.318ZM66.8592 268.422C68.1063 268.422 69.0734 267.803 69.7606 266.564C70.4477 265.326 70.7913 263.51 70.7913 261.118C70.7913 259.523 70.6344 258.178 70.3205 257.084C70.0066 255.981 69.5527 255.154 68.9589 254.603C68.3735 254.043 67.6694 253.763 66.8465 253.763C65.5825 253.763 64.6069 254.386 63.9197 255.633C63.2411 256.88 62.9017 258.709 62.9017 261.118C62.9017 262.704 63.0587 264.045 63.3726 265.139C63.6949 266.225 64.1488 267.044 64.7341 267.595C65.328 268.146 66.0363 268.422 66.8592 268.422ZM76.6962 273.359C76.6198 273.495 76.5053 273.563 76.3526 273.563H75.0546C74.8934 273.563 74.8128 273.499 74.8128 273.372C74.8128 273.33 74.8256 273.283 74.851 273.232C76.395 269.737 77.167 266.115 77.167 262.365C77.167 258.709 76.4035 255.171 74.8765 251.752C74.851 251.701 74.8383 251.655 74.8383 251.612C74.8383 251.485 74.9189 251.421 75.0801 251.421H76.378C76.5307 251.421 76.6453 251.489 76.7216 251.625C78.4692 254.976 79.343 258.556 79.343 262.365C79.343 264.384 79.1182 266.284 78.6685 268.066C78.2189 269.847 77.5615 271.612 76.6962 273.359Z" fill="white"/>
</svg>
