<svg width="1066" height="600" viewBox="0 0 1066 600" fill="none" xmlns="http://www.w3.org/2000/svg">
<g clip-path="url(#clip0_2659_480)">
<rect width="1066" height="599.625" rx="30" fill="#6C6C6C"/>
<rect x="426.398" width="269.831" height="599.625" fill="#FF5C39"/>
<path d="M453.421 40.6824C453.421 40.7787 453.392 40.8556 453.334 40.9134C453.276 40.9711 453.2 41 453.103 41H440.949C440.852 41 440.775 40.9711 440.718 40.9134C440.66 40.8556 440.631 40.7787 440.631 40.6824V38.3728C440.631 37.0351 440.91 35.9091 441.468 34.9949C442.026 34.0806 442.7 33.3492 443.489 32.8007C444.288 32.2521 445.327 31.6458 446.607 30.9818C447.627 30.4525 448.421 30.005 448.989 29.6393C449.567 29.264 450.048 28.8117 450.433 28.2824C450.818 27.7435 451.01 27.1083 451.01 26.3769C451.029 25.6167 450.895 24.9478 450.606 24.3704C450.327 23.7834 449.899 23.3262 449.321 22.999C448.744 22.6622 448.032 22.4938 447.185 22.4938C445.924 22.4938 444.942 22.9076 444.24 23.7352C443.537 24.5532 443.152 25.7562 443.085 27.3441C443.075 27.4403 443.042 27.5173 442.984 27.5751C442.926 27.6328 442.844 27.6617 442.739 27.6617H440.905C440.694 27.6617 440.588 27.551 440.588 27.3297C440.636 25.1162 441.223 23.4225 442.349 22.2484C443.475 21.0647 445.087 20.468 447.185 20.4584C448.532 20.4584 449.677 20.6942 450.62 21.1657C451.563 21.6277 452.28 22.2965 452.771 23.1723C453.272 24.048 453.536 25.0922 453.565 26.3047C453.565 27.5077 453.296 28.5278 452.757 29.3651C452.228 30.2023 451.583 30.8808 450.822 31.4004C450.062 31.9201 449.057 32.5024 447.805 33.1471C446.756 33.6861 445.929 34.1528 445.323 34.5474C444.716 34.9323 444.206 35.4087 443.792 35.9765C443.388 36.5443 443.186 37.2179 443.186 37.9974V38.9069H453.103C453.2 38.9069 453.276 38.9357 453.334 38.9935C453.392 39.0512 453.421 39.1282 453.421 39.2244V40.6824ZM462.848 41.3753C460.866 41.3753 459.316 40.8749 458.2 39.874C457.093 38.8732 456.439 37.4922 456.237 35.7311V35.6878C456.237 35.4953 456.338 35.3991 456.54 35.3991H458.633C458.835 35.3991 458.946 35.5049 458.965 35.7166C459.052 36.8426 459.427 37.7424 460.091 38.4161C460.755 39.0801 461.669 39.4121 462.834 39.4121C463.69 39.4121 464.436 39.1908 465.071 38.7481C465.706 38.3054 466.192 37.6654 466.529 36.8282C466.876 35.9813 467.049 34.9804 467.049 33.8256C467.049 32.1222 466.698 30.8182 465.995 29.9136C465.302 29.009 464.301 28.5567 462.992 28.5567C461.982 28.5567 461.154 28.8117 460.51 29.3217C459.865 29.8222 459.417 30.5439 459.167 31.4871C459.109 31.6795 458.989 31.7758 458.806 31.7758H457.016C456.795 31.7758 456.689 31.6603 456.699 31.4293L457.377 21.0936C457.396 20.8915 457.507 20.7904 457.709 20.7904H468.29C468.386 20.7904 468.463 20.8193 468.521 20.877C468.579 20.9348 468.608 21.0118 468.608 21.108V22.566C468.608 22.7777 468.502 22.8835 468.29 22.8835H459.744L459.311 28.4412C459.87 27.8157 460.505 27.3441 461.217 27.0265C461.939 26.7089 462.771 26.5501 463.714 26.5501C464.908 26.5501 465.976 26.8389 466.919 27.4163C467.862 27.9937 468.598 28.8213 469.127 29.8992C469.666 30.9674 469.936 32.2233 469.936 33.6668C469.936 35.2162 469.638 36.5731 469.041 37.7376C468.454 38.9021 467.621 39.8019 466.544 40.437C465.475 41.0626 464.243 41.3753 462.848 41.3753ZM477.29 30.3322C476.366 30.3322 475.562 30.1446 474.879 29.7692C474.196 29.3939 473.666 28.8406 473.291 28.1092C472.916 27.3778 472.728 26.4924 472.728 25.4531C472.728 24.4233 472.916 23.538 473.291 22.7969C473.666 22.0463 474.196 21.4785 474.879 21.0936C475.572 20.699 476.38 20.5017 477.304 20.5017C478.228 20.5017 479.031 20.699 479.715 21.0936C480.398 21.4785 480.922 22.0463 481.288 22.7969C481.664 23.538 481.851 24.4281 481.851 25.4675C481.851 26.4972 481.664 27.3778 481.288 28.1092C480.913 28.8309 480.379 29.3843 479.686 29.7692C479.003 30.1446 478.204 30.3322 477.29 30.3322ZM478.069 40.7979C477.982 40.9326 477.857 41 477.694 41H476.063C475.976 41 475.909 40.9808 475.86 40.9423C475.812 40.9038 475.788 40.8556 475.788 40.7979C475.788 40.7402 475.812 40.6776 475.86 40.6102L488.982 20.9925C489.069 20.8578 489.194 20.7904 489.358 20.7904H490.989C491.075 20.7904 491.143 20.8097 491.191 20.8482C491.239 20.8866 491.263 20.9348 491.263 20.9925C491.263 21.0503 491.239 21.1128 491.191 21.1802L478.069 40.7979ZM477.29 28.6722C478.002 28.6722 478.55 28.4027 478.935 27.8638C479.32 27.3248 479.513 26.5261 479.513 25.4675C479.513 24.3896 479.315 23.5716 478.921 23.0135C478.526 22.4457 477.978 22.1618 477.275 22.1618C476.573 22.1618 476.024 22.4457 475.63 23.0135C475.245 23.5716 475.052 24.3896 475.052 25.4675C475.052 26.5068 475.245 27.3008 475.63 27.8493C476.024 28.3979 476.577 28.6722 477.29 28.6722ZM489.834 41.2887C488.92 41.2887 488.121 41.0914 487.438 40.6969C486.754 40.3023 486.225 39.7345 485.85 38.9935C485.474 38.2428 485.287 37.3478 485.287 36.3085C485.287 35.2788 485.474 34.403 485.85 33.6812C486.225 32.9498 486.754 32.3965 487.438 32.0212C488.121 31.6458 488.925 31.4582 489.848 31.4582C490.772 31.4582 491.576 31.6458 492.259 32.0212C492.942 32.3965 493.467 32.9498 493.833 33.6812C494.208 34.403 494.396 35.2836 494.396 36.3229C494.396 37.3527 494.208 38.2428 493.833 38.9935C493.457 39.7441 492.923 40.3167 492.23 40.7113C491.547 41.0962 490.748 41.2887 489.834 41.2887ZM489.848 39.6286C490.551 39.6286 491.095 39.3496 491.48 38.7914C491.874 38.2332 492.071 37.4104 492.071 36.3229C492.071 35.2932 491.874 34.5041 491.48 33.9555C491.085 33.3973 490.536 33.1183 489.834 33.1183C489.112 33.1183 488.559 33.3925 488.174 33.9411C487.799 34.48 487.611 35.274 487.611 36.3229C487.611 37.4104 487.808 38.2332 488.203 38.7914C488.597 39.3496 489.146 39.6286 489.848 39.6286Z" fill="white"/>
<path d="M441.956 577.805C441.956 577.864 441.938 577.911 441.902 577.947C441.867 577.982 441.819 578 441.76 578H440.57C440.446 578 440.383 577.935 440.383 577.805L440.472 571.906L440.392 565.759C440.392 565.628 440.454 565.563 440.579 565.563H442.515C442.628 565.563 442.702 565.617 442.737 565.723L446.664 575.877L450.501 565.723C450.537 565.617 450.611 565.563 450.724 565.563H452.527C452.657 565.563 452.722 565.628 452.722 565.759L452.642 571.906L452.731 577.805C452.731 577.935 452.666 578 452.536 578H451.212C451.153 578 451.106 577.982 451.07 577.947C451.034 577.911 451.017 577.864 451.017 577.805L451.034 573.079L451.097 567.802L447.295 577.84C447.253 577.947 447.179 578 447.073 578H446.051C445.944 578 445.867 577.947 445.82 577.84L441.867 567.633L441.938 573.079L441.956 577.805ZM461.496 569.054C461.49 568.989 461.505 568.939 461.541 568.903C461.576 568.868 461.626 568.85 461.692 568.85H462.962C463.092 568.85 463.157 568.915 463.157 569.046L463.086 573.327L463.157 577.805C463.157 577.935 463.092 578 462.962 578H461.7C461.635 578 461.585 577.982 461.549 577.947C461.514 577.911 461.499 577.864 461.505 577.805L461.532 576.428C461.23 576.984 460.833 577.414 460.341 577.716C459.85 578.018 459.275 578.169 458.618 578.169C457.818 578.169 457.134 577.964 456.566 577.556C455.997 577.141 455.565 576.579 455.269 575.868C454.979 575.151 454.834 574.343 454.834 573.443C454.834 572.555 454.985 571.749 455.287 571.027C455.589 570.298 456.027 569.724 456.601 569.303C457.182 568.883 457.863 568.672 458.645 568.672C459.296 568.672 459.865 568.812 460.35 569.09C460.842 569.368 461.236 569.78 461.532 570.325L461.496 569.054ZM459.018 577.032C459.823 577.032 460.451 576.73 460.901 576.126C461.351 575.516 461.576 574.618 461.576 573.434C461.576 572.279 461.354 571.388 460.91 570.76C460.466 570.126 459.841 569.81 459.035 569.81C458.194 569.81 457.561 570.126 457.134 570.76C456.708 571.394 456.495 572.25 456.495 573.327C456.495 574.464 456.708 575.368 457.134 576.037C457.561 576.7 458.189 577.032 459.018 577.032ZM471.526 569.046C471.526 568.915 471.588 568.85 471.713 568.85H472.992C473.122 568.85 473.187 568.915 473.187 569.046L473.125 573.274L473.187 577.805C473.187 577.935 473.122 578 472.992 578H471.713C471.588 578 471.526 577.935 471.526 577.805L471.571 573.754H467.111L467.165 577.805C467.165 577.935 467.099 578 466.969 578H465.69C465.566 578 465.503 577.935 465.503 577.805L465.557 573.274L465.503 569.046C465.503 568.915 465.566 568.85 465.69 568.85H466.969C467.099 568.85 467.165 568.915 467.165 569.046L467.12 572.555H471.571L471.526 569.046ZM474.92 580.176C474.861 580.176 474.814 580.159 474.778 580.123C474.743 580.088 474.725 580.04 474.725 579.981V577.014C474.725 576.955 474.743 576.907 474.778 576.872C474.814 576.836 474.861 576.819 474.92 576.819H475.444C475.681 576.564 475.865 576.238 475.995 575.841C476.131 575.445 476.235 574.944 476.306 574.34C476.377 573.736 476.439 572.951 476.493 571.986C476.552 571.015 476.596 570.035 476.626 569.046C476.632 568.986 476.653 568.939 476.688 568.903C476.724 568.868 476.771 568.85 476.83 568.85H482.755C482.886 568.85 482.951 568.915 482.951 569.046L482.96 573.141L483.075 576.819L484.026 576.81C484.162 576.81 484.23 576.875 484.23 577.005V579.981C484.23 580.04 484.212 580.088 484.177 580.123C484.141 580.159 484.091 580.176 484.026 580.176H482.969C482.909 580.176 482.862 580.159 482.827 580.123C482.791 580.088 482.773 580.04 482.773 579.981L482.729 578H476.244L476.2 579.981C476.2 580.04 476.182 580.088 476.146 580.123C476.111 580.159 476.063 580.176 476.004 580.176H474.92ZM481.441 576.819L481.432 573.141L481.361 570.049H478.012C477.941 571.915 477.843 573.357 477.719 574.376C477.653 574.956 477.565 575.43 477.452 575.797C477.346 576.164 477.203 576.505 477.026 576.819H481.441ZM491.901 569.054C491.895 568.989 491.91 568.939 491.946 568.903C491.981 568.868 492.032 568.85 492.097 568.85H493.367C493.497 568.85 493.563 568.915 493.563 569.046L493.492 573.327L493.563 577.805C493.563 577.935 493.497 578 493.367 578H492.106C492.041 578 491.99 577.982 491.955 577.947C491.919 577.911 491.904 577.864 491.91 577.805L491.937 576.428C491.635 576.984 491.238 577.414 490.747 577.716C490.255 578.018 489.681 578.169 489.023 578.169C488.224 578.169 487.54 577.964 486.971 577.556C486.403 577.141 485.97 576.579 485.674 575.868C485.384 575.151 485.239 574.343 485.239 573.443C485.239 572.555 485.39 571.749 485.692 571.027C485.994 570.298 486.432 569.724 487.007 569.303C487.587 568.883 488.268 568.672 489.05 568.672C489.701 568.672 490.27 568.812 490.755 569.09C491.247 569.368 491.641 569.78 491.937 570.325L491.901 569.054ZM489.423 577.032C490.228 577.032 490.856 576.73 491.306 576.126C491.756 575.516 491.981 574.618 491.981 573.434C491.981 572.279 491.759 571.388 491.315 570.76C490.871 570.126 490.246 569.81 489.441 569.81C488.6 569.81 487.966 570.126 487.54 570.76C487.113 571.394 486.9 572.25 486.9 573.327C486.9 574.464 487.113 575.368 487.54 576.037C487.966 576.7 488.594 577.032 489.423 577.032ZM500.43 568.664C501.23 568.664 501.914 568.871 502.482 569.285C503.051 569.694 503.48 570.257 503.77 570.973C504.066 571.69 504.215 572.498 504.215 573.398C504.215 574.287 504.061 575.095 503.753 575.824C503.451 576.546 503.012 577.121 502.438 577.547C501.863 577.967 501.185 578.178 500.404 578.178C499.758 578.178 499.195 578.041 498.716 577.769C498.236 577.491 497.848 577.088 497.552 576.561L497.588 580.825C497.588 580.955 497.522 581.02 497.392 581.02H496.077C495.947 581.02 495.882 580.955 495.882 580.825L495.953 573.994L495.891 569.046C495.891 568.915 495.953 568.85 496.077 568.85H497.357C497.487 568.85 497.552 568.918 497.552 569.054L497.508 570.387C497.816 569.842 498.215 569.419 498.707 569.117C499.204 568.815 499.779 568.664 500.43 568.664ZM499.977 577.032C500.824 577.032 501.464 576.715 501.896 576.081C502.334 575.448 502.553 574.592 502.553 573.514C502.553 572.383 502.337 571.486 501.905 570.822C501.478 570.153 500.848 569.818 500.013 569.818C499.213 569.818 498.588 570.123 498.138 570.733C497.688 571.343 497.463 572.232 497.463 573.398C497.463 574.553 497.682 575.448 498.121 576.081C498.565 576.715 499.184 577.032 499.977 577.032ZM506.418 578C506.294 578 506.232 577.935 506.232 577.805L506.285 573.274L506.223 569.046C506.223 568.915 506.285 568.85 506.41 568.85H507.689C507.819 568.85 507.884 568.915 507.884 569.046L507.858 573.105L507.813 576.214L512.05 568.992C512.092 568.898 512.172 568.85 512.29 568.85H513.863C513.993 568.85 514.058 568.915 514.058 569.046L513.996 573.274L514.058 577.805C514.058 577.935 513.993 578 513.863 578H512.592C512.462 578 512.397 577.935 512.397 577.805L512.432 573.496L512.459 570.689L508.257 577.858C508.204 577.953 508.124 578 508.017 578H506.418ZM522.439 569.046C522.439 568.915 522.501 568.85 522.625 568.85H523.905C524.035 568.85 524.1 568.915 524.1 569.046L524.038 573.274L524.1 577.805C524.1 577.935 524.035 578 523.905 578H522.625C522.501 578 522.439 577.935 522.439 577.805L522.483 573.754H518.024L518.077 577.805C518.077 577.935 518.012 578 517.882 578H516.602C516.478 578 516.416 577.935 516.416 577.805L516.469 573.274L516.416 569.046C516.416 568.915 516.478 568.85 516.602 568.85H517.882C518.012 568.85 518.077 568.915 518.077 569.046L518.033 572.555H522.483L522.439 569.046ZM533.32 568.85C533.373 568.85 533.414 568.862 533.444 568.886C533.474 568.909 533.488 568.939 533.488 568.975C533.488 569.016 533.474 569.054 533.444 569.09L530.743 572.821L533.879 577.76C533.903 577.79 533.915 577.825 533.915 577.867C533.915 577.908 533.9 577.941 533.87 577.964C533.841 577.988 533.799 578 533.746 578H532.271C532.171 578 532.091 577.953 532.031 577.858L531.294 576.57L529.438 573.683H528.096L528.149 577.805C528.149 577.935 528.084 578 527.954 578H526.639C526.515 578 526.453 577.935 526.453 577.805L526.506 573.274L526.453 569.046C526.453 568.915 526.515 568.85 526.639 568.85H527.954C528.084 568.85 528.149 568.915 528.149 569.046L528.105 572.483H529.455L531.863 568.983C531.928 568.895 532.008 568.85 532.103 568.85H533.32ZM541.079 569.054C541.073 568.989 541.088 568.939 541.123 568.903C541.159 568.868 541.209 568.85 541.274 568.85H542.545C542.675 568.85 542.74 568.915 542.74 569.046L542.669 573.327L542.74 577.805C542.74 577.935 542.675 578 542.545 578H541.283C541.218 578 541.168 577.982 541.132 577.947C541.097 577.911 541.082 577.864 541.088 577.805L541.115 576.428C540.812 576.984 540.416 577.414 539.924 577.716C539.433 578.018 538.858 578.169 538.201 578.169C537.401 578.169 536.717 577.964 536.149 577.556C535.58 577.141 535.148 576.579 534.852 575.868C534.562 575.151 534.416 574.343 534.416 573.443C534.416 572.555 534.568 571.749 534.87 571.027C535.172 570.298 535.61 569.724 536.184 569.303C536.765 568.883 537.446 568.672 538.227 568.672C538.879 568.672 539.447 568.812 539.933 569.09C540.425 569.368 540.818 569.78 541.115 570.325L541.079 569.054ZM538.601 577.032C539.406 577.032 540.034 576.73 540.484 576.126C540.934 575.516 541.159 574.618 541.159 573.434C541.159 572.279 540.937 571.388 540.493 570.76C540.049 570.126 539.424 569.81 538.618 569.81C537.777 569.81 537.144 570.126 536.717 570.76C536.291 571.394 536.078 572.25 536.078 573.327C536.078 574.464 536.291 575.368 536.717 576.037C537.144 576.7 537.771 577.032 538.601 577.032Z" fill="white"/>
<path d="M450.776 54.3616C450.841 54.3616 450.888 54.3823 450.918 54.4238C450.948 54.4593 450.959 54.5096 450.954 54.5748L450.829 55.4009C450.823 55.5253 450.755 55.5875 450.625 55.5875H448.182L447.56 59.9048H449.994C450.059 59.9048 450.107 59.9255 450.136 59.967C450.172 60.0025 450.184 60.0528 450.172 60.118L450.03 60.9441C450.012 61.0685 449.941 61.1307 449.816 61.1307H447.391L447 63.8134C446.983 63.9378 446.915 64 446.796 64H445.659C445.594 64 445.544 63.9822 445.508 63.9467C445.478 63.9052 445.47 63.8519 445.481 63.7868L445.855 61.1307H443.385L443.003 63.8134C442.985 63.9378 442.914 64 442.79 64H441.653C441.588 64 441.537 63.9822 441.502 63.9467C441.472 63.9052 441.463 63.8519 441.475 63.7868L441.857 61.1307H439.423C439.358 61.1307 439.307 61.1129 439.272 61.0774C439.242 61.0359 439.233 60.9826 439.245 60.9175L439.387 60.0913C439.405 59.967 439.476 59.9048 439.601 59.9048H442.026L442.648 55.5875H440.231C440.166 55.5875 440.119 55.5697 440.089 55.5342C440.06 55.4927 440.048 55.4394 440.054 55.3743L440.178 54.5481C440.19 54.4238 440.258 54.3616 440.382 54.3616H442.816L443.198 51.7499C443.216 51.6255 443.284 51.5633 443.403 51.5633H444.54C444.676 51.5633 444.735 51.6344 444.717 51.7765L444.353 54.3616H446.823L447.196 51.7499C447.214 51.6255 447.285 51.5633 447.409 51.5633H448.546C448.682 51.5633 448.742 51.6344 448.724 51.7765L448.36 54.3616H450.776ZM446.645 55.5875H444.176L443.563 59.9048H446.032L446.645 55.5875ZM454.324 63.8046C454.324 63.9349 454.259 64 454.129 64H452.77C452.646 64 452.583 63.9349 452.583 63.8046L452.681 57.7905L452.583 51.7588C452.583 51.6285 452.646 51.5633 452.77 51.5633H460.028C460.087 51.5633 460.134 51.5811 460.17 51.6166C460.205 51.6522 460.223 51.6995 460.223 51.7588V52.6382C460.223 52.6974 460.205 52.7448 460.17 52.7803C460.134 52.8159 460.087 52.8336 460.028 52.8336H454.324L454.236 57.2753H459.734C459.794 57.2753 459.841 57.2931 459.877 57.3286C459.912 57.3641 459.93 57.4115 459.93 57.4707V58.3502C459.93 58.4094 459.912 58.4568 459.877 58.4923C459.841 58.5279 459.794 58.5456 459.734 58.5456H454.236L454.324 63.8046ZM464.014 63.8046C464.014 63.9349 463.949 64 463.819 64H462.46C462.335 64 462.273 63.9349 462.273 63.8046L462.371 57.7905L462.273 51.7588C462.273 51.6285 462.335 51.5633 462.46 51.5633H469.717C469.777 51.5633 469.824 51.5811 469.86 51.6166C469.895 51.6522 469.913 51.6995 469.913 51.7588V52.6382C469.913 52.6974 469.895 52.7448 469.86 52.7803C469.824 52.8159 469.777 52.8336 469.717 52.8336H464.014L463.925 57.2753H469.424C469.483 57.2753 469.531 57.2931 469.566 57.3286C469.602 57.3641 469.62 57.4115 469.62 57.4707V58.3502C469.62 58.4094 469.602 58.4568 469.566 58.4923C469.531 58.5279 469.483 58.5456 469.424 58.5456H463.925L464.014 63.8046ZM475.667 64.231C474.447 64.231 473.494 63.923 472.807 63.3071C472.126 62.6912 471.723 61.8413 471.599 60.7576V60.7309C471.599 60.6125 471.661 60.5533 471.785 60.5533H473.073C473.198 60.5533 473.266 60.6184 473.278 60.7487C473.331 61.4416 473.562 61.9953 473.971 62.4099C474.379 62.8185 474.942 63.0228 475.658 63.0228C476.185 63.0228 476.644 62.8866 477.035 62.6142C477.426 62.3418 477.725 61.9479 477.933 61.4327C478.146 60.9116 478.252 60.2956 478.252 59.585C478.252 58.5367 478.036 57.7343 477.604 57.1776C477.177 56.6209 476.562 56.3426 475.756 56.3426C475.134 56.3426 474.625 56.4995 474.228 56.8134C473.831 57.1213 473.556 57.5655 473.402 58.1459C473.366 58.2643 473.292 58.3235 473.18 58.3235H472.078C471.942 58.3235 471.877 58.2525 471.883 58.1103L472.3 51.7499C472.312 51.6255 472.38 51.5633 472.505 51.5633H479.016C479.075 51.5633 479.123 51.5811 479.158 51.6166C479.194 51.6522 479.212 51.6995 479.212 51.7588V52.656C479.212 52.7863 479.147 52.8514 479.016 52.8514H473.757L473.491 56.2715C473.834 55.8866 474.225 55.5964 474.663 55.4009C475.108 55.2055 475.62 55.1078 476.2 55.1078C476.935 55.1078 477.592 55.2854 478.172 55.6408C478.753 55.9961 479.206 56.5054 479.532 57.1687C479.863 57.8261 480.029 58.5989 480.029 59.4873C480.029 60.4407 479.845 61.2758 479.478 61.9924C479.117 62.709 478.605 63.2627 477.941 63.6535C477.284 64.0385 476.526 64.231 475.667 64.231ZM487.548 64.2221C486.34 64.2221 485.298 63.9645 484.421 63.4492C483.551 62.934 482.884 62.1908 482.422 61.2195C481.96 60.2483 481.729 59.0964 481.729 57.7639C481.729 56.4669 481.963 55.3358 482.431 54.3705C482.905 53.3992 483.577 52.653 484.448 52.1319C485.324 51.6048 486.355 51.3412 487.539 51.3412C488.872 51.3412 489.997 51.6818 490.915 52.3628C491.833 53.038 492.437 54.1247 492.727 55.623L492.736 55.6763C492.736 55.7829 492.674 55.8362 492.549 55.8362H491.288C491.175 55.8362 491.104 55.777 491.075 55.6585C490.885 54.6458 490.48 53.8908 489.858 53.3933C489.236 52.8958 488.454 52.6471 487.512 52.6471C486.66 52.6471 485.931 52.8544 485.327 53.2689C484.723 53.6835 484.261 54.2757 483.941 55.0456C483.628 55.8096 483.471 56.7157 483.471 57.7639C483.471 58.8832 483.63 59.8278 483.95 60.5977C484.27 61.3676 484.732 61.9479 485.336 62.3388C485.94 62.7238 486.663 62.9162 487.504 62.9162C488.534 62.9162 489.366 62.6349 490 62.0723C490.634 61.5097 491.015 60.6984 491.146 59.6383C491.164 59.5139 491.235 59.4517 491.359 59.4517H492.638C492.697 59.4517 492.742 59.4665 492.771 59.4961C492.807 59.5258 492.825 59.5672 492.825 59.6205C492.825 59.6501 492.822 59.6738 492.816 59.6916C492.579 61.2017 492.002 62.3359 491.084 63.0939C490.172 63.846 488.993 64.2221 487.548 64.2221ZM498.56 64.1777C497.292 64.1777 496.306 63.849 495.601 63.1916C494.903 62.5342 494.506 61.5689 494.411 60.2956V60.2779C494.411 60.2187 494.426 60.1742 494.456 60.1446C494.491 60.1091 494.538 60.0913 494.598 60.0913H495.85C495.975 60.0913 496.043 60.1565 496.055 60.2868C496.102 61.1633 496.33 61.8325 496.739 62.2944C497.153 62.7563 497.763 62.9873 498.568 62.9873C499.415 62.9873 500.067 62.7415 500.523 62.25C500.985 61.7584 501.216 61.0951 501.216 60.2601C501.216 58.7144 500.23 57.9416 498.258 57.9416H497.725C497.665 57.9416 497.618 57.9238 497.582 57.8883C497.547 57.8527 497.529 57.8054 497.529 57.7461V56.991C497.529 56.8608 497.594 56.7956 497.725 56.7956H498.258C499.152 56.7956 499.824 56.615 500.274 56.2537C500.73 55.8866 500.958 55.3772 500.958 54.7258C500.958 54.2876 500.86 53.9056 500.665 53.5798C500.475 53.2541 500.212 53.0054 499.874 52.8336C499.537 52.6619 499.155 52.576 498.728 52.576C497.171 52.576 496.333 53.4199 496.214 55.1078C496.197 55.2381 496.129 55.3032 496.01 55.3032H494.802C494.743 55.3032 494.695 55.2854 494.66 55.2499C494.624 55.2144 494.609 55.164 494.615 55.0989C494.663 54.3053 494.861 53.6302 495.211 53.0735C495.566 52.5168 496.049 52.0963 496.659 51.8121C497.274 51.5278 497.988 51.3857 498.799 51.3857C499.528 51.3857 500.182 51.516 500.763 51.7765C501.343 52.0312 501.799 52.4013 502.131 52.8869C502.462 53.3726 502.628 53.9411 502.628 54.5925C502.628 55.2854 502.439 55.8569 502.06 56.307C501.681 56.7512 501.154 57.0799 500.478 57.2931C501.26 57.4589 501.864 57.8024 502.291 58.3235C502.717 58.8447 502.93 59.4961 502.93 60.2779C502.93 61.0537 502.744 61.7377 502.371 62.3299C502.003 62.9222 501.488 63.3782 500.825 63.698C500.162 64.0178 499.406 64.1777 498.56 64.1777ZM508.588 64.2221C507.539 64.2221 506.713 63.9704 506.109 63.467C505.505 62.9577 505.135 62.2144 504.999 61.2373V61.2195C504.999 61.0951 505.061 61.033 505.185 61.033H506.456C506.574 61.033 506.642 61.0951 506.66 61.2195C506.731 61.788 506.938 62.2293 507.282 62.5431C507.631 62.8511 508.105 63.0051 508.703 63.0051C509.283 63.0051 509.778 62.8215 510.187 62.4543C510.595 62.0871 510.906 61.5541 511.119 60.8553C511.332 60.1565 511.439 59.3185 511.439 58.3413C511.155 58.8388 510.755 59.2178 510.24 59.4784C509.725 59.739 509.118 59.8692 508.419 59.8692C507.649 59.8692 506.974 59.7093 506.393 59.3895C505.813 59.0638 505.36 58.5989 505.034 57.9949C504.714 57.3908 504.554 56.6801 504.554 55.8629C504.554 55.016 504.735 54.2491 505.096 53.5621C505.458 52.8692 505.955 52.3273 506.589 51.9364C507.228 51.5396 507.948 51.3412 508.747 51.3412C509.677 51.3412 510.471 51.5781 511.128 52.0519C511.791 52.5198 512.298 53.2304 512.647 54.1839C512.997 55.1315 513.171 56.307 513.171 57.7106C513.171 59.0786 512.985 60.2512 512.612 61.2284C512.239 62.2056 511.709 62.9488 511.022 63.4581C510.335 63.9674 509.523 64.2221 508.588 64.2221ZM508.747 58.6345C509.28 58.6345 509.739 58.5219 510.124 58.2969C510.515 58.0659 510.811 57.7343 511.013 57.302C511.22 56.8696 511.324 56.3544 511.324 55.7563C511.324 55.1522 511.223 54.6133 511.022 54.1395C510.826 53.6598 510.539 53.2837 510.16 53.0113C509.781 52.733 509.334 52.5938 508.818 52.5938C508.291 52.5938 507.838 52.7182 507.459 52.9669C507.08 53.2156 506.79 53.571 506.589 54.0329C506.393 54.4948 506.296 55.0456 506.296 55.6852C506.307 56.5972 506.521 57.3168 506.935 57.8438C507.356 58.3709 507.96 58.6345 508.747 58.6345Z" fill="white"/>
<rect x="995.488" width="70.5115" height="599.625" fill="#FCCACA"/>
<path d="M1011.06 41.3753C1009.08 41.3753 1007.53 40.8749 1006.41 39.874C1005.3 38.8732 1004.65 37.4922 1004.45 35.7311V35.6878C1004.45 35.4953 1004.55 35.3991 1004.75 35.3991H1006.84C1007.05 35.3991 1007.16 35.5049 1007.18 35.7166C1007.26 36.8426 1007.64 37.7424 1008.3 38.4161C1008.97 39.0801 1009.88 39.4121 1011.05 39.4121C1011.9 39.4121 1012.65 39.1908 1013.28 38.7481C1013.92 38.3054 1014.4 37.6654 1014.74 36.8282C1015.09 35.9813 1015.26 34.9804 1015.26 33.8256C1015.26 32.1222 1014.91 30.8182 1014.21 29.9136C1013.51 29.009 1012.51 28.5567 1011.2 28.5567C1010.19 28.5567 1009.37 28.8117 1008.72 29.3217C1008.08 29.8222 1007.63 30.5439 1007.38 31.4871C1007.32 31.6795 1007.2 31.7758 1007.02 31.7758H1005.23C1005.01 31.7758 1004.9 31.6603 1004.91 31.4293L1005.59 21.0936C1005.61 20.8915 1005.72 20.7904 1005.92 20.7904H1016.5C1016.6 20.7904 1016.68 20.8193 1016.73 20.877C1016.79 20.9348 1016.82 21.0118 1016.82 21.108V22.566C1016.82 22.7777 1016.71 22.8835 1016.5 22.8835H1007.96L1007.52 28.4412C1008.08 27.8157 1008.72 27.3441 1009.43 27.0265C1010.15 26.7089 1010.98 26.5501 1011.93 26.5501C1013.12 26.5501 1014.19 26.8389 1015.13 27.4163C1016.07 27.9937 1016.81 28.8213 1017.34 29.8992C1017.88 30.9674 1018.15 32.2233 1018.15 33.6668C1018.15 35.2162 1017.85 36.5731 1017.25 37.7376C1016.67 38.9021 1015.83 39.8019 1014.76 40.437C1013.69 41.0626 1012.46 41.3753 1011.06 41.3753ZM1025.5 30.3322C1024.58 30.3322 1023.77 30.1446 1023.09 29.7692C1022.41 29.3939 1021.88 28.8406 1021.5 28.1092C1021.13 27.3778 1020.94 26.4924 1020.94 25.4531C1020.94 24.4233 1021.13 23.538 1021.5 22.7969C1021.88 22.0463 1022.41 21.4785 1023.09 21.0936C1023.78 20.699 1024.59 20.5017 1025.52 20.5017C1026.44 20.5017 1027.24 20.699 1027.93 21.0936C1028.61 21.4785 1029.13 22.0463 1029.5 22.7969C1029.88 23.538 1030.06 24.4281 1030.06 25.4675C1030.06 26.4972 1029.88 27.3778 1029.5 28.1092C1029.12 28.8309 1028.59 29.3843 1027.9 29.7692C1027.21 30.1446 1026.42 30.3322 1025.5 30.3322ZM1026.28 40.7979C1026.19 40.9326 1026.07 41 1025.91 41H1024.27C1024.19 41 1024.12 40.9808 1024.07 40.9423C1024.02 40.9038 1024 40.8556 1024 40.7979C1024 40.7402 1024.02 40.6776 1024.07 40.6102L1037.19 20.9925C1037.28 20.8578 1037.41 20.7904 1037.57 20.7904H1039.2C1039.29 20.7904 1039.35 20.8097 1039.4 20.8482C1039.45 20.8866 1039.47 20.9348 1039.47 20.9925C1039.47 21.0503 1039.45 21.1128 1039.4 21.1802L1026.28 40.7979ZM1025.5 28.6722C1026.21 28.6722 1026.76 28.4027 1027.15 27.8638C1027.53 27.3248 1027.72 26.5261 1027.72 25.4675C1027.72 24.3896 1027.53 23.5716 1027.13 23.0135C1026.74 22.4457 1026.19 22.1618 1025.49 22.1618C1024.78 22.1618 1024.24 22.4457 1023.84 23.0135C1023.46 23.5716 1023.26 24.3896 1023.26 25.4675C1023.26 26.5068 1023.46 27.3008 1023.84 27.8493C1024.24 28.3979 1024.79 28.6722 1025.5 28.6722ZM1038.05 41.2887C1037.13 41.2887 1036.33 41.0914 1035.65 40.6969C1034.97 40.3023 1034.44 39.7345 1034.06 38.9935C1033.69 38.2428 1033.5 37.3478 1033.5 36.3085C1033.5 35.2788 1033.69 34.403 1034.06 33.6812C1034.44 32.9498 1034.97 32.3965 1035.65 32.0212C1036.33 31.6458 1037.14 31.4582 1038.06 31.4582C1038.98 31.4582 1039.79 31.6458 1040.47 32.0212C1041.15 32.3965 1041.68 32.9498 1042.04 33.6812C1042.42 34.403 1042.61 35.2836 1042.61 36.3229C1042.61 37.3527 1042.42 38.2428 1042.04 38.9935C1041.67 39.7441 1041.13 40.3167 1040.44 40.7113C1039.76 41.0962 1038.96 41.2887 1038.05 41.2887ZM1038.06 39.6286C1038.76 39.6286 1039.31 39.3496 1039.69 38.7914C1040.09 38.2332 1040.28 37.4104 1040.28 36.3229C1040.28 35.2932 1040.09 34.5041 1039.69 33.9555C1039.3 33.3973 1038.75 33.1183 1038.05 33.1183C1037.32 33.1183 1036.77 33.3925 1036.39 33.9411C1036.01 34.48 1035.82 35.274 1035.82 36.3229C1035.82 37.4104 1036.02 38.2332 1036.41 38.7914C1036.81 39.3496 1037.36 39.6286 1038.06 39.6286Z" fill="black"/>
<path d="M1011.5 578.222C1010.29 578.222 1009.25 577.964 1008.38 577.449C1007.51 576.934 1006.84 576.191 1006.38 575.22C1005.91 574.248 1005.68 573.096 1005.68 571.764C1005.68 570.467 1005.92 569.336 1006.39 568.37C1006.86 567.399 1007.53 566.653 1008.4 566.132C1009.28 565.605 1010.31 565.341 1011.49 565.341C1012.83 565.341 1013.95 565.682 1014.87 566.363C1015.79 567.038 1016.39 568.125 1016.68 569.623L1016.69 569.676C1016.69 569.783 1016.63 569.836 1016.5 569.836H1015.24C1015.13 569.836 1015.06 569.777 1015.03 569.659C1014.84 568.646 1014.43 567.891 1013.81 567.393C1013.19 566.896 1012.41 566.647 1011.47 566.647C1010.61 566.647 1009.89 566.854 1009.28 567.269C1008.68 567.683 1008.22 568.276 1007.9 569.046C1007.58 569.81 1007.43 570.716 1007.43 571.764C1007.43 572.883 1007.59 573.828 1007.9 574.598C1008.22 575.368 1008.69 575.948 1009.29 576.339C1009.89 576.724 1010.62 576.916 1011.46 576.916C1012.49 576.916 1013.32 576.635 1013.95 576.072C1014.59 575.51 1014.97 574.698 1015.1 573.638C1015.12 573.514 1015.19 573.452 1015.31 573.452H1016.59C1016.65 573.452 1016.7 573.467 1016.73 573.496C1016.76 573.526 1016.78 573.567 1016.78 573.621C1016.78 573.65 1016.78 573.674 1016.77 573.692C1016.53 575.202 1015.96 576.336 1015.04 577.094C1014.13 577.846 1012.95 578.222 1011.5 578.222ZM1018.14 578.133C1017.93 578.133 1017.73 578.107 1017.54 578.053C1017.43 578.03 1017.38 577.959 1017.38 577.84V577.094C1017.38 576.975 1017.43 576.916 1017.53 576.916C1017.58 576.916 1017.63 576.922 1017.68 576.934C1017.73 576.94 1017.79 576.943 1017.84 576.943C1018.08 576.943 1018.28 576.89 1018.42 576.783C1018.56 576.67 1018.67 576.481 1018.75 576.214C1018.83 575.948 1018.9 575.569 1018.94 575.077C1019 574.497 1019.05 573.632 1019.1 572.483C1019.16 571.335 1019.2 570.189 1019.24 569.046C1019.24 568.986 1019.26 568.939 1019.3 568.903C1019.33 568.868 1019.38 568.85 1019.44 568.85H1025.46C1025.59 568.85 1025.66 568.915 1025.66 569.046L1025.63 573.363L1025.71 577.805C1025.71 577.935 1025.65 578 1025.52 578L1024.24 578.009C1024.11 578.009 1024.04 577.944 1024.04 577.813L1024.07 573.363L1024.01 570.041H1020.63C1020.52 572.563 1020.43 574.281 1020.35 575.193C1020.3 575.868 1020.19 576.416 1020.05 576.836C1019.91 577.257 1019.69 577.58 1019.39 577.805C1019.08 578.024 1018.67 578.133 1018.14 578.133ZM1032.1 578.204C1031.16 578.204 1030.36 578.006 1029.71 577.609C1029.06 577.212 1028.56 576.656 1028.22 575.939C1027.89 575.222 1027.72 574.393 1027.72 573.452C1027.72 572.498 1027.89 571.66 1028.22 570.938C1028.57 570.215 1029.06 569.653 1029.71 569.25C1030.35 568.847 1031.12 568.646 1032.01 568.646C1032.88 568.646 1033.64 568.835 1034.26 569.214C1034.9 569.593 1035.38 570.141 1035.72 570.858C1036.06 571.574 1036.25 572.43 1036.27 573.425C1036.27 573.561 1036.21 573.629 1036.08 573.629H1029.39C1029.44 575.921 1030.35 577.067 1032.11 577.067C1032.78 577.067 1033.31 576.893 1033.71 576.543C1034.12 576.188 1034.39 575.673 1034.53 574.997C1034.56 574.879 1034.63 574.82 1034.74 574.82H1035.92C1035.98 574.82 1036.03 574.835 1036.07 574.864C1036.1 574.894 1036.12 574.938 1036.11 574.997C1036.01 575.631 1035.79 576.191 1035.45 576.676C1035.11 577.156 1034.66 577.532 1034.09 577.805C1033.52 578.071 1032.85 578.204 1032.1 578.204ZM1034.5 572.519C1034.49 572.01 1034.38 571.548 1034.18 571.133C1033.99 570.713 1033.71 570.381 1033.34 570.138C1032.97 569.895 1032.53 569.774 1032.02 569.774C1031.26 569.774 1030.67 570.014 1030.24 570.494C1029.81 570.967 1029.54 571.642 1029.43 572.519H1034.5ZM1038.44 578C1038.32 578 1038.26 577.935 1038.26 577.805L1038.31 573.274L1038.25 569.046C1038.25 568.915 1038.31 568.85 1038.43 568.85H1039.71C1039.84 568.85 1039.91 568.915 1039.91 569.046L1039.88 573.105L1039.84 576.214L1044.08 568.992C1044.12 568.898 1044.2 568.85 1044.32 568.85H1045.89C1046.02 568.85 1046.08 568.915 1046.08 569.046L1046.02 573.274L1046.08 577.805C1046.08 577.935 1046.02 578 1045.89 578H1044.62C1044.49 578 1044.42 577.935 1044.42 577.805L1044.46 573.496L1044.48 570.689L1040.28 577.858C1040.23 577.953 1040.15 578 1040.04 578H1038.44ZM1042.19 567.829C1042.74 567.829 1043.22 567.728 1043.63 567.527C1044.04 567.325 1044.35 567.041 1044.57 566.674C1044.79 566.307 1044.9 565.88 1044.9 565.395H1043.59C1043.58 565.839 1043.45 566.191 1043.21 566.452C1042.98 566.712 1042.65 566.843 1042.22 566.843C1041.77 566.843 1041.44 566.712 1041.21 566.452C1040.98 566.191 1040.87 565.839 1040.87 565.395H1039.55C1039.55 565.88 1039.66 566.307 1039.87 566.674C1040.09 567.041 1040.39 567.325 1040.79 567.527C1041.19 567.728 1041.65 567.829 1042.19 567.829Z" fill="black"/>
<path d="M1010.9 52.49C1010.95 52.49 1010.98 52.504 1011 52.532C1011.02 52.556 1011.03 52.59 1011.02 52.634L1010.94 53.192C1010.93 53.276 1010.89 53.318 1010.8 53.318H1009.15L1008.73 56.234H1010.37C1010.42 56.234 1010.45 56.248 1010.47 56.276C1010.49 56.3 1010.5 56.334 1010.49 56.378L1010.4 56.936C1010.39 57.02 1010.34 57.062 1010.25 57.062H1008.62L1008.35 58.874C1008.34 58.958 1008.29 59 1008.21 59H1007.45C1007.4 59 1007.37 58.988 1007.34 58.964C1007.32 58.936 1007.32 58.9 1007.33 58.856L1007.58 57.062H1005.91L1005.65 58.874C1005.64 58.958 1005.59 59 1005.51 59H1004.74C1004.7 59 1004.66 58.988 1004.64 58.964C1004.62 58.936 1004.61 58.9 1004.62 58.856L1004.88 57.062H1003.23C1003.19 57.062 1003.16 57.05 1003.13 57.026C1003.11 56.998 1003.11 56.962 1003.11 56.918L1003.21 56.36C1003.22 56.276 1003.27 56.234 1003.35 56.234H1004.99L1005.41 53.318H1003.78C1003.74 53.318 1003.7 53.306 1003.68 53.282C1003.66 53.254 1003.66 53.218 1003.66 53.174L1003.74 52.616C1003.75 52.532 1003.8 52.49 1003.88 52.49H1005.53L1005.78 50.726C1005.8 50.642 1005.84 50.6 1005.92 50.6H1006.69C1006.78 50.6 1006.82 50.648 1006.81 50.744L1006.56 52.49H1008.23L1008.48 50.726C1008.5 50.642 1008.54 50.6 1008.63 50.6H1009.4C1009.49 50.6 1009.53 50.648 1009.52 50.744L1009.27 52.49H1010.9ZM1008.11 53.318H1006.44L1006.03 56.234H1007.7L1008.11 53.318ZM1013.3 58.868C1013.3 58.956 1013.25 59 1013.17 59H1012.25C1012.16 59 1012.12 58.956 1012.12 58.868L1012.19 54.806L1012.12 50.732C1012.12 50.644 1012.16 50.6 1012.25 50.6H1017.15C1017.19 50.6 1017.22 50.612 1017.25 50.636C1017.27 50.66 1017.28 50.692 1017.28 50.732V51.326C1017.28 51.366 1017.27 51.398 1017.25 51.422C1017.22 51.446 1017.19 51.458 1017.15 51.458H1013.3L1013.24 54.458H1016.95C1016.99 54.458 1017.02 54.47 1017.05 54.494C1017.07 54.518 1017.08 54.55 1017.08 54.59V55.184C1017.08 55.224 1017.07 55.256 1017.05 55.28C1017.02 55.304 1016.99 55.316 1016.95 55.316H1013.24L1013.3 58.868ZM1022.31 59.15C1021.49 59.15 1020.79 58.976 1020.2 58.628C1019.61 58.28 1019.16 57.778 1018.85 57.122C1018.54 56.466 1018.38 55.688 1018.38 54.788C1018.38 53.912 1018.54 53.148 1018.85 52.496C1019.17 51.84 1019.63 51.336 1020.22 50.984C1020.81 50.628 1021.5 50.45 1022.3 50.45C1023.2 50.45 1023.96 50.68 1024.58 51.14C1025.2 51.596 1025.61 52.33 1025.81 53.342L1025.81 53.378C1025.81 53.45 1025.77 53.486 1025.69 53.486H1024.84C1024.76 53.486 1024.71 53.446 1024.69 53.366C1024.56 52.682 1024.29 52.172 1023.87 51.836C1023.45 51.5 1022.92 51.332 1022.29 51.332C1021.71 51.332 1021.22 51.472 1020.81 51.752C1020.4 52.032 1020.09 52.432 1019.87 52.952C1019.66 53.468 1019.56 54.08 1019.56 54.788C1019.56 55.544 1019.66 56.182 1019.88 56.702C1020.1 57.222 1020.41 57.614 1020.82 57.878C1021.22 58.138 1021.71 58.268 1022.28 58.268C1022.98 58.268 1023.54 58.078 1023.97 57.698C1024.39 57.318 1024.65 56.77 1024.74 56.054C1024.75 55.97 1024.8 55.928 1024.88 55.928H1025.75C1025.79 55.928 1025.82 55.938 1025.84 55.958C1025.86 55.978 1025.87 56.006 1025.87 56.042C1025.87 56.062 1025.87 56.078 1025.87 56.09C1025.71 57.11 1025.32 57.876 1024.7 58.388C1024.08 58.896 1023.29 59.15 1022.31 59.15ZM1030.9 59.15C1030.09 59.15 1029.38 58.976 1028.79 58.628C1028.2 58.28 1027.75 57.778 1027.44 57.122C1027.13 56.466 1026.97 55.688 1026.97 54.788C1026.97 53.912 1027.13 53.148 1027.45 52.496C1027.77 51.84 1028.22 51.336 1028.81 50.984C1029.4 50.628 1030.1 50.45 1030.9 50.45C1031.8 50.45 1032.56 50.68 1033.18 51.14C1033.8 51.596 1034.21 52.33 1034.4 53.342L1034.41 53.378C1034.41 53.45 1034.37 53.486 1034.28 53.486H1033.43C1033.35 53.486 1033.31 53.446 1033.29 53.366C1033.16 52.682 1032.88 52.172 1032.46 51.836C1032.04 51.5 1031.52 51.332 1030.88 51.332C1030.3 51.332 1029.81 51.472 1029.4 51.752C1029 52.032 1028.68 52.432 1028.47 52.952C1028.26 53.468 1028.15 54.08 1028.15 54.788C1028.15 55.544 1028.26 56.182 1028.47 56.702C1028.69 57.222 1029 57.614 1029.41 57.878C1029.82 58.138 1030.31 58.268 1030.87 58.268C1031.57 58.268 1032.13 58.078 1032.56 57.698C1032.99 57.318 1033.25 56.77 1033.33 56.054C1033.35 55.97 1033.39 55.928 1033.48 55.928H1034.34C1034.38 55.928 1034.41 55.938 1034.43 55.958C1034.46 55.978 1034.47 56.006 1034.47 56.042C1034.47 56.062 1034.47 56.078 1034.46 56.09C1034.3 57.11 1033.91 57.876 1033.29 58.388C1032.68 58.896 1031.88 59.15 1030.9 59.15ZM1042.28 58.844C1042.28 58.868 1042.29 58.886 1042.29 58.898C1042.29 58.93 1042.28 58.956 1042.26 58.976C1042.24 58.992 1042.21 59 1042.17 59H1041.26C1041.19 59 1041.14 58.964 1041.11 58.892L1040.27 56.468H1036.86L1036.04 58.892C1036.02 58.964 1035.97 59 1035.89 59H1035.01C1034.97 59 1034.94 58.992 1034.92 58.976C1034.9 58.956 1034.89 58.93 1034.89 58.898C1034.89 58.886 1034.89 58.868 1034.9 58.844L1037.82 50.708C1037.85 50.636 1037.9 50.6 1037.97 50.6H1039.24C1039.31 50.6 1039.36 50.636 1039.38 50.708L1042.28 58.844ZM1037.15 55.556H1039.98L1038.55 51.398L1037.15 55.556ZM1046.7 59.15C1045.89 59.15 1045.18 58.976 1044.59 58.628C1044 58.28 1043.55 57.778 1043.24 57.122C1042.93 56.466 1042.77 55.688 1042.77 54.788C1042.77 53.912 1042.93 53.148 1043.25 52.496C1043.57 51.84 1044.02 51.336 1044.61 50.984C1045.2 50.628 1045.9 50.45 1046.7 50.45C1047.6 50.45 1048.36 50.68 1048.98 51.14C1049.6 51.596 1050 52.33 1050.2 53.342L1050.21 53.378C1050.21 53.45 1050.16 53.486 1050.08 53.486H1049.23C1049.15 53.486 1049.1 53.446 1049.08 53.366C1048.96 52.682 1048.68 52.172 1048.26 51.836C1047.84 51.5 1047.31 51.332 1046.68 51.332C1046.1 51.332 1045.61 51.472 1045.2 51.752C1044.79 52.032 1044.48 52.432 1044.27 52.952C1044.05 53.468 1043.95 54.08 1043.95 54.788C1043.95 55.544 1044.06 56.182 1044.27 56.702C1044.49 57.222 1044.8 57.614 1045.21 57.878C1045.62 58.138 1046.1 58.268 1046.67 58.268C1047.37 58.268 1047.93 58.078 1048.36 57.698C1048.79 57.318 1049.04 56.77 1049.13 56.054C1049.14 55.97 1049.19 55.928 1049.28 55.928H1050.14C1050.18 55.928 1050.21 55.938 1050.23 55.958C1050.25 55.978 1050.27 56.006 1050.27 56.042C1050.27 56.062 1050.26 56.078 1050.26 56.09C1050.1 57.11 1049.71 57.876 1049.09 58.388C1048.47 58.896 1047.68 59.15 1046.7 59.15ZM1058.07 58.844C1058.08 58.868 1058.08 58.886 1058.08 58.898C1058.08 58.93 1058.07 58.956 1058.05 58.976C1058.03 58.992 1058 59 1057.96 59H1057.06C1056.98 59 1056.93 58.964 1056.91 58.892L1056.07 56.468H1052.65L1051.84 58.892C1051.81 58.964 1051.76 59 1051.68 59H1050.81C1050.77 59 1050.74 58.992 1050.72 58.976C1050.7 58.956 1050.69 58.93 1050.69 58.898C1050.69 58.886 1050.69 58.868 1050.7 58.844L1053.62 50.708C1053.64 50.636 1053.69 50.6 1053.77 50.6H1055.04C1055.11 50.6 1055.16 50.636 1055.18 50.708L1058.07 58.844ZM1052.94 55.556H1055.77L1054.35 51.398L1052.94 55.556Z" fill="black"/>
<rect x="851.912" width="143.578" height="599.625" fill="#F0EFEF"/>
<path d="M865.971 41C865.769 41 865.668 40.8941 865.668 40.6824L865.769 30.9096L865.711 23.8219C864.73 24.7457 863.402 25.4964 861.727 26.0738C861.698 26.0834 861.655 26.0882 861.597 26.0882C861.434 26.0882 861.352 25.9968 861.352 25.8139V24.3271C861.352 24.1442 861.438 24.0191 861.612 23.9518C862.449 23.6342 863.219 23.2204 863.921 22.7103C864.624 22.1906 865.211 21.618 865.682 20.9925C865.759 20.8578 865.885 20.7904 866.058 20.7904H868.194C868.406 20.7904 868.512 20.8963 868.512 21.108L868.367 31.4871L868.512 40.6824C868.512 40.8941 868.406 41 868.194 41H865.971ZM879.501 41.3753C877.519 41.3753 875.969 40.8749 874.853 39.874C873.746 38.8732 873.092 37.4922 872.89 35.7311V35.6878C872.89 35.4953 872.991 35.3991 873.193 35.3991H875.286C875.488 35.3991 875.599 35.5049 875.618 35.7166C875.705 36.8426 876.08 37.7424 876.744 38.4161C877.408 39.0801 878.322 39.4121 879.487 39.4121C880.343 39.4121 881.089 39.1908 881.724 38.7481C882.359 38.3054 882.845 37.6654 883.182 36.8282C883.529 35.9813 883.702 34.9804 883.702 33.8256C883.702 32.1222 883.351 30.8182 882.648 29.9136C881.955 29.009 880.954 28.5567 879.646 28.5567C878.635 28.5567 877.807 28.8117 877.163 29.3217C876.518 29.8222 876.07 30.5439 875.82 31.4871C875.762 31.6795 875.642 31.7758 875.459 31.7758H873.669C873.448 31.7758 873.342 31.6603 873.352 31.4293L874.03 21.0936C874.049 20.8915 874.16 20.7904 874.362 20.7904H884.943C885.04 20.7904 885.117 20.8193 885.174 20.877C885.232 20.9348 885.261 21.0118 885.261 21.108V22.566C885.261 22.7777 885.155 22.8835 884.943 22.8835H876.398L875.965 28.4412C876.523 27.8157 877.158 27.3441 877.87 27.0265C878.592 26.7089 879.424 26.5501 880.367 26.5501C881.561 26.5501 882.629 26.8389 883.572 27.4163C884.515 27.9937 885.251 28.8213 885.781 29.8992C886.32 30.9674 886.589 32.2233 886.589 33.6668C886.589 35.2162 886.291 36.5731 885.694 37.7376C885.107 38.9021 884.275 39.8019 883.197 40.437C882.128 41.0626 880.897 41.3753 879.501 41.3753ZM893.943 30.3322C893.019 30.3322 892.215 30.1446 891.532 29.7692C890.849 29.3939 890.319 28.8406 889.944 28.1092C889.569 27.3778 889.381 26.4924 889.381 25.4531C889.381 24.4233 889.569 23.538 889.944 22.7969C890.319 22.0463 890.849 21.4785 891.532 21.0936C892.225 20.699 893.033 20.5017 893.957 20.5017C894.881 20.5017 895.685 20.699 896.368 21.0936C897.051 21.4785 897.576 22.0463 897.941 22.7969C898.317 23.538 898.504 24.4281 898.504 25.4675C898.504 26.4972 898.317 27.3778 897.941 28.1092C897.566 28.8309 897.032 29.3843 896.339 29.7692C895.656 30.1446 894.857 30.3322 893.943 30.3322ZM894.722 40.7979C894.636 40.9326 894.511 41 894.347 41H892.716C892.629 41 892.562 40.9808 892.514 40.9423C892.466 40.9038 892.441 40.8556 892.441 40.7979C892.441 40.7402 892.466 40.6776 892.514 40.6102L905.635 20.9925C905.722 20.8578 905.847 20.7904 906.011 20.7904H907.642C907.729 20.7904 907.796 20.8097 907.844 20.8482C907.892 20.8866 907.916 20.9348 907.916 20.9925C907.916 21.0503 907.892 21.1128 907.844 21.1802L894.722 40.7979ZM893.943 28.6722C894.655 28.6722 895.203 28.4027 895.588 27.8638C895.973 27.3248 896.166 26.5261 896.166 25.4675C896.166 24.3896 895.969 23.5716 895.574 23.0135C895.179 22.4457 894.631 22.1618 893.928 22.1618C893.226 22.1618 892.677 22.4457 892.283 23.0135C891.898 23.5716 891.705 24.3896 891.705 25.4675C891.705 26.5068 891.898 27.3008 892.283 27.8493C892.677 28.3979 893.231 28.6722 893.943 28.6722ZM906.487 41.2887C905.573 41.2887 904.774 41.0914 904.091 40.6969C903.408 40.3023 902.878 39.7345 902.503 38.9935C902.128 38.2428 901.94 37.3478 901.94 36.3085C901.94 35.2788 902.128 34.403 902.503 33.6812C902.878 32.9498 903.408 32.3965 904.091 32.0212C904.774 31.6458 905.578 31.4582 906.502 31.4582C907.425 31.4582 908.229 31.6458 908.912 32.0212C909.596 32.3965 910.12 32.9498 910.486 33.6812C910.861 34.403 911.049 35.2836 911.049 36.3229C911.049 37.3527 910.861 38.2428 910.486 38.9935C910.11 39.7441 909.576 40.3167 908.883 40.7113C908.2 41.0962 907.401 41.2887 906.487 41.2887ZM906.502 39.6286C907.204 39.6286 907.748 39.3496 908.133 38.7914C908.527 38.2332 908.725 37.4104 908.725 36.3229C908.725 35.2932 908.527 34.5041 908.133 33.9555C907.738 33.3973 907.19 33.1183 906.487 33.1183C905.765 33.1183 905.212 33.3925 904.827 33.9411C904.452 34.48 904.264 35.274 904.264 36.3229C904.264 37.4104 904.461 38.2332 904.856 38.7914C905.25 39.3496 905.799 39.6286 906.502 39.6286Z" fill="black"/>
<path d="M869.82 577.805V577.822C869.82 577.941 869.757 578 869.633 578H868.229C868.099 578 868.034 577.935 868.034 577.805L868.149 571.844L868.052 566.851H864.658C864.528 566.851 864.463 566.786 864.463 566.656V565.759C864.463 565.7 864.481 565.652 864.516 565.617C864.552 565.581 864.599 565.563 864.658 565.563H873.204C873.263 565.563 873.311 565.581 873.346 565.617C873.382 565.652 873.4 565.7 873.4 565.759V566.656C873.4 566.715 873.382 566.763 873.346 566.798C873.311 566.834 873.263 566.851 873.204 566.851H869.811L869.713 571.844L869.82 577.805ZM879.993 568.646C880.875 568.646 881.63 568.841 882.258 569.232C882.892 569.623 883.371 570.18 883.697 570.902C884.023 571.619 884.186 572.457 884.186 573.416C884.186 574.382 884.023 575.225 883.697 575.948C883.371 576.665 882.892 577.221 882.258 577.618C881.63 578.009 880.875 578.204 879.993 578.204C879.152 578.204 878.423 578.027 877.807 577.671C877.197 577.316 876.721 576.816 876.377 576.17C876.04 575.519 875.844 574.752 875.791 573.869H874.894L874.947 577.805C874.947 577.935 874.882 578 874.751 578H873.437C873.312 578 873.25 577.935 873.25 577.805L873.303 573.274L873.25 569.046C873.25 568.915 873.312 568.85 873.437 568.85H874.751C874.882 568.85 874.947 568.915 874.947 569.046L874.902 572.723H875.817C875.9 571.894 876.117 571.175 876.466 570.565C876.815 569.955 877.289 569.484 877.887 569.152C878.485 568.815 879.187 568.646 879.993 568.646ZM879.993 577.067C880.834 577.067 881.464 576.756 881.885 576.134C882.305 575.513 882.515 574.615 882.515 573.443C882.515 572.276 882.302 571.376 881.876 570.742C881.455 570.103 880.831 569.783 880.002 569.783C879.166 569.783 878.53 570.103 878.092 570.742C877.659 571.376 877.443 572.279 877.443 573.452C877.443 574.612 877.659 575.507 878.092 576.134C878.524 576.756 879.158 577.067 879.993 577.067ZM890.633 569.241C891.432 569.241 892.111 569.431 892.667 569.81C893.23 570.189 893.65 570.71 893.929 571.373C894.207 572.036 894.346 572.791 894.346 573.638C894.346 574.544 894.177 575.341 893.84 576.028C893.502 576.709 893.017 577.239 892.383 577.618C891.749 577.991 891 578.178 890.135 578.178C889.223 578.178 888.456 577.959 887.835 577.52C887.213 577.082 886.745 576.451 886.431 575.628C886.123 574.805 885.969 573.819 885.969 572.67C885.969 570.751 886.271 569.256 886.875 568.184C887.479 567.112 888.448 566.437 889.78 566.159C890.023 566.105 890.328 566.052 890.695 565.999C891.068 565.945 891.438 565.898 891.806 565.856C892.694 565.75 893.322 565.661 893.689 565.59H893.724C893.843 565.59 893.902 565.652 893.902 565.777V566.665C893.902 566.789 893.846 566.86 893.733 566.878C893.301 566.973 892.635 567.071 891.734 567.171C890.899 567.272 890.322 567.358 890.002 567.429C889.126 567.624 888.486 568.054 888.083 568.717C887.681 569.374 887.438 570.266 887.355 571.391C887.639 570.728 888.054 570.203 888.599 569.818C889.143 569.434 889.822 569.241 890.633 569.241ZM890.144 577.041C890.95 577.041 891.572 576.75 892.01 576.17C892.454 575.584 892.676 574.772 892.676 573.736C892.676 572.694 892.463 571.876 892.036 571.284C891.616 570.686 891.012 570.387 890.224 570.387C889.703 570.387 889.25 570.517 888.865 570.778C888.48 571.038 888.181 571.42 887.968 571.924C887.761 572.427 887.657 573.031 887.657 573.736C887.657 574.399 887.752 574.98 887.941 575.477C888.131 575.969 888.412 576.354 888.785 576.632C889.158 576.904 889.611 577.041 890.144 577.041ZM896.555 578C896.431 578 896.369 577.935 896.369 577.805L896.422 573.274L896.36 569.046C896.36 568.915 896.422 568.85 896.547 568.85H897.826C897.956 568.85 898.021 568.915 898.021 569.046L897.995 573.105L897.95 576.214L902.187 568.992C902.229 568.898 902.309 568.85 902.427 568.85H904C904.13 568.85 904.195 568.915 904.195 569.046L904.133 573.274L904.195 577.805C904.195 577.935 904.13 578 904 578H902.729C902.599 578 902.534 577.935 902.534 577.805L902.569 573.496L902.596 570.689L898.394 577.858C898.341 577.953 898.261 578 898.154 578H896.555ZM913.42 568.85C913.473 568.85 913.515 568.862 913.544 568.886C913.574 568.909 913.589 568.939 913.589 568.975C913.589 569.016 913.574 569.054 913.544 569.09L910.844 572.821L913.979 577.76C914.003 577.79 914.015 577.825 914.015 577.867C914.015 577.908 914 577.941 913.971 577.964C913.941 577.988 913.899 578 913.846 578H912.372C912.271 578 912.191 577.953 912.132 577.858L911.394 576.57L909.538 573.683H908.196L908.25 577.805C908.25 577.935 908.185 578 908.054 578H906.74C906.615 578 906.553 577.935 906.553 577.805L906.606 573.274L906.553 569.046C906.553 568.915 906.615 568.85 906.74 568.85H908.054C908.185 568.85 908.25 568.915 908.25 569.046L908.205 572.483H909.556L911.963 568.983C912.028 568.895 912.108 568.85 912.203 568.85H913.42Z" fill="black"/>
<path d="M871.86 54.3616C871.925 54.3616 871.972 54.3823 872.002 54.4238C872.032 54.4593 872.044 54.5096 872.038 54.5748L871.913 55.4009C871.907 55.5253 871.839 55.5875 871.709 55.5875H869.266L868.644 59.9048H871.078C871.143 59.9048 871.191 59.9255 871.22 59.967C871.256 60.0025 871.268 60.0528 871.256 60.118L871.114 60.9441C871.096 61.0685 871.025 61.1307 870.901 61.1307H868.475L868.085 63.8134C868.067 63.9378 867.999 64 867.88 64H866.743C866.678 64 866.628 63.9822 866.592 63.9467C866.563 63.9052 866.554 63.8519 866.565 63.7868L866.939 61.1307H864.469L864.087 63.8134C864.069 63.9378 863.998 64 863.874 64H862.737C862.672 64 862.621 63.9822 862.586 63.9467C862.556 63.9052 862.547 63.8519 862.559 63.7868L862.941 61.1307H860.507C860.442 61.1307 860.392 61.1129 860.356 61.0774C860.326 61.0359 860.318 60.9826 860.329 60.9175L860.472 60.0913C860.489 59.967 860.56 59.9048 860.685 59.9048H863.11L863.732 55.5875H861.315C861.25 55.5875 861.203 55.5697 861.173 55.5342C861.144 55.4927 861.132 55.4394 861.138 55.3743L861.262 54.5481C861.274 54.4238 861.342 54.3616 861.466 54.3616H863.9L864.282 51.7499C864.3 51.6255 864.368 51.5633 864.487 51.5633H865.624C865.76 51.5633 865.819 51.6344 865.802 51.7765L865.437 54.3616H867.907L868.28 51.7499C868.298 51.6255 868.369 51.5633 868.493 51.5633H869.63C869.766 51.5633 869.826 51.6344 869.808 51.7765L869.444 54.3616H871.86ZM867.729 55.5875H865.26L864.647 59.9048H867.116L867.729 55.5875ZM875.409 63.8046C875.409 63.9349 875.343 64 875.213 64H873.854C873.73 64 873.667 63.9349 873.667 63.8046L873.765 57.7905L873.667 51.7588C873.667 51.6285 873.73 51.5633 873.854 51.5633H881.112C881.171 51.5633 881.218 51.5811 881.254 51.6166C881.289 51.6522 881.307 51.6995 881.307 51.7588V52.6382C881.307 52.6974 881.289 52.7448 881.254 52.7803C881.218 52.8159 881.171 52.8336 881.112 52.8336H875.409L875.32 57.2753H880.819C880.878 57.2753 880.925 57.2931 880.961 57.3286C880.996 57.3641 881.014 57.4115 881.014 57.4707V58.3502C881.014 58.4094 880.996 58.4568 880.961 58.4923C880.925 58.5279 880.878 58.5456 880.819 58.5456H875.32L875.409 63.8046ZM887.444 64.2221C886.543 64.2221 885.756 63.9674 885.081 63.4581C884.405 62.9488 883.881 62.2115 883.508 61.2462C883.141 60.2808 882.957 59.129 882.957 57.7905C882.957 56.4284 883.141 55.2647 883.508 54.2994C883.875 53.3282 884.397 52.5938 885.072 52.0963C885.753 51.5929 886.546 51.3412 887.452 51.3412C888.359 51.3412 889.146 51.59 889.815 52.0874C890.491 52.5849 891.012 53.3193 891.379 54.2905C891.752 55.2618 891.938 56.4314 891.938 57.7994C891.938 59.1379 891.752 60.2897 891.379 61.255C891.012 62.2204 890.491 62.9577 889.815 63.467C889.14 63.9704 888.35 64.2221 887.444 64.2221ZM887.452 62.8985C888.323 62.8985 888.998 62.4661 889.478 61.6015C889.958 60.7369 890.197 59.4695 890.197 57.7994C890.197 56.6861 890.088 55.7474 889.869 54.9834C889.65 54.2135 889.333 53.6361 888.918 53.2512C888.51 52.8603 888.018 52.6649 887.444 52.6649C886.561 52.6649 885.88 53.1001 885.4 53.9707C884.927 54.8413 884.69 56.1175 884.69 57.7994C884.69 58.9069 884.799 59.8426 885.018 60.6066C885.243 61.3646 885.56 61.9361 885.969 62.321C886.383 62.706 886.878 62.8985 887.452 62.8985ZM902.127 63.8046C902.127 63.8638 902.109 63.9112 902.073 63.9467C902.038 63.9822 901.99 64 901.931 64H894.309C894.185 64 894.123 63.9349 894.123 63.8046L894.22 57.5685L894.123 51.7588C894.123 51.6285 894.185 51.5633 894.309 51.5633H901.789C901.848 51.5633 901.896 51.5811 901.931 51.6166C901.967 51.6522 901.984 51.6995 901.984 51.7588V52.6382C901.984 52.6974 901.967 52.7448 901.931 52.7803C901.896 52.8159 901.848 52.8336 901.789 52.8336H895.864L895.775 56.7245H901.363C901.422 56.7245 901.469 56.7423 901.505 56.7778C901.54 56.8134 901.558 56.8608 901.558 56.92V57.7994C901.558 57.8587 901.54 57.906 901.505 57.9416C901.469 57.9771 901.422 57.9949 901.363 57.9949H895.775L895.864 62.7297H901.931C902.061 62.7297 902.127 62.7948 902.127 62.9251V63.8046ZM906.057 63.8046C906.057 63.9349 905.992 64 905.861 64H904.502C904.378 64 904.316 63.9349 904.316 63.8046L904.413 57.7905L904.316 51.7588C904.316 51.6285 904.378 51.5633 904.502 51.5633H911.76C911.819 51.5633 911.866 51.5811 911.902 51.6166C911.938 51.6522 911.955 51.6995 911.955 51.7588V52.6382C911.955 52.6974 911.938 52.7448 911.902 52.7803C911.866 52.8159 911.819 52.8336 911.76 52.8336H906.057L905.968 57.2753H911.467C911.526 57.2753 911.573 57.2931 911.609 57.3286C911.644 57.3641 911.662 57.4115 911.662 57.4707V58.3502C911.662 58.4094 911.644 58.4568 911.609 58.4923C911.573 58.5279 911.526 58.5456 911.467 58.5456H905.968L906.057 63.8046ZM922.009 63.8046C922.009 63.8638 921.992 63.9112 921.956 63.9467C921.92 63.9822 921.873 64 921.814 64H914.192C914.068 64 914.005 63.9349 914.005 63.8046L914.103 57.5685L914.005 51.7588C914.005 51.6285 914.068 51.5633 914.192 51.5633H921.672C921.731 51.5633 921.778 51.5811 921.814 51.6166C921.849 51.6522 921.867 51.6995 921.867 51.7588V52.6382C921.867 52.6974 921.849 52.7448 921.814 52.7803C921.778 52.8159 921.731 52.8336 921.672 52.8336H915.747L915.658 56.7245H921.245C921.305 56.7245 921.352 56.7423 921.387 56.7778C921.423 56.8134 921.441 56.8608 921.441 56.92V57.7994C921.441 57.8587 921.423 57.906 921.387 57.9416C921.352 57.9771 921.305 57.9949 921.245 57.9949H915.658L915.747 62.7297H921.814C921.944 62.7297 922.009 62.7948 922.009 62.9251V63.8046ZM925.939 63.8046C925.939 63.9349 925.874 64 925.744 64H924.385C924.261 64 924.198 63.9349 924.198 63.8046L924.296 57.7905L924.198 51.7588C924.198 51.6285 924.261 51.5633 924.385 51.5633H931.643C931.702 51.5633 931.749 51.5811 931.785 51.6166C931.82 51.6522 931.838 51.6995 931.838 51.7588V52.6382C931.838 52.6974 931.82 52.7448 931.785 52.7803C931.749 52.8159 931.702 52.8336 931.643 52.8336H925.939L925.851 57.2753H931.349C931.409 57.2753 931.456 57.2931 931.492 57.3286C931.527 57.3641 931.545 57.4115 931.545 57.4707V58.3502C931.545 58.4094 931.527 58.4568 931.492 58.4923C931.456 58.5279 931.409 58.5456 931.349 58.5456H925.851L925.939 63.8046Z" fill="black"/>
<rect x="696.232" width="156.569" height="599.625" fill="#050505"/>
<path d="M713.647 41C713.445 41 713.344 40.8941 713.344 40.6824L713.445 30.9096L713.387 23.8219C712.406 24.7457 711.078 25.4964 709.403 26.0738C709.374 26.0834 709.331 26.0882 709.273 26.0882C709.11 26.0882 709.028 25.9968 709.028 25.8139V24.3271C709.028 24.1442 709.114 24.0191 709.288 23.9518C710.125 23.6342 710.895 23.2204 711.597 22.7103C712.3 22.1906 712.887 21.618 713.358 20.9925C713.435 20.8578 713.56 20.7904 713.734 20.7904H715.87C716.082 20.7904 716.188 20.8963 716.188 21.108L716.043 31.4871L716.188 40.6824C716.188 40.8941 716.082 41 715.87 41H713.647ZM727.177 41.3753C725.195 41.3753 723.645 40.8749 722.529 39.874C721.422 38.8732 720.768 37.4922 720.566 35.7311V35.6878C720.566 35.4953 720.667 35.3991 720.869 35.3991H722.962C723.164 35.3991 723.275 35.5049 723.294 35.7166C723.381 36.8426 723.756 37.7424 724.42 38.4161C725.084 39.0801 725.998 39.4121 727.163 39.4121C728.019 39.4121 728.765 39.1908 729.4 38.7481C730.035 38.3054 730.521 37.6654 730.858 36.8282C731.205 35.9813 731.378 34.9804 731.378 33.8256C731.378 32.1222 731.027 30.8182 730.324 29.9136C729.631 29.009 728.63 28.5567 727.321 28.5567C726.311 28.5567 725.483 28.8117 724.839 29.3217C724.194 29.8222 723.746 30.5439 723.496 31.4871C723.438 31.6795 723.318 31.7758 723.135 31.7758H721.345C721.124 31.7758 721.018 31.6603 721.028 31.4293L721.706 21.0936C721.725 20.8915 721.836 20.7904 722.038 20.7904H732.619C732.716 20.7904 732.793 20.8193 732.85 20.877C732.908 20.9348 732.937 21.0118 732.937 21.108V22.566C732.937 22.7777 732.831 22.8835 732.619 22.8835H724.074L723.64 28.4412C724.199 27.8157 724.834 27.3441 725.546 27.0265C726.268 26.7089 727.1 26.5501 728.043 26.5501C729.237 26.5501 730.305 26.8389 731.248 27.4163C732.191 27.9937 732.927 28.8213 733.457 29.8992C733.995 30.9674 734.265 32.2233 734.265 33.6668C734.265 35.2162 733.967 36.5731 733.37 37.7376C732.783 38.9021 731.95 39.8019 730.873 40.437C729.804 41.0626 728.573 41.3753 727.177 41.3753ZM741.619 30.3322C740.695 30.3322 739.891 30.1446 739.208 29.7692C738.525 29.3939 737.995 28.8406 737.62 28.1092C737.245 27.3778 737.057 26.4924 737.057 25.4531C737.057 24.4233 737.245 23.538 737.62 22.7969C737.995 22.0463 738.525 21.4785 739.208 21.0936C739.901 20.699 740.709 20.5017 741.633 20.5017C742.557 20.5017 743.361 20.699 744.044 21.0936C744.727 21.4785 745.252 22.0463 745.617 22.7969C745.993 23.538 746.18 24.4281 746.18 25.4675C746.18 26.4972 745.993 27.3778 745.617 28.1092C745.242 28.8309 744.708 29.3843 744.015 29.7692C743.332 30.1446 742.533 30.3322 741.619 30.3322ZM742.398 40.7979C742.312 40.9326 742.186 41 742.023 41H740.392C740.305 41 740.238 40.9808 740.19 40.9423C740.141 40.9038 740.117 40.8556 740.117 40.7979C740.117 40.7402 740.141 40.6776 740.19 40.6102L753.311 20.9925C753.398 20.8578 753.523 20.7904 753.687 20.7904H755.318C755.404 20.7904 755.472 20.8097 755.52 20.8482C755.568 20.8866 755.592 20.9348 755.592 20.9925C755.592 21.0503 755.568 21.1128 755.52 21.1802L742.398 40.7979ZM741.619 28.6722C742.331 28.6722 742.879 28.4027 743.264 27.8638C743.649 27.3248 743.842 26.5261 743.842 25.4675C743.842 24.3896 743.644 23.5716 743.25 23.0135C742.855 22.4457 742.307 22.1618 741.604 22.1618C740.902 22.1618 740.353 22.4457 739.959 23.0135C739.574 23.5716 739.381 24.3896 739.381 25.4675C739.381 26.5068 739.574 27.3008 739.959 27.8493C740.353 28.3979 740.906 28.6722 741.619 28.6722ZM754.163 41.2887C753.249 41.2887 752.45 41.0914 751.767 40.6969C751.083 40.3023 750.554 39.7345 750.179 38.9935C749.804 38.2428 749.616 37.3478 749.616 36.3085C749.616 35.2788 749.804 34.403 750.179 33.6812C750.554 32.9498 751.083 32.3965 751.767 32.0212C752.45 31.6458 753.254 31.4582 754.177 31.4582C755.101 31.4582 755.905 31.6458 756.588 32.0212C757.271 32.3965 757.796 32.9498 758.162 33.6812C758.537 34.403 758.725 35.2836 758.725 36.3229C758.725 37.3527 758.537 38.2428 758.162 38.9935C757.786 39.7441 757.252 40.3167 756.559 40.7113C755.876 41.0962 755.077 41.2887 754.163 41.2887ZM754.177 39.6286C754.88 39.6286 755.424 39.3496 755.809 38.7914C756.203 38.2332 756.4 37.4104 756.4 36.3229C756.4 35.2932 756.203 34.5041 755.809 33.9555C755.414 33.3973 754.866 33.1183 754.163 33.1183C753.441 33.1183 752.888 33.3925 752.503 33.9411C752.128 34.48 751.94 35.274 751.94 36.3229C751.94 37.4104 752.137 38.2332 752.532 38.7914C752.926 39.3496 753.475 39.6286 754.177 39.6286Z" fill="white"/>
<path d="M713.834 566.834L713.772 570.396H716.614C718.255 570.414 719.442 570.751 720.176 571.409C720.917 572.066 721.287 572.999 721.287 574.207C721.287 575.45 720.866 576.395 720.025 577.041C719.185 577.68 718.024 578 716.543 578H712.297C712.173 578 712.11 577.935 712.11 577.805L712.208 571.853L712.11 565.759C712.11 565.628 712.173 565.563 712.297 565.563H719.883C719.943 565.563 719.99 565.581 720.025 565.617C720.061 565.652 720.079 565.7 720.079 565.759V566.638C720.079 566.697 720.061 566.745 720.025 566.78C719.99 566.816 719.943 566.834 719.883 566.834H713.834ZM713.763 571.675L713.834 576.73H716.579C717.55 576.73 718.296 576.528 718.817 576.126C719.344 575.723 719.608 575.092 719.608 574.233C719.608 573.339 719.344 572.691 718.817 572.288C718.296 571.879 717.571 571.675 716.641 571.675H713.763ZM729.51 569.054C729.504 568.989 729.519 568.939 729.555 568.903C729.59 568.868 729.641 568.85 729.706 568.85H730.976C731.106 568.85 731.171 568.915 731.171 569.046L731.1 573.327L731.171 577.805C731.171 577.935 731.106 578 730.976 578H729.715C729.649 578 729.599 577.982 729.564 577.947C729.528 577.911 729.513 577.864 729.519 577.805L729.546 576.428C729.244 576.984 728.847 577.414 728.355 577.716C727.864 578.018 727.289 578.169 726.632 578.169C725.833 578.169 725.149 577.964 724.58 577.556C724.011 577.141 723.579 576.579 723.283 575.868C722.993 575.151 722.848 574.343 722.848 573.443C722.848 572.555 722.999 571.749 723.301 571.027C723.603 570.298 724.041 569.724 724.616 569.303C725.196 568.883 725.877 568.672 726.659 568.672C727.31 568.672 727.879 568.812 728.364 569.09C728.856 569.368 729.25 569.78 729.546 570.325L729.51 569.054ZM727.032 577.032C727.837 577.032 728.465 576.73 728.915 576.126C729.365 575.516 729.59 574.618 729.59 573.434C729.59 572.279 729.368 571.388 728.924 570.76C728.48 570.126 727.855 569.81 727.05 569.81C726.209 569.81 725.575 570.126 725.149 570.76C724.722 571.394 724.509 572.25 724.509 573.327C724.509 574.464 724.722 575.368 725.149 576.037C725.575 576.7 726.203 577.032 727.032 577.032ZM733.642 578.133C733.429 578.133 733.227 578.107 733.038 578.053C732.931 578.03 732.878 577.959 732.878 577.84V577.094C732.878 576.975 732.928 576.916 733.029 576.916C733.082 576.916 733.133 576.922 733.18 576.934C733.233 576.94 733.286 576.943 733.34 576.943C733.583 576.943 733.775 576.89 733.917 576.783C734.059 576.67 734.169 576.481 734.246 576.214C734.329 575.948 734.394 575.569 734.441 575.077C734.495 574.497 734.548 573.632 734.601 572.483C734.655 571.335 734.699 570.189 734.734 569.046C734.74 568.986 734.761 568.939 734.797 568.903C734.832 568.868 734.88 568.85 734.939 568.85H740.962C741.092 568.85 741.157 568.915 741.157 569.046L741.13 573.363L741.21 577.805C741.21 577.935 741.145 578 741.015 578L739.736 578.009C739.605 578.009 739.54 577.944 739.54 577.813L739.567 573.363L739.514 570.041H736.129C736.017 572.563 735.925 574.281 735.854 575.193C735.795 575.868 735.694 576.416 735.552 576.836C735.41 577.257 735.188 577.58 734.885 577.805C734.583 578.024 734.169 578.133 733.642 578.133ZM749.879 569.054C749.873 568.989 749.888 568.939 749.923 568.903C749.959 568.868 750.009 568.85 750.074 568.85H751.344C751.475 568.85 751.54 568.915 751.54 569.046L751.469 573.327L751.54 577.805C751.54 577.935 751.475 578 751.344 578H750.083C750.018 578 749.968 577.982 749.932 577.947C749.897 577.911 749.882 577.864 749.888 577.805L749.914 576.428C749.612 576.984 749.215 577.414 748.724 577.716C748.232 578.018 747.658 578.169 747.001 578.169C746.201 578.169 745.517 577.964 744.948 577.556C744.38 577.141 743.948 576.579 743.652 575.868C743.361 575.151 743.216 574.343 743.216 573.443C743.216 572.555 743.367 571.749 743.669 571.027C743.971 570.298 744.41 569.724 744.984 569.303C745.564 568.883 746.245 568.672 747.027 568.672C747.679 568.672 748.247 568.812 748.733 569.09C749.224 569.368 749.618 569.78 749.914 570.325L749.879 569.054ZM747.4 577.032C748.206 577.032 748.833 576.73 749.284 576.126C749.734 575.516 749.959 574.618 749.959 573.434C749.959 572.279 749.737 571.388 749.292 570.76C748.848 570.126 748.223 569.81 747.418 569.81C746.577 569.81 745.943 570.126 745.517 570.76C745.091 571.394 744.877 572.25 744.877 573.327C744.877 574.464 745.091 575.368 745.517 576.037C745.943 576.7 746.571 577.032 747.4 577.032ZM754.073 578C753.948 578 753.886 577.935 753.886 577.805L753.939 573.274L753.886 569.046C753.886 568.915 753.948 568.85 754.073 568.85H759.394C759.453 568.85 759.5 568.868 759.536 568.903C759.571 568.939 759.589 568.986 759.589 569.046V569.854C759.589 569.984 759.524 570.049 759.394 570.049H755.565L755.52 573.274L755.583 577.805C755.583 577.935 755.518 578 755.387 578H754.073ZM766.968 569.054C766.962 568.989 766.977 568.939 767.012 568.903C767.048 568.868 767.098 568.85 767.163 568.85H768.434C768.564 568.85 768.629 568.915 768.629 569.046L768.558 573.327L768.629 577.805C768.629 577.935 768.564 578 768.434 578H767.172C767.107 578 767.057 577.982 767.021 577.947C766.986 577.911 766.971 577.864 766.977 577.805L767.004 576.428C766.702 576.984 766.305 577.414 765.813 577.716C765.322 578.018 764.747 578.169 764.09 578.169C763.29 578.169 762.606 577.964 762.038 577.556C761.469 577.141 761.037 576.579 760.741 575.868C760.451 575.151 760.306 574.343 760.306 573.443C760.306 572.555 760.457 571.749 760.759 571.027C761.061 570.298 761.499 569.724 762.073 569.303C762.654 568.883 763.335 568.672 764.117 568.672C764.768 568.672 765.336 568.812 765.822 569.09C766.314 569.368 766.707 569.78 767.004 570.325L766.968 569.054ZM764.49 577.032C765.295 577.032 765.923 576.73 766.373 576.126C766.823 575.516 767.048 574.618 767.048 573.434C767.048 572.279 766.826 571.388 766.382 570.76C765.938 570.126 765.313 569.81 764.507 569.81C763.666 569.81 763.033 570.126 762.606 570.76C762.18 571.394 761.967 572.25 761.967 573.327C761.967 574.464 762.18 575.368 762.606 576.037C763.033 576.7 763.66 577.032 764.49 577.032ZM776.998 569.046C776.998 568.915 777.06 568.85 777.185 568.85H778.464C778.594 568.85 778.659 568.915 778.659 569.046L778.597 573.274L778.659 577.805C778.659 577.935 778.594 578 778.464 578H777.185C777.06 578 776.998 577.935 776.998 577.805L777.043 573.754H772.583L772.636 577.805C772.636 577.935 772.571 578 772.441 578H771.162C771.037 578 770.975 577.935 770.975 577.805L771.029 573.274L770.975 569.046C770.975 568.915 771.037 568.85 771.162 568.85H772.441C772.571 568.85 772.636 568.915 772.636 569.046L772.592 572.555H777.043L776.998 569.046Z" fill="white"/>
<path d="M719.949 54.3616C720.015 54.3616 720.062 54.3823 720.092 54.4238C720.121 54.4593 720.133 54.5096 720.127 54.5748L720.003 55.4009C719.997 55.5253 719.929 55.5875 719.798 55.5875H717.355L716.734 59.9048H719.168C719.233 59.9048 719.28 59.9255 719.31 59.967C719.345 60.0025 719.357 60.0528 719.345 60.118L719.203 60.9441C719.185 61.0685 719.114 61.1307 718.99 61.1307H716.565L716.174 63.8134C716.156 63.9378 716.088 64 715.97 64H714.833C714.767 64 714.717 63.9822 714.682 63.9467C714.652 63.9052 714.643 63.8519 714.655 63.7868L715.028 61.1307H712.558L712.176 63.8134C712.159 63.9378 712.088 64 711.963 64H710.826C710.761 64 710.711 63.9822 710.675 63.9467C710.646 63.9052 710.637 63.8519 710.649 63.7868L711.031 61.1307H708.596C708.531 61.1307 708.481 61.1129 708.445 61.0774C708.416 61.0359 708.407 60.9826 708.419 60.9175L708.561 60.0913C708.579 59.967 708.65 59.9048 708.774 59.9048H711.199L711.821 55.5875H709.405C709.34 55.5875 709.292 55.5697 709.263 55.5342C709.233 55.4927 709.221 55.4394 709.227 55.3743L709.352 54.5481C709.363 54.4238 709.432 54.3616 709.556 54.3616H711.99L712.372 51.7499C712.39 51.6255 712.458 51.5633 712.576 51.5633H713.713C713.849 51.5633 713.909 51.6344 713.891 51.7765L713.527 54.3616H715.996L716.369 51.7499C716.387 51.6255 716.458 51.5633 716.583 51.5633H717.72C717.856 51.5633 717.915 51.6344 717.897 51.7765L717.533 54.3616H719.949ZM715.819 55.5875H713.349L712.736 59.9048H715.206L715.819 55.5875ZM725.843 64.2221C724.943 64.2221 724.155 63.9674 723.48 63.4581C722.805 62.9488 722.281 62.2115 721.908 61.2462C721.541 60.2808 721.357 59.129 721.357 57.7905C721.357 56.4284 721.541 55.2647 721.908 54.2994C722.275 53.3282 722.796 52.5938 723.471 52.0963C724.152 51.5929 724.946 51.3412 725.852 51.3412C726.758 51.3412 727.546 51.59 728.215 52.0874C728.89 52.5849 729.411 53.3193 729.779 54.2905C730.152 55.2618 730.338 56.4314 730.338 57.7994C730.338 59.1379 730.152 60.2897 729.779 61.255C729.411 62.2204 728.89 62.9577 728.215 63.467C727.54 63.9704 726.749 64.2221 725.843 64.2221ZM725.852 62.8985C726.723 62.8985 727.398 62.4661 727.877 61.6015C728.357 60.7369 728.597 59.4695 728.597 57.7994C728.597 56.6861 728.487 55.7474 728.268 54.9834C728.049 54.2135 727.732 53.6361 727.318 53.2512C726.909 52.8603 726.418 52.6649 725.843 52.6649C724.961 52.6649 724.28 53.1001 723.8 53.9707C723.326 54.8413 723.089 56.1175 723.089 57.7994C723.089 58.9069 723.199 59.8426 723.418 60.6066C723.643 61.3646 723.96 61.9361 724.369 62.321C724.783 62.706 725.278 62.8985 725.852 62.8985ZM736.088 64.231C734.868 64.231 733.914 63.923 733.227 63.3071C732.546 62.6912 732.144 61.8413 732.019 60.7576V60.7309C732.019 60.6125 732.082 60.5533 732.206 60.5533H733.494C733.618 60.5533 733.686 60.6184 733.698 60.7487C733.752 61.4416 733.983 61.9953 734.391 62.4099C734.8 62.8185 735.362 63.0228 736.079 63.0228C736.606 63.0228 737.065 62.8866 737.456 62.6142C737.847 62.3418 738.146 61.9479 738.353 61.4327C738.566 60.9116 738.673 60.2956 738.673 59.585C738.673 58.5367 738.457 57.7343 738.024 57.1776C737.598 56.6209 736.982 56.3426 736.177 56.3426C735.555 56.3426 735.046 56.4995 734.649 56.8134C734.252 57.1213 733.977 57.5655 733.823 58.1459C733.787 58.2643 733.713 58.3235 733.601 58.3235H732.499C732.363 58.3235 732.298 58.2525 732.304 58.1103L732.721 51.7499C732.733 51.6255 732.801 51.5633 732.925 51.5633H739.437C739.496 51.5633 739.544 51.5811 739.579 51.6166C739.615 51.6522 739.632 51.6995 739.632 51.7588V52.656C739.632 52.7863 739.567 52.8514 739.437 52.8514H734.178L733.911 56.2715C734.255 55.8866 734.646 55.5964 735.084 55.4009C735.528 55.2055 736.041 55.1078 736.621 55.1078C737.355 55.1078 738.013 55.2854 738.593 55.6408C739.173 55.9961 739.626 56.5054 739.952 57.1687C740.284 57.8261 740.45 58.5989 740.45 59.4873C740.45 60.4407 740.266 61.2758 739.899 61.9924C739.538 62.709 739.025 63.2627 738.362 63.6535C737.705 64.0385 736.947 64.231 736.088 64.231ZM746.663 64.2221C745.763 64.2221 744.975 63.9674 744.3 63.4581C743.625 62.9488 743.101 62.2115 742.727 61.2462C742.36 60.2808 742.177 59.129 742.177 57.7905C742.177 56.4284 742.36 55.2647 742.727 54.2994C743.095 53.3282 743.616 52.5938 744.291 52.0963C744.972 51.5929 745.766 51.3412 746.672 51.3412C747.578 51.3412 748.365 51.59 749.035 52.0874C749.71 52.5849 750.231 53.3193 750.598 54.2905C750.971 55.2618 751.158 56.4314 751.158 57.7994C751.158 59.1379 750.971 60.2897 750.598 61.255C750.231 62.2204 749.71 62.9577 749.035 63.467C748.36 63.9704 747.569 64.2221 746.663 64.2221ZM746.672 62.8985C747.542 62.8985 748.217 62.4661 748.697 61.6015C749.177 60.7369 749.417 59.4695 749.417 57.7994C749.417 56.6861 749.307 55.7474 749.088 54.9834C748.869 54.2135 748.552 53.6361 748.137 53.2512C747.729 52.8603 747.237 52.6649 746.663 52.6649C745.78 52.6649 745.099 53.1001 744.62 53.9707C744.146 54.8413 743.909 56.1175 743.909 57.7994C743.909 58.9069 744.019 59.8426 744.238 60.6066C744.463 61.3646 744.78 61.9361 745.188 62.321C745.603 62.706 746.097 62.8985 746.672 62.8985ZM756.908 64.231C755.688 64.231 754.734 63.923 754.047 63.3071C753.366 62.6912 752.963 61.8413 752.839 60.7576V60.7309C752.839 60.6125 752.901 60.5533 753.026 60.5533H754.314C754.438 60.5533 754.506 60.6184 754.518 60.7487C754.571 61.4416 754.802 61.9953 755.211 62.4099C755.619 62.8185 756.182 63.0228 756.899 63.0228C757.426 63.0228 757.885 62.8866 758.276 62.6142C758.666 62.3418 758.965 61.9479 759.173 61.4327C759.386 60.9116 759.493 60.2956 759.493 59.585C759.493 58.5367 759.276 57.7343 758.844 57.1776C758.418 56.6209 757.802 56.3426 756.996 56.3426C756.375 56.3426 755.865 56.4995 755.468 56.8134C755.072 57.1213 754.796 57.5655 754.642 58.1459C754.607 58.2643 754.533 58.3235 754.42 58.3235H753.319C753.182 58.3235 753.117 58.2525 753.123 58.1103L753.541 51.7499C753.553 51.6255 753.621 51.5633 753.745 51.5633H760.257C760.316 51.5633 760.363 51.5811 760.399 51.6166C760.434 51.6522 760.452 51.6995 760.452 51.7588V52.656C760.452 52.7863 760.387 52.8514 760.257 52.8514H754.998L754.731 56.2715C755.075 55.8866 755.465 55.5964 755.904 55.4009C756.348 55.2055 756.86 55.1078 757.441 55.1078C758.175 55.1078 758.832 55.2854 759.413 55.6408C759.993 55.9961 760.446 56.5054 760.772 57.1687C761.103 57.8261 761.269 58.5989 761.269 59.4873C761.269 60.4407 761.086 61.2758 760.718 61.9924C760.357 62.709 759.845 63.2627 759.182 63.6535C758.524 64.0385 757.766 64.231 756.908 64.231ZM767.482 64.2221C766.582 64.2221 765.795 63.9674 765.119 63.4581C764.444 62.9488 763.92 62.2115 763.547 61.2462C763.18 60.2808 762.996 59.129 762.996 57.7905C762.996 56.4284 763.18 55.2647 763.547 54.2994C763.914 53.3282 764.435 52.5938 765.111 52.0963C765.792 51.5929 766.585 51.3412 767.491 51.3412C768.397 51.3412 769.185 51.59 769.854 52.0874C770.529 52.5849 771.051 53.3193 771.418 54.2905C771.791 55.2618 771.977 56.4314 771.977 57.7994C771.977 59.1379 771.791 60.2897 771.418 61.255C771.051 62.2204 770.529 62.9577 769.854 63.467C769.179 63.9704 768.389 64.2221 767.482 64.2221ZM767.491 62.8985C768.362 62.8985 769.037 62.4661 769.517 61.6015C769.996 60.7369 770.236 59.4695 770.236 57.7994C770.236 56.6861 770.127 55.7474 769.908 54.9834C769.688 54.2135 769.372 53.6361 768.957 53.2512C768.548 52.8603 768.057 52.6649 767.482 52.6649C766.6 52.6649 765.919 53.1001 765.439 53.9707C764.965 54.8413 764.729 56.1175 764.729 57.7994C764.729 58.9069 764.838 59.8426 765.057 60.6066C765.282 61.3646 765.599 61.9361 766.008 62.321C766.422 62.706 766.917 62.8985 767.491 62.8985ZM777.727 64.231C776.507 64.231 775.554 63.923 774.867 63.3071C774.186 62.6912 773.783 61.8413 773.659 60.7576V60.7309C773.659 60.6125 773.721 60.5533 773.845 60.5533H775.133C775.258 60.5533 775.326 60.6184 775.338 60.7487C775.391 61.4416 775.622 61.9953 776.03 62.4099C776.439 62.8185 777.002 63.0228 777.718 63.0228C778.245 63.0228 778.704 62.8866 779.095 62.6142C779.486 62.3418 779.785 61.9479 779.992 61.4327C780.206 60.9116 780.312 60.2956 780.312 59.585C780.312 58.5367 780.096 57.7343 779.664 57.1776C779.237 56.6209 778.621 56.3426 777.816 56.3426C777.194 56.3426 776.685 56.4995 776.288 56.8134C775.891 57.1213 775.616 57.5655 775.462 58.1459C775.426 58.2643 775.352 58.3235 775.24 58.3235H774.138C774.002 58.3235 773.937 58.2525 773.943 58.1103L774.36 51.7499C774.372 51.6255 774.44 51.5633 774.565 51.5633H781.076C781.135 51.5633 781.183 51.5811 781.218 51.6166C781.254 51.6522 781.272 51.6995 781.272 51.7588V52.656C781.272 52.7863 781.206 52.8514 781.076 52.8514H775.817L775.551 56.2715C775.894 55.8866 776.285 55.5964 776.723 55.4009C777.167 55.2055 777.68 55.1078 778.26 55.1078C778.994 55.1078 779.652 55.2854 780.232 55.6408C780.813 55.9961 781.266 56.5054 781.591 57.1687C781.923 57.8261 782.089 58.5989 782.089 59.4873C782.089 60.4407 781.905 61.2758 781.538 61.9924C781.177 62.709 780.665 63.2627 780.001 63.6535C779.344 64.0385 778.586 64.231 777.727 64.231Z" fill="white"/>
<rect width="426.4" height="599.625" fill="white"/>
<path d="M32.8241 33.125H34.7441C34.8441 33.125 34.9241 33.155 34.9841 33.215C35.0441 33.275 35.0741 33.36 35.0741 33.47V34.97C35.0741 35.08 35.0441 35.165 34.9841 35.225C34.9241 35.285 34.8441 35.315 34.7441 35.315H32.8241V40.67C32.8241 40.89 32.7141 41 32.4941 41H30.3341C30.2341 41 30.1541 40.97 30.0941 40.91C30.0341 40.85 30.0041 40.77 30.0041 40.67V35.315H20.5991C20.4991 35.315 20.4191 35.285 20.3591 35.225C20.2991 35.165 20.2691 35.08 20.2691 34.97V33.155C20.2691 32.995 20.3091 32.855 20.3891 32.735L28.7591 20.21C28.8391 20.07 28.9741 20 29.1641 20H32.4941C32.5941 20 32.6741 20.03 32.7341 20.09C32.7941 20.15 32.8241 20.23 32.8241 20.33V33.125ZM30.0041 33.125V26.675L30.0791 22.04L22.6991 33.125H30.0041ZM45.3404 41.375C43.8204 41.375 42.4904 40.945 41.3504 40.085C40.2104 39.225 39.3254 37.98 38.6954 36.35C38.0754 34.72 37.7654 32.775 37.7654 30.515C37.7654 28.215 38.0754 26.25 38.6954 24.62C39.3154 22.98 40.1954 21.74 41.3354 20.9C42.4854 20.05 43.8254 19.625 45.3554 19.625C46.8854 19.625 48.2154 20.045 49.3454 20.885C50.4854 21.725 51.3654 22.965 51.9854 24.605C52.6154 26.245 52.9304 28.22 52.9304 30.53C52.9304 32.79 52.6154 34.735 51.9854 36.365C51.3654 37.995 50.4854 39.24 49.3454 40.1C48.2054 40.95 46.8704 41.375 45.3404 41.375ZM45.3554 39.14C46.8254 39.14 47.9654 38.41 48.7754 36.95C49.5854 35.49 49.9904 33.35 49.9904 30.53C49.9904 28.65 49.8054 27.065 49.4354 25.775C49.0654 24.475 48.5304 23.5 47.8304 22.85C47.1404 22.19 46.3104 21.86 45.3404 21.86C43.8504 21.86 42.7004 22.595 41.8904 24.065C41.0904 25.535 40.6904 27.69 40.6904 30.53C40.6904 32.4 40.8754 33.98 41.2454 35.27C41.6254 36.55 42.1604 37.515 42.8504 38.165C43.5504 38.815 44.3854 39.14 45.3554 39.14ZM60.6686 29.915C59.7086 29.915 58.8736 29.72 58.1636 29.33C57.4536 28.94 56.9036 28.365 56.5136 27.605C56.1236 26.845 55.9286 25.925 55.9286 24.845C55.9286 23.775 56.1236 22.855 56.5136 22.085C56.9036 21.305 57.4536 20.715 58.1636 20.315C58.8836 19.905 59.7236 19.7 60.6836 19.7C61.6436 19.7 62.4786 19.905 63.1886 20.315C63.8986 20.715 64.4436 21.305 64.8236 22.085C65.2136 22.855 65.4086 23.78 65.4086 24.86C65.4086 25.93 65.2136 26.845 64.8236 27.605C64.4336 28.355 63.8786 28.93 63.1586 29.33C62.4486 29.72 61.6186 29.915 60.6686 29.915ZM61.4786 40.79C61.3886 40.93 61.2586 41 61.0886 41H59.3936C59.3036 41 59.2336 40.98 59.1836 40.94C59.1336 40.9 59.1086 40.85 59.1086 40.79C59.1086 40.73 59.1336 40.665 59.1836 40.595L72.8186 20.21C72.9086 20.07 73.0386 20 73.2086 20H74.9036C74.9936 20 75.0636 20.02 75.1136 20.06C75.1636 20.1 75.1886 20.15 75.1886 20.21C75.1886 20.27 75.1636 20.335 75.1136 20.405L61.4786 40.79ZM60.6686 28.19C61.4086 28.19 61.9786 27.91 62.3786 27.35C62.7786 26.79 62.9786 25.96 62.9786 24.86C62.9786 23.74 62.7736 22.89 62.3636 22.31C61.9536 21.72 61.3836 21.425 60.6536 21.425C59.9236 21.425 59.3536 21.72 58.9436 22.31C58.5436 22.89 58.3436 23.74 58.3436 24.86C58.3436 25.94 58.5436 26.765 58.9436 27.335C59.3536 27.905 59.9286 28.19 60.6686 28.19ZM73.7036 41.3C72.7536 41.3 71.9236 41.095 71.2136 40.685C70.5036 40.275 69.9536 39.685 69.5636 38.915C69.1736 38.135 68.9786 37.205 68.9786 36.125C68.9786 35.055 69.1736 34.145 69.5636 33.395C69.9536 32.635 70.5036 32.06 71.2136 31.67C71.9236 31.28 72.7586 31.085 73.7186 31.085C74.6786 31.085 75.5136 31.28 76.2236 31.67C76.9336 32.06 77.4786 32.635 77.8586 33.395C78.2486 34.145 78.4436 35.06 78.4436 36.14C78.4436 37.21 78.2486 38.135 77.8586 38.915C77.4686 39.695 76.9136 40.29 76.1936 40.7C75.4836 41.1 74.6536 41.3 73.7036 41.3ZM73.7186 39.575C74.4486 39.575 75.0136 39.285 75.4136 38.705C75.8236 38.125 76.0286 37.27 76.0286 36.14C76.0286 35.07 75.8236 34.25 75.4136 33.68C75.0036 33.1 74.4336 32.81 73.7036 32.81C72.9536 32.81 72.3786 33.095 71.9786 33.665C71.5886 34.225 71.3936 35.05 71.3936 36.14C71.3936 37.27 71.5986 38.125 72.0086 38.705C72.4186 39.285 72.9886 39.575 73.7186 39.575Z" fill="black"/>
<path d="M21.8338 566.834L21.7716 570.396H24.6143C26.2547 570.414 27.4421 570.751 28.1765 571.409C28.9168 572.066 29.2869 572.999 29.2869 574.207C29.2869 575.45 28.8664 576.395 28.0255 577.041C27.1845 577.68 26.0238 578 24.5432 578H20.297C20.1726 578 20.1104 577.935 20.1104 577.805L20.2081 571.853L20.1104 565.759C20.1104 565.628 20.1726 565.563 20.297 565.563H27.8833C27.9426 565.563 27.9899 565.581 28.0255 565.617C28.061 565.652 28.0788 565.7 28.0788 565.759V566.638C28.0788 566.697 28.061 566.745 28.0255 566.78C27.9899 566.816 27.9426 566.834 27.8833 566.834H21.8338ZM21.7627 571.675L21.8338 576.73H24.5787C25.55 576.73 26.2962 576.528 26.8173 576.126C27.3444 575.723 27.608 575.092 27.608 574.233C27.608 573.339 27.3444 572.691 26.8173 572.288C26.2962 571.879 25.5707 571.675 24.6409 571.675H21.7627ZM35.2272 578.204C34.2915 578.204 33.495 578.006 32.8376 577.609C32.1862 577.212 31.6916 576.656 31.3541 575.939C31.0165 575.222 30.8477 574.393 30.8477 573.452C30.8477 572.498 31.0165 571.66 31.3541 570.938C31.6976 570.215 32.1921 569.653 32.8376 569.25C33.4831 568.847 34.25 568.646 35.1384 568.646C36.0149 568.646 36.767 568.835 37.3947 569.214C38.0284 569.593 38.514 570.141 38.8516 570.858C39.1951 571.574 39.3787 572.43 39.4024 573.425C39.4024 573.561 39.3372 573.629 39.2069 573.629H32.5178C32.5711 575.921 33.4802 577.067 35.245 577.067C35.9083 577.067 36.4413 576.893 36.844 576.543C37.2526 576.188 37.525 575.673 37.6612 574.997C37.6909 574.879 37.7619 574.82 37.8744 574.82H39.047C39.1122 574.82 39.1625 574.835 39.1981 574.864C39.2336 574.894 39.2484 574.938 39.2425 574.997C39.1418 575.631 38.9197 576.191 38.5762 576.676C38.2387 577.156 37.7856 577.532 37.2171 577.805C36.6485 578.071 35.9853 578.204 35.2272 578.204ZM37.6346 572.519C37.6168 572.01 37.5102 571.548 37.3148 571.133C37.1194 570.713 36.8381 570.381 36.4709 570.138C36.1037 569.895 35.6625 569.774 35.1473 569.774C34.3951 569.774 33.8029 570.014 33.3706 570.494C32.9383 570.967 32.6688 571.642 32.5622 572.519H37.6346ZM40.809 578.133C40.5958 578.133 40.3944 578.107 40.2049 578.053C40.0983 578.03 40.045 577.959 40.045 577.84V577.094C40.045 576.975 40.0954 576.916 40.1961 576.916C40.2494 576.916 40.2997 576.922 40.3471 576.934C40.4004 576.94 40.4537 576.943 40.507 576.943C40.7498 576.943 40.9423 576.89 41.0844 576.783C41.2265 576.67 41.3361 576.481 41.4131 576.214C41.496 575.948 41.5611 575.569 41.6085 575.077C41.6618 574.497 41.7151 573.632 41.7684 572.483C41.8217 571.335 41.8661 570.189 41.9017 569.046C41.9076 568.986 41.9283 568.939 41.9638 568.903C41.9994 568.868 42.0467 568.85 42.106 568.85H48.1289C48.2592 568.85 48.3243 568.915 48.3243 569.046L48.2977 573.363L48.3776 577.805C48.3776 577.935 48.3125 578 48.1822 578L46.903 578.009C46.7727 578.009 46.7075 577.944 46.7075 577.813L46.7342 573.363L46.6809 570.041H43.2963C43.1838 572.563 43.092 574.281 43.021 575.193C42.9617 575.868 42.8611 576.416 42.7189 576.836C42.5768 577.257 42.3547 577.58 42.0527 577.805C41.7506 578.024 41.3361 578.133 40.809 578.133ZM50.5721 578C50.4595 578 50.4033 577.959 50.4033 577.876C50.4033 577.84 50.4151 577.802 50.4388 577.76L52.5797 574.26C51.8572 574.112 51.3005 573.819 50.9096 573.381C50.5247 572.936 50.3322 572.341 50.3322 571.595C50.3322 570.677 50.6491 569.99 51.2827 569.534C51.9223 569.078 52.858 568.85 54.0899 568.85H57.5544C57.6787 568.85 57.7409 568.915 57.7409 569.046L57.6876 573.292L57.7409 577.805C57.7409 577.935 57.6787 578 57.5544 578H56.2307C56.1005 578 56.0353 577.935 56.0353 577.805L56.0797 574.438H54.0366L52.8817 576.454L52.0822 577.867C52.0289 577.956 51.9519 578 51.8513 578H50.5721ZM56.0975 573.301L56.0531 569.978H54.0099C53.3703 569.978 52.8728 570.123 52.5175 570.414C52.1681 570.698 51.9934 571.098 51.9934 571.613C51.9934 572.17 52.1681 572.59 52.5175 572.874C52.8669 573.159 53.3674 573.301 54.0188 573.301H56.0975ZM70.3769 569.046C70.3769 568.915 70.442 568.85 70.5723 568.85H71.8871C72.0114 568.85 72.0736 568.915 72.0736 569.046L72.0203 573.585L72.0736 577.805C72.0736 577.935 72.0114 578 71.8871 578H60.2854C60.1611 578 60.0989 577.935 60.0989 577.805L60.1522 573.585L60.0989 569.046C60.0989 568.915 60.1611 568.85 60.2854 568.85H61.6002C61.7305 568.85 61.7956 568.915 61.7956 569.046L61.7334 573.585L61.7778 576.801H65.2601L65.2956 573.585L65.2423 569.046C65.2423 568.915 65.3045 568.85 65.4289 568.85H66.7436C66.8739 568.85 66.9391 568.915 66.9391 569.046L66.8769 573.585L66.9213 576.801H70.3947L70.4391 573.585L70.3769 569.046Z" fill="black"/>
<path d="M31.1095 59.3616C31.1746 59.3616 31.222 59.3823 31.2516 59.4238C31.2812 59.4593 31.2931 59.5096 31.2872 59.5748L31.1628 60.4009C31.1569 60.5253 31.0888 60.5875 30.9585 60.5875H28.5156L27.8937 64.9048H30.3278C30.3929 64.9048 30.4403 64.9255 30.4699 64.967C30.5054 65.0025 30.5173 65.0528 30.5054 65.118L30.3633 65.9441C30.3455 66.0685 30.2745 66.1307 30.1501 66.1307H27.7249L27.3341 68.8134C27.3163 68.9378 27.2482 69 27.1298 69H25.9927C25.9275 69 25.8772 68.9822 25.8417 68.9467C25.8121 68.9052 25.8032 68.8519 25.815 68.7868L26.1881 66.1307H23.7186L23.3366 68.8134C23.3188 68.9378 23.2477 69 23.1234 69H21.9863C21.9212 69 21.8708 68.9822 21.8353 68.9467C21.8057 68.9052 21.7968 68.8519 21.8086 68.7868L22.1906 66.1307H19.7566C19.6914 66.1307 19.6411 66.1129 19.6056 66.0774C19.576 66.0359 19.5671 65.9826 19.5789 65.9175L19.7211 65.0913C19.7388 64.967 19.8099 64.9048 19.9343 64.9048H22.3594L22.9812 60.5875H20.565C20.4998 60.5875 20.4524 60.5697 20.4228 60.5342C20.3932 60.4927 20.3814 60.4394 20.3873 60.3743L20.5117 59.5481C20.5235 59.4238 20.5916 59.3616 20.716 59.3616H23.15L23.532 56.7499C23.5498 56.6255 23.6179 56.5633 23.7363 56.5633H24.8734C25.0096 56.5633 25.0688 56.6344 25.0511 56.7765L24.6868 59.3616H27.1564L27.5295 56.7499C27.5473 56.6255 27.6183 56.5633 27.7427 56.5633H28.8798C29.016 56.5633 29.0752 56.6344 29.0574 56.7765L28.6932 59.3616H31.1095ZM26.9787 60.5875H24.5092L23.8962 64.9048H26.3658L26.9787 60.5875ZM34.6581 68.8046C34.6581 68.9349 34.593 69 34.4627 69H33.1035C32.9792 69 32.917 68.9349 32.917 68.8046L33.0147 62.7905L32.917 56.7588C32.917 56.6285 32.9792 56.5633 33.1035 56.5633H40.3612C40.4204 56.5633 40.4678 56.5811 40.5033 56.6166C40.5389 56.6522 40.5566 56.6995 40.5566 56.7588V57.6382C40.5566 57.6974 40.5389 57.7448 40.5033 57.7803C40.4678 57.8159 40.4204 57.8336 40.3612 57.8336H34.6581L34.5693 62.2753H40.0681C40.1273 62.2753 40.1747 62.2931 40.2102 62.3286C40.2457 62.3641 40.2635 62.4115 40.2635 62.4707V63.3502C40.2635 63.4094 40.2457 63.4568 40.2102 63.4923C40.1747 63.5279 40.1273 63.5456 40.0681 63.5456H34.5693L34.6581 68.8046ZM44.3479 68.8046C44.3479 68.9349 44.2827 69 44.1524 69H42.7933C42.6689 69 42.6067 68.9349 42.6067 68.8046L42.7045 62.7905L42.6067 56.7588C42.6067 56.6285 42.6689 56.5633 42.7933 56.5633H50.051C50.1102 56.5633 50.1576 56.5811 50.1931 56.6166C50.2286 56.6522 50.2464 56.6995 50.2464 56.7588V57.6382C50.2464 57.6974 50.2286 57.7448 50.1931 57.7803C50.1576 57.8159 50.1102 57.8336 50.051 57.8336H44.3479L44.259 62.2753H49.7578C49.817 62.2753 49.8644 62.2931 49.9 62.3286C49.9355 62.3641 49.9533 62.4115 49.9533 62.4707V63.3502C49.9533 63.4094 49.9355 63.4568 49.9 63.4923C49.8644 63.5279 49.817 63.5456 49.7578 63.5456H44.259L44.3479 68.8046ZM54.0377 68.8046C54.0377 68.9349 53.9725 69 53.8422 69H52.4831C52.3587 69 52.2965 68.9349 52.2965 68.8046L52.3942 62.7905L52.2965 56.7588C52.2965 56.6285 52.3587 56.5633 52.4831 56.5633H59.7408C59.8 56.5633 59.8474 56.5811 59.8829 56.6166C59.9184 56.6522 59.9362 56.6995 59.9362 56.7588V57.6382C59.9362 57.6974 59.9184 57.7448 59.8829 57.7803C59.8474 57.8159 59.8 57.8336 59.7408 57.8336H54.0377L53.9488 62.2753H59.4476C59.5068 62.2753 59.5542 62.2931 59.5897 62.3286C59.6253 62.3641 59.643 62.4115 59.643 62.4707V63.3502C59.643 63.4094 59.6253 63.4568 59.5897 63.4923C59.5542 63.5279 59.5068 63.5456 59.4476 63.5456H53.9488L54.0377 68.8046ZM63.7274 68.8046C63.7274 68.9349 63.6623 69 63.532 69H62.1728C62.0485 69 61.9863 68.9349 61.9863 68.8046L62.084 62.7905L61.9863 56.7588C61.9863 56.6285 62.0485 56.5633 62.1728 56.5633H69.4305C69.4898 56.5633 69.5371 56.5811 69.5727 56.6166C69.6082 56.6522 69.626 56.6995 69.626 56.7588V57.6382C69.626 57.6974 69.6082 57.7448 69.5727 57.7803C69.5371 57.8159 69.4898 57.8336 69.4305 57.8336H63.7274L63.6386 62.2753H69.1374C69.1966 62.2753 69.244 62.2931 69.2795 62.3286C69.315 62.3641 69.3328 62.4115 69.3328 62.4707V63.3502C69.3328 63.4094 69.315 63.4568 69.2795 63.4923C69.244 63.5279 69.1966 63.5456 69.1374 63.5456H63.6386L63.7274 68.8046ZM73.4172 68.8046C73.4172 68.9349 73.3521 69 73.2218 69H71.8626C71.7383 69 71.6761 68.9349 71.6761 68.8046L71.7738 62.7905L71.6761 56.7588C71.6761 56.6285 71.7383 56.5633 71.8626 56.5633H79.1203C79.1795 56.5633 79.2269 56.5811 79.2624 56.6166C79.298 56.6522 79.3157 56.6995 79.3157 56.7588V57.6382C79.3157 57.6974 79.298 57.7448 79.2624 57.7803C79.2269 57.8159 79.1795 57.8336 79.1203 57.8336H73.4172L73.3284 62.2753H78.8272C78.8864 62.2753 78.9338 62.2931 78.9693 62.3286C79.0048 62.3641 79.0226 62.4115 79.0226 62.4707V63.3502C79.0226 63.4094 79.0048 63.4568 78.9693 63.4923C78.9338 63.5279 78.8864 63.5456 78.8272 63.5456H73.3284L73.4172 68.8046ZM83.107 68.8046C83.107 68.9349 83.0418 69 82.9115 69H81.5524C81.428 69 81.3658 68.9349 81.3658 68.8046L81.4636 62.7905L81.3658 56.7588C81.3658 56.6285 81.428 56.5633 81.5524 56.5633H88.8101C88.8693 56.5633 88.9167 56.5811 88.9522 56.6166C88.9877 56.6522 89.0055 56.6995 89.0055 56.7588V57.6382C89.0055 57.6974 88.9877 57.7448 88.9522 57.7803C88.9167 57.8159 88.8693 57.8336 88.8101 57.8336H83.107L83.0181 62.2753H88.5169C88.5761 62.2753 88.6235 62.2931 88.6591 62.3286C88.6946 62.3641 88.7124 62.4115 88.7124 62.4707V63.3502C88.7124 63.4094 88.6946 63.4568 88.6591 63.4923C88.6235 63.5279 88.5761 63.5456 88.5169 63.5456H83.0181L83.107 68.8046Z" fill="black"/>
</g>
<rect x="0.5" y="0.5" width="1065" height="598.625" rx="29.5" stroke="black"/>
<defs>
<clipPath id="clip0_2659_480">
<rect width="1066" height="599.625" rx="30" fill="white"/>
</clipPath>
</defs>
</svg>
