<svg width="93" height="50" viewBox="0 0 93 50" fill="none" xmlns="http://www.w3.org/2000/svg">
<path d="M82.7063 11.8403C84.4531 15.0844 84.7859 19.2352 83.7045 24.2927C82.5399 29.7661 80.1859 34.3162 76.6423 37.943C72.4665 42.202 67.3591 44.3314 61.32 44.3314C55.6803 44.3314 51.6459 42.4681 49.217 38.7416C47.1041 35.1481 46.63 30.6063 47.7945 25.1162C48.8426 20.1585 50.9721 15.9162 54.183 12.3893C58.3088 7.86413 63.4662 5.60156 69.6549 5.60156C76.1266 5.60156 80.477 7.68113 82.7063 11.8403ZM78.5888 24.3676C79.5038 20.0587 79.1128 16.59 77.4159 13.9614C75.7356 11.3329 72.9407 10.0186 69.0311 10.0186C65.2379 10.0186 61.8607 11.3245 58.8994 13.9365C55.9548 16.5318 53.9417 20.3665 52.8604 25.4406C51.9953 29.5 52.2947 32.9271 53.7587 35.722C55.2227 38.5003 58.2589 39.8895 62.8672 39.8895C67.2426 39.8895 70.7363 38.3256 73.3483 35.198C75.9768 32.0537 77.7237 28.4435 78.5888 24.3676Z" fill="black"/>
<path d="M43.9524 11.8403C45.6992 15.0844 46.032 19.2352 44.9506 24.2927C43.786 29.7661 41.432 34.3162 37.8884 37.943C33.7126 42.202 28.6052 44.3314 22.5661 44.3314C16.9263 44.3314 12.892 42.4681 10.463 38.7416C8.35021 35.1481 7.87607 30.6063 9.04063 25.1162C10.0887 20.1585 12.2182 15.9162 15.4291 12.3893C19.5549 7.86413 24.7122 5.60156 30.901 5.60156C37.3727 5.60156 41.7231 7.68113 43.9524 11.8403ZM39.8349 24.3676C40.7499 20.0587 40.3589 16.59 38.662 13.9614C36.9817 11.3329 34.1868 10.0186 30.2772 10.0186C26.484 10.0186 23.1068 11.3245 20.1455 13.9365C17.2008 16.5318 15.1878 20.3665 14.1065 25.4406C13.2414 29.5 13.5408 32.9271 15.0048 35.722C16.4688 38.5003 19.505 39.8895 24.1133 39.8895C28.4887 39.8895 31.9824 38.3256 34.5944 35.198C37.2229 32.0537 38.9698 28.4435 39.8349 24.3676Z" fill="black"/>
<ellipse cx="72.2785" cy="17.5906" rx="7.7023" ry="7.3133" fill="black"/>
<ellipse cx="36.798" cy="17.5906" rx="7.7023" ry="7.3133" fill="black"/>
<path d="M10.1598 50C3.76711 47.089 0 39.6689 0 30.8219C0 18.6644 7.53426 2.56849 20.605 0L20.9475 2.11187C9.53197 5.13699 4.45204 22.2032 4.45204 32.7626C4.45204 40.0685 6.84932 45.5479 11.3014 48.1735L10.1598 50Z" fill="black"/>
<path d="M71.8301 47.8881C83.2456 44.863 88.3255 27.7968 88.3255 17.2374C88.3255 9.93151 85.9283 4.45205 81.4762 1.82648L82.6177 0C89.0104 2.91096 92.8347 10.3311 92.8347 19.1781C92.8347 31.3356 85.2433 47.4315 72.1725 50L71.8301 47.8881Z" fill="black"/>
</svg>
