<svg width="75" height="40" viewBox="0 0 75 40" fill="none" xmlns="http://www.w3.org/2000/svg">
<path d="M8.20807 40C3.04344 37.6712 0 31.7352 0 24.6575C0 14.9315 6.08691 2.0548 16.6467 0L16.9234 1.6895C7.70085 4.10959 3.59679 17.7626 3.59679 26.21C3.59679 32.0548 5.53355 36.4384 9.13035 38.5388L8.20807 40Z" fill="black"/>
<path d="M58.0303 38.3105C67.2528 35.8904 71.3569 22.2374 71.3569 13.79C71.3569 7.94521 69.4201 3.56164 65.8233 1.46119L66.7456 0C71.9102 2.32877 74.9998 8.26484 74.9998 15.3425C74.9998 25.0685 68.8668 37.9452 58.3069 40L58.0303 38.3105Z" fill="black"/>
<path d="M21.7066 36.1978L48.7378 30.7471L48.2763 33.4119L21.2451 38.8627L21.7066 36.1978Z" fill="black"/>
<path d="M43.2661 10.9808L40.2733 10.9529L40.1016 29.0293L43.0944 29.0572L43.2661 10.9808Z" fill="black"/>
<path d="M23.7602 20.0418C23.7602 22.6543 21.4807 24.7721 18.6689 24.7721C15.8571 24.7721 13.5776 22.6543 13.5776 20.0418C13.5776 17.4294 15.8571 15.3115 18.6689 15.3115C21.4807 15.3115 23.7602 17.4294 23.7602 20.0418Z" fill="black"/>
<path d="M60.4667 17.8016C60.4667 20.4141 58.1873 22.5319 55.3755 22.5319C52.5636 22.5319 50.2842 20.4141 50.2842 17.8016C50.2842 15.1891 52.5636 13.0713 55.3755 13.0713C58.1873 13.0713 60.4667 15.1891 60.4667 17.8016Z" fill="black"/>
<path d="M34.4097 9.80404C35.6687 12.1188 35.9085 15.0806 35.1291 18.6892C34.2898 22.5947 32.5931 25.8413 30.0391 28.4291C27.0294 31.468 23.3483 32.9875 18.9956 32.9875C14.9308 32.9875 12.023 31.658 10.2724 28.9989C8.74956 26.4349 8.40782 23.1942 9.24717 19.2768C10.0026 15.7394 11.5374 12.7124 13.8516 10.1958C16.8253 6.96695 20.5424 5.35254 25.003 5.35254C29.6674 5.35254 32.8029 6.83637 34.4097 9.80404ZM31.442 18.7427C32.1015 15.6682 31.8197 13.1931 30.5966 11.3176C29.3856 9.44199 27.3711 8.5042 24.5533 8.5042C21.8194 8.5042 19.3853 9.43605 17.251 11.2997C15.1286 13.1516 13.6777 15.8878 12.8983 19.5083C12.2748 22.4048 12.4907 24.8501 13.5458 26.8444C14.601 28.8268 16.7893 29.818 20.1108 29.818C23.2643 29.818 25.7824 28.7022 27.6649 26.4705C29.5594 24.2269 30.8185 21.651 31.442 18.7427Z" fill="black"/>
<path d="M71.1162 7.56234C72.3752 9.87712 72.6151 12.8389 71.8357 16.4475C70.9963 20.353 69.2996 23.5996 66.7456 26.1874C63.7359 29.2263 60.0548 30.7458 55.7022 30.7458C51.6373 30.7458 48.7296 29.4163 46.9789 26.7572C45.4561 24.1932 45.1144 20.9525 45.9537 17.0351C46.7091 13.4977 48.2439 10.4707 50.5581 7.95408C53.5318 4.72525 57.249 3.11084 61.7095 3.11084C66.3739 3.11084 69.5095 4.59467 71.1162 7.56234ZM68.1485 16.501C68.808 13.4265 68.5262 10.9514 67.3032 9.07585C66.0921 7.20029 64.0777 6.2625 61.2599 6.2625C58.526 6.2625 56.0919 7.19435 53.9575 9.05805C51.8352 10.9099 50.3843 13.6461 49.6049 17.2666C48.9814 20.1631 49.1972 22.6084 50.2524 24.6027C51.3076 26.5851 53.4959 27.5763 56.8173 27.5763C59.9709 27.5763 62.4889 26.4605 64.3715 24.2288C66.266 21.9852 67.525 19.4093 68.1485 16.501Z" fill="black"/>
</svg>
