<svg width="960" height="256" viewBox="0 0 960 256" fill="none" xmlns="http://www.w3.org/2000/svg">
<rect x="0.5" y="9.01367" width="959" height="246.486" rx="39.4202" fill="black" stroke="black"/>
<rect x="0.5" y="0.5" width="959" height="246.486" rx="39.4202" fill="#E7E3E2"/>
<rect x="0.5" y="0.5" width="959" height="246.486" rx="39.4202" fill="white"/>
<rect x="0.5" y="0.5" width="959" height="246.486" rx="39.4202" stroke="black"/>
<rect x="840.5" y="177.5" width="92" height="42" rx="21" fill="#1A0000" stroke="black"/>
<path d="M856.113 209.232C856.139 209.283 856.151 209.33 856.151 209.372C856.151 209.499 856.071 209.563 855.91 209.563H854.612C854.459 209.563 854.344 209.495 854.268 209.359C853.403 207.612 852.745 205.852 852.296 204.079C851.855 202.297 851.634 200.392 851.634 198.365C851.634 194.539 852.504 190.959 854.243 187.625C854.319 187.489 854.433 187.421 854.586 187.421H855.884C856.045 187.421 856.126 187.485 856.126 187.612C856.126 187.655 856.113 187.701 856.088 187.752C854.561 191.171 853.797 194.709 853.797 198.365C853.797 202.115 854.569 205.737 856.113 209.232ZM870.042 197.907C870.042 198.068 869.97 198.183 869.826 198.25L858.895 203.213C858.844 203.239 858.798 203.251 858.755 203.251C858.636 203.251 858.577 203.171 858.577 203.01V201.712C858.577 201.55 858.645 201.44 858.781 201.381L868.134 197.22L858.781 193.084C858.645 193.025 858.577 192.914 858.577 192.753V191.455C858.577 191.294 858.636 191.213 858.755 191.213C858.798 191.213 858.844 191.226 858.895 191.252L869.826 196.214C869.97 196.282 870.042 196.397 870.042 196.558V197.907ZM878.777 206.318C877.488 206.318 876.36 205.953 875.393 205.224C874.425 204.494 873.675 203.438 873.14 202.055C872.614 200.672 872.351 199.022 872.351 197.105C872.351 195.154 872.614 193.487 873.14 192.104C873.666 190.713 874.413 189.661 875.38 188.948C876.355 188.227 877.492 187.867 878.79 187.867C880.088 187.867 881.216 188.223 882.175 188.936C883.142 189.648 883.889 190.7 884.415 192.091C884.949 193.483 885.216 195.158 885.216 197.118C885.216 199.035 884.949 200.685 884.415 202.068C883.889 203.451 883.142 204.507 882.175 205.236C881.208 205.958 880.075 206.318 878.777 206.318ZM878.79 204.422C880.037 204.422 881.004 203.803 881.691 202.564C882.379 201.326 882.722 199.51 882.722 197.118C882.722 195.523 882.565 194.178 882.251 193.084C881.938 191.981 881.484 191.154 880.89 190.603C880.304 190.043 879.6 189.763 878.777 189.763C877.513 189.763 876.538 190.386 875.851 191.633C875.172 192.88 874.833 194.709 874.833 197.118C874.833 198.704 874.99 200.045 875.303 201.139C875.626 202.225 876.08 203.044 876.665 203.595C877.259 204.146 877.967 204.422 878.79 204.422ZM894.199 206.318C892.909 206.318 891.781 205.953 890.814 205.224C889.847 204.494 889.096 203.438 888.561 202.055C888.035 200.672 887.773 199.022 887.773 197.105C887.773 195.154 888.035 193.487 888.561 192.104C889.087 190.713 889.834 189.661 890.801 188.948C891.777 188.227 892.913 187.867 894.211 187.867C895.509 187.867 896.638 188.223 897.596 188.936C898.563 189.648 899.31 190.7 899.836 192.091C900.37 193.483 900.638 195.158 900.638 197.118C900.638 199.035 900.37 200.685 899.836 202.068C899.31 203.451 898.563 204.507 897.596 205.236C896.629 205.958 895.497 206.318 894.199 206.318ZM894.211 204.422C895.458 204.422 896.426 203.803 897.113 202.564C897.8 201.326 898.143 199.51 898.143 197.118C898.143 195.523 897.987 194.178 897.673 193.084C897.359 191.981 896.905 191.154 896.311 190.603C895.726 190.043 895.022 189.763 894.199 189.763C892.935 189.763 891.959 190.386 891.272 191.633C890.593 192.88 890.254 194.709 890.254 197.118C890.254 198.704 890.411 200.045 890.725 201.139C891.047 202.225 891.501 203.044 892.086 203.595C892.68 204.146 893.389 204.422 894.211 204.422ZM914.417 197.907C914.417 198.068 914.345 198.183 914.201 198.25L903.27 203.213C903.219 203.239 903.173 203.251 903.13 203.251C903.011 203.251 902.952 203.171 902.952 203.01V201.712C902.952 201.55 903.02 201.44 903.156 201.381L912.509 197.22L903.156 193.084C903.02 193.025 902.952 192.914 902.952 192.753V191.455C902.952 191.294 903.011 191.213 903.13 191.213C903.173 191.213 903.219 191.226 903.27 191.252L914.201 196.214C914.345 196.282 914.417 196.397 914.417 196.558V197.907ZM918.724 209.359C918.648 209.495 918.533 209.563 918.38 209.563H917.082C916.921 209.563 916.841 209.499 916.841 209.372C916.841 209.33 916.853 209.283 916.879 209.232C918.423 205.737 919.195 202.115 919.195 198.365C919.195 194.709 918.431 191.171 916.904 187.752C916.879 187.701 916.866 187.655 916.866 187.612C916.866 187.485 916.947 187.421 917.108 187.421H918.406C918.559 187.421 918.673 187.489 918.749 187.625C920.497 190.976 921.371 194.556 921.371 198.365C921.371 200.384 921.146 202.284 920.696 204.066C920.247 205.847 919.589 207.612 918.724 209.359Z" fill="white"/>
</svg>
