<svg width="451" height="235" viewBox="0 0 451 235" fill="none" xmlns="http://www.w3.org/2000/svg">
<rect y="15" width="451" height="220" rx="30" fill="black"/>
<rect x="0.5" y="0.5" width="450" height="219" rx="29.5" fill="white" stroke="black"/>
<path d="M27.854 40C27.7233 40 27.658 39.9347 27.658 39.804L27.742 30.046L27.686 20.596C27.686 20.4653 27.7513 20.4 27.882 20.4H30.92C31.0507 20.4 31.116 20.4653 31.116 20.596L31.074 28.226H33.832L38.438 20.526C38.4847 20.442 38.564 20.4 38.676 20.4H41.924C42.036 20.4 42.092 20.442 42.092 20.526C42.092 20.554 42.078 20.5913 42.05 20.638L36.604 29.136L43.324 39.762C43.352 39.7993 43.366 39.8367 43.366 39.874C43.366 39.958 43.31 40 43.198 40H39.502C39.39 40 39.3153 39.958 39.278 39.874L33.804 30.816H31.074L31.116 39.804C31.116 39.9347 31.0507 40 30.92 40H27.854ZM53.7382 25.776C53.7382 25.6453 53.7989 25.58 53.9202 25.58H56.9163C57.0469 25.58 57.1123 25.6453 57.1123 25.776L57.0562 32.72L57.1123 39.804C57.1123 39.9347 57.0469 40 56.9163 40H53.9483C53.8176 40 53.7523 39.9347 53.7523 39.804L53.8082 37.928C53.3136 38.6747 52.6929 39.2533 51.9463 39.664C51.1996 40.0653 50.3409 40.266 49.3703 40.266C48.0729 40.266 46.9669 39.944 46.0522 39.3C45.1376 38.6467 44.4422 37.76 43.9662 36.64C43.4996 35.5107 43.2662 34.2367 43.2662 32.818C43.2662 31.418 43.5136 30.1487 44.0082 29.01C44.5029 27.8713 45.2169 26.9707 46.1502 26.308C47.0836 25.636 48.1756 25.3 49.4262 25.3C50.3876 25.3 51.2369 25.4913 51.9742 25.874C52.7116 26.2567 53.3182 26.812 53.7942 27.54L53.7382 25.776ZM50.2522 37.998C51.4189 37.998 52.3149 37.5593 52.9403 36.682C53.5656 35.8047 53.8783 34.5073 53.8783 32.79C53.8783 31.1287 53.5703 29.85 52.9542 28.954C52.3476 28.0487 51.4796 27.5913 50.3503 27.582C49.1556 27.5633 48.2456 28.002 47.6202 28.898C47.0042 29.7847 46.6962 31.026 46.6962 32.622C46.6962 34.3207 46.9996 35.6413 47.6062 36.584C48.2129 37.5267 49.0949 37.998 50.2522 37.998ZM71.7272 25.58C71.8298 25.58 71.8812 25.6173 71.8812 25.692C71.8812 25.7293 71.8672 25.7713 71.8392 25.818L67.6812 31.754L72.5392 39.762C72.5578 39.818 72.5672 39.8553 72.5672 39.874C72.5672 39.958 72.5112 40 72.3992 40H68.9132C68.8012 40 68.7218 39.958 68.6752 39.874L67.3312 37.396L65.0212 33.532H63.0192L63.0612 39.804C63.0612 39.9347 62.9958 40 62.8652 40H59.8412C59.7105 40 59.6452 39.9347 59.6452 39.804L59.7012 32.678L59.6452 25.776C59.6452 25.6453 59.7105 25.58 59.8412 25.58H62.8652C62.9958 25.58 63.0612 25.6453 63.0612 25.776L63.0192 31.124H65.0352L68.5492 25.706C68.5958 25.622 68.6752 25.58 68.7872 25.58H71.7272ZM92.6773 25.58C92.8079 25.58 92.8733 25.6453 92.8733 25.776L92.8313 32.678L92.8733 39.804C92.8733 39.9347 92.8079 40 92.6773 40H89.6533C89.5226 40 89.4573 39.9347 89.4573 39.804L89.5133 32.678L89.4853 27.988H83.6613L83.6473 32.678L83.6893 39.804C83.6893 39.9347 83.6239 40 83.4933 40H80.4693C80.3386 40 80.2733 39.9347 80.2733 39.804L80.3293 32.678L80.2733 25.776C80.2733 25.6453 80.3386 25.58 80.4693 25.58H92.6773ZM103.142 25.286C104.43 25.286 105.531 25.6127 106.446 26.266C107.37 26.91 108.065 27.7967 108.532 28.926C109.008 30.0553 109.246 31.3293 109.246 32.748C109.246 34.148 108.999 35.422 108.504 36.57C108.009 37.7087 107.295 38.614 106.362 39.286C105.429 39.9487 104.337 40.28 103.086 40.28C102.143 40.28 101.308 40.098 100.58 39.734C99.8518 39.3607 99.2498 38.8193 98.7738 38.11L98.8158 44.564C98.8158 44.6947 98.7505 44.76 98.6198 44.76H95.5958C95.4652 44.76 95.3998 44.6947 95.3998 44.564L95.4558 33.91L95.3998 25.776C95.3998 25.6453 95.4652 25.58 95.5958 25.58H98.5918C98.7318 25.58 98.7925 25.6453 98.7738 25.776L98.7178 27.652C99.2125 26.896 99.8332 26.3127 100.58 25.902C101.336 25.4913 102.19 25.286 103.142 25.286ZM102.162 37.984C103.366 37.984 104.276 37.5453 104.892 36.668C105.508 35.7813 105.816 34.54 105.816 32.944C105.816 31.2547 105.513 29.9433 104.906 29.01C104.299 28.0767 103.408 27.61 102.232 27.61C101.084 27.61 100.197 28.0487 99.5718 28.926C98.9465 29.8033 98.6338 31.0867 98.6338 32.776C98.6338 34.4373 98.9372 35.7207 99.5438 36.626C100.16 37.5313 101.033 37.984 102.162 37.984ZM118.369 40.336C116.848 40.336 115.551 40.0233 114.477 39.398C113.404 38.7633 112.592 37.8813 112.041 36.752C111.491 35.6227 111.215 34.316 111.215 32.832C111.215 31.32 111.495 29.9947 112.055 28.856C112.625 27.708 113.441 26.8213 114.505 26.196C115.569 25.5613 116.82 25.244 118.257 25.244C119.732 25.244 120.992 25.5613 122.037 26.196C123.092 26.8307 123.899 27.7407 124.459 28.926C125.019 30.1113 125.309 31.5253 125.327 33.168C125.327 33.2987 125.262 33.364 125.131 33.364H114.603C114.669 34.96 115.019 36.1453 115.653 36.92C116.288 37.6853 117.207 38.068 118.411 38.068C120.231 38.068 121.342 37.1207 121.743 35.226C121.762 35.114 121.827 35.058 121.939 35.058H124.809C124.865 35.058 124.912 35.072 124.949 35.1C124.996 35.128 125.015 35.1607 125.005 35.198C124.884 36.1687 124.543 37.046 123.983 37.83C123.423 38.6047 122.663 39.216 121.701 39.664C120.74 40.112 119.629 40.336 118.369 40.336ZM121.701 31.18C121.655 30.4987 121.496 29.8827 121.225 29.332C120.964 28.772 120.581 28.3287 120.077 28.002C119.583 27.666 118.981 27.498 118.271 27.498C117.263 27.498 116.456 27.8153 115.849 28.45C115.252 29.0753 114.869 29.9853 114.701 31.18H121.701ZM126.191 43.458C126.061 43.458 125.995 43.3927 125.995 43.262V37.83C125.995 37.6993 126.061 37.634 126.191 37.634H127.171C127.535 37.2607 127.825 36.7707 128.039 36.164C128.263 35.548 128.427 34.8013 128.529 33.924C128.753 32.244 128.921 29.528 129.033 25.776C129.033 25.6453 129.099 25.58 129.229 25.58H139.421C139.477 25.58 139.524 25.5987 139.561 25.636C139.599 25.664 139.617 25.7107 139.617 25.776L139.631 32.482L139.729 37.62L141.437 37.606C141.503 37.606 141.549 37.6247 141.577 37.662C141.615 37.6993 141.633 37.746 141.633 37.802V43.262C141.633 43.3927 141.568 43.458 141.437 43.458H138.875C138.745 43.458 138.679 43.3927 138.679 43.262L138.595 40H129.075L128.991 43.262C128.991 43.3927 128.926 43.458 128.795 43.458H126.191ZM136.383 37.634V32.468L136.327 27.988H131.833C131.712 30.676 131.577 32.664 131.427 33.952C131.315 34.7733 131.175 35.4733 131.007 36.052C130.839 36.6213 130.625 37.1487 130.363 37.634H136.383ZM149.591 40.336C148.116 40.336 146.847 40.0327 145.783 39.426C144.728 38.81 143.921 37.9373 143.361 36.808C142.81 35.6787 142.535 34.3533 142.535 32.832C142.535 31.3107 142.815 29.9807 143.375 28.842C143.935 27.694 144.747 26.8073 145.811 26.182C146.884 25.5567 148.168 25.244 149.661 25.244C150.856 25.244 151.906 25.4587 152.811 25.888C153.716 26.3173 154.435 26.924 154.967 27.708C155.499 28.4827 155.816 29.388 155.919 30.424V30.452C155.919 30.5733 155.854 30.634 155.723 30.634H152.993C152.937 30.634 152.89 30.62 152.853 30.592C152.816 30.5547 152.792 30.508 152.783 30.452C152.624 29.5093 152.27 28.7907 151.719 28.296C151.168 27.792 150.482 27.54 149.661 27.54C148.429 27.5493 147.505 28.002 146.889 28.898C146.282 29.7847 145.979 31.0913 145.979 32.818C145.979 34.5727 146.282 35.8887 146.889 36.766C147.505 37.634 148.434 38.068 149.675 38.068C150.599 38.068 151.346 37.774 151.915 37.186C152.494 36.598 152.83 35.7767 152.923 34.722C152.942 34.5913 153.007 34.526 153.119 34.526H155.919C155.984 34.526 156.036 34.5447 156.073 34.582C156.11 34.61 156.124 34.652 156.115 34.708C156.022 35.8 155.695 36.7707 155.135 37.62C154.575 38.4693 153.819 39.1367 152.867 39.622C151.915 40.098 150.823 40.336 149.591 40.336ZM169.992 25.58C170.048 25.58 170.095 25.5987 170.132 25.636C170.169 25.664 170.188 25.7107 170.188 25.776V27.792C170.188 27.8573 170.169 27.9087 170.132 27.946C170.095 27.974 170.048 27.988 169.992 27.988H165.302L165.274 32.678L165.33 39.804C165.33 39.9347 165.265 40 165.134 40H162.11C161.979 40 161.914 39.9347 161.914 39.804L161.956 32.678L161.928 27.988H157.266C157.135 27.988 157.07 27.9227 157.07 27.792V25.776C157.07 25.6453 157.135 25.58 157.266 25.58H169.992ZM181.455 25.776C181.455 25.6453 181.516 25.58 181.637 25.58H184.633C184.764 25.58 184.829 25.6453 184.829 25.776L184.773 32.72L184.829 39.804C184.829 39.9347 184.764 40 184.633 40H181.665C181.535 40 181.469 39.9347 181.469 39.804L181.525 37.928C181.031 38.6747 180.41 39.2533 179.663 39.664C178.917 40.0653 178.058 40.266 177.087 40.266C175.79 40.266 174.684 39.944 173.769 39.3C172.855 38.6467 172.159 37.76 171.683 36.64C171.217 35.5107 170.983 34.2367 170.983 32.818C170.983 31.418 171.231 30.1487 171.725 29.01C172.22 27.8713 172.934 26.9707 173.867 26.308C174.801 25.636 175.893 25.3 177.143 25.3C178.105 25.3 178.954 25.4913 179.691 25.874C180.429 26.2567 181.035 26.812 181.511 27.54L181.455 25.776ZM177.969 37.998C179.136 37.998 180.032 37.5593 180.657 36.682C181.283 35.8047 181.595 34.5073 181.595 32.79C181.595 31.1287 181.287 29.85 180.671 28.954C180.065 28.0487 179.197 27.5913 178.067 27.582C176.873 27.5633 175.963 28.002 175.337 28.898C174.721 29.7847 174.413 31.026 174.413 32.622C174.413 34.3207 174.717 35.6413 175.323 36.584C175.93 37.5267 176.812 37.998 177.969 37.998ZM196.574 32.3C197.76 32.552 198.623 32.9813 199.164 33.588C199.706 34.1853 199.976 34.974 199.976 35.954C199.976 37.5127 199.356 38.5767 198.114 39.146C196.873 39.7153 195.45 40 193.844 40H187.558C187.428 40 187.362 39.9347 187.362 39.804L187.418 32.678L187.376 25.776C187.376 25.6453 187.442 25.58 187.572 25.58H193.788C195.664 25.58 197.092 25.874 198.072 26.462C199.052 27.0407 199.542 27.9367 199.542 29.15C199.542 29.9807 199.281 30.6573 198.758 31.18C198.245 31.6933 197.517 32.0573 196.574 32.272V32.3ZM190.68 27.82L190.666 31.376H193.76C194.535 31.376 195.132 31.2313 195.552 30.942C195.972 30.6433 196.182 30.1907 196.182 29.584C196.182 29.0053 195.963 28.5667 195.524 28.268C195.095 27.9693 194.507 27.82 193.76 27.82H190.68ZM190.666 33.56L190.68 37.76H193.774C194.642 37.76 195.324 37.5873 195.818 37.242C196.313 36.8967 196.56 36.374 196.56 35.674C196.56 34.9647 196.304 34.4373 195.79 34.092C195.277 33.7373 194.61 33.56 193.788 33.56H190.666ZM202.635 40.252C202.215 40.252 201.781 40.1913 201.333 40.07C201.23 40.0233 201.179 39.9487 201.179 39.846V37.956C201.179 37.8907 201.197 37.844 201.235 37.816C201.281 37.788 201.337 37.7787 201.403 37.788C201.589 37.8347 201.771 37.858 201.949 37.858C202.331 37.858 202.639 37.774 202.873 37.606C203.106 37.4287 203.288 37.1347 203.419 36.724C203.549 36.304 203.647 35.716 203.713 34.96C203.797 34.008 203.881 32.6593 203.965 30.914C204.049 29.1687 204.119 27.4467 204.175 25.748C204.175 25.6267 204.24 25.566 204.371 25.566H214.689C214.819 25.566 214.885 25.6267 214.885 25.748L214.871 32.86L214.955 39.79C214.955 39.9207 214.889 39.986 214.759 39.986L211.721 40.014C211.59 40.014 211.525 39.9533 211.525 39.832L211.539 32.86L211.469 27.96H206.975C206.825 31.2733 206.681 33.7327 206.541 35.338C206.447 36.43 206.27 37.3307 206.009 38.04C205.757 38.7493 205.36 39.2953 204.819 39.678C204.277 40.0607 203.549 40.252 202.635 40.252ZM217.469 40C217.357 40 217.301 39.958 217.301 39.874C217.301 39.8367 217.315 39.7993 217.343 39.762L220.689 34.4C219.606 34.1107 218.775 33.6113 218.197 32.902C217.627 32.1833 217.343 31.25 217.343 30.102C217.343 27.0873 219.461 25.58 223.699 25.58H229.509C229.639 25.58 229.705 25.6453 229.705 25.776L229.663 32.664L229.705 39.804C229.705 39.9347 229.639 40 229.509 40H226.499C226.368 40 226.303 39.9347 226.303 39.804L226.345 34.778H223.629L222.257 37.172L220.731 39.874C220.693 39.958 220.619 40 220.507 40H217.469ZM226.359 32.524L226.345 27.82H223.615C222.7 27.82 221.995 28.0253 221.501 28.436C221.006 28.8467 220.759 29.416 220.759 30.144C220.759 30.9187 221.006 31.5113 221.501 31.922C221.995 32.3233 222.705 32.524 223.629 32.524H226.359ZM244.641 25.58C244.697 25.58 244.743 25.5987 244.781 25.636C244.818 25.664 244.837 25.7107 244.837 25.776V27.792C244.837 27.8573 244.818 27.9087 244.781 27.946C244.743 27.974 244.697 27.988 244.641 27.988H239.951L239.923 32.678L239.979 39.804C239.979 39.9347 239.913 40 239.783 40H236.759C236.628 40 236.563 39.9347 236.563 39.804L236.605 32.678L236.577 27.988H231.915C231.784 27.988 231.719 27.9227 231.719 27.792V25.776C231.719 25.6453 231.784 25.58 231.915 25.58H244.641ZM250.259 30.704H252.359C254.487 30.704 256.092 31.082 257.175 31.838C258.258 32.594 258.799 33.7513 258.799 35.31C258.799 38.4367 256.652 40 252.359 40H247.053C246.922 40 246.857 39.9347 246.857 39.804L246.913 32.734L246.885 25.748C246.885 25.6267 246.95 25.566 247.081 25.566H250.105C250.236 25.566 250.301 25.6267 250.301 25.748L250.259 30.704ZM250.245 32.944L250.259 37.76H252.373C254.37 37.76 255.369 36.976 255.369 35.408C255.369 34.596 255.126 33.9847 254.641 33.574C254.165 33.154 253.409 32.944 252.373 32.944H250.245ZM273.644 40.336C272.169 40.336 270.9 40.0327 269.836 39.426C268.781 38.81 267.974 37.9373 267.414 36.808C266.863 35.6787 266.588 34.3533 266.588 32.832C266.588 31.3107 266.868 29.9807 267.428 28.842C267.988 27.694 268.8 26.8073 269.864 26.182C270.937 25.5567 272.221 25.244 273.714 25.244C274.909 25.244 275.959 25.4587 276.864 25.888C277.769 26.3173 278.488 26.924 279.02 27.708C279.552 28.4827 279.869 29.388 279.972 30.424V30.452C279.972 30.5733 279.907 30.634 279.776 30.634H277.046C276.99 30.634 276.943 30.62 276.906 30.592C276.869 30.5547 276.845 30.508 276.836 30.452C276.677 29.5093 276.323 28.7907 275.772 28.296C275.221 27.792 274.535 27.54 273.714 27.54C272.482 27.5493 271.558 28.002 270.942 28.898C270.335 29.7847 270.032 31.0913 270.032 32.818C270.032 34.5727 270.335 35.8887 270.942 36.766C271.558 37.634 272.487 38.068 273.728 38.068C274.652 38.068 275.399 37.774 275.968 37.186C276.547 36.598 276.883 35.7767 276.976 34.722C276.995 34.5913 277.06 34.526 277.172 34.526H279.972C280.037 34.526 280.089 34.5447 280.126 34.582C280.163 34.61 280.177 34.652 280.168 34.708C280.075 35.8 279.748 36.7707 279.188 37.62C278.628 38.4693 277.872 39.1367 276.92 39.622C275.968 40.098 274.876 40.336 273.644 40.336ZM291.441 32.3C292.626 32.552 293.489 32.9813 294.031 33.588C294.572 34.1853 294.843 34.974 294.843 35.954C294.843 37.5127 294.222 38.5767 292.981 39.146C291.739 39.7153 290.316 40 288.711 40H282.425C282.294 40 282.229 39.9347 282.229 39.804L282.285 32.678L282.243 25.776C282.243 25.6453 282.308 25.58 282.439 25.58H288.655C290.531 25.58 291.959 25.874 292.939 26.462C293.919 27.0407 294.409 27.9367 294.409 29.15C294.409 29.9807 294.147 30.6573 293.625 31.18C293.111 31.6933 292.383 32.0573 291.441 32.272V32.3ZM285.547 27.82L285.533 31.376H288.627C289.401 31.376 289.999 31.2313 290.419 30.942C290.839 30.6433 291.049 30.1907 291.049 29.584C291.049 29.0053 290.829 28.5667 290.391 28.268C289.961 27.9693 289.373 27.82 288.627 27.82H285.547ZM285.533 33.56L285.547 37.76H288.641C289.509 37.76 290.19 37.5873 290.685 37.242C291.179 36.8967 291.427 36.374 291.427 35.674C291.427 34.9647 291.17 34.4373 290.657 34.092C290.143 33.7373 289.476 33.56 288.655 33.56H285.533ZM303.708 40.336C302.214 40.336 300.931 40.028 299.858 39.412C298.794 38.796 297.982 37.9233 297.422 36.794C296.862 35.6647 296.582 34.3393 296.582 32.818C296.582 31.2967 296.862 29.9667 297.422 28.828C297.982 27.6893 298.794 26.8073 299.858 26.182C300.931 25.5567 302.214 25.244 303.708 25.244C305.201 25.244 306.475 25.552 307.53 26.168C308.594 26.784 309.401 27.6567 309.952 28.786C310.512 29.9153 310.792 31.2407 310.792 32.762C310.792 34.2833 310.512 35.6133 309.952 36.752C309.401 37.8907 308.594 38.7727 307.53 39.398C306.466 40.0233 305.192 40.336 303.708 40.336ZM303.708 38.068C304.93 38.068 305.84 37.634 306.438 36.766C307.044 35.8887 307.348 34.5727 307.348 32.818C307.348 31.082 307.04 29.766 306.424 28.87C305.817 27.9647 304.902 27.512 303.68 27.512C301.234 27.54 300.012 29.318 300.012 32.846C300.012 36.3273 301.244 38.068 303.708 38.068ZM313.17 40C313.039 40 312.974 39.9347 312.974 39.804L313.03 32.468L312.974 25.776C312.974 25.6453 313.039 25.58 313.17 25.58H316.152C316.283 25.58 316.348 25.6453 316.348 25.776L316.306 32.692L316.236 36.36L322.13 25.72C322.167 25.6267 322.242 25.58 322.354 25.58H325.91C326.041 25.58 326.106 25.6453 326.106 25.776L326.064 32.678L326.106 39.804C326.106 39.9347 326.041 40 325.91 40H322.956C322.825 40 322.76 39.9347 322.76 39.804L322.802 32.678L322.872 29.304L317.006 39.86C316.969 39.9533 316.894 40 316.782 40H313.17ZM319.61 24.362C320.59 24.362 321.439 24.1893 322.158 23.844C322.877 23.4987 323.427 23.004 323.81 22.36C324.202 21.716 324.398 20.9647 324.398 20.106H321.794C321.775 20.8247 321.579 21.3893 321.206 21.8C320.833 22.2013 320.315 22.402 319.652 22.402C318.971 22.402 318.448 22.2013 318.084 21.8C317.729 21.3893 317.552 20.8247 317.552 20.106H314.934C314.934 20.9647 315.121 21.716 315.494 22.36C315.877 23.004 316.418 23.4987 317.118 23.844C317.827 24.1893 318.658 24.362 319.61 24.362ZM39.964 51.58C40.0947 51.58 40.16 51.6453 40.16 51.776L40.118 58.678L40.16 65.804C40.16 65.9347 40.0947 66 39.964 66H36.94C36.8093 66 36.744 65.9347 36.744 65.804L36.8 58.678L36.772 53.988H30.948L30.934 58.678L30.976 65.804C30.976 65.9347 30.9107 66 30.78 66H27.756C27.6253 66 27.56 65.9347 27.56 65.804L27.616 58.678L27.56 51.776C27.56 51.6453 27.6253 51.58 27.756 51.58H39.964ZM50.4286 51.286C51.7166 51.286 52.8179 51.6127 53.7326 52.266C54.6566 52.91 55.3519 53.7967 55.8186 54.926C56.2946 56.0553 56.5326 57.3293 56.5326 58.748C56.5326 60.148 56.2852 61.422 55.7906 62.57C55.2959 63.7087 54.5819 64.614 53.6486 65.286C52.7152 65.9487 51.6232 66.28 50.3726 66.28C49.4299 66.28 48.5946 66.098 47.8666 65.734C47.1386 65.3607 46.5366 64.8193 46.0606 64.11L46.1026 70.564C46.1026 70.6947 46.0372 70.76 45.9066 70.76H42.8826C42.7519 70.76 42.6866 70.6947 42.6866 70.564L42.7426 59.91L42.6866 51.776C42.6866 51.6453 42.7519 51.58 42.8826 51.58H45.8786C46.0186 51.58 46.0792 51.6453 46.0606 51.776L46.0046 53.652C46.4992 52.896 47.1199 52.3127 47.8666 51.902C48.6226 51.4913 49.4766 51.286 50.4286 51.286ZM49.4486 63.984C50.6526 63.984 51.5626 63.5453 52.1786 62.668C52.7946 61.7813 53.1026 60.54 53.1026 58.944C53.1026 57.2547 52.7992 55.9433 52.1926 55.01C51.5859 54.0767 50.6946 53.61 49.5186 53.61C48.3706 53.61 47.4839 54.0487 46.8586 54.926C46.2332 55.8033 45.9206 57.0867 45.9206 58.776C45.9206 60.4373 46.2239 61.7207 46.8306 62.626C47.4466 63.5313 48.3192 63.984 49.4486 63.984ZM65.6422 66.336C64.1489 66.336 62.8655 66.028 61.7922 65.412C60.7282 64.796 59.9162 63.9233 59.3562 62.794C58.7962 61.6647 58.5162 60.3393 58.5162 58.818C58.5162 57.2967 58.7962 55.9667 59.3562 54.828C59.9162 53.6893 60.7282 52.8073 61.7922 52.182C62.8655 51.5567 64.1489 51.244 65.6422 51.244C67.1355 51.244 68.4095 51.552 69.4642 52.168C70.5282 52.784 71.3355 53.6567 71.8862 54.786C72.4462 55.9153 72.7262 57.2407 72.7262 58.762C72.7262 60.2833 72.4462 61.6133 71.8862 62.752C71.3355 63.8907 70.5282 64.7727 69.4642 65.398C68.4002 66.0233 67.1262 66.336 65.6422 66.336ZM65.6422 64.068C66.8649 64.068 67.7749 63.634 68.3722 62.766C68.9789 61.8887 69.2822 60.5727 69.2822 58.818C69.2822 57.082 68.9742 55.766 68.3582 54.87C67.7515 53.9647 66.8369 53.512 65.6142 53.512C63.1689 53.54 61.9462 55.318 61.9462 58.846C61.9462 62.3273 63.1782 64.068 65.6422 64.068ZM81.8492 66.336C80.3278 66.336 79.0305 66.0233 77.9572 65.398C76.8838 64.7633 76.0718 63.8813 75.5212 62.752C74.9705 61.6227 74.6952 60.316 74.6952 58.832C74.6952 57.32 74.9752 55.9947 75.5352 54.856C76.1045 53.708 76.9212 52.8213 77.9852 52.196C79.0492 51.5613 80.2998 51.244 81.7372 51.244C83.2118 51.244 84.4718 51.5613 85.5172 52.196C86.5718 52.8307 87.3792 53.7407 87.9392 54.926C88.4992 56.1113 88.7885 57.5253 88.8072 59.168C88.8072 59.2987 88.7418 59.364 88.6112 59.364H78.0832C78.1485 60.96 78.4985 62.1453 79.1332 62.92C79.7678 63.6853 80.6872 64.068 81.8912 64.068C83.7112 64.068 84.8218 63.1207 85.2232 61.226C85.2418 61.114 85.3072 61.058 85.4192 61.058H88.2892C88.3452 61.058 88.3918 61.072 88.4292 61.1C88.4758 61.128 88.4945 61.1607 88.4852 61.198C88.3638 62.1687 88.0232 63.046 87.4632 63.83C86.9032 64.6047 86.1425 65.216 85.1812 65.664C84.2198 66.112 83.1092 66.336 81.8492 66.336ZM85.1812 57.18C85.1345 56.4987 84.9758 55.8827 84.7052 55.332C84.4438 54.772 84.0612 54.3287 83.5572 54.002C83.0625 53.666 82.4605 53.498 81.7512 53.498C80.7432 53.498 79.9358 53.8153 79.3292 54.45C78.7318 55.0753 78.3492 55.9853 78.1812 57.18H85.1812ZM103.047 51.58C103.149 51.58 103.201 51.6173 103.201 51.692C103.201 51.7293 103.187 51.7713 103.159 51.818L99.0007 57.754L103.859 65.762C103.877 65.818 103.887 65.8553 103.887 65.874C103.887 65.958 103.831 66 103.719 66H100.233C100.121 66 100.041 65.958 99.9947 65.874L98.6507 63.396L96.3407 59.532H94.3387L94.3807 65.804C94.3807 65.9347 94.3154 66 94.1847 66H91.1607C91.03 66 90.9647 65.9347 90.9647 65.804L91.0207 58.678L90.9647 51.776C90.9647 51.6453 91.03 51.58 91.1607 51.58H94.1847C94.3154 51.58 94.3807 51.6453 94.3807 51.776L94.3387 57.124H96.3547L99.8687 51.706C99.9154 51.622 99.9947 51.58 100.107 51.58H103.047ZM117.716 51.58C117.772 51.58 117.819 51.5987 117.856 51.636C117.894 51.664 117.912 51.7107 117.912 51.776V53.792C117.912 53.8573 117.894 53.9087 117.856 53.946C117.819 53.974 117.772 53.988 117.716 53.988H113.026L112.998 58.678L113.054 65.804C113.054 65.9347 112.989 66 112.858 66H109.834C109.704 66 109.638 65.9347 109.638 65.804L109.68 58.678L109.652 53.988H104.99C104.86 53.988 104.794 53.9227 104.794 53.792V51.776C104.794 51.6453 104.86 51.58 104.99 51.58H117.716ZM130.594 66.084L124.854 51.804C124.844 51.7853 124.84 51.7573 124.84 51.72C124.84 51.6267 124.896 51.58 125.008 51.58H128.382C128.494 51.58 128.573 51.6313 128.62 51.734L132.246 61.786L135.312 51.734C135.34 51.6313 135.41 51.58 135.522 51.58H138.56C138.718 51.58 138.77 51.6547 138.714 51.804L132.218 70.606C132.171 70.7087 132.096 70.76 131.994 70.76H129.194C129.035 70.76 128.984 70.6853 129.04 70.536L130.594 66.084ZM149.581 58.3C150.767 58.552 151.63 58.9813 152.171 59.588C152.713 60.1853 152.983 60.974 152.983 61.954C152.983 63.5127 152.363 64.5767 151.121 65.146C149.88 65.7153 148.457 66 146.851 66H140.565C140.435 66 140.369 65.9347 140.369 65.804L140.425 58.678L140.383 51.776C140.383 51.6453 140.449 51.58 140.579 51.58H146.795C148.671 51.58 150.099 51.874 151.079 52.462C152.059 53.0407 152.549 53.9367 152.549 55.15C152.549 55.9807 152.288 56.6573 151.765 57.18C151.252 57.6933 150.524 58.0573 149.581 58.272V58.3ZM143.687 53.82L143.673 57.376H146.767C147.542 57.376 148.139 57.2313 148.559 56.942C148.979 56.6433 149.189 56.1907 149.189 55.584C149.189 55.0053 148.97 54.5667 148.531 54.268C148.102 53.9693 147.514 53.82 146.767 53.82H143.687ZM143.673 59.56L143.687 63.76H146.781C147.649 63.76 148.331 63.5873 148.825 63.242C149.32 62.8967 149.567 62.374 149.567 61.674C149.567 60.9647 149.311 60.4373 148.797 60.092C148.284 59.7373 147.617 59.56 146.795 59.56H143.673ZM161.862 66.336C160.341 66.336 159.044 66.0233 157.97 65.398C156.897 64.7633 156.085 63.8813 155.534 62.752C154.984 61.6227 154.708 60.316 154.708 58.832C154.708 57.32 154.988 55.9947 155.548 54.856C156.118 53.708 156.934 52.8213 157.998 52.196C159.062 51.5613 160.313 51.244 161.75 51.244C163.225 51.244 164.485 51.5613 165.53 52.196C166.585 52.8307 167.392 53.7407 167.952 54.926C168.512 56.1113 168.802 57.5253 168.82 59.168C168.82 59.2987 168.755 59.364 168.624 59.364H158.096C158.162 60.96 158.512 62.1453 159.146 62.92C159.781 63.6853 160.7 64.068 161.904 64.068C163.724 64.068 164.835 63.1207 165.236 61.226C165.255 61.114 165.32 61.058 165.432 61.058H168.302C168.358 61.058 168.405 61.072 168.442 61.1C168.489 61.128 168.508 61.1607 168.498 61.198C168.377 62.1687 168.036 63.046 167.476 63.83C166.916 64.6047 166.156 65.216 165.194 65.664C164.233 66.112 163.122 66.336 161.862 66.336ZM165.194 57.18C165.148 56.4987 164.989 55.8827 164.718 55.332C164.457 54.772 164.074 54.3287 163.57 54.002C163.076 53.666 162.474 53.498 161.764 53.498C160.756 53.498 159.949 53.8153 159.342 54.45C158.745 55.0753 158.362 55.9853 158.194 57.18H165.194ZM178.72 51.286C180.008 51.286 181.109 51.6127 182.024 52.266C182.948 52.91 183.643 53.7967 184.11 54.926C184.586 56.0553 184.824 57.3293 184.824 58.748C184.824 60.148 184.577 61.422 184.082 62.57C183.587 63.7087 182.873 64.614 181.94 65.286C181.007 65.9487 179.915 66.28 178.664 66.28C177.721 66.28 176.886 66.098 176.158 65.734C175.43 65.3607 174.828 64.8193 174.352 64.11L174.394 70.564C174.394 70.6947 174.329 70.76 174.198 70.76H171.174C171.043 70.76 170.978 70.6947 170.978 70.564L171.034 59.91L170.978 51.776C170.978 51.6453 171.043 51.58 171.174 51.58H174.17C174.31 51.58 174.371 51.6453 174.352 51.776L174.296 53.652C174.791 52.896 175.411 52.3127 176.158 51.902C176.914 51.4913 177.768 51.286 178.72 51.286ZM177.74 63.984C178.944 63.984 179.854 63.5453 180.47 62.668C181.086 61.7813 181.394 60.54 181.394 58.944C181.394 57.2547 181.091 55.9433 180.484 55.01C179.877 54.0767 178.986 53.61 177.81 53.61C176.662 53.61 175.775 54.0487 175.15 54.926C174.525 55.8033 174.212 57.0867 174.212 58.776C174.212 60.4373 174.515 61.7207 175.122 62.626C175.738 63.5313 176.611 63.984 177.74 63.984ZM193.948 66.336C192.426 66.336 191.129 66.0233 190.056 65.398C188.982 64.7633 188.17 63.8813 187.62 62.752C187.069 61.6227 186.794 60.316 186.794 58.832C186.794 57.32 187.074 55.9947 187.634 54.856C188.203 53.708 189.02 52.8213 190.084 52.196C191.148 51.5613 192.398 51.244 193.836 51.244C195.31 51.244 196.57 51.5613 197.616 52.196C198.67 52.8307 199.478 53.7407 200.038 54.926C200.598 56.1113 200.887 57.5253 200.906 59.168C200.906 59.2987 200.84 59.364 200.71 59.364H190.182C190.247 60.96 190.597 62.1453 191.232 62.92C191.866 63.6853 192.786 64.068 193.99 64.068C195.81 64.068 196.92 63.1207 197.322 61.226C197.34 61.114 197.406 61.058 197.518 61.058H200.388C200.444 61.058 200.49 61.072 200.528 61.1C200.574 61.128 200.593 61.1607 200.584 61.198C200.462 62.1687 200.122 63.046 199.562 63.83C199.002 64.6047 198.241 65.216 197.28 65.664C196.318 66.112 195.208 66.336 193.948 66.336ZM197.28 57.18C197.233 56.4987 197.074 55.8827 196.804 55.332C196.542 54.772 196.16 54.3287 195.656 54.002C195.161 53.666 194.559 53.498 193.85 53.498C192.842 53.498 192.034 53.8153 191.428 54.45C190.83 55.0753 190.448 55.9853 190.28 57.18H197.28ZM212.485 51.776C212.485 51.6453 212.55 51.58 212.681 51.58H215.705C215.836 51.58 215.901 51.6453 215.901 51.776L215.859 58.678L215.901 65.804C215.901 65.9347 215.836 66 215.705 66H212.681C212.55 66 212.485 65.9347 212.485 65.804L212.527 59.602H206.437L206.479 65.804C206.479 65.9347 206.414 66 206.283 66H203.259C203.128 66 203.063 65.9347 203.063 65.804L203.119 58.678L203.063 51.776C203.063 51.6453 203.128 51.58 203.259 51.58H206.283C206.414 51.58 206.479 51.6453 206.479 51.776L206.437 57.194H212.527L212.485 51.776ZM227.83 51.776C227.83 51.6453 227.896 51.58 228.026 51.58H231.05C231.181 51.58 231.246 51.6453 231.246 51.776L231.204 58.678L231.246 65.804C231.246 65.9347 231.181 66 231.05 66H228.026C227.896 66 227.83 65.9347 227.83 65.804L227.872 59.602H221.782L221.824 65.804C221.824 65.9347 221.759 66 221.628 66H218.604C218.474 66 218.408 65.9347 218.408 65.804L218.464 58.678L218.408 51.776C218.408 51.6453 218.474 51.58 218.604 51.58H221.628C221.759 51.58 221.824 51.6453 221.824 51.776L221.782 57.194H227.872L227.83 51.776ZM240.544 66.336C239.05 66.336 237.767 66.028 236.694 65.412C235.63 64.796 234.818 63.9233 234.258 62.794C233.698 61.6647 233.418 60.3393 233.418 58.818C233.418 57.2967 233.698 55.9667 234.258 54.828C234.818 53.6893 235.63 52.8073 236.694 52.182C237.767 51.5567 239.05 51.244 240.544 51.244C242.037 51.244 243.311 51.552 244.366 52.168C245.43 52.784 246.237 53.6567 246.788 54.786C247.348 55.9153 247.628 57.2407 247.628 58.762C247.628 60.2833 247.348 61.6133 246.788 62.752C246.237 63.8907 245.43 64.7727 244.366 65.398C243.302 66.0233 242.028 66.336 240.544 66.336ZM240.544 64.068C241.766 64.068 242.676 63.634 243.274 62.766C243.88 61.8887 244.184 60.5727 244.184 58.818C244.184 57.082 243.876 55.766 243.26 54.87C242.653 53.9647 241.738 53.512 240.516 53.512C238.07 53.54 236.848 55.318 236.848 58.846C236.848 62.3273 238.08 64.068 240.544 64.068ZM256.243 60.26C256.243 60.3253 256.225 60.3767 256.187 60.414C256.15 60.442 256.103 60.456 256.047 60.456H253.051C252.921 60.456 252.855 60.386 252.855 60.246C252.874 59.2753 253.028 58.4307 253.317 57.712C253.607 56.9933 253.947 56.4007 254.339 55.934C254.731 55.4673 255.231 54.9493 255.837 54.38C256.257 53.988 256.589 53.6567 256.831 53.386C257.083 53.1153 257.289 52.8167 257.447 52.49C257.606 52.154 257.685 51.79 257.685 51.398C257.685 50.4647 257.391 49.746 256.803 49.242C256.215 48.7287 255.441 48.472 254.479 48.472C253.378 48.472 252.561 48.7707 252.029 49.368C251.507 49.956 251.222 50.852 251.175 52.056C251.175 52.1213 251.157 52.1727 251.119 52.21C251.082 52.238 251.035 52.252 250.979 52.252H248.151C248.011 52.252 247.951 52.1867 247.969 52.056C248.063 50.1333 248.683 48.668 249.831 47.66C250.989 46.652 252.613 46.148 254.703 46.148C255.917 46.148 256.999 46.358 257.951 46.778C258.913 47.198 259.669 47.8093 260.219 48.612C260.77 49.4147 261.045 50.3713 261.045 51.482C261.045 52.1633 260.938 52.7607 260.723 53.274C260.518 53.7873 260.257 54.226 259.939 54.59C259.631 54.9447 259.216 55.3553 258.693 55.822C258.161 56.3167 257.737 56.746 257.419 57.11C257.111 57.4647 256.841 57.9033 256.607 58.426C256.383 58.9487 256.262 59.56 256.243 60.26ZM256.285 65.804C256.285 65.9347 256.22 66 256.089 66H252.981C252.851 66 252.785 65.9347 252.785 65.804V62.766C252.785 62.71 252.799 62.6633 252.827 62.626C252.865 62.5887 252.916 62.57 252.981 62.57H256.089C256.155 62.57 256.201 62.5887 256.229 62.626C256.267 62.6633 256.285 62.71 256.285 62.766V65.804Z" fill="black" fill-opacity="0.8"/>
<rect x="27.5" y="167.5" width="108" height="32" rx="16" fill="black"/>
<rect x="27.5" y="167.5" width="108" height="32" rx="16" stroke="black"/>
<path d="M45.5636 180.196C45.689 180.196 45.7517 180.259 45.7517 180.384L45.6918 184.453L45.7517 188.812C45.7517 188.937 45.689 189 45.5636 189H44.2986C44.179 189 44.1191 188.937 44.1191 188.812L44.1704 184.453L44.1362 181.35H40.0763L40.0336 184.453L40.0934 188.812C40.0934 188.937 40.0307 189 39.9054 189H38.6404C38.5207 189 38.4609 188.937 38.4609 188.812L38.5122 184.453L38.4609 180.384C38.4609 180.259 38.5207 180.196 38.6404 180.196H45.5636ZM51.4623 189.197C50.5905 189.197 49.844 189.011 49.2229 188.641C48.6075 188.265 48.1374 187.732 47.8126 187.043C47.4935 186.353 47.334 185.547 47.334 184.624C47.334 183.695 47.4935 182.883 47.8126 182.188C48.1374 181.493 48.6132 180.954 49.24 180.572C49.8668 180.191 50.619 180 51.4965 180C52.2031 180 52.8213 180.125 53.3512 180.376C53.8812 180.627 54.3028 180.983 54.6162 181.444C54.9296 181.9 55.1234 182.433 55.1974 183.043V183.077C55.1974 183.185 55.1376 183.239 55.018 183.239H53.9325C53.8185 183.239 53.753 183.182 53.7359 183.068C53.6219 182.424 53.3626 181.937 52.9581 181.607C52.5592 181.27 52.072 181.102 51.4965 181.102C50.6475 181.108 50.0121 181.413 49.5905 182.017C49.1745 182.621 48.9665 183.487 48.9665 184.615C48.9665 185.761 49.1745 186.63 49.5905 187.222C50.0121 187.809 50.6503 188.103 51.505 188.103C52.1432 188.103 52.6703 187.909 53.0863 187.521C53.5079 187.134 53.7558 186.587 53.8299 185.88C53.847 185.761 53.9125 185.701 54.0265 185.701H55.1291C55.2658 185.701 55.3285 185.758 55.3171 185.872C55.2487 186.521 55.0521 187.097 54.7274 187.598C54.4026 188.1 53.9609 188.493 53.4025 188.778C52.8441 189.057 52.1974 189.197 51.4623 189.197ZM56.9787 189C56.8591 189 56.7993 188.937 56.7993 188.812L56.8505 184.453L56.7907 180.384C56.7907 180.259 56.8505 180.196 56.9702 180.196H58.201C58.3264 180.196 58.389 180.259 58.389 180.384L58.3634 184.29L58.3207 187.282L62.3977 180.333C62.4376 180.242 62.5145 180.196 62.6285 180.196H64.1413C64.2667 180.196 64.3294 180.259 64.3294 180.384L64.2696 184.453L64.3294 188.812C64.3294 188.937 64.2667 189 64.1413 189H62.9191C62.7937 189 62.731 188.937 62.731 188.812L62.7652 184.667L62.7909 181.966L58.748 188.863C58.6967 188.954 58.6198 189 58.5173 189H56.9787ZM70.3588 184.41L73.1623 188.769C73.1851 188.798 73.1965 188.832 73.1965 188.872C73.1965 188.912 73.1822 188.943 73.1537 188.966C73.1253 188.989 73.0854 189 73.0341 189H71.658C71.5554 189 71.4785 188.957 71.4272 188.872L69.2647 185.359L67.1023 188.863C67.0453 188.954 66.9712 189 66.8801 189H65.6493C65.598 189 65.5581 188.989 65.5296 188.966C65.5068 188.943 65.4954 188.915 65.4954 188.88C65.4954 188.846 65.5068 188.809 65.5296 188.769L68.3331 184.316L65.7689 180.427C65.7404 180.382 65.7262 180.344 65.7262 180.316C65.7262 180.282 65.7404 180.253 65.7689 180.231C65.7974 180.208 65.8373 180.196 65.8886 180.196H67.2561C67.353 180.196 67.4271 180.239 67.4784 180.325L69.4528 183.478L71.3503 180.325C71.3959 180.239 71.4699 180.196 71.5725 180.196H72.752C72.8033 180.196 72.8432 180.208 72.8717 180.231C72.9002 180.253 72.9144 180.285 72.9144 180.325C72.9144 180.364 72.903 180.399 72.8802 180.427L70.3588 184.41ZM77.4477 189.197C76.5645 189.197 75.8094 189.009 75.1827 188.632C74.5559 188.256 74.0772 187.724 73.7467 187.034C73.4219 186.345 73.2595 185.538 73.2595 184.615C73.2595 183.686 73.4219 182.877 73.7467 182.188C74.0772 181.493 74.5559 180.954 75.1827 180.572C75.8151 180.191 76.5702 180 77.4477 180C78.3252 180 79.0773 180.188 79.7041 180.564C80.3309 180.94 80.8067 181.476 81.1315 182.171C81.4563 182.86 81.6187 183.667 81.6187 184.59C81.6187 185.518 81.4563 186.33 81.1315 187.026C80.8067 187.715 80.3309 188.251 79.7041 188.632C79.0773 189.009 78.3252 189.197 77.4477 189.197ZM77.4477 188.103C78.291 188.103 78.9235 187.803 79.3452 187.205C79.7725 186.607 79.9862 185.743 79.9862 184.615C79.9862 183.493 79.7697 182.627 79.3366 182.017C78.9093 181.401 78.2768 181.094 77.4391 181.094C76.5901 181.099 75.9519 181.407 75.5245 182.017C75.0972 182.627 74.8835 183.496 74.8835 184.624C74.8835 185.746 75.1 186.607 75.5331 187.205C75.9661 187.803 76.6043 188.103 77.4477 188.103ZM82.6857 189.128C82.4805 189.128 82.2868 189.103 82.1045 189.051C82.0019 189.028 81.9506 188.96 81.9506 188.846V188.128C81.9506 188.014 81.999 187.957 82.0959 187.957C82.1472 187.957 82.1956 187.963 82.2412 187.974C82.2925 187.98 82.3438 187.983 82.3951 187.983C82.6287 187.983 82.8139 187.932 82.9506 187.829C83.0874 187.721 83.1928 187.538 83.2669 187.282C83.3467 187.026 83.4093 186.661 83.4549 186.188C83.5062 185.63 83.5575 184.798 83.6088 183.692C83.66 182.587 83.7028 181.484 83.737 180.384C83.7427 180.327 83.7626 180.282 83.7968 180.248C83.831 180.213 83.8766 180.196 83.9336 180.196H89.7286C89.854 180.196 89.9166 180.259 89.9166 180.384L89.891 184.538L89.9679 188.812C89.9679 188.937 89.9052 189 89.7799 189L88.5491 189.009C88.4237 189.009 88.361 188.946 88.361 188.821L88.3867 184.538L88.3354 181.342H85.0789C84.9706 183.769 84.8823 185.422 84.8139 186.299C84.7569 186.949 84.6601 187.476 84.5233 187.88C84.3866 188.285 84.1729 188.595 83.8823 188.812C83.5917 189.023 83.1928 189.128 82.6857 189.128ZM95.7441 189.197C94.8609 189.197 94.1059 189.009 93.4791 188.632C92.8523 188.256 92.3737 187.724 92.0432 187.034C91.7184 186.345 91.556 185.538 91.556 184.615C91.556 183.686 91.7184 182.877 92.0432 182.188C92.3737 181.493 92.8523 180.954 93.4791 180.572C94.1116 180.191 94.8666 180 95.7441 180C96.6216 180 97.3738 180.188 98.0006 180.564C98.6274 180.94 99.1032 181.476 99.428 182.171C99.7528 182.86 99.9152 183.667 99.9152 184.59C99.9152 185.518 99.7528 186.33 99.428 187.026C99.1032 187.715 98.6274 188.251 98.0006 188.632C97.3738 189.009 96.6216 189.197 95.7441 189.197ZM95.7441 188.103C96.5875 188.103 97.2199 187.803 97.6416 187.205C98.069 186.607 98.2827 185.743 98.2827 184.615C98.2827 183.493 98.0661 182.627 97.6331 182.017C97.2057 181.401 96.5732 181.094 95.7356 181.094C94.8865 181.099 94.2484 181.407 93.821 182.017C93.3936 182.627 93.1799 183.496 93.1799 184.624C93.1799 185.746 93.3965 186.607 93.8295 187.205C94.2626 187.803 94.9008 188.103 95.7441 188.103ZM101.676 189C101.557 189 101.497 188.937 101.497 188.812L101.548 184.453L101.497 180.384C101.497 180.259 101.557 180.196 101.676 180.196H106.796C106.853 180.196 106.899 180.213 106.933 180.248C106.967 180.282 106.984 180.327 106.984 180.384V181.162C106.984 181.288 106.921 181.35 106.796 181.35H103.112L103.07 184.453L103.129 188.812C103.129 188.937 103.067 189 102.941 189H101.676ZM108.529 189C108.41 189 108.35 188.937 108.35 188.812L108.401 184.453L108.341 180.384C108.341 180.259 108.401 180.196 108.521 180.196H109.752C109.877 180.196 109.94 180.259 109.94 180.384L109.914 184.29L109.871 187.282L113.948 180.333C113.988 180.242 114.065 180.196 114.179 180.196H115.692C115.817 180.196 115.88 180.259 115.88 180.384L115.82 184.453L115.88 188.812C115.88 188.937 115.817 189 115.692 189H114.47C114.344 189 114.282 188.937 114.282 188.812L114.316 184.667L114.341 181.966L110.299 188.863C110.247 188.954 110.17 189 110.068 189H108.529ZM117.646 189C117.538 189 117.484 188.96 117.484 188.88C117.484 188.846 117.495 188.809 117.518 188.769L119.578 185.402C118.883 185.259 118.347 184.977 117.971 184.555C117.601 184.128 117.416 183.555 117.416 182.837C117.416 181.954 117.72 181.293 118.33 180.854C118.945 180.416 119.846 180.196 121.031 180.196H124.364C124.484 180.196 124.544 180.259 124.544 180.384L124.493 184.47L124.544 188.812C124.544 188.937 124.484 189 124.364 189H123.091C122.966 189 122.903 188.937 122.903 188.812L122.946 185.573H120.98L119.869 187.513L119.099 188.872C119.048 188.957 118.974 189 118.877 189H117.646ZM122.963 184.479L122.92 181.282H120.954C120.339 181.282 119.86 181.421 119.518 181.701C119.182 181.974 119.014 182.359 119.014 182.855C119.014 183.39 119.182 183.795 119.518 184.068C119.854 184.342 120.336 184.479 120.963 184.479H122.963Z" fill="white"/>
<rect x="145.5" y="167.5" width="130" height="32" rx="16" fill="white"/>
<rect x="145.5" y="167.5" width="130" height="32" rx="16" stroke="black"/>
<path d="M166.275 179.726C166.337 179.726 166.383 179.746 166.411 179.786C166.44 179.82 166.451 179.869 166.446 179.931L166.326 180.726C166.32 180.846 166.255 180.906 166.129 180.906H163.779L163.181 185.06H165.523C165.585 185.06 165.631 185.08 165.659 185.12C165.694 185.154 165.705 185.202 165.694 185.265L165.557 186.06C165.54 186.179 165.471 186.239 165.352 186.239H163.018L162.642 188.821C162.625 188.94 162.56 189 162.446 189H161.352C161.289 189 161.24 188.983 161.206 188.949C161.178 188.909 161.169 188.858 161.181 188.795L161.54 186.239H159.163L158.796 188.821C158.779 188.94 158.71 189 158.591 189H157.497C157.434 189 157.386 188.983 157.351 188.949C157.323 188.909 157.314 188.858 157.326 188.795L157.693 186.239H155.351C155.289 186.239 155.24 186.222 155.206 186.188C155.178 186.148 155.169 186.097 155.18 186.034L155.317 185.239C155.334 185.12 155.403 185.06 155.522 185.06H157.856L158.454 180.906H156.129C156.066 180.906 156.021 180.889 155.992 180.854C155.964 180.815 155.953 180.763 155.958 180.701L156.078 179.906C156.089 179.786 156.155 179.726 156.274 179.726H158.616L158.984 177.213C159.001 177.094 159.067 177.034 159.181 177.034H160.275C160.406 177.034 160.463 177.102 160.446 177.239L160.095 179.726H162.471L162.83 177.213C162.847 177.094 162.916 177.034 163.035 177.034H164.129C164.26 177.034 164.317 177.102 164.3 177.239L163.95 179.726H166.275ZM162.3 180.906H159.924L159.334 185.06H161.711L162.3 180.906ZM170.236 189.026L166.792 180.419L166.774 180.342C166.774 180.296 166.789 180.262 166.817 180.239C166.851 180.211 166.894 180.196 166.945 180.196H168.33C168.438 180.196 168.51 180.248 168.544 180.35L171.014 186.974L173.125 180.359C173.154 180.25 173.222 180.196 173.33 180.196H174.57C174.684 180.196 174.741 180.245 174.741 180.342L174.723 180.419L170.775 191.752C170.74 191.855 170.672 191.906 170.569 191.906H169.45C169.393 191.906 169.35 191.892 169.322 191.863C169.293 191.841 169.279 191.806 169.279 191.761C169.279 191.744 169.285 191.718 169.296 191.684L170.236 189.026ZM181.089 184.29C181.818 184.45 182.348 184.715 182.678 185.085C183.009 185.45 183.174 185.929 183.174 186.521C183.174 187.439 182.818 188.083 182.106 188.453C181.393 188.818 180.547 189 179.567 189H176.046C175.926 189 175.866 188.937 175.866 188.812L175.917 184.453L175.875 180.384C175.875 180.259 175.935 180.196 176.054 180.196H179.55C180.633 180.196 181.462 180.379 182.037 180.743C182.619 181.102 182.909 181.644 182.909 182.367C182.909 182.88 182.75 183.293 182.431 183.607C182.117 183.92 181.67 184.142 181.089 184.273V184.29ZM177.482 181.282L177.456 183.829H179.533C180.73 183.829 181.328 183.404 181.328 182.555C181.328 182.139 181.168 181.823 180.849 181.607C180.53 181.39 180.089 181.282 179.524 181.282H177.482ZM177.447 184.889L177.473 187.914H179.533C180.177 187.914 180.678 187.792 181.037 187.547C181.396 187.296 181.576 186.912 181.576 186.393C181.576 185.897 181.382 185.524 180.995 185.273C180.613 185.017 180.128 184.889 179.542 184.889H177.447ZM188.603 189.197C187.702 189.197 186.936 189.006 186.303 188.624C185.677 188.242 185.201 187.707 184.876 187.017C184.551 186.328 184.389 185.53 184.389 184.624C184.389 183.706 184.551 182.9 184.876 182.205C185.206 181.51 185.682 180.968 186.303 180.581C186.924 180.193 187.662 180 188.517 180C189.36 180 190.084 180.182 190.688 180.547C191.298 180.911 191.765 181.439 192.09 182.128C192.42 182.817 192.597 183.641 192.62 184.598C192.62 184.729 192.557 184.795 192.432 184.795H185.996C186.047 187 186.922 188.103 188.62 188.103C189.258 188.103 189.771 187.934 190.158 187.598C190.551 187.256 190.813 186.761 190.944 186.111C190.973 185.997 191.041 185.94 191.15 185.94H192.278C192.341 185.94 192.389 185.954 192.423 185.983C192.457 186.011 192.472 186.054 192.466 186.111C192.369 186.721 192.155 187.259 191.825 187.726C191.5 188.188 191.064 188.55 190.517 188.812C189.97 189.068 189.332 189.197 188.603 189.197ZM190.919 183.726C190.902 183.236 190.799 182.792 190.611 182.393C190.423 181.988 190.152 181.669 189.799 181.436C189.446 181.202 189.021 181.085 188.526 181.085C187.802 181.085 187.232 181.316 186.816 181.778C186.4 182.233 186.141 182.883 186.038 183.726H190.919ZM198.53 180.017C199.299 180.017 199.957 180.216 200.504 180.615C201.051 181.008 201.464 181.55 201.744 182.239C202.029 182.929 202.171 183.706 202.171 184.573C202.171 185.427 202.023 186.205 201.727 186.906C201.436 187.601 201.014 188.154 200.462 188.564C199.909 188.969 199.256 189.171 198.504 189.171C197.883 189.171 197.342 189.04 196.88 188.778C196.419 188.51 196.046 188.122 195.761 187.615L195.795 191.718C195.795 191.843 195.732 191.906 195.607 191.906H194.342C194.216 191.906 194.154 191.843 194.154 191.718L194.222 185.145L194.162 180.384C194.162 180.259 194.222 180.196 194.342 180.196H195.573C195.698 180.196 195.761 180.262 195.761 180.393L195.718 181.675C196.014 181.151 196.399 180.743 196.872 180.453C197.35 180.162 197.903 180.017 198.53 180.017ZM198.094 188.068C198.909 188.068 199.524 187.763 199.94 187.154C200.362 186.544 200.573 185.721 200.573 184.684C200.573 183.595 200.365 182.732 199.949 182.094C199.538 181.45 198.932 181.128 198.128 181.128C197.359 181.128 196.758 181.421 196.325 182.008C195.892 182.595 195.675 183.45 195.675 184.573C195.675 185.684 195.886 186.544 196.308 187.154C196.735 187.763 197.33 188.068 198.094 188.068ZM207.684 189.197C206.783 189.197 206.017 189.006 205.384 188.624C204.758 188.242 204.282 187.707 203.957 187.017C203.632 186.328 203.47 185.53 203.47 184.624C203.47 183.706 203.632 182.9 203.957 182.205C204.288 181.51 204.763 180.968 205.384 180.581C206.006 180.193 206.743 180 207.598 180C208.441 180 209.165 180.182 209.769 180.547C210.379 180.911 210.846 181.439 211.171 182.128C211.501 182.817 211.678 183.641 211.701 184.598C211.701 184.729 211.638 184.795 211.513 184.795H205.077C205.128 187 206.003 188.103 207.701 188.103C208.339 188.103 208.852 187.934 209.239 187.598C209.632 187.256 209.895 186.761 210.026 186.111C210.054 185.997 210.122 185.94 210.231 185.94H211.359C211.422 185.94 211.47 185.954 211.504 185.983C211.538 186.011 211.553 186.054 211.547 186.111C211.45 186.721 211.236 187.259 210.906 187.726C210.581 188.188 210.145 188.55 209.598 188.812C209.051 189.068 208.413 189.197 207.684 189.197ZM210 183.726C209.983 183.236 209.88 182.792 209.692 182.393C209.504 181.988 209.234 181.669 208.88 181.436C208.527 181.202 208.102 181.085 207.607 181.085C206.883 181.085 206.313 181.316 205.897 181.778C205.481 182.233 205.222 182.883 205.119 183.726H210ZM219.055 180.384C219.055 180.259 219.115 180.196 219.235 180.196H220.466C220.591 180.196 220.654 180.259 220.654 180.384L220.594 184.453L220.654 188.812C220.654 188.937 220.591 189 220.466 189H219.235C219.115 189 219.055 188.937 219.055 188.812L219.098 184.914H214.807L214.859 188.812C214.859 188.937 214.796 189 214.671 189H213.44C213.32 189 213.26 188.937 213.26 188.812L213.312 184.453L213.26 180.384C213.26 180.259 213.32 180.196 213.44 180.196H214.671C214.796 180.196 214.859 180.259 214.859 180.384L214.816 183.761H219.098L219.055 180.384ZM228.371 180.384C228.371 180.259 228.43 180.196 228.55 180.196H229.781C229.906 180.196 229.969 180.259 229.969 180.384L229.909 184.453L229.969 188.812C229.969 188.937 229.906 189 229.781 189H228.55C228.43 189 228.371 188.937 228.371 188.812L228.413 184.914H224.123L224.174 188.812C224.174 188.937 224.111 189 223.986 189H222.755C222.635 189 222.576 188.937 222.576 188.812L222.627 184.453L222.576 180.384C222.576 180.259 222.635 180.196 222.755 180.196H223.986C224.111 180.196 224.174 180.259 224.174 180.384L224.131 183.761H228.413L228.371 180.384ZM235.737 189.197C234.854 189.197 234.099 189.009 233.472 188.632C232.845 188.256 232.367 187.724 232.036 187.034C231.711 186.345 231.549 185.538 231.549 184.615C231.549 183.686 231.711 182.877 232.036 182.188C232.367 181.493 232.845 180.954 233.472 180.572C234.104 180.191 234.859 180 235.737 180C236.615 180 237.367 180.188 237.993 180.564C238.62 180.94 239.096 181.476 239.421 182.171C239.746 182.86 239.908 183.667 239.908 184.59C239.908 185.518 239.746 186.33 239.421 187.026C239.096 187.715 238.62 188.251 237.993 188.632C237.367 189.009 236.615 189.197 235.737 189.197ZM235.737 188.103C236.58 188.103 237.213 187.803 237.635 187.205C238.062 186.607 238.276 185.743 238.276 184.615C238.276 183.493 238.059 182.627 237.626 182.017C237.199 181.401 236.566 181.094 235.728 181.094C234.879 181.099 234.241 181.407 233.814 182.017C233.387 182.627 233.173 183.496 233.173 184.624C233.173 185.746 233.389 186.607 233.822 187.205C234.255 187.803 234.894 188.103 235.737 188.103ZM245.326 189.197C244.454 189.197 243.708 189.011 243.087 188.641C242.471 188.265 242.001 187.732 241.677 187.043C241.357 186.353 241.198 185.547 241.198 184.624C241.198 183.695 241.357 182.883 241.677 182.188C242.001 181.493 242.477 180.954 243.104 180.572C243.731 180.191 244.483 180 245.36 180C246.067 180 246.685 180.125 247.215 180.376C247.745 180.627 248.167 180.983 248.48 181.444C248.794 181.9 248.987 182.433 249.061 183.043V183.077C249.061 183.185 249.002 183.239 248.882 183.239H247.796C247.682 183.239 247.617 183.182 247.6 183.068C247.486 182.424 247.227 181.937 246.822 181.607C246.423 181.27 245.936 181.102 245.36 181.102C244.511 181.108 243.876 181.413 243.454 182.017C243.038 182.621 242.83 183.487 242.83 184.615C242.83 185.761 243.038 186.63 243.454 187.222C243.876 187.809 244.514 188.103 245.369 188.103C246.007 188.103 246.534 187.909 246.95 187.521C247.372 187.134 247.62 186.587 247.694 185.88C247.711 185.761 247.776 185.701 247.89 185.701H248.993C249.13 185.701 249.192 185.758 249.181 185.872C249.113 186.521 248.916 187.097 248.591 187.598C248.266 188.1 247.825 188.493 247.266 188.778C246.708 189.057 246.061 189.197 245.326 189.197ZM257.068 180.196C257.125 180.196 257.17 180.213 257.205 180.248C257.239 180.282 257.256 180.327 257.256 180.384V181.162C257.256 181.288 257.193 181.35 257.068 181.35H254.23L254.187 184.453L254.247 188.812C254.247 188.937 254.184 189 254.059 189H252.803C252.677 189 252.615 188.937 252.615 188.812L252.674 184.453L252.632 181.35H249.803C249.746 181.35 249.7 181.333 249.666 181.299C249.632 181.265 249.615 181.219 249.615 181.162V180.384C249.615 180.259 249.677 180.196 249.803 180.196H257.068ZM260.207 183.504H261.729C264.219 183.504 265.464 184.41 265.464 186.222C265.464 188.074 264.219 189 261.729 189H258.797C258.677 189 258.618 188.937 258.618 188.812L258.669 184.752L258.618 180.384C258.618 180.259 258.677 180.196 258.797 180.196H260.062C260.187 180.196 260.25 180.259 260.25 180.384L260.207 183.504ZM260.199 184.59L260.233 187.914H261.729C262.418 187.914 262.945 187.786 263.31 187.53C263.675 187.268 263.857 186.849 263.857 186.273C263.857 185.709 263.68 185.288 263.327 185.008C262.98 184.729 262.447 184.59 261.729 184.59H260.199Z" fill="black"/>
</svg>
