<svg width="300" height="315" viewBox="0 0 300 315" fill="none" xmlns="http://www.w3.org/2000/svg">
<rect y="15" width="300" height="300" rx="30" fill="black"/>
<rect x="0.5" y="0.5" width="299" height="299" rx="29.5" fill="white" stroke="black"/>
<path d="M29.4243 83.755C29.4243 83.8293 29.4021 83.8887 29.3575 83.9332C29.313 83.9777 29.2536 84 29.1794 84H19.6257C19.4698 84 19.3919 83.9183 19.3919 83.755L19.5143 75.9384L19.3919 68.6562C19.3919 68.4929 19.4698 68.4112 19.6257 68.4112H29.0012C29.0754 68.4112 29.1348 68.4335 29.1794 68.4781C29.2239 68.5226 29.2462 68.582 29.2462 68.6562V69.7586C29.2462 69.8328 29.2239 69.8922 29.1794 69.9367C29.1348 69.9813 29.0754 70.0035 29.0012 70.0035H21.5743L21.4629 74.8806H28.4667C28.541 74.8806 28.6004 74.9028 28.6449 74.9474C28.6894 74.9919 28.7117 75.0513 28.7117 75.1255V76.2279C28.7117 76.3021 28.6894 76.3615 28.6449 76.406C28.6004 76.4506 28.541 76.4729 28.4667 76.4729H21.4629L21.5743 82.4077H29.1794C29.3427 82.4077 29.4243 82.4894 29.4243 82.6527V83.755ZM36.1252 84.2561C34.9895 84.2561 34.017 84.0148 33.2079 83.5323C32.4062 83.0424 31.7938 82.3483 31.3707 81.4501C30.955 80.5519 30.7471 79.5015 30.7471 78.299C30.7471 77.089 30.955 76.0312 31.3707 75.1255C31.7938 74.2199 32.4136 73.5184 33.2302 73.0211C34.0467 72.5237 35.0266 72.275 36.1698 72.275C37.0903 72.275 37.8957 72.4383 38.586 72.765C39.2764 73.0916 39.8257 73.5555 40.234 74.1568C40.6423 74.7507 40.8947 75.4447 40.9912 76.239V76.2836C40.9912 76.4246 40.9132 76.4951 40.7573 76.4951H39.3432C39.1947 76.4951 39.1094 76.4209 39.0871 76.2724C38.9386 75.4336 38.6009 74.7989 38.0738 74.3684C37.5542 73.9304 36.9195 73.7114 36.1698 73.7114C35.0637 73.7188 34.236 74.116 33.6867 74.9028C33.1448 75.6897 32.8739 76.818 32.8739 78.2878C32.8739 79.7799 33.1448 80.9119 33.6867 81.684C34.236 82.4485 35.0674 82.8308 36.1809 82.8308C37.0123 82.8308 37.699 82.5785 38.2409 82.0737C38.7902 81.5689 39.1131 80.8563 39.2096 79.9358C39.2319 79.7799 39.3172 79.702 39.4657 79.702H40.9021C41.0802 79.702 41.1619 79.7762 41.147 79.9247C41.058 80.7709 40.8019 81.5206 40.3787 82.1739C39.9556 82.8271 39.3803 83.3393 38.6528 83.7105C37.9254 84.0742 37.0828 84.2561 36.1252 84.2561ZM42.4345 84.167C42.1673 84.167 41.9149 84.1336 41.6773 84.0668C41.5437 84.0371 41.4769 83.948 41.4769 83.7996V82.8642C41.4769 82.7158 41.54 82.6416 41.6662 82.6416C41.733 82.6416 41.7961 82.649 41.8555 82.6638C41.9223 82.6712 41.9891 82.675 42.0559 82.675C42.3603 82.675 42.6015 82.6081 42.7797 82.4745C42.9578 82.3335 43.0952 82.0959 43.1917 81.7619C43.2956 81.4279 43.3773 80.9528 43.4366 80.3366C43.5034 79.6092 43.5703 78.5254 43.6371 77.0853C43.7039 75.6452 43.7595 74.2088 43.8041 72.7761C43.8115 72.7019 43.8375 72.6425 43.882 72.5979C43.9266 72.5534 43.986 72.5311 44.0602 72.5311H51.6096C51.7729 72.5311 51.8546 72.6128 51.8546 72.7761L51.8212 78.1876L51.9214 83.755C51.9214 83.9183 51.8397 84 51.6764 84L50.073 84.0111C49.9097 84.0111 49.828 83.9295 49.828 83.7662L49.8614 78.1876L49.7946 74.0232H45.5523C45.4112 77.1855 45.2962 79.3382 45.2071 80.4814C45.1328 81.3276 45.0066 82.0143 44.8285 82.5413C44.6503 83.0684 44.372 83.473 43.9934 83.755C43.6148 84.0297 43.0952 84.167 42.4345 84.167ZM54.4579 84C54.302 84 54.224 83.9183 54.224 83.755L54.2908 78.0763L54.2129 72.7761C54.2129 72.6128 54.2908 72.5311 54.4467 72.5311H56.0501C56.2134 72.5311 56.2951 72.6128 56.2951 72.7761L56.2617 77.8647L56.206 81.7619L61.5173 72.7093C61.5693 72.5905 61.6695 72.5311 61.818 72.5311H63.7888C63.9522 72.5311 64.0338 72.6128 64.0338 72.7761L63.9559 78.0763L64.0338 83.755C64.0338 83.9183 63.9522 84 63.7888 84H62.1966C62.0332 84 61.9516 83.9183 61.9516 83.755L61.9961 78.3546L62.0295 74.836L56.7628 83.8218C56.696 83.9406 56.5957 84 56.4621 84H54.4579ZM79.4333 72.5311C79.5075 72.5311 79.5669 72.5534 79.6114 72.5979C79.656 72.6425 79.6782 72.7019 79.6782 72.7761V73.7894C79.6782 73.9527 79.5966 74.0343 79.4333 74.0343H75.7365L75.6808 78.0763L75.7588 83.755C75.7588 83.9183 75.6771 84 75.5138 84H73.877C73.7137 84 73.632 83.9183 73.632 83.755L73.71 78.0763L73.6543 74.0343H69.9687C69.8944 74.0343 69.835 74.0121 69.7905 73.9675C69.746 73.923 69.7237 73.8636 69.7237 73.7894V72.7761C69.7237 72.6128 69.8054 72.5311 69.9687 72.5311H79.4333ZM81.4635 84C81.3076 84 81.2296 83.9183 81.2296 83.755L81.2964 78.466L81.2296 72.7761C81.2296 72.6128 81.3076 72.5311 81.4635 72.5311H83.1114C83.2747 72.5311 83.3564 72.6128 83.3564 72.7761L83.3007 76.8403H85.2938C88.5378 76.8403 90.1598 78.0206 90.1598 80.3812C90.1598 82.7937 88.5378 84 85.2938 84H81.4635ZM91.173 84C91.0171 84 90.9392 83.9183 90.9392 83.755L91.006 78.466L90.9392 72.7761C90.9392 72.6128 91.0171 72.5311 91.173 72.5311H92.821C92.9843 72.5311 93.0659 72.6128 93.0659 72.7761L92.988 78.466L93.0659 83.755C93.0659 83.9183 92.9843 84 92.821 84H91.173ZM83.2896 78.2544L83.3341 82.5859H85.2938C86.192 82.5859 86.8787 82.4189 87.3538 82.0848C87.8289 81.7433 88.0664 81.1977 88.0664 80.448C88.0664 79.7131 87.8363 79.1638 87.3761 78.8C86.9232 78.4363 86.2292 78.2544 85.2938 78.2544H83.2896ZM104.832 78.0206L108.484 83.6994C108.514 83.7365 108.529 83.781 108.529 83.833C108.529 83.8849 108.51 83.9258 108.473 83.9555C108.436 83.9852 108.384 84 108.317 84H106.524C106.391 84 106.291 83.9443 106.224 83.833L103.407 79.2566L100.59 83.8218C100.515 83.9406 100.419 84 100.3 84H98.6967C98.6299 84 98.5779 83.9852 98.5408 83.9555C98.5111 83.9258 98.4963 83.8887 98.4963 83.8441C98.4963 83.7996 98.5111 83.7513 98.5408 83.6994L102.193 77.8981L98.8526 72.8318C98.8155 72.7724 98.7969 72.7241 98.7969 72.687C98.7969 72.6425 98.8155 72.6054 98.8526 72.5757C98.8897 72.546 98.9417 72.5311 99.0085 72.5311H100.79C100.916 72.5311 101.013 72.5868 101.08 72.6982L103.652 76.8069L106.124 72.6982C106.183 72.5868 106.28 72.5311 106.413 72.5311H107.95C108.017 72.5311 108.069 72.546 108.106 72.5757C108.143 72.6054 108.161 72.6462 108.161 72.6982C108.161 72.7501 108.146 72.7947 108.117 72.8318L104.832 78.0206ZM113.844 84.2561C112.694 84.2561 111.71 84.0111 110.894 83.5212C110.077 83.0313 109.453 82.3372 109.023 81.439C108.6 80.5408 108.388 79.4904 108.388 78.2878C108.388 77.0778 108.6 76.0238 109.023 75.1255C109.453 74.2199 110.077 73.5184 110.894 73.0211C111.717 72.5237 112.701 72.275 113.844 72.275C114.987 72.275 115.967 72.52 116.784 73.0099C117.6 73.4999 118.22 74.1976 118.643 75.1033C119.066 76.0015 119.278 77.0519 119.278 78.2544C119.278 79.4644 119.066 80.5222 118.643 81.4279C118.22 82.3261 117.6 83.0238 116.784 83.5212C115.967 84.0111 114.987 84.2561 113.844 84.2561ZM113.844 82.8308C114.943 82.8308 115.767 82.4411 116.316 81.6617C116.873 80.8822 117.151 79.7576 117.151 78.2878C117.151 76.8255 116.869 75.6971 116.305 74.9028C115.748 74.1011 114.924 73.7003 113.833 73.7003C112.727 73.7077 111.896 74.1086 111.339 74.9028C110.782 75.6971 110.504 76.8292 110.504 78.299C110.504 79.7613 110.786 80.8822 111.35 81.6617C111.914 82.4411 112.746 82.8308 113.844 82.8308ZM127.432 72.7761C127.432 72.6128 127.514 72.5311 127.677 72.5311H129.325C129.481 72.5311 129.559 72.6128 129.559 72.7761L129.492 78.0763L129.559 83.755C129.559 83.9183 129.481 84 129.325 84H127.677C127.514 84 127.432 83.9183 127.432 83.755L127.499 79.0895C126.311 79.3197 125.294 79.4347 124.448 79.4347C123.349 79.4347 122.503 79.2714 121.909 78.9448C121.323 78.6107 120.925 78.1579 120.718 77.5863C120.517 77.0148 120.413 76.2947 120.406 75.4262L120.395 72.7761C120.395 72.7019 120.417 72.6425 120.461 72.5979C120.506 72.5534 120.569 72.5311 120.651 72.5311H122.243C122.317 72.5311 122.377 72.5534 122.421 72.5979C122.466 72.6425 122.488 72.7019 122.488 72.7761V75.4262C122.488 75.9829 122.547 76.4432 122.666 76.8069C122.792 77.1706 123.03 77.4564 123.379 77.6643C123.735 77.8647 124.247 77.9649 124.915 77.9649C125.331 77.9649 125.765 77.9389 126.218 77.887C126.678 77.835 127.105 77.7608 127.499 77.6643L127.432 72.7761ZM136.898 84.2561C135.725 84.2561 134.727 84.0074 133.903 83.5101C133.086 83.0127 132.466 82.3149 132.043 81.4167C131.62 80.5185 131.409 79.4793 131.409 78.299C131.409 77.1038 131.62 76.0534 132.043 75.1478C132.474 74.2422 133.094 73.537 133.903 73.0322C134.712 72.5274 135.673 72.275 136.787 72.275C137.885 72.275 138.828 72.5126 139.615 72.9877C140.409 73.4627 141.018 74.1494 141.441 75.0476C141.872 75.9458 142.102 77.0185 142.131 78.2656C142.131 78.4363 142.05 78.5217 141.886 78.5217H133.502C133.569 81.3945 134.708 82.8308 136.92 82.8308C137.752 82.8308 138.42 82.6119 138.925 82.1739C139.437 81.7285 139.778 81.0827 139.949 80.2364C139.986 80.088 140.075 80.0137 140.216 80.0137H141.686C141.768 80.0137 141.831 80.0323 141.875 80.0694C141.92 80.1065 141.938 80.1622 141.931 80.2364C141.805 81.0307 141.526 81.7322 141.096 82.3409C140.673 82.9422 140.105 83.4136 139.392 83.755C138.68 84.0891 137.848 84.2561 136.898 84.2561ZM139.916 77.1298C139.893 76.4914 139.76 75.9124 139.515 75.3928C139.27 74.8657 138.917 74.45 138.457 74.1457C137.997 73.8413 137.444 73.6892 136.798 73.6892C135.855 73.6892 135.113 73.9898 134.571 74.5911C134.029 75.1849 133.691 76.0312 133.558 77.1298H139.916ZM156.823 72.7761C156.823 72.6128 156.905 72.5311 157.068 72.5311H158.716C158.872 72.5311 158.95 72.6128 158.95 72.7761L158.883 78.466L158.95 83.755C158.95 83.9183 158.872 84 158.716 84H144.174C144.018 84 143.94 83.9183 143.94 83.755L144.007 78.466L143.94 72.7761C143.94 72.6128 144.018 72.5311 144.174 72.5311H145.822C145.986 72.5311 146.067 72.6128 146.067 72.7761L145.989 78.466L146.045 82.4968H150.41L150.454 78.466L150.388 72.7761C150.388 72.6128 150.465 72.5311 150.621 72.5311H152.269C152.433 72.5311 152.514 72.6128 152.514 72.7761L152.436 78.466L152.492 82.4968H156.846L156.901 78.466L156.823 72.7761ZM163.317 76.8403H165.299C168.543 76.8403 170.165 78.0206 170.165 80.3812C170.165 82.7937 168.543 84 165.299 84H161.48C161.324 84 161.246 83.9183 161.246 83.755L161.313 78.466L161.246 72.7761C161.246 72.6128 161.324 72.5311 161.48 72.5311H163.128C163.292 72.5311 163.373 72.6128 163.373 72.7761L163.317 76.8403ZM163.306 78.2544L163.351 82.5859H165.299C166.198 82.5859 166.884 82.4189 167.359 82.0848C167.835 81.7433 168.072 81.1977 168.072 80.448C168.072 79.7131 167.842 79.1638 167.382 78.8C166.929 78.4363 166.235 78.2544 165.299 78.2544H163.306ZM183.11 80.6707C183.11 79.9878 182.858 79.483 182.353 79.1564C181.856 78.8223 181.203 78.6553 180.393 78.6553H179.002C178.838 78.6553 178.757 78.5736 178.757 78.4103V77.5418C178.757 77.4601 178.779 77.397 178.823 77.3525C178.868 77.308 178.927 77.2857 179.002 77.2857H180.393C181.165 77.2857 181.756 77.1409 182.164 76.8514C182.58 76.5545 182.787 76.1091 182.787 75.5153C182.787 74.9511 182.572 74.5094 182.142 74.1902C181.711 73.8636 181.121 73.7003 180.371 73.7003C179.569 73.7003 178.92 73.8747 178.423 74.2236C177.925 74.5725 177.639 75.0884 177.565 75.7714C177.55 75.9198 177.465 75.9941 177.309 75.9941H175.873C175.791 75.9941 175.728 75.9718 175.683 75.9273C175.646 75.8827 175.631 75.8233 175.639 75.7491C175.728 74.6133 176.203 73.756 177.064 73.1769C177.925 72.5905 179.046 72.2973 180.427 72.2973C181.793 72.2973 182.869 72.5608 183.656 73.0879C184.45 73.6075 184.847 74.3535 184.847 75.326C184.847 76.0089 184.636 76.5582 184.213 76.9739C183.797 77.3896 183.218 77.6791 182.476 77.8424V77.8647C183.411 78.0726 184.098 78.414 184.536 78.8891C184.974 79.3642 185.193 79.9915 185.193 80.7709C185.193 81.5355 184.966 82.1776 184.513 82.6972C184.068 83.2169 183.47 83.6029 182.721 83.8552C181.978 84.1002 181.162 84.2227 180.271 84.2227C178.727 84.2227 177.524 83.8887 176.663 83.2206C175.802 82.545 175.346 81.5503 175.294 80.2364C175.294 80.0731 175.375 79.9915 175.539 79.9915H177.042C177.19 79.9915 177.272 80.0731 177.287 80.2364C177.383 81.9512 178.393 82.8086 180.315 82.8086C181.162 82.8086 181.837 82.623 182.342 82.2518C182.854 81.8807 183.11 81.3536 183.11 80.6707ZM194.421 72.7761C194.421 72.6128 194.499 72.5311 194.655 72.5311H196.258C196.421 72.5311 196.503 72.6128 196.503 72.7761L196.425 78.0763L196.503 83.755C196.503 83.9183 196.421 84 196.258 84H194.655C194.499 84 194.421 83.9183 194.421 83.755L194.476 78.6776H188.887L188.954 83.755C188.954 83.9183 188.872 84 188.709 84H187.105C186.949 84 186.871 83.9183 186.871 83.755L186.938 78.0763L186.871 72.7761C186.871 72.6128 186.949 72.5311 187.105 72.5311H188.709C188.872 72.5311 188.954 72.6128 188.954 72.7761L188.898 77.1744H194.476L194.421 72.7761ZM206.69 72.7872C206.682 72.7056 206.701 72.6425 206.745 72.5979C206.79 72.5534 206.853 72.5311 206.935 72.5311H208.527C208.69 72.5311 208.772 72.6128 208.772 72.7761L208.683 78.1431L208.772 83.755C208.772 83.9183 208.69 84 208.527 84H206.946C206.864 84 206.801 83.9777 206.756 83.9332C206.712 83.8887 206.693 83.8293 206.701 83.755L206.734 82.0291C206.355 82.7269 205.858 83.2651 205.242 83.6437C204.626 84.0223 203.906 84.2116 203.082 84.2116C202.08 84.2116 201.222 83.9555 200.51 83.4433C199.797 82.9236 199.255 82.2184 198.884 81.3276C198.52 80.4294 198.338 79.4162 198.338 78.2878C198.338 77.1744 198.528 76.1648 198.906 75.2592C199.285 74.3461 199.834 73.6261 200.554 73.099C201.282 72.572 202.135 72.3084 203.115 72.3084C203.932 72.3084 204.644 72.4829 205.253 72.8318C205.869 73.1807 206.363 73.6966 206.734 74.3795L206.69 72.7872ZM203.583 82.7863C204.592 82.7863 205.379 82.4077 205.944 81.6506C206.508 80.886 206.79 79.7613 206.79 78.2767C206.79 76.8292 206.511 75.712 205.955 74.9251C205.398 74.1308 204.615 73.7337 203.605 73.7337C202.551 73.7337 201.757 74.1308 201.222 74.9251C200.688 75.7194 200.421 76.7921 200.421 78.1431C200.421 79.5683 200.688 80.7004 201.222 81.5392C201.757 82.3706 202.544 82.7863 203.583 82.7863ZM220.008 72.5311C220.082 72.5311 220.141 72.5534 220.186 72.5979C220.231 72.6425 220.253 72.7019 220.253 72.7761V73.7894C220.253 73.9527 220.171 74.0343 220.008 74.0343H216.311L216.255 78.0763L216.333 83.755C216.333 83.9183 216.252 84 216.088 84H214.452C214.288 84 214.207 83.9183 214.207 83.755L214.285 78.0763L214.229 74.0343H210.543C210.469 74.0343 210.41 74.0121 210.365 73.9675C210.321 73.923 210.298 73.8636 210.298 73.7894V72.7761C210.298 72.6128 210.38 72.5311 210.543 72.5311H220.008ZM223.875 76.8403H225.857C229.101 76.8403 230.723 78.0206 230.723 80.3812C230.723 82.7937 229.101 84 225.857 84H222.038C221.882 84 221.804 83.9183 221.804 83.755L221.871 78.466L221.804 72.7761C221.804 72.6128 221.882 72.5311 222.038 72.5311H223.686C223.849 72.5311 223.931 72.6128 223.931 72.7761L223.875 76.8403ZM223.864 78.2544L223.909 82.5859H225.857C226.755 82.5859 227.442 82.4189 227.917 82.0848C228.392 81.7433 228.63 81.1977 228.63 80.448C228.63 79.7131 228.4 79.1638 227.939 78.8C227.487 78.4363 226.793 78.2544 225.857 78.2544H223.864ZM24.7254 92.0211C25.7276 92.0211 26.5775 92.2586 27.2753 92.7337C27.9805 93.2088 28.5076 93.862 28.8565 94.6934C29.2053 95.5248 29.3798 96.4713 29.3798 97.5328C29.3798 98.6686 29.1682 99.667 28.7451 100.528C28.322 101.382 27.7133 102.046 26.919 102.521C26.1247 102.989 25.1857 103.223 24.1019 103.223C22.9587 103.223 21.9974 102.948 21.218 102.399C20.4385 101.849 19.8521 101.059 19.4587 100.027C19.0727 98.9952 18.8797 97.7592 18.8797 96.3191C18.8797 93.914 19.2582 92.0396 20.0154 90.696C20.7726 89.3524 21.9863 88.5062 23.6565 88.1573C23.9608 88.0905 24.3431 88.0237 24.8034 87.9568C25.271 87.89 25.735 87.8307 26.1952 87.7787C27.3087 87.6451 28.0956 87.5337 28.5558 87.4446H28.6004C28.7488 87.4446 28.8231 87.5226 28.8231 87.6785V88.792C28.8231 88.9478 28.7525 89.0369 28.6115 89.0592C28.0696 89.178 27.2345 89.3005 26.1062 89.4266C25.0595 89.5528 24.3357 89.6605 23.9349 89.7496C22.8362 89.9945 22.0345 90.5327 21.5297 91.3641C21.025 92.1881 20.7206 93.3053 20.6167 94.7157C20.973 93.8843 21.4926 93.2273 22.1756 92.7448C22.8585 92.2623 23.7085 92.0211 24.7254 92.0211ZM24.113 101.797C25.1226 101.797 25.902 101.434 26.4513 100.706C27.0081 99.9713 27.2864 98.9543 27.2864 97.6553C27.2864 96.3488 27.0192 95.3244 26.4847 94.5821C25.9577 93.8323 25.2005 93.4575 24.2132 93.4575C23.56 93.4575 22.9921 93.6208 22.5096 93.9474C22.0271 94.274 21.6522 94.7528 21.385 95.3838C21.1252 96.0148 20.9953 96.7719 20.9953 97.6553C20.9953 98.4867 21.114 99.2142 21.3516 99.8377C21.5891 100.454 21.9417 100.936 22.4094 101.285C22.8771 101.627 23.4449 101.797 24.113 101.797ZM36.3119 103.256C35.1613 103.256 34.1777 103.011 33.3612 102.521C32.5446 102.031 31.9211 101.337 31.4905 100.439C31.0674 99.5408 30.8559 98.4904 30.8559 97.2878C30.8559 96.0778 31.0674 95.0238 31.4905 94.1255C31.9211 93.2199 32.5446 92.5184 33.3612 92.0211C34.1852 91.5237 35.1687 91.275 36.3119 91.275C37.4551 91.275 38.435 91.52 39.2515 92.0099C40.0681 92.4999 40.6879 93.1976 41.111 94.1033C41.5341 95.0015 41.7457 96.0519 41.7457 97.2544C41.7457 98.4644 41.5341 99.5222 41.111 100.428C40.6879 101.326 40.0681 102.024 39.2515 102.521C38.435 103.011 37.4551 103.256 36.3119 103.256ZM36.3119 101.831C37.4106 101.831 38.2345 101.441 38.7838 100.662C39.3406 99.8822 39.619 98.7576 39.619 97.2878C39.619 95.8255 39.3369 94.6971 38.7727 93.9028C38.216 93.1011 37.392 92.7003 36.3008 92.7003C35.1947 92.7077 34.3633 93.1086 33.8066 93.9028C33.2498 94.6971 32.9715 95.8292 32.9715 97.299C32.9715 98.7613 33.2536 99.8822 33.8177 100.662C34.3819 101.441 35.2133 101.831 36.3119 101.831ZM42.913 103.167C42.6457 103.167 42.3933 103.134 42.1558 103.067C42.0222 103.037 41.9554 102.948 41.9554 102.8V101.864C41.9554 101.716 42.0185 101.642 42.1447 101.642C42.2115 101.642 42.2746 101.649 42.3339 101.664C42.4008 101.671 42.4676 101.675 42.5344 101.675C42.8387 101.675 43.08 101.608 43.2581 101.475C43.4363 101.333 43.5736 101.096 43.6701 100.762C43.774 100.428 43.8557 99.9528 43.9151 99.3366C43.9819 98.6092 44.0487 97.5254 44.1155 96.0853C44.1823 94.6452 44.238 93.2088 44.2825 91.7761C44.29 91.7019 44.3159 91.6425 44.3605 91.5979C44.405 91.5534 44.4644 91.5311 44.5386 91.5311H52.0881C52.2514 91.5311 52.333 91.6128 52.333 91.7761L52.2996 97.1876L52.3998 102.755C52.3998 102.918 52.3182 103 52.1549 103L50.5514 103.011C50.3881 103.011 50.3065 102.929 50.3065 102.766L50.3399 97.1876L50.2731 93.0232H46.0307C45.8897 96.1855 45.7746 98.3382 45.6855 99.4814C45.6113 100.328 45.4851 101.014 45.3069 101.541C45.1288 102.068 44.8504 102.473 44.4718 102.755C44.0932 103.03 43.5736 103.167 42.913 103.167ZM56.7624 95.8403H58.7444C61.9884 95.8403 63.6103 97.0206 63.6103 99.3812C63.6103 101.794 61.9884 103 58.7444 103H54.9252C54.7693 103 54.6913 102.918 54.6913 102.755L54.7581 97.466L54.6913 91.7761C54.6913 91.6128 54.7693 91.5311 54.9252 91.5311H56.5731C56.7364 91.5311 56.8181 91.6128 56.8181 91.7761L56.7624 95.8403ZM56.7513 97.2544L56.7958 101.586H58.7444C59.6426 101.586 60.3293 101.419 60.8044 101.085C61.2794 100.743 61.517 100.198 61.517 99.448C61.517 98.7131 61.2869 98.1638 60.8266 97.8C60.3738 97.4363 59.6797 97.2544 58.7444 97.2544H56.7513ZM78.2037 91.7761C78.2037 91.6128 78.2854 91.5311 78.4487 91.5311H80.0967C80.2525 91.5311 80.3305 91.6128 80.3305 91.7761L80.2637 97.466L80.3305 102.755C80.3305 102.918 80.2525 103 80.0967 103H65.5546C65.3987 103 65.3207 102.918 65.3207 102.755L65.3876 97.466L65.3207 91.7761C65.3207 91.6128 65.3987 91.5311 65.5546 91.5311H67.2025C67.3658 91.5311 67.4475 91.6128 67.4475 91.7761L67.3696 97.466L67.4252 101.497H71.7901L71.8346 97.466L71.7678 91.7761C71.7678 91.6128 71.8458 91.5311 72.0016 91.5311H73.6496C73.8129 91.5311 73.8946 91.6128 73.8946 91.7761L73.8166 97.466L73.8723 101.497H78.226L78.2817 97.466L78.2037 91.7761ZM87.6708 103.256C86.4979 103.256 85.4995 103.007 84.6755 102.51C83.859 102.013 83.2391 101.315 82.816 100.417C82.3929 99.5185 82.1813 98.4793 82.1813 97.299C82.1813 96.1038 82.3929 95.0534 82.816 94.1478C83.2465 93.2422 83.8664 92.537 84.6755 92.0322C85.4846 91.5274 86.4459 91.275 87.5594 91.275C88.6581 91.275 89.6008 91.5126 90.3877 91.9877C91.182 92.4627 91.7907 93.1494 92.2138 94.0476C92.6443 94.9458 92.8745 96.0185 92.9041 97.2656C92.9041 97.4363 92.8225 97.5217 92.6592 97.5217H84.2747C84.3415 100.394 85.4809 101.831 87.693 101.831C88.5244 101.831 89.1925 101.612 89.6973 101.174C90.2095 100.728 90.551 100.083 90.7217 99.2364C90.7588 99.088 90.8479 99.0137 90.989 99.0137H92.4588C92.5404 99.0137 92.6035 99.0323 92.648 99.0694C92.6926 99.1065 92.7111 99.1622 92.7037 99.2364C92.5775 100.031 92.2992 100.732 91.8686 101.341C91.4455 101.942 90.8776 102.414 90.165 102.755C89.4523 103.089 88.6209 103.256 87.6708 103.256ZM90.6883 96.1298C90.666 95.4914 90.5324 94.9124 90.2875 94.3928C90.0425 93.8657 89.6899 93.45 89.2297 93.1457C88.7694 92.8413 88.2164 92.6892 87.5706 92.6892C86.6278 92.6892 85.8855 92.9898 85.3436 93.5911C84.8017 94.1849 84.4639 95.0312 84.3303 96.1298H90.6883ZM107.941 91.5311C108.104 91.5311 108.186 91.6128 108.186 91.7761L108.108 97.0763L108.186 102.755C108.186 102.918 108.104 103 107.941 103H106.293C106.137 103 106.059 102.918 106.059 102.755L106.126 97.0763L106.081 93.0343H100.792L100.737 97.0763L100.815 102.755C100.815 102.918 100.733 103 100.57 103H98.9216C98.7658 103 98.6878 102.918 98.6878 102.755L98.7546 97.0763L98.6878 91.7761C98.6878 91.6128 98.7658 91.5311 98.9216 91.5311H107.941ZM115.514 103.256C114.341 103.256 113.343 103.007 112.519 102.51C111.702 102.013 111.082 101.315 110.659 100.417C110.236 99.5185 110.024 98.4793 110.024 97.299C110.024 96.1038 110.236 95.0534 110.659 94.1478C111.09 93.2422 111.71 92.537 112.519 92.0322C113.328 91.5274 114.289 91.275 115.403 91.275C116.501 91.275 117.444 91.5126 118.231 91.9877C119.025 92.4627 119.634 93.1494 120.057 94.0476C120.487 94.9458 120.718 96.0185 120.747 97.2656C120.747 97.4363 120.666 97.5217 120.502 97.5217H112.118C112.185 100.394 113.324 101.831 115.536 101.831C116.368 101.831 117.036 101.612 117.54 101.174C118.053 100.728 118.394 100.083 118.565 99.2364C118.602 99.088 118.691 99.0137 118.832 99.0137H120.302C120.384 99.0137 120.447 99.0323 120.491 99.0694C120.536 99.1065 120.554 99.1622 120.547 99.2364C120.421 100.031 120.142 100.732 119.712 101.341C119.289 101.942 118.721 102.414 118.008 102.755C117.296 103.089 116.464 103.256 115.514 103.256ZM118.531 96.1298C118.509 95.4914 118.376 94.9124 118.131 94.3928C117.886 93.8657 117.533 93.45 117.073 93.1457C116.613 92.8413 116.06 92.6892 115.414 92.6892C114.471 92.6892 113.729 92.9898 113.187 93.5911C112.645 94.1849 112.307 95.0312 112.173 96.1298H118.531ZM128.224 91.2973C129.226 91.2973 130.084 91.5571 130.796 92.0767C131.509 92.5889 132.047 93.2941 132.411 94.1924C132.782 95.0906 132.967 96.1038 132.967 97.2322C132.967 98.3456 132.774 99.3589 132.388 100.272C132.01 101.178 131.461 101.898 130.74 102.432C130.02 102.959 129.17 103.223 128.191 103.223C127.381 103.223 126.676 103.052 126.075 102.71C125.474 102.362 124.987 101.857 124.616 101.196L124.661 106.541C124.661 106.704 124.579 106.786 124.416 106.786H122.768C122.605 106.786 122.523 106.704 122.523 106.541L122.612 97.9782L122.534 91.7761C122.534 91.6128 122.612 91.5311 122.768 91.5311H124.371C124.535 91.5311 124.616 91.6165 124.616 91.7872L124.561 93.4575C124.947 92.7745 125.448 92.2438 126.064 91.8652C126.687 91.4866 127.407 91.2973 128.224 91.2973ZM127.656 101.786C128.718 101.786 129.519 101.389 130.061 100.595C130.611 99.8006 130.885 98.7279 130.885 97.3769C130.885 95.9591 130.614 94.8345 130.072 94.0031C129.538 93.1642 128.747 92.7448 127.701 92.7448C126.699 92.7448 125.915 93.1271 125.351 93.8917C124.787 94.6563 124.505 95.7698 124.505 97.2322C124.505 98.6797 124.78 99.8006 125.329 100.595C125.886 101.389 126.661 101.786 127.656 101.786ZM139.926 103.256C138.753 103.256 137.755 103.007 136.931 102.51C136.114 102.013 135.495 101.315 135.071 100.417C134.648 99.5185 134.437 98.4793 134.437 97.299C134.437 96.1038 134.648 95.0534 135.071 94.1478C135.502 93.2422 136.122 92.537 136.931 92.0322C137.74 91.5274 138.701 91.275 139.815 91.275C140.913 91.275 141.856 91.5126 142.643 91.9877C143.437 92.4627 144.046 93.1494 144.469 94.0476C144.9 94.9458 145.13 96.0185 145.16 97.2656C145.16 97.4363 145.078 97.5217 144.915 97.5217H136.53C136.597 100.394 137.736 101.831 139.948 101.831C140.78 101.831 141.448 101.612 141.953 101.174C142.465 100.728 142.806 100.083 142.977 99.2364C143.014 99.088 143.103 99.0137 143.244 99.0137H144.714C144.796 99.0137 144.859 99.0323 144.903 99.0694C144.948 99.1065 144.967 99.1622 144.959 99.2364C144.833 100.031 144.555 100.732 144.124 101.341C143.701 101.942 143.133 102.414 142.42 102.755C141.708 103.089 140.876 103.256 139.926 103.256ZM142.944 96.1298C142.921 95.4914 142.788 94.9124 142.543 94.3928C142.298 93.8657 141.945 93.45 141.485 93.1457C141.025 92.8413 140.472 92.6892 139.826 92.6892C138.883 92.6892 138.141 92.9898 137.599 93.5911C137.057 94.1849 136.719 95.0312 136.586 96.1298H142.944ZM145.583 105.728C145.509 105.728 145.449 105.706 145.405 105.661C145.36 105.617 145.338 105.557 145.338 105.483V101.764C145.338 101.69 145.36 101.63 145.405 101.586C145.449 101.541 145.509 101.519 145.583 101.519H146.24C146.537 101.2 146.767 100.792 146.93 100.294C147.101 99.7969 147.231 99.1696 147.32 98.4125C147.409 97.6553 147.487 96.6717 147.554 95.4617C147.628 94.2443 147.684 93.0158 147.721 91.7761C147.728 91.7019 147.754 91.6425 147.799 91.5979C147.843 91.5534 147.903 91.5311 147.977 91.5311H155.404C155.567 91.5311 155.649 91.6128 155.649 91.7761L155.66 96.9092L155.805 101.519L156.996 101.508C157.167 101.508 157.252 101.59 157.252 101.753V105.483C157.252 105.557 157.23 105.617 157.185 105.661C157.141 105.706 157.078 105.728 156.996 105.728H155.671C155.597 105.728 155.537 105.706 155.493 105.661C155.448 105.617 155.426 105.557 155.426 105.483L155.37 103H147.242L147.186 105.483C147.186 105.557 147.164 105.617 147.119 105.661C147.075 105.706 147.016 105.728 146.941 105.728H145.583ZM153.756 101.519L153.745 96.9092L153.656 93.0343H149.458C149.369 95.3726 149.246 97.1802 149.09 98.457C149.009 99.1845 148.897 99.7783 148.756 100.239C148.623 100.699 148.444 101.126 148.222 101.519H153.756ZM28.5113 109.531C28.6746 109.531 28.7562 109.613 28.7562 109.776L28.6783 115.076L28.7562 120.755C28.7562 120.918 28.6746 121 28.5113 121H26.8633C26.7074 121 26.6295 120.918 26.6295 120.755L26.6963 115.076L26.6518 111.034H21.3627L21.307 115.076L21.385 120.755C21.385 120.918 21.3033 121 21.14 121H19.4921C19.3362 121 19.2582 120.918 19.2582 120.755L19.325 115.076L19.2582 109.776C19.2582 109.613 19.3362 109.531 19.4921 109.531H28.5113ZM36.0509 121.256C34.9003 121.256 33.9168 121.011 33.1002 120.521C32.2837 120.031 31.6601 119.337 31.2296 118.439C30.8064 117.541 30.5949 116.49 30.5949 115.288C30.5949 114.078 30.8064 113.024 31.2296 112.126C31.6601 111.22 32.2837 110.518 33.1002 110.021C33.9242 109.524 34.9078 109.275 36.0509 109.275C37.1941 109.275 38.174 109.52 38.9905 110.01C39.8071 110.5 40.4269 111.198 40.8501 112.103C41.2732 113.001 41.4847 114.052 41.4847 115.254C41.4847 116.464 41.2732 117.522 40.8501 118.428C40.4269 119.326 39.8071 120.024 38.9905 120.521C38.174 121.011 37.1941 121.256 36.0509 121.256ZM36.0509 119.831C37.1496 119.831 37.9736 119.441 38.5229 118.662C39.0796 117.882 39.358 116.758 39.358 115.288C39.358 113.825 39.0759 112.697 38.5117 111.903C37.955 111.101 37.131 110.7 36.0398 110.7C34.9338 110.708 34.1024 111.109 33.5456 111.903C32.9889 112.697 32.7105 113.829 32.7105 115.299C32.7105 116.761 32.9926 117.882 33.5567 118.662C34.1209 119.441 34.9523 119.831 36.0509 119.831ZM48.3205 121.256C47.1847 121.256 46.2123 121.015 45.4032 120.532C44.6014 120.042 43.989 119.348 43.5659 118.45C43.1502 117.552 42.9424 116.502 42.9424 115.299C42.9424 114.089 43.1502 113.031 43.5659 112.126C43.989 111.22 44.6089 110.518 45.4254 110.021C46.242 109.524 47.2218 109.275 48.365 109.275C49.2855 109.275 50.0909 109.438 50.7813 109.765C51.4716 110.092 52.021 110.556 52.4292 111.157C52.8375 111.751 53.0899 112.445 53.1864 113.239V113.284C53.1864 113.425 53.1085 113.495 52.9526 113.495H51.5384C51.39 113.495 51.3046 113.421 51.2823 113.272C51.1339 112.434 50.7961 111.799 50.2691 111.368C49.7494 110.93 49.1148 110.711 48.365 110.711C47.259 110.719 46.4313 111.116 45.882 111.903C45.3401 112.69 45.0691 113.818 45.0691 115.288C45.0691 116.78 45.3401 117.912 45.882 118.684C46.4313 119.449 47.2627 119.831 48.3762 119.831C49.2076 119.831 49.8942 119.578 50.4361 119.074C50.9854 118.569 51.3083 117.856 51.4048 116.936C51.4271 116.78 51.5125 116.702 51.6609 116.702H53.0973C53.2755 116.702 53.3571 116.776 53.3423 116.925C53.2532 117.771 52.9971 118.521 52.574 119.174C52.1509 119.827 51.5756 120.339 50.8481 120.71C50.1206 121.074 49.2781 121.256 48.3205 121.256ZM63.3939 109.531C63.4681 109.531 63.5275 109.553 63.5721 109.598C63.6166 109.642 63.6389 109.702 63.6389 109.776V110.789C63.6389 110.953 63.5572 111.034 63.3939 111.034H59.6971L59.6415 115.076L59.7194 120.755C59.7194 120.918 59.6378 121 59.4744 121H57.8376C57.6743 121 57.5927 120.918 57.5927 120.755L57.6706 115.076L57.6149 111.034H53.9293C53.8551 111.034 53.7957 111.012 53.7511 110.968C53.7066 110.923 53.6843 110.864 53.6843 110.789V109.776C53.6843 109.613 53.766 109.531 53.9293 109.531H63.3939ZM68.947 121.033L64.4597 109.821L64.4374 109.72C64.4374 109.661 64.456 109.616 64.4931 109.587C64.5377 109.55 64.5933 109.531 64.6601 109.531H66.464C66.605 109.531 66.6978 109.598 66.7424 109.732L69.9603 118.361L72.7106 109.743C72.7477 109.602 72.8368 109.531 72.9779 109.531H74.5924C74.7409 109.531 74.8151 109.594 74.8151 109.72L74.7928 109.821L69.6485 124.585C69.604 124.719 69.5149 124.786 69.3813 124.786H67.9226C67.8484 124.786 67.7927 124.767 67.7556 124.73C67.7185 124.7 67.6999 124.656 67.6999 124.597C67.6999 124.574 67.7074 124.541 67.7222 124.496L68.947 121.033ZM85.3119 109.531C85.4752 109.531 85.5569 109.613 85.5569 109.776L85.479 115.076L85.5569 120.755C85.5569 120.918 85.4752 121 85.3119 121H83.664C83.5081 121 83.4301 120.918 83.4301 120.755L83.497 115.076L83.4524 111.034H78.1634L78.1077 115.076L78.1856 120.755C78.1856 120.918 78.104 121 77.9407 121H76.2927C76.1368 121 76.0589 120.918 76.0589 120.755L76.1257 115.076L76.0589 109.776C76.0589 109.613 76.1368 109.531 76.2927 109.531H85.3119ZM87.8446 121.167C87.5774 121.167 87.325 121.134 87.0874 121.067C86.9538 121.037 86.887 120.948 86.887 120.8V119.864C86.887 119.716 86.9501 119.642 87.0763 119.642C87.1431 119.642 87.2062 119.649 87.2656 119.664C87.3324 119.671 87.3992 119.675 87.466 119.675C87.7704 119.675 88.0116 119.608 88.1898 119.475C88.3679 119.333 88.5053 119.096 88.6018 118.762C88.7057 118.428 88.7873 117.953 88.8467 117.337C88.9135 116.609 88.9803 115.525 89.0471 114.085C89.114 112.645 89.1696 111.209 89.2142 109.776C89.2216 109.702 89.2476 109.642 89.2921 109.598C89.3367 109.553 89.396 109.531 89.4703 109.531H97.0197C97.183 109.531 97.2647 109.613 97.2647 109.776L97.2312 115.188L97.3315 120.755C97.3315 120.918 97.2498 121 97.0865 121L95.4831 121.011C95.3198 121.011 95.2381 120.929 95.2381 120.766L95.2715 115.188L95.2047 111.023H90.9623C90.8213 114.185 90.7062 116.338 90.6172 117.481C90.5429 118.328 90.4167 119.014 90.2386 119.541C90.0604 120.068 89.782 120.473 89.4035 120.755C89.0249 121.03 88.5053 121.167 87.8446 121.167ZM104.667 121.256C103.494 121.256 102.496 121.007 101.672 120.51C100.855 120.013 100.235 119.315 99.8123 118.417C99.3891 117.519 99.1776 116.479 99.1776 115.299C99.1776 114.104 99.3891 113.053 99.8123 112.148C100.243 111.242 100.863 110.537 101.672 110.032C102.481 109.527 103.442 109.275 104.556 109.275C105.654 109.275 106.597 109.513 107.384 109.988C108.178 110.463 108.787 111.149 109.21 112.048C109.641 112.946 109.871 114.018 109.9 115.266C109.9 115.436 109.819 115.522 109.655 115.522H101.271C101.338 118.394 102.477 119.831 104.689 119.831C105.521 119.831 106.189 119.612 106.694 119.174C107.206 118.728 107.547 118.083 107.718 117.236C107.755 117.088 107.844 117.014 107.985 117.014H109.455C109.537 117.014 109.6 117.032 109.644 117.069C109.689 117.107 109.707 117.162 109.7 117.236C109.574 118.031 109.295 118.732 108.865 119.341C108.442 119.942 107.874 120.414 107.161 120.755C106.449 121.089 105.617 121.256 104.667 121.256ZM107.685 114.13C107.662 113.491 107.529 112.912 107.284 112.393C107.039 111.866 106.686 111.45 106.226 111.146C105.766 110.841 105.213 110.689 104.567 110.689C103.624 110.689 102.882 110.99 102.34 111.591C101.798 112.185 101.46 113.031 101.327 114.13H107.685ZM119.259 109.776C119.259 109.613 119.337 109.531 119.493 109.531H121.096C121.259 109.531 121.341 109.613 121.341 109.776L121.263 115.076L121.341 120.755C121.341 120.918 121.259 121 121.096 121H119.493C119.337 121 119.259 120.918 119.259 120.755L119.315 115.678H113.725L113.792 120.755C113.792 120.918 113.71 121 113.547 121H111.943C111.787 121 111.709 120.918 111.709 120.755L111.776 115.076L111.709 109.776C111.709 109.613 111.787 109.531 111.943 109.531H113.547C113.71 109.531 113.792 109.613 113.792 109.776L113.736 114.174H119.315L119.259 109.776ZM123.867 121C123.711 121 123.633 120.918 123.633 120.755L123.7 115.076L123.622 109.776C123.622 109.613 123.7 109.531 123.856 109.531H125.459C125.623 109.531 125.704 109.613 125.704 109.776L125.671 114.865L125.615 118.762L130.926 109.709C130.978 109.591 131.079 109.531 131.227 109.531H133.198C133.361 109.531 133.443 109.613 133.443 109.776L133.365 115.076L133.443 120.755C133.443 120.918 133.361 121 133.198 121H131.606C131.442 121 131.361 120.918 131.361 120.755L131.405 115.355L131.439 111.836L126.172 120.822C126.105 120.941 126.005 121 125.871 121H123.867ZM140.774 121.256C139.601 121.256 138.603 121.007 137.779 120.51C136.963 120.013 136.343 119.315 135.92 118.417C135.496 117.519 135.285 116.479 135.285 115.299C135.285 114.104 135.496 113.053 135.92 112.148C136.35 111.242 136.97 110.537 137.779 110.032C138.588 109.527 139.549 109.275 140.663 109.275C141.762 109.275 142.704 109.513 143.491 109.988C144.286 110.463 144.894 111.149 145.317 112.048C145.748 112.946 145.978 114.018 146.008 115.266C146.008 115.436 145.926 115.522 145.763 115.522H137.378C137.445 118.394 138.584 119.831 140.797 119.831C141.628 119.831 142.296 119.612 142.801 119.174C143.313 118.728 143.655 118.083 143.825 117.236C143.862 117.088 143.951 117.014 144.093 117.014H145.562C145.644 117.014 145.707 117.032 145.752 117.069C145.796 117.107 145.815 117.162 145.807 117.236C145.681 118.031 145.403 118.732 144.972 119.341C144.549 119.942 143.981 120.414 143.269 120.755C142.556 121.089 141.724 121.256 140.774 121.256ZM143.792 114.13C143.77 113.491 143.636 112.912 143.391 112.393C143.146 111.866 142.793 111.45 142.333 111.146C141.873 110.841 141.32 110.689 140.674 110.689C139.731 110.689 138.989 110.99 138.447 111.591C137.905 112.185 137.567 113.031 137.434 114.13H143.792ZM148.051 121C147.895 121 147.817 120.918 147.817 120.755L147.884 115.377L147.828 109.776C147.828 109.613 147.906 109.531 148.062 109.531H150.122C150.263 109.531 150.355 109.598 150.4 109.732L153.863 118.651L157.359 109.732C157.404 109.598 157.497 109.531 157.638 109.531H159.72C159.876 109.531 159.954 109.613 159.954 109.776L159.887 115.377L159.954 120.755C159.954 120.918 159.876 121 159.72 121H158.217C158.142 121 158.083 120.978 158.039 120.933C157.994 120.889 157.972 120.829 157.972 120.755L157.983 115.622L158.016 111.825L154.542 120.8C154.498 120.933 154.405 121 154.264 121H153.217C153.084 121 152.991 120.933 152.939 120.8L149.42 111.769L149.476 115.622L149.509 120.755C149.509 120.918 149.424 121 149.253 121H148.051Z" fill="#787878"/>
<path d="M37.5373 48.7316C37.5485 48.754 37.5541 48.7875 37.5541 48.8323C37.5541 48.9441 37.487 49 37.3528 49H33.5953C33.4499 49 33.3604 48.9385 33.3269 48.8155L31.1965 42.4579H22.0041L19.9408 48.8155C19.9073 48.9385 19.8178 49 19.6724 49H15.982C15.9037 49 15.8478 48.9776 15.8143 48.9329C15.7695 48.8882 15.7639 48.8211 15.7975 48.7316L23.9331 25.7002C23.9891 25.5771 24.0785 25.5156 24.2015 25.5156H29.2675C29.4016 25.5156 29.4855 25.5771 29.5191 25.7002L37.5373 48.7316ZM23.0273 39.1869H30.1565L26.5332 28.317L23.0273 39.1869ZM46.6886 32.3932C48.2542 32.3932 49.5738 32.7567 50.6474 33.4835C51.7321 34.2104 52.5373 35.2001 53.0629 36.4526C53.5997 37.694 53.8681 39.0974 53.8681 40.6631C53.8681 42.4188 53.5326 43.9565 52.8616 45.2761C52.1907 46.5845 51.2233 47.5965 49.9596 48.3122C48.696 49.028 47.2086 49.3858 45.4976 49.3858C42.8137 49.3858 40.756 48.48 39.3246 46.6683C37.8931 44.8455 37.1774 42.1839 37.1774 38.6837C37.1774 35.161 37.8037 32.3764 39.0562 30.3299C40.3087 28.2834 42.2657 27.0086 44.9273 26.5053C45.7213 26.36 46.9626 26.2034 48.6512 26.0357C48.8637 26.0133 49.4173 25.9574 50.3119 25.8679C51.2177 25.7673 51.9949 25.6554 52.6436 25.5324H52.6939C52.8281 25.5324 52.8952 25.5995 52.8952 25.7337V28.4009C52.8952 28.468 52.8784 28.5239 52.8449 28.5686C52.8113 28.6133 52.761 28.6413 52.6939 28.6525C52.1459 28.7755 51.5364 28.8817 50.8655 28.9712C50.2057 29.0495 49.3781 29.1389 48.3828 29.2396C46.985 29.385 46.0064 29.508 45.4473 29.6086C43.8817 29.9106 42.7186 30.5983 41.9582 31.6719C41.2089 32.7343 40.7392 34.1993 40.5491 36.0668C41.1306 34.915 41.9358 34.0147 42.9647 33.3661C43.9935 32.7175 45.2348 32.3932 46.6886 32.3932ZM45.5144 46.6348C46.8787 46.6348 47.9243 46.1427 48.6512 45.1586C49.3893 44.1745 49.7583 42.7655 49.7583 40.9314C49.7583 39.0974 49.3949 37.6772 48.668 36.6707C47.9523 35.6531 46.9234 35.1442 45.5815 35.1442C44.698 35.1442 43.932 35.3735 43.2834 35.832C42.6348 36.2793 42.1371 36.9391 41.7904 37.8114C41.4438 38.6725 41.2704 39.7125 41.2704 40.9314C41.2704 42.7319 41.6339 44.1354 42.3608 45.1419C43.0988 46.1371 44.1501 46.6348 45.5144 46.6348ZM55.6984 49C55.5418 49 55.4635 48.9217 55.4635 48.7652L55.5306 39.9753L55.4635 31.9571C55.4635 31.8005 55.5418 31.7222 55.6984 31.7222H59.2713C59.4279 31.7222 59.5062 31.8005 59.5062 31.9571L59.4559 40.2437L59.372 44.6386L66.4341 31.89C66.4788 31.7781 66.5683 31.7222 66.7025 31.7222H70.9632C71.1198 31.7222 71.198 31.8005 71.198 31.9571L71.1477 40.2269L71.198 48.7652C71.198 48.9217 71.1198 49 70.9632 49H67.4238C67.2672 49 67.1889 48.9217 67.1889 48.7652L67.2392 40.2269L67.3231 36.1842L60.2946 48.8323C60.2499 48.9441 60.1604 49 60.0262 49H55.6984ZM88.0502 31.7222C88.1173 31.7222 88.1732 31.7446 88.2179 31.7893C88.2626 31.8229 88.285 31.8788 88.285 31.9571V34.3726C88.285 34.4509 88.2626 34.5124 88.2179 34.5571C88.1732 34.5907 88.1173 34.6074 88.0502 34.6074H82.4307L82.3971 40.2269L82.4642 48.7652C82.4642 48.9217 82.386 49 82.2294 49H78.6061C78.4495 49 78.3713 48.9217 78.3713 48.7652L78.4216 40.2269L78.388 34.6074H72.8021C72.6455 34.6074 72.5673 34.5292 72.5673 34.3726V31.9571C72.5673 31.8005 72.6455 31.7222 72.8021 31.7222H88.0502ZM96.0123 49.1006L89.1347 31.9906C89.1236 31.9682 89.118 31.9347 89.118 31.89C89.118 31.7781 89.1851 31.7222 89.3193 31.7222H93.3619C93.4961 31.7222 93.5912 31.7837 93.6471 31.9067L97.9917 43.9509L101.665 31.9067C101.699 31.7837 101.783 31.7222 101.917 31.7222H105.557C105.747 31.7222 105.809 31.8117 105.742 31.9906L97.9582 54.5188C97.9022 54.6418 97.8128 54.7033 97.6898 54.7033H94.3348C94.1447 54.7033 94.0832 54.6139 94.1503 54.435L96.0123 49.1006ZM115.995 31.37C117.538 31.37 118.858 31.7614 119.954 32.5442C121.061 33.3158 121.894 34.3782 122.453 35.7313C123.024 37.0845 123.309 38.611 123.309 40.3108C123.309 41.9882 123.013 43.5147 122.42 44.8902C121.827 46.2546 120.972 47.3393 119.853 48.1445C118.735 48.9385 117.427 49.3355 115.928 49.3355C114.799 49.3355 113.798 49.1174 112.925 48.6813C112.053 48.234 111.332 47.5853 110.762 46.7354L110.812 54.4685C110.812 54.6251 110.734 54.7033 110.577 54.7033H106.954C106.797 54.7033 106.719 54.6251 106.719 54.4685L106.786 41.7031L106.719 31.9571C106.719 31.8005 106.797 31.7222 106.954 31.7222H110.544C110.711 31.7222 110.784 31.8005 110.762 31.9571L110.694 34.2049C111.287 33.299 112.031 32.6001 112.925 32.108C113.831 31.616 114.855 31.37 115.995 31.37ZM114.821 46.5845C116.264 46.5845 117.354 46.0589 118.092 45.0077C118.83 43.9453 119.199 42.4579 119.199 40.5456C119.199 38.5215 118.836 36.9503 118.109 35.832C117.382 34.7137 116.314 34.1545 114.905 34.1545C113.529 34.1545 112.467 34.6801 111.718 35.7313C110.968 36.7825 110.594 38.3202 110.594 40.3443C110.594 42.3349 110.957 43.8726 111.684 44.9573C112.422 46.0421 113.468 46.5845 114.821 46.5845ZM125.153 49C124.996 49 124.918 48.9217 124.918 48.7652L124.985 39.9753L124.918 31.9571C124.918 31.8005 124.996 31.7222 125.153 31.7222H128.726C128.882 31.7222 128.961 31.8005 128.961 31.9571L128.91 40.2437L128.826 44.6386L135.889 31.89C135.933 31.7781 136.023 31.7222 136.157 31.7222H140.418C140.574 31.7222 140.653 31.8005 140.653 31.9571L140.602 40.2269L140.653 48.7652C140.653 48.9217 140.574 49 140.418 49H136.878C136.722 49 136.643 48.9217 136.643 48.7652L136.694 40.2269L136.778 36.1842L129.749 48.8323C129.704 48.9441 129.615 49 129.481 49H125.153ZM150.811 49.4026C148.988 49.4026 147.434 49.028 146.147 48.2787C144.861 47.5182 143.889 46.4615 143.229 45.1083C142.569 43.7552 142.239 42.1895 142.239 40.4114C142.239 38.5998 142.574 37.0118 143.245 35.6475C143.928 34.272 144.906 33.2096 146.181 32.4603C147.456 31.6999 148.954 31.3196 150.677 31.3196C152.444 31.3196 153.953 31.6999 155.206 32.4603C156.469 33.2207 157.437 34.3111 158.108 35.7313C158.779 37.1516 159.125 38.8458 159.148 40.814C159.148 40.9706 159.069 41.0489 158.913 41.0489H146.298C146.377 42.9612 146.796 44.3814 147.557 45.3096C148.317 46.2266 149.419 46.6851 150.861 46.6851C153.042 46.6851 154.373 45.55 154.853 43.2799C154.876 43.1457 154.954 43.0786 155.088 43.0786H158.527C158.594 43.0786 158.65 43.0954 158.695 43.1289C158.751 43.1625 158.773 43.2016 158.762 43.2463C158.617 44.4094 158.208 45.4606 157.537 46.3999C156.866 47.3281 155.955 48.0606 154.803 48.5974C153.651 49.1342 152.321 49.4026 150.811 49.4026ZM154.803 38.432C154.747 37.6157 154.557 36.8776 154.233 36.2178C153.92 35.5468 153.461 35.0156 152.857 34.6242C152.265 34.2216 151.543 34.0203 150.693 34.0203C149.486 34.0203 148.518 34.4006 147.791 35.161C147.076 35.9103 146.617 37.0006 146.416 38.432H154.803ZM172.016 31.9571C172.016 31.8005 172.094 31.7222 172.25 31.7222H175.874C176.03 31.7222 176.109 31.8005 176.109 31.9571L176.058 40.2269L176.109 48.7652C176.109 48.9217 176.03 49 175.874 49H172.25C172.094 49 172.016 48.9217 172.016 48.7652L172.066 41.334H164.769L164.819 48.7652C164.819 48.9217 164.741 49 164.585 49H160.961C160.805 49 160.726 48.9217 160.726 48.7652L160.793 40.2269L160.726 31.9571C160.726 31.8005 160.805 31.7222 160.961 31.7222H164.585C164.741 31.7222 164.819 31.8005 164.819 31.9571L164.769 38.4488H172.066L172.016 31.9571ZM192.953 31.7222C193.02 31.7222 193.076 31.7446 193.12 31.7893C193.165 31.8229 193.187 31.8788 193.187 31.9571V34.3726C193.187 34.4509 193.165 34.5124 193.12 34.5571C193.076 34.5907 193.02 34.6074 192.953 34.6074H187.333L187.3 40.2269L187.367 48.7652C187.367 48.9217 187.288 49 187.132 49H183.509C183.352 49 183.274 48.9217 183.274 48.7652L183.324 40.2269L183.291 34.6074H177.705C177.548 34.6074 177.47 34.5292 177.47 34.3726V31.9571C177.47 31.8005 177.548 31.7222 177.705 31.7222H192.953ZM194.837 49.0168C194.68 49.0168 194.602 48.9441 194.602 48.7987L194.669 40.294L194.635 31.9235C194.635 31.7781 194.714 31.7054 194.87 31.7054H198.493C198.65 31.7054 198.728 31.7781 198.728 31.9235L198.678 37.8617H201.194C203.744 37.8617 205.667 38.3146 206.965 39.2204C208.262 40.1263 208.91 41.513 208.91 43.3805C208.91 47.1268 206.338 49 201.194 49L194.837 49.0168ZM210.303 49C210.146 49 210.068 48.9217 210.068 48.7652L210.135 40.5289L210.068 31.9571C210.068 31.8005 210.146 31.7222 210.303 31.7222H213.926C214.083 31.7222 214.161 31.8005 214.161 31.9571L214.111 40.5289L214.161 48.7652C214.161 48.9217 214.083 49 213.926 49H210.303ZM198.661 40.5456L198.678 46.3161H201.211C203.604 46.3161 204.801 45.3767 204.801 43.498C204.801 42.525 204.51 41.7925 203.928 41.3005C203.358 40.7972 202.452 40.5456 201.211 40.5456H198.661Z" fill="#1A0000"/>
<rect x="16.5" y="240.5" width="80" height="42" rx="21" fill="#1A0000" stroke="black"/>
<path d="M37.6462 272.232C37.6717 272.283 37.6844 272.33 37.6844 272.372C37.6844 272.499 37.6038 272.563 37.4426 272.563H36.1447C35.992 272.563 35.8775 272.495 35.8011 272.359C34.9358 270.612 34.2783 268.852 33.8287 267.079C33.3876 265.297 33.167 263.392 33.167 261.365C33.167 257.539 34.0366 253.959 35.7757 250.625C35.852 250.489 35.9665 250.421 36.1192 250.421H37.4172C37.5784 250.421 37.659 250.485 37.659 250.612C37.659 250.655 37.6462 250.701 37.6208 250.752C36.0938 254.171 35.3303 257.709 35.3303 261.365C35.3303 265.115 36.1023 268.737 37.6462 272.232ZM45.6348 269.318C44.3454 269.318 43.2171 268.953 42.25 268.224C41.2828 267.494 40.5321 266.438 39.9976 265.055C39.4716 263.672 39.2086 262.022 39.2086 260.105C39.2086 258.154 39.4716 256.487 39.9976 255.104C40.5236 253.713 41.2701 252.661 42.2372 251.948C43.2128 251.227 44.3496 250.867 45.6476 250.867C46.9455 250.867 48.0738 251.223 49.0324 251.936C49.9995 252.648 50.7461 253.7 51.2721 255.091C51.8065 256.483 52.0737 258.158 52.0737 260.118C52.0737 262.035 51.8065 263.685 51.2721 265.068C50.7461 266.451 49.9995 267.507 49.0324 268.236C48.0653 268.958 46.9328 269.318 45.6348 269.318ZM45.6476 267.422C46.8946 267.422 47.8617 266.803 48.5489 265.564C49.236 264.326 49.5796 262.51 49.5796 260.118C49.5796 258.523 49.4227 257.178 49.1088 256.084C48.7949 254.981 48.341 254.154 47.7472 253.603C47.1618 253.043 46.4577 252.763 45.6348 252.763C44.3708 252.763 43.3952 253.386 42.7081 254.633C42.0294 255.88 41.69 257.709 41.69 260.118C41.69 261.704 41.847 263.045 42.1609 264.139C42.4832 265.225 42.9371 266.044 43.5225 266.595C44.1163 267.146 44.8247 267.422 45.6476 267.422ZM60.0987 261.988C60.0987 262.073 60.0733 262.141 60.0224 262.192C59.9715 262.243 59.9036 262.268 59.8188 262.268H54.6651C54.5803 262.268 54.5124 262.243 54.4615 262.192C54.4106 262.141 54.3851 262.073 54.3851 261.988V260.805C54.3851 260.618 54.4785 260.525 54.6651 260.525H59.8188C59.9036 260.525 59.9715 260.551 60.0224 260.601C60.0733 260.652 60.0987 260.72 60.0987 260.805V261.988ZM68.8472 269.318C67.5578 269.318 66.4295 268.953 65.4624 268.224C64.4952 267.494 63.7445 266.438 63.21 265.055C62.684 263.672 62.4211 262.022 62.4211 260.105C62.4211 258.154 62.684 256.487 63.21 255.104C63.736 253.713 64.4825 252.661 65.4496 251.948C66.4252 251.227 67.562 250.867 68.86 250.867C70.1579 250.867 71.2862 251.223 72.2448 251.936C73.212 252.648 73.9585 253.7 74.4845 255.091C75.0189 256.483 75.2862 258.158 75.2862 260.118C75.2862 262.035 75.0189 263.685 74.4845 265.068C73.9585 266.451 73.212 267.507 72.2448 268.236C71.2777 268.958 70.1452 269.318 68.8472 269.318ZM68.86 267.422C70.107 267.422 71.0741 266.803 71.7613 265.564C72.4484 264.326 72.792 262.51 72.792 260.118C72.792 258.523 72.6351 257.178 72.3212 256.084C72.0073 254.981 71.5534 254.154 70.9596 253.603C70.3743 253.043 69.6701 252.763 68.8472 252.763C67.5832 252.763 66.6076 253.386 65.9205 254.633C65.2418 255.88 64.9025 257.709 64.9025 260.118C64.9025 261.704 65.0594 263.045 65.3733 264.139C65.6957 265.225 66.1495 266.044 66.7349 266.595C67.3287 267.146 68.0371 267.422 68.86 267.422ZM78.6969 272.359C78.6205 272.495 78.506 272.563 78.3533 272.563H77.0553C76.8942 272.563 76.8136 272.499 76.8136 272.372C76.8136 272.33 76.8263 272.283 76.8517 272.232C78.3957 268.737 79.1677 265.115 79.1677 261.365C79.1677 257.709 78.4042 254.171 76.8772 250.752C76.8517 250.701 76.839 250.655 76.839 250.612C76.839 250.485 76.9196 250.421 77.0808 250.421H78.3787C78.5314 250.421 78.646 250.489 78.7223 250.625C80.4699 253.976 81.3437 257.556 81.3437 261.365C81.3437 263.384 81.1189 265.284 80.6693 267.066C80.2196 268.847 79.5622 270.612 78.6969 272.359Z" fill="white"/>
</svg>
