<svg width="93" height="50" viewBox="0 0 93 50" fill="none" xmlns="http://www.w3.org/2000/svg">
<path d="M82.7083 11.8403C84.4551 15.0844 84.7878 19.2352 83.7065 24.2927C82.5419 29.7661 80.1878 34.3162 76.6442 37.943C72.4685 42.202 67.3611 44.3314 61.322 44.3314C55.6822 44.3314 51.6478 42.4681 49.2189 38.7416C47.1061 35.1481 46.6319 30.6063 47.7965 25.1162C48.8446 20.1585 50.9741 15.9162 54.1849 12.3893C58.3108 7.86413 63.4681 5.60156 69.6569 5.60156C76.1285 5.60156 80.479 7.68113 82.7083 11.8403ZM78.5907 24.3676C79.5057 20.0587 79.1148 16.59 77.4178 13.9614C75.7376 11.3329 72.9426 10.0186 69.033 10.0186C65.2399 10.0186 61.8627 11.3245 58.9014 13.9365C55.9567 16.5318 53.9437 20.3665 52.8623 25.4406C51.9972 29.5 52.2967 32.9271 53.7607 35.722C55.2247 38.5003 58.2609 39.8895 62.8692 39.8895C67.2446 39.8895 70.7383 38.3256 73.3502 35.198C75.9788 32.0537 77.7256 28.4435 78.5907 24.3676Z" fill="black"/>
<path d="M43.9524 11.8403C45.6992 15.0844 46.032 19.2352 44.9506 24.2927C43.786 29.7661 41.432 34.3162 37.8884 37.943C33.7126 42.202 28.6052 44.3314 22.5661 44.3314C16.9263 44.3314 12.892 42.4681 10.463 38.7416C8.35021 35.1481 7.87607 30.6063 9.04063 25.1162C10.0887 20.1585 12.2182 15.9162 15.4291 12.3893C19.5549 7.86413 24.7122 5.60156 30.901 5.60156C37.3727 5.60156 41.7231 7.68113 43.9524 11.8403ZM39.8349 24.3676C40.7499 20.0587 40.3589 16.59 38.662 13.9614C36.9817 11.3329 34.1868 10.0186 30.2772 10.0186C26.484 10.0186 23.1068 11.3245 20.1455 13.9365C17.2008 16.5318 15.1878 20.3665 14.1065 25.4406C13.2414 29.5 13.5408 32.9271 15.0048 35.722C16.4688 38.5003 19.505 39.8895 24.1133 39.8895C28.4887 39.8895 31.9824 38.3256 34.5944 35.198C37.2229 32.0537 38.9698 28.4435 39.8349 24.3676Z" fill="black"/>
<ellipse cx="74.2999" cy="20.3816" rx="6.30188" ry="5.91288" fill="black"/>
<ellipse cx="18.2065" cy="24.8933" rx="6.22408" ry="5.91288" fill="black"/>
<path d="M10.1598 50C3.76711 47.089 0 39.6689 0 30.8219C0 18.6644 7.53426 2.56849 20.605 0L20.9475 2.11187C9.53197 5.13699 4.45204 22.2032 4.45204 32.7626C4.45204 40.0685 6.84932 45.5479 11.3014 48.1735L10.1598 50Z" fill="black"/>
<path d="M71.8301 47.8881C83.2456 44.863 88.3255 27.7968 88.3255 17.2374C88.3255 9.93151 85.9283 4.45205 81.4762 1.82648L82.6177 0C89.0104 2.91096 92.8347 10.3311 92.8347 19.1781C92.8347 31.3356 85.2433 47.4315 72.1725 50L71.8301 47.8881Z" fill="black"/>
</svg>
