<svg width="93" height="50" viewBox="0 0 93 50" fill="none" xmlns="http://www.w3.org/2000/svg">
<path d="M10.1598 50C3.76711 47.089 0 39.6689 0 30.8219C0 18.6644 7.53426 2.56849 20.605 0L20.9475 2.11187C9.53197 5.13699 4.45204 22.2032 4.45204 32.7626C4.45204 40.0685 6.84932 45.5479 11.3014 48.1735L10.1598 50Z" fill="black"/>
<path d="M71.8281 47.8881C83.2436 44.863 88.3235 27.7968 88.3235 17.2374C88.3235 9.93151 85.9263 4.45205 81.4742 1.82648L82.6158 0C89.0085 2.91096 92.8327 10.3311 92.8327 19.1781C92.8327 31.3356 85.2414 47.4315 72.1706 50L71.8281 47.8881Z" fill="black"/>
<path d="M79.3976 22.3924L80.8201 23.4543L80.7908 26.5701C78.46 25.2486 76.5489 24.3248 75.0573 23.7988C72.5355 22.8989 69.7684 22.4347 66.756 22.4064C64.8265 22.3882 63.0432 22.529 61.406 22.8287C58.9108 23.2876 56.5204 24.1266 54.2346 25.3456L52.5723 26.2308L52.6021 23.056C54.7032 21.5792 56.6631 20.4605 58.4818 19.6999C61.1507 18.5731 63.8338 18.0223 66.5312 18.0477C69.4944 18.0756 72.5004 18.7881 75.5491 20.1853C77.2548 20.9693 78.5377 21.705 79.3976 22.3924Z" fill="black"/>
<path d="M37.834 35.0634L36.9805 34.4387L36.9805 32.582C38.3766 33.3564 39.5205 33.896 40.4122 34.2011C41.9198 34.7232 43.5711 34.9842 45.3661 34.9842C46.5159 34.9842 47.5777 34.8904 48.5514 34.7026C50.0356 34.4152 51.4552 33.9019 52.8103 33.1628L53.7958 32.626V34.5179C52.5521 35.4095 51.3907 36.0871 50.3113 36.5505C48.7274 37.2368 47.1318 37.58 45.5245 37.58C43.7588 37.58 41.9638 37.1723 40.1394 36.3569C39.1187 35.8993 38.3502 35.4682 37.834 35.0634Z" fill="black"/>
<path d="M37.6945 22.0838L39.117 23.1457L39.0877 26.2615C36.7569 24.94 34.8457 24.0162 33.3542 23.4902C30.8324 22.5903 28.0653 22.1261 25.0529 22.0978C23.1234 22.0797 21.34 22.2204 19.7029 22.5201C17.2077 22.979 14.8172 23.818 12.5315 25.037L10.8691 25.9222L10.899 22.7474C13.0001 21.2706 14.96 20.1519 16.7787 19.3913C19.4476 18.2645 22.1307 17.7137 24.8281 17.7391C27.7912 17.767 30.7972 18.4795 33.846 19.8767C35.5517 20.6607 36.8345 21.3964 37.6945 22.0838Z" fill="black"/>
<path d="M71.8889 26.6043C71.8889 29.8699 69.0675 32.5172 65.587 32.5172C62.1066 32.5172 59.2852 29.8699 59.2852 26.6043C59.2852 23.3387 62.1066 20.6914 65.587 20.6914C69.0675 20.6914 71.8889 23.3387 71.8889 26.6043Z" fill="black"/>
<path d="M30.6565 26.4519C30.6565 29.7175 27.8351 32.3648 24.3546 32.3648C20.8742 32.3648 18.0527 29.7175 18.0527 26.4519C18.0527 23.1863 20.8742 20.5391 24.3546 20.5391C27.8351 20.5391 30.6565 23.1863 30.6565 26.4519Z" fill="black"/>
</svg>
