<svg width="33" height="33" viewBox="0 0 33 33" fill="none" xmlns="http://www.w3.org/2000/svg">
<path fill-rule="evenodd" clip-rule="evenodd" d="M16.5 0C7.3873 0 0 7.3873 0 16.5C0 25.1713 6.68894 32.2802 15.1885 32.9486C15.3945 32.9487 15.6034 32.9487 15.8154 32.9487H17.1333C17.363 32.9487 17.5891 32.9487 17.8117 32.9486C25.8784 32.3142 32.3142 25.8784 32.9486 17.8117C32.9487 17.5891 32.9487 17.363 32.9487 17.1333V15.8154C32.9487 15.6034 32.9487 15.3945 32.9486 15.1885C32.2802 6.68894 25.1713 0 16.5 0ZM17.5315 23.7369C10.022 23.7369 5.73865 18.5886 5.56017 10.022H9.3218C9.44536 16.3097 12.2185 18.973 14.4151 19.5222V10.022H17.9572V15.4448C20.1263 15.2114 22.405 12.7402 23.1738 10.022H26.7158C26.1255 13.3717 23.6543 15.8429 21.8971 16.8588C23.6543 17.6825 26.4689 19.8379 27.5397 23.7369H23.6407C22.8032 21.1284 20.7166 19.1103 17.9572 18.8357V23.7369H17.5315Z" fill="white"/>
</svg>
