<svg width="75" height="40" viewBox="0 0 75 40" fill="none" xmlns="http://www.w3.org/2000/svg">
<path d="M8.20797 40C3.0434 37.6712 0 31.7352 0 24.6575C0 14.9315 6.08683 2.0548 16.6465 0L16.9232 1.6895C7.70076 4.10959 3.59675 17.7626 3.59675 26.21C3.59675 32.0548 5.53348 36.4384 9.13023 38.5388L8.20797 40Z" fill="black"/>
<path d="M58.0308 38.3105C67.2532 35.8904 71.3572 22.2374 71.3572 13.79C71.3572 7.94521 69.4205 3.56164 65.8237 1.46119L66.746 0C71.9105 2.32877 75.0001 8.26484 75.0001 15.3425C75.0001 25.0685 68.8671 37.9452 58.3074 40L58.0308 38.3105Z" fill="black"/>
<path d="M64.1435 17.9164L65.2927 18.7659L65.269 21.2585C63.3861 20.2013 61.8421 19.4623 60.6371 19.0415C58.5997 18.3215 56.3642 17.9502 53.9305 17.9276C52.3717 17.913 50.931 18.0256 49.6083 18.2654C47.5925 18.6325 45.6613 19.3037 43.8147 20.2789L42.4717 20.9871L42.4958 18.4472C44.1933 17.2658 45.7766 16.3709 47.2459 15.7623C49.4021 14.8609 51.5697 14.4203 53.7489 14.4406C56.1428 14.4629 58.5713 15.0329 61.0344 16.1507C62.4124 16.7779 63.4488 17.3664 64.1435 17.9164Z" fill="black"/>
<path d="M30.5636 28.0525L29.874 27.5527L29.874 26.0674C31.0019 26.6868 31.9261 27.1186 32.6464 27.3626C33.8644 27.7803 35.1985 27.9891 36.6487 27.9891C37.5776 27.9891 38.4354 27.914 39.2221 27.7639C40.4211 27.5339 41.568 27.1233 42.6627 26.532L43.4589 26.1026V27.616C42.4542 28.3294 41.5158 28.8714 40.6438 29.2421C39.3642 29.7912 38.0752 30.0657 36.7766 30.0657C35.3501 30.0657 33.9 29.7396 32.4261 29.0873C31.6015 28.7212 30.9806 28.3763 30.5636 28.0525Z" fill="black"/>
<path d="M30.454 17.6688L31.6033 18.5183L31.5796 21.0109C29.6966 19.9537 28.1526 19.2147 26.9476 18.7939C24.9103 18.074 22.6748 17.7027 20.2411 17.68C18.6823 17.6655 17.2415 17.7781 15.9189 18.0178C13.9031 18.385 11.9718 19.0562 10.1252 20.0314L8.78223 20.7395L8.80635 18.1997C10.5038 17.0183 12.0872 16.1233 13.5565 15.5148C15.7126 14.6133 17.8803 14.1728 20.0595 14.1931C22.4534 14.2154 24.8819 14.7854 27.3449 15.9031C28.7229 16.5303 29.7593 17.1189 30.454 17.6688Z" fill="black"/>
<path d="M58.0774 21.2879C58.0774 23.9004 55.798 26.0182 52.9862 26.0182C50.1744 26.0182 47.895 23.9004 47.895 21.2879C47.895 18.6754 50.1744 16.5576 52.9862 16.5576C55.798 16.5576 58.0774 18.6754 58.0774 21.2879Z" fill="black"/>
<path d="M24.7649 21.1619C24.7649 23.7744 22.4855 25.8922 19.6737 25.8922C16.8619 25.8922 14.5825 23.7744 14.5825 21.1619C14.5825 18.5495 16.8619 16.4316 19.6737 16.4316C22.4855 16.4316 24.7649 18.5495 24.7649 21.1619Z" fill="black"/>
</svg>
