<svg width="214" height="76" viewBox="0 0 214 76" fill="none" xmlns="http://www.w3.org/2000/svg">
<mask id="path-1-inside-1_2512_1555" fill="white">
<path fill-rule="evenodd" clip-rule="evenodd" d="M14.5485 0C6.94909 0 0.788574 6.16052 0.788574 13.7599V42.3863C0.788574 49.9857 6.9491 56.1463 14.5485 56.1463H88.3003L106.62 75.064L124.939 56.1463H199.452C207.051 56.1463 213.212 49.9857 213.212 42.3863V13.7599C213.212 6.16052 207.051 0 199.452 0H14.5485Z"/>
</mask>
<path fill-rule="evenodd" clip-rule="evenodd" d="M14.5485 0C6.94909 0 0.788574 6.16052 0.788574 13.7599V42.3863C0.788574 49.9857 6.9491 56.1463 14.5485 56.1463H88.3003L106.62 75.064L124.939 56.1463H199.452C207.051 56.1463 213.212 49.9857 213.212 42.3863V13.7599C213.212 6.16052 207.051 0 199.452 0H14.5485Z" fill="white"/>
<path d="M88.3003 56.1463L89.3778 55.1028L88.9358 54.6463H88.3003V56.1463ZM106.62 75.064L105.542 76.1075L106.62 77.2202L107.697 76.1075L106.62 75.064ZM124.939 56.1463V54.6463H124.303L123.861 55.1028L124.939 56.1463ZM2.28857 13.7599C2.28857 6.98895 7.77752 1.5 14.5485 1.5V-1.5C6.12066 -1.5 -0.711426 5.33209 -0.711426 13.7599H2.28857ZM2.28857 42.3863V13.7599H-0.711426V42.3863H2.28857ZM14.5485 54.6463C7.77753 54.6463 2.28857 49.1573 2.28857 42.3863H-0.711426C-0.711426 50.8142 6.12067 57.6463 14.5485 57.6463V54.6463ZM88.3003 54.6463H14.5485V57.6463H88.3003V54.6463ZM87.2227 57.1897L105.542 76.1075L107.697 74.0205L89.3778 55.1028L87.2227 57.1897ZM107.697 76.1075L126.017 57.1897L123.861 55.1028L105.542 74.0205L107.697 76.1075ZM199.452 54.6463H124.939V57.6463H199.452V54.6463ZM211.712 42.3863C211.712 49.1573 206.223 54.6463 199.452 54.6463V57.6463C207.879 57.6463 214.712 50.8142 214.712 42.3863H211.712ZM211.712 13.7599V42.3863H214.712V13.7599H211.712ZM199.452 1.5C206.223 1.5 211.712 6.98895 211.712 13.7599H214.712C214.712 5.33209 207.879 -1.5 199.452 -1.5V1.5ZM14.5485 1.5H199.452V-1.5H14.5485V1.5Z" fill="black" mask="url(#path-1-inside-1_2512_1555)"/>
<path d="M162.519 25.1884C164.332 25.1884 165.792 24.9366 166.9 24.433C168.655 23.6417 169.749 22.2173 170.181 20.1599C170.627 18.0881 170.087 16.6925 168.562 15.9731C167.684 15.5703 166.31 15.3689 164.44 15.3689H156.779L154.707 25.1884H162.519ZM160.857 39.8205C163.49 39.8205 165.526 39.0579 166.965 37.5329C167.871 36.5689 168.476 35.4035 168.778 34.0367C169.267 31.7347 168.569 30.1664 166.684 29.332C165.692 28.886 164.296 28.6629 162.498 28.6629H153.973L151.599 39.8205H160.857ZM153.347 11.7864H166.965C170.677 11.7864 173.08 12.8942 174.173 15.1099C174.821 16.4192 174.957 17.9299 174.583 19.642C174.166 21.6418 173.252 23.282 171.842 24.5625C171.109 25.2387 170.13 25.8574 168.907 26.4185C170.389 27.0372 171.454 27.735 172.101 28.5119C173.238 29.8931 173.547 31.7994 173.029 34.2309C172.598 36.274 171.562 38.1227 169.922 39.7773C167.49 42.252 164.188 43.4893 160.016 43.4893H146.614L153.347 11.7864Z" fill="#050505"/>
<path d="M41.5219 11.7864H46.5935L57.1468 37.4681L62.6069 11.7864H66.6857L59.9524 43.4893H55.1397L44.3275 17.8291L38.889 43.4893H34.7886L41.5219 11.7864Z" fill="#050505"/>
<path d="M75.7374 49C70.2397 46.4966 67 40.1153 67 32.5069C67 22.0514 73.4795 8.2089 84.7203 6L85.0148 7.81621C75.1975 10.4178 70.8288 25.0948 70.8288 34.1758C70.8288 40.4589 72.8904 45.1712 76.7192 47.4292L75.7374 49Z" fill="#050505"/>
<path d="M128.774 47.1838C138.591 44.5822 142.96 29.9053 142.96 20.8242C142.96 14.5411 140.898 9.82877 137.069 7.57078L138.051 6C143.549 8.50342 146.838 14.8847 146.838 22.4932C146.838 32.9486 140.309 46.7911 129.068 49L128.774 47.1838Z" fill="#050505"/>
<path d="M101.357 40.5632C101.357 40.6899 101.322 40.7878 101.253 40.8569C101.184 40.926 101.092 40.9605 100.977 40.9605H99.3707C99.1174 40.9605 98.9907 40.8281 98.9907 40.5632C99.0483 38.5137 99.4513 36.8671 100.2 35.6236C100.96 34.3685 102.054 33.741 103.481 33.741C104.126 33.741 104.702 33.8849 105.208 34.1728C105.727 34.4606 106.164 34.806 106.521 35.2091C106.878 35.6121 107.287 36.136 107.747 36.7808C108.196 37.4371 108.582 37.9265 108.905 38.2489C109.239 38.5713 109.595 38.7325 109.975 38.7325C110.724 38.7325 111.277 38.3467 111.634 37.5753C112.002 36.8038 112.198 35.7502 112.221 34.4146C112.221 34.1497 112.347 34.0173 112.601 34.0173H114.19C114.316 34.0173 114.414 34.0519 114.483 34.1209C114.552 34.19 114.587 34.2879 114.587 34.4146C114.529 36.4526 114.126 38.0704 113.378 39.2679C112.63 40.4654 111.541 41.0641 110.114 41.0641C109.492 41.0641 108.939 40.926 108.456 40.6496C107.972 40.3733 107.557 40.0451 107.212 39.6651C106.867 39.2852 106.469 38.7785 106.02 38.1452C105.663 37.6501 105.37 37.2701 105.139 37.0053C104.921 36.7405 104.673 36.5217 104.397 36.349C104.132 36.1647 103.838 36.0726 103.516 36.0726C102.802 36.0726 102.267 36.4699 101.91 37.2644C101.564 38.0589 101.38 39.1585 101.357 40.5632Z" fill="#050505"/>
<path d="M97.3831 28.9691L79.1775 37.7219V34.2744L94.0503 27.3411L79.1775 20.427V16.9795L97.3831 25.7515V28.9691Z" fill="#050505"/>
<path d="M116.335 28.9691L134.541 37.7219V34.2744L119.668 27.3411L134.541 20.427V16.9795L116.335 25.7515V28.9691Z" fill="#050505"/>
</svg>
