<svg width="212" height="75" viewBox="0 0 212 75" fill="none" xmlns="http://www.w3.org/2000/svg">
<mask id="path-1-inside-1_2514_802" fill="white">
<path fill-rule="evenodd" clip-rule="evenodd" d="M13.7599 0C6.16052 0 0 6.16052 0 13.7599V42.3386C0 49.938 6.16052 56.0985 13.7599 56.0985H87.3377L105.62 74.9999L123.903 56.0985H198.24C205.839 56.0985 212 49.938 212 42.3386V13.7599C212 6.16052 205.839 0 198.24 0H13.7599Z"/>
</mask>
<path fill-rule="evenodd" clip-rule="evenodd" d="M13.7599 0C6.16052 0 0 6.16052 0 13.7599V42.3386C0 49.938 6.16052 56.0985 13.7599 56.0985H87.3377L105.62 74.9999L123.903 56.0985H198.24C205.839 56.0985 212 49.938 212 42.3386V13.7599C212 6.16052 205.839 0 198.24 0H13.7599Z" fill="white"/>
<path d="M87.3377 56.0985L88.4159 55.0556L87.9737 54.5985H87.3377V56.0985ZM105.62 74.9999L104.542 76.0428L105.62 77.1574L106.699 76.0428L105.62 74.9999ZM123.903 56.0985V54.5985H123.267L122.825 55.0556L123.903 56.0985ZM1.5 13.7599C1.5 6.98894 6.98895 1.5 13.7599 1.5V-1.5C5.33209 -1.5 -1.5 5.33209 -1.5 13.7599H1.5ZM1.5 42.3386V13.7599H-1.5V42.3386H1.5ZM13.7599 54.5985C6.98895 54.5985 1.5 49.1095 1.5 42.3386H-1.5C-1.5 50.7664 5.3321 57.5985 13.7599 57.5985V54.5985ZM87.3377 54.5985H13.7599V57.5985H87.3377V54.5985ZM86.2596 57.1414L104.542 76.0428L106.699 73.957L88.4159 55.0556L86.2596 57.1414ZM106.699 76.0428L124.981 57.1414L122.825 55.0556L104.542 73.957L106.699 76.0428ZM198.24 54.5985H123.903V57.5985H198.24V54.5985ZM210.5 42.3386C210.5 49.1095 205.011 54.5985 198.24 54.5985V57.5985C206.668 57.5985 213.5 50.7664 213.5 42.3386H210.5ZM210.5 13.7599V42.3386H213.5V13.7599H210.5ZM198.24 1.5C205.011 1.5 210.5 6.98895 210.5 13.7599H213.5C213.5 5.33209 206.668 -1.5 198.24 -1.5V1.5ZM13.7599 1.5H198.24V-1.5H13.7599V1.5Z" fill="black" mask="url(#path-1-inside-1_2514_802)"/>
<path d="M161.409 25.1669C163.218 25.1669 164.675 24.9154 165.781 24.4122C167.533 23.6216 168.624 22.1985 169.055 20.1428C169.5 18.0727 168.961 16.6783 167.439 15.9596C166.563 15.5571 165.192 15.3558 163.326 15.3558H155.679L153.612 25.1669H161.409ZM159.75 39.7866C162.378 39.7866 164.41 39.0247 165.846 37.5009C166.75 36.5378 167.353 35.3734 167.655 34.0078C168.143 31.7077 167.447 30.1408 165.566 29.307C164.575 28.8614 163.182 28.6386 161.387 28.6386H152.879L150.51 39.7866H159.75ZM152.255 11.7764H165.846C169.55 11.7764 171.948 12.8833 173.039 15.0971C173.686 16.4052 173.822 17.9146 173.449 19.6253C173.032 21.6234 172.12 23.2622 170.713 24.5416C169.981 25.2173 169.005 25.8354 167.784 26.396C169.263 27.0142 170.326 27.7114 170.972 28.4876C172.106 29.8677 172.415 31.7724 171.898 34.2018C171.467 36.2431 170.433 38.0903 168.796 39.7435C166.37 42.216 163.074 43.4523 158.91 43.4523H145.535L152.255 11.7764Z" fill="#050505"/>
<path d="M40.6522 11.7764H45.7137L56.246 37.4363L61.6952 11.7764H65.7659L59.0459 43.4523H54.2429L43.4522 17.814L38.0245 43.4523H33.9323L40.6522 11.7764Z" fill="#050505"/>
<path d="M137.145 16.2259C138.653 19.0291 138.94 22.6158 138.007 26.9858C137.002 31.7153 134.97 35.647 131.911 38.7808C128.307 42.4608 123.899 44.3009 118.687 44.3009C113.819 44.3009 110.337 42.6908 108.241 39.4708C106.417 36.3657 106.008 32.4413 107.013 27.6974C107.918 23.4136 109.756 19.7479 112.527 16.7003C116.088 12.7902 120.539 10.8352 125.881 10.8352C131.466 10.8352 135.221 12.6321 137.145 16.2259ZM133.591 27.0505C134.381 23.3273 134.044 20.3301 132.579 18.0588C131.129 15.7875 128.717 14.6518 125.342 14.6518C122.068 14.6518 119.154 15.7803 116.598 18.0372C114.056 20.2798 112.319 23.5933 111.385 27.9777C110.639 31.4853 110.897 34.4466 112.161 36.8617C113.424 39.2623 116.045 40.4627 120.022 40.4627C123.799 40.4627 126.814 39.1114 129.068 36.4088C131.337 33.6919 132.845 30.5725 133.591 27.0505Z" fill="#050505"/>
<path d="M103.695 16.2259C105.203 19.0291 105.49 22.6158 104.557 26.9858C103.552 31.7153 101.52 35.647 98.4615 38.7808C94.8574 42.4608 90.4492 44.3009 85.237 44.3009C80.3693 44.3009 76.8873 42.6908 74.7909 39.4708C72.9673 36.3657 72.5581 32.4413 73.5632 27.6974C74.4678 23.4136 76.3057 19.7479 79.077 16.7003C82.638 12.7902 87.0893 10.8352 92.4308 10.8352C98.0164 10.8352 101.771 12.6321 103.695 16.2259ZM100.141 27.0505C100.931 23.3273 100.594 20.3301 99.1292 18.0588C97.6789 15.7875 95.2666 14.6518 91.8923 14.6518C88.6185 14.6518 85.7036 15.7803 83.1477 18.0372C80.6062 20.2798 78.8688 23.5933 77.9355 27.9777C77.1888 31.4853 77.4473 34.4466 78.7109 36.8617C79.9744 39.2623 82.5949 40.4627 86.5723 40.4627C90.3487 40.4627 93.3641 39.1114 95.6184 36.4088C97.8871 33.6919 99.3948 30.5725 100.141 27.0505Z" fill="#050505"/>
<path d="M74.53 49.1988C69.0125 46.6835 65.7611 40.272 65.7611 32.6274C65.7611 22.1224 72.2639 8.21425 83.5452 5.99487L83.8407 7.8197C73.9881 10.4336 69.6036 25.1802 69.6036 34.3043C69.6036 40.6172 71.6727 45.3519 75.5152 47.6206L74.53 49.1988Z" fill="#050505"/>
<path d="M127.756 47.374C137.609 44.7601 141.994 30.0135 141.994 20.8894C141.994 14.5765 139.925 9.8418 136.082 7.5731L137.067 5.99487C142.585 8.51017 145.885 14.9217 145.885 22.5663C145.885 33.0713 139.333 46.9794 128.052 49.1988L127.756 47.374Z" fill="#050505"/>
<path d="M88.2002 30.6391C88.1481 31.5266 88.744 32.3536 89.6201 32.5087C89.7407 32.5301 89.865 32.5345 89.9862 32.5288C90.3545 32.5115 90.6296 32.2686 90.7724 32.0024C91.2639 31.0863 91.7751 30.2751 92.3505 29.5403C92.4912 29.3605 92.7562 29.4049 92.8294 29.6252C93.1272 30.5215 93.3425 31.4682 93.4925 32.504C93.5329 32.783 93.6919 33.1032 94.0273 33.2441C94.1434 33.2929 94.2683 33.3318 94.3989 33.3549C95.275 33.5101 96.1181 32.938 96.3732 32.0864C96.4789 31.7337 96.3239 31.4073 96.1328 31.2031C95.42 30.4414 94.8202 29.674 94.3116 28.8709C94.1895 28.6781 94.3163 28.4446 94.5414 28.4399C95.4727 28.4205 96.4198 28.5001 97.4346 28.6806C97.7077 28.7292 98.0643 28.6831 98.3028 28.4045C98.9956 27.5951 98.8079 26.384 97.9624 25.7845C97.6447 25.5592 97.2653 25.6202 97.006 25.7549C96.1064 26.2219 95.2161 26.5705 94.3226 26.8238C94.1006 26.8867 93.9109 26.694 93.976 26.474C94.2465 25.559 94.615 24.6653 95.1004 23.7428C95.2263 23.5035 95.2894 23.1655 95.1175 22.8587C94.8605 22.4001 94.4352 22.0936 93.9268 22.0035C93.4183 21.9135 92.9138 22.0554 92.5153 22.3979C92.2487 22.627 92.192 22.9663 92.2289 23.2349C92.3716 24.2741 92.4238 25.2453 92.3703 26.2003C92.3577 26.4262 92.1182 26.5419 91.9323 26.4083C91.1696 25.86 90.4536 25.2233 89.7481 24.4644C89.55 24.2513 89.2135 24.066 88.8392 24.173C87.8651 24.4514 87.283 25.5107 87.6231 26.4953C87.7458 26.8506 88.0726 27.0229 88.3512 27.0721C89.3675 27.2517 90.2963 27.5046 91.1703 27.8438C91.3799 27.9252 91.4192 28.1875 91.2384 28.3267C90.4855 28.9064 89.6592 29.4213 88.7287 29.892C88.4792 30.0182 88.2218 30.2715 88.2002 30.6391Z" fill="#050505" stroke="#050505" stroke-width="0.701217"/>
<path d="M114.477 28.4964L114.399 28.1546L114.477 28.4964C115.498 28.2631 116.459 28.126 117.414 28.0956C117.64 28.0884 117.776 28.3166 117.66 28.5136C117.181 29.323 116.609 30.0936 115.915 30.8643C115.721 31.0801 115.567 31.4308 115.705 31.7937C116.067 32.7413 117.174 33.2301 118.125 32.8038L117.981 32.4838L118.125 32.8038C118.467 32.6503 118.61 32.31 118.634 32.0286C118.724 30.9992 118.894 30.0507 119.155 29.1492C119.217 28.9329 119.475 28.871 119.63 29.0392C120.272 29.7388 120.856 30.5172 121.406 31.4033L121.704 31.2185L121.406 31.4033C121.553 31.6411 121.829 31.8761 122.197 31.8652C123.085 31.8389 123.855 31.1718 123.932 30.2856C123.943 30.1634 123.937 30.0391 123.92 29.9187C123.871 29.5534 123.605 29.3003 123.327 29.1811C122.372 28.771 121.52 28.3322 120.738 27.8225C120.547 27.6979 120.568 27.4304 120.78 27.3381C121.646 26.9622 122.57 26.6643 123.588 26.4238C123.862 26.3589 124.167 26.1723 124.278 25.8259C124.316 25.7058 124.344 25.5779 124.355 25.4456C124.433 24.5594 123.791 23.7687 122.921 23.5884C122.559 23.5136 122.248 23.6971 122.061 23.9057C121.366 24.6828 120.656 25.3477 119.902 25.925C119.721 26.0639 119.477 25.958 119.452 25.7339C119.351 24.8067 119.348 23.8552 119.438 22.8272C119.463 22.5512 119.386 22.2004 119.088 21.9872C118.221 21.3661 117.031 21.6605 116.509 22.5569C116.313 22.8926 116.407 23.2643 116.563 23.5107C117.107 24.3676 117.533 25.2256 117.863 26.0953C117.945 26.311 117.77 26.5166 117.545 26.471C116.612 26.2814 115.69 25.9925 114.73 25.5896C114.481 25.4847 114.138 25.4512 113.847 25.6502C113.413 25.9468 113.146 26.3974 113.101 26.9116C113.056 27.4259 113.241 27.9161 113.617 28.2835C113.868 28.53 114.212 28.5569 114.477 28.4964Z" fill="#050505" stroke="#050505" stroke-width="0.701217"/>
</svg>
