<svg width="214" height="76" viewBox="0 0 214 76" fill="none" xmlns="http://www.w3.org/2000/svg">
<mask id="path-1-inside-1_2512_1526" fill="white">
<path fill-rule="evenodd" clip-rule="evenodd" d="M14.5485 0C6.94909 0 0.788574 6.16052 0.788574 13.7599V42.3863C0.788574 49.9857 6.9491 56.1463 14.5485 56.1463H88.3003L106.62 75.064L124.939 56.1463H199.452C207.051 56.1463 213.212 49.9857 213.212 42.3863V13.7599C213.212 6.16052 207.051 0 199.452 0H14.5485Z"/>
</mask>
<path fill-rule="evenodd" clip-rule="evenodd" d="M14.5485 0C6.94909 0 0.788574 6.16052 0.788574 13.7599V42.3863C0.788574 49.9857 6.9491 56.1463 14.5485 56.1463H88.3003L106.62 75.064L124.939 56.1463H199.452C207.051 56.1463 213.212 49.9857 213.212 42.3863V13.7599C213.212 6.16052 207.051 0 199.452 0H14.5485Z" fill="white"/>
<path d="M88.3003 56.1463L89.3778 55.1028L88.9358 54.6463H88.3003V56.1463ZM106.62 75.064L105.542 76.1075L106.62 77.2202L107.697 76.1075L106.62 75.064ZM124.939 56.1463V54.6463H124.303L123.861 55.1028L124.939 56.1463ZM2.28857 13.7599C2.28857 6.98895 7.77752 1.5 14.5485 1.5V-1.5C6.12066 -1.5 -0.711426 5.33209 -0.711426 13.7599H2.28857ZM2.28857 42.3863V13.7599H-0.711426V42.3863H2.28857ZM14.5485 54.6463C7.77753 54.6463 2.28857 49.1573 2.28857 42.3863H-0.711426C-0.711426 50.8142 6.12067 57.6463 14.5485 57.6463V54.6463ZM88.3003 54.6463H14.5485V57.6463H88.3003V54.6463ZM87.2227 57.1897L105.542 76.1075L107.697 74.0205L89.3778 55.1028L87.2227 57.1897ZM107.697 76.1075L126.017 57.1897L123.861 55.1028L105.542 74.0205L107.697 76.1075ZM199.452 54.6463H124.939V57.6463H199.452V54.6463ZM211.712 42.3863C211.712 49.1573 206.223 54.6463 199.452 54.6463V57.6463C207.879 57.6463 214.712 50.8142 214.712 42.3863H211.712ZM211.712 13.7599V42.3863H214.712V13.7599H211.712ZM199.452 1.5C206.223 1.5 211.712 6.98895 211.712 13.7599H214.712C214.712 5.33209 207.879 -1.5 199.452 -1.5V1.5ZM14.5485 1.5H199.452V-1.5H14.5485V1.5Z" fill="black" mask="url(#path-1-inside-1_2512_1526)"/>
<path d="M162.519 25.1884C164.332 25.1884 165.792 24.9366 166.9 24.433C168.655 23.6417 169.749 22.2173 170.181 20.1599C170.627 18.0881 170.087 16.6925 168.562 15.9731C167.684 15.5703 166.31 15.3689 164.44 15.3689H156.779L154.707 25.1884H162.519ZM160.857 39.8205C163.49 39.8205 165.526 39.0579 166.965 37.5329C167.871 36.5689 168.476 35.4035 168.778 34.0367C169.267 31.7347 168.569 30.1664 166.684 29.332C165.692 28.886 164.296 28.6629 162.498 28.6629H153.973L151.599 39.8205H160.857ZM153.347 11.7864H166.965C170.677 11.7864 173.08 12.8942 174.173 15.1099C174.821 16.4192 174.957 17.9299 174.583 19.642C174.166 21.6418 173.252 23.282 171.842 24.5625C171.109 25.2387 170.13 25.8574 168.907 26.4185C170.389 27.0372 171.454 27.735 172.101 28.5119C173.238 29.8931 173.547 31.7994 173.029 34.2309C172.598 36.274 171.562 38.1227 169.922 39.7773C167.49 42.252 164.188 43.4893 160.016 43.4893H146.614L153.347 11.7864Z" fill="#050505"/>
<path d="M41.5219 11.7864H46.5935L57.1467 37.4681L62.6068 11.7864H66.6857L59.9523 43.4893H55.1397L44.3274 17.8291L38.889 43.4893H34.7885L41.5219 11.7864Z" fill="#050505"/>
<path d="M138.207 16.2398C139.718 19.0454 140.006 22.6351 139.071 27.0089C138.063 31.7424 136.028 35.6774 132.963 38.8138C129.352 42.497 124.935 44.3386 119.712 44.3386C114.835 44.3386 111.346 42.7272 109.245 39.5044C107.418 36.3967 107.008 32.4689 108.015 27.7211C108.922 23.4336 110.763 19.7647 113.54 16.7146C117.108 12.8012 121.568 10.8445 126.92 10.8445C132.517 10.8445 136.279 12.6429 138.207 16.2398ZM134.646 27.0736C135.438 23.3472 135.1 20.3474 133.632 18.0742C132.179 15.801 129.762 14.6644 126.381 14.6644C123.1 14.6644 120.18 15.7938 117.619 18.0526C115.072 20.2971 113.331 23.6134 112.396 28.0016C111.648 31.5122 111.907 34.476 113.173 36.8931C114.439 39.2958 117.065 40.4972 121.05 40.4972C124.834 40.4972 127.856 39.1447 130.114 36.4399C132.388 33.7207 133.898 30.5986 134.646 27.0736Z" fill="#050505"/>
<path d="M104.691 16.2398C106.202 19.0454 106.489 22.6351 105.554 27.0089C104.547 31.7424 102.511 35.6774 99.4466 38.8138C95.8354 42.497 91.4184 44.3386 86.1957 44.3386C81.3183 44.3386 77.8294 42.7272 75.7288 39.5044C73.9016 36.3967 73.4915 32.4689 74.4986 27.7211C75.4051 23.4336 77.2467 19.7647 80.0235 16.7146C83.5916 12.8012 88.0517 10.8445 93.4039 10.8445C99.0006 10.8445 102.763 12.6429 104.691 16.2398ZM101.13 27.0736C101.921 23.3472 101.583 20.3474 100.116 18.0742C98.6625 15.801 96.2454 14.6644 92.8643 14.6644C89.584 14.6644 86.6633 15.7938 84.1023 18.0526C81.5557 20.2971 79.8148 23.6134 78.8796 28.0016C78.1315 31.5122 78.3905 34.476 79.6566 36.8931C80.9227 39.2958 83.5484 40.4972 87.5337 40.4972C91.3177 40.4972 94.339 39.1448 96.5979 36.4399C98.8711 33.7207 100.382 30.5986 101.13 27.0736Z" fill="#050505"/>
<path d="M75.4673 49.2407C69.9388 46.7233 66.6809 40.3063 66.6809 32.6553C66.6809 22.1412 73.1967 8.22127 84.5005 6L84.7966 7.82638C74.9243 10.4425 70.5311 25.2017 70.5311 34.3335C70.5311 40.6518 72.6043 45.3905 76.4545 47.6612L75.4673 49.2407Z" fill="#050505"/>
<path d="M128.8 47.4144C138.672 44.7982 143.065 30.0391 143.065 20.9072C143.065 14.5889 140.992 9.8502 137.142 7.57957L138.129 6C143.658 8.51744 146.965 14.9344 146.965 22.5855C146.965 33.0995 140.4 47.0195 129.096 49.2407L128.8 47.4144Z" fill="#050505"/>
<ellipse cx="131.082" cy="19.8954" rx="5.21748" ry="4.89542" fill="black"/>
<ellipse cx="81.1531" cy="29.8954" rx="5.15307" ry="4.89542" fill="black"/>
</svg>
