<svg width="214" height="76" viewBox="0 0 214 76" fill="none" xmlns="http://www.w3.org/2000/svg">
<mask id="path-1-inside-1_2535_1083" fill="white">
<path fill-rule="evenodd" clip-rule="evenodd" d="M14.5485 0C6.94909 0 0.788574 6.16052 0.788574 13.7599V42.3863C0.788574 49.9857 6.9491 56.1463 14.5485 56.1463H88.3003L106.62 75.064L124.939 56.1463H199.452C207.051 56.1463 213.212 49.9857 213.212 42.3863V13.7599C213.212 6.16052 207.051 0 199.452 0H14.5485Z"/>
</mask>
<path fill-rule="evenodd" clip-rule="evenodd" d="M14.5485 0C6.94909 0 0.788574 6.16052 0.788574 13.7599V42.3863C0.788574 49.9857 6.9491 56.1463 14.5485 56.1463H88.3003L106.62 75.064L124.939 56.1463H199.452C207.051 56.1463 213.212 49.9857 213.212 42.3863V13.7599C213.212 6.16052 207.051 0 199.452 0H14.5485Z" fill="white"/>
<path d="M88.3003 56.1463L89.3778 55.1028L88.9358 54.6463H88.3003V56.1463ZM106.62 75.064L105.542 76.1075L106.62 77.2202L107.697 76.1075L106.62 75.064ZM124.939 56.1463V54.6463H124.303L123.861 55.1028L124.939 56.1463ZM2.28857 13.7599C2.28857 6.98895 7.77752 1.5 14.5485 1.5V-1.5C6.12066 -1.5 -0.711426 5.33209 -0.711426 13.7599H2.28857ZM2.28857 42.3863V13.7599H-0.711426V42.3863H2.28857ZM14.5485 54.6463C7.77753 54.6463 2.28857 49.1573 2.28857 42.3863H-0.711426C-0.711426 50.8142 6.12067 57.6463 14.5485 57.6463V54.6463ZM88.3003 54.6463H14.5485V57.6463H88.3003V54.6463ZM87.2227 57.1897L105.542 76.1075L107.697 74.0205L89.3778 55.1028L87.2227 57.1897ZM107.697 76.1075L126.017 57.1897L123.861 55.1028L105.542 74.0205L107.697 76.1075ZM199.452 54.6463H124.939V57.6463H199.452V54.6463ZM211.712 42.3863C211.712 49.1573 206.223 54.6463 199.452 54.6463V57.6463C207.879 57.6463 214.712 50.8142 214.712 42.3863H211.712ZM211.712 13.7599V42.3863H214.712V13.7599H211.712ZM199.452 1.5C206.223 1.5 211.712 6.98895 211.712 13.7599H214.712C214.712 5.33209 207.879 -1.5 199.452 -1.5V1.5ZM14.5485 1.5H199.452V-1.5H14.5485V1.5Z" fill="black" mask="url(#path-1-inside-1_2535_1083)"/>
<path d="M162.519 25.1884C164.332 25.1884 165.792 24.9366 166.9 24.433C168.655 23.6417 169.749 22.2173 170.181 20.1599C170.627 18.0881 170.087 16.6925 168.562 15.9731C167.684 15.5703 166.31 15.3689 164.44 15.3689H156.779L154.707 25.1884H162.519ZM160.857 39.8205C163.49 39.8205 165.526 39.0579 166.965 37.5329C167.871 36.5689 168.476 35.4035 168.778 34.0367C169.267 31.7347 168.569 30.1664 166.684 29.332C165.692 28.886 164.296 28.6629 162.498 28.6629H153.973L151.599 39.8205H160.857ZM153.347 11.7864H166.965C170.677 11.7864 173.08 12.8942 174.173 15.1099C174.821 16.4192 174.957 17.9299 174.583 19.642C174.166 21.6418 173.252 23.282 171.842 24.5625C171.109 25.2387 170.13 25.8574 168.907 26.4185C170.389 27.0372 171.454 27.735 172.101 28.5119C173.238 29.8931 173.547 31.7994 173.029 34.2309C172.598 36.274 171.562 38.1227 169.922 39.7773C167.49 42.252 164.188 43.4893 160.016 43.4893H146.614L153.347 11.7864Z" fill="#050505"/>
<path d="M41.5219 11.7864H46.5935L57.1468 37.4681L62.6069 11.7864H66.6857L59.9524 43.4893H55.1397L44.3275 17.8291L38.889 43.4893H34.7886L41.5219 11.7864Z" fill="#050505"/>
<path d="M77.6184 48C72.1956 45.5548 69 39.3219 69 31.8904C69 21.6781 75.3912 8.15753 86.4789 6L86.7694 7.77397C77.0858 10.3151 72.7766 24.6507 72.7766 33.5205C72.7766 39.6575 74.8102 44.2603 78.5867 46.4658L77.6184 48Z" fill="black"/>
<path d="M129.932 46.226C139.616 43.6849 143.925 29.3493 143.925 20.4795C143.925 14.3425 141.891 9.73973 138.115 7.53425L139.083 6C144.506 8.44521 147.75 14.6781 147.75 22.1096C147.75 32.3219 141.31 45.8425 130.223 48L129.932 46.226Z" fill="black"/>
<path d="M136.351 24.8121L137.557 25.7041L137.532 28.3214C135.555 27.2113 133.934 26.4353 132.669 25.9935C130.53 25.2375 128.182 24.8477 125.627 24.8239C123.99 24.8086 122.477 24.9269 121.089 25.1786C118.972 25.5641 116.944 26.2688 115.005 27.2928L113.595 28.0364L113.621 25.3695C115.403 24.1291 117.065 23.1893 118.608 22.5504C120.872 21.6039 123.148 21.1413 125.436 21.1626C127.95 21.186 130.5 21.7845 133.086 22.9581C134.533 23.6167 135.621 24.2347 136.351 24.8121Z" fill="black"/>
<path d="M101.092 35.455L100.368 34.9302L100.368 33.3706C101.552 34.021 102.522 34.4744 103.279 34.7306C104.558 35.1692 105.958 35.3884 107.481 35.3884C108.456 35.3884 109.357 35.3096 110.183 35.1519C111.442 34.9105 112.646 34.4793 113.796 33.8584L114.632 33.4076V34.9967C113.577 35.7457 112.592 36.3148 111.676 36.7041C110.332 37.2806 108.979 37.5689 107.615 37.5689C106.118 37.5689 104.595 37.2264 103.047 36.5415C102.181 36.1571 101.53 35.795 101.092 35.455Z" fill="black"/>
<path d="M100.977 24.5526L102.183 25.4446L102.158 28.0618C100.181 26.9518 98.5601 26.1758 97.2948 25.734C95.1556 24.978 92.8084 24.5881 90.253 24.5643C88.6162 24.5491 87.1035 24.6673 85.7147 24.919C83.5981 25.3046 81.5703 26.0093 79.6313 27.0333L78.2212 27.7769L78.2465 25.11C80.0289 23.8695 81.6914 22.9298 83.2342 22.2909C85.4981 21.3443 87.7741 20.8817 90.0623 20.903C92.5759 20.9265 95.1258 21.525 97.712 22.6986C99.1589 23.3572 100.247 23.9751 100.977 24.5526Z" fill="black"/>
<path d="M129.981 28.3521C129.981 31.0952 127.588 33.3189 124.635 33.3189C121.683 33.3189 119.29 31.0952 119.29 28.3521C119.29 25.609 121.683 23.3853 124.635 23.3853C127.588 23.3853 129.981 25.609 129.981 28.3521Z" fill="black"/>
<path d="M95.0031 28.2197C95.0031 30.9628 92.6097 33.1866 89.6573 33.1866C86.7049 33.1866 84.3115 30.9628 84.3115 28.2197C84.3115 25.4767 86.7049 23.2529 89.6573 23.2529C92.6097 23.2529 95.0031 25.4767 95.0031 28.2197Z" fill="black"/>
</svg>
