<svg width="34" height="33" viewBox="0 0 34 33" fill="none" xmlns="http://www.w3.org/2000/svg">
<g clip-path="url(#clip0_1005_714)">
<path fill-rule="evenodd" clip-rule="evenodd" d="M33.8979 16.4743C33.8979 25.5729 26.5221 32.9487 17.4236 32.9487C8.32504 32.9487 0.949219 25.5729 0.949219 16.4743C0.949219 7.37582 8.32504 0 17.4236 0C26.5221 0 33.8979 7.37582 33.8979 16.4743ZM18.0139 12.1621C16.4116 12.8286 13.2091 14.208 8.40646 16.3004C7.62659 16.6106 7.21806 16.914 7.18087 17.2106C7.11802 17.712 7.74586 17.9094 8.60082 18.1782C8.71712 18.2148 8.83762 18.2527 8.96116 18.2929C9.80231 18.5663 10.9338 18.8862 11.522 18.8989C12.0556 18.9104 12.6511 18.6904 13.3086 18.2389C17.7958 15.2099 20.1122 13.6789 20.2576 13.6459C20.3602 13.6226 20.5023 13.5934 20.5987 13.679C20.695 13.7646 20.6855 13.9268 20.6753 13.9703C20.6131 14.2354 18.1486 16.5266 16.8732 17.7124C16.4756 18.082 16.1936 18.3442 16.1359 18.4041C16.0068 18.5382 15.8752 18.6651 15.7486 18.7871C14.9672 19.5404 14.3812 20.1053 15.7811 21.0278C16.4538 21.4712 16.9922 21.8378 17.5292 22.2035C18.1157 22.6029 18.7007 23.0013 19.4576 23.4974C19.6505 23.6239 19.8346 23.7552 20.014 23.883C20.6966 24.3696 21.3098 24.8068 22.0674 24.7371C22.5076 24.6966 22.9623 24.2827 23.1933 23.0481C23.739 20.1305 24.8118 13.8089 25.0597 11.2039C25.0814 10.9757 25.0541 10.6836 25.0322 10.5554C25.0102 10.4271 24.9644 10.2444 24.7977 10.1092C24.6003 9.94905 24.2956 9.91527 24.1593 9.91767C23.5397 9.92859 22.589 10.2591 18.0139 12.1621Z" fill="white"/>
</g>
<defs>
<clipPath id="clip0_1005_714">
<rect width="32.9487" height="32.9487" fill="white" transform="translate(0.949219)"/>
</clipPath>
</defs>
</svg>
