<svg width="46" height="45" viewBox="0 0 46 45" fill="none" xmlns="http://www.w3.org/2000/svg">
<path d="M7.37556 35.8736L7.00711 36.1399L6.96551 36.5926C6.60045 40.5657 9.6432 44 13.4171 44C14.3259 44 15.296 43.7398 16.1875 43.3987L16.6388 43.2261L16.784 42.7652C18.4745 37.399 20.4095 32.758 22.966 28.509C25.5433 32.7652 27.5628 37.4089 29.2502 42.7652L29.3868 43.1988L29.8033 43.381C30.6375 43.7457 31.6135 44 32.6171 44C36.3909 44 39.4337 40.5657 39.0686 36.5926L39.027 36.1399L38.6586 35.8736C34.1512 32.616 30.4236 29.1947 27.2337 25.3726C32.0111 24.1828 36.9294 23.6718 42.4621 23.7675L42.9122 23.7753L43.2165 23.4434C46.8072 19.5271 44.6659 13.4937 39.6553 12.3714L39.1875 12.2666L38.8128 12.5658C34.5207 15.9931 30.1491 18.5564 25.6175 20.4932C25.9449 15.4775 26.9567 10.5792 28.738 5.31808L28.8784 4.90355L28.6691 4.51919C27.4565 2.29219 25.3481 1 22.9646 1C20.5811 1 18.4727 2.29219 17.2601 4.51919L17.0508 4.90355L17.1912 5.31808C18.9771 10.5928 20.0725 15.4931 20.4147 20.5028C15.818 18.5671 11.5124 16.0013 7.10824 12.5593L6.73295 12.266L6.26871 12.3726C1.35745 13.5001 -0.756617 19.5245 2.70107 23.4305L3.00647 23.7754L3.46713 23.7675C9.00193 23.6718 14.0069 24.1832 18.8 25.3732C15.6102 29.195 11.8827 32.6162 7.37556 35.8736Z" fill="white" stroke="white" stroke-width="2"/>
</svg>
