<svg width="300" height="315" viewBox="0 0 300 315" fill="none" xmlns="http://www.w3.org/2000/svg">
<rect y="15" width="300" height="300" rx="30" fill="black"/>
<rect x="0.5" y="0.5" width="299" height="299" rx="29.5" fill="white" stroke="black"/>
<path d="M29.4243 83.755C29.4243 83.8293 29.4021 83.8887 29.3575 83.9332C29.313 83.9777 29.2536 84 29.1794 84H19.6257C19.4698 84 19.3919 83.9183 19.3919 83.755L19.5143 75.9384L19.3919 68.6562C19.3919 68.4929 19.4698 68.4112 19.6257 68.4112H29.0012C29.0754 68.4112 29.1348 68.4335 29.1794 68.4781C29.2239 68.5226 29.2462 68.582 29.2462 68.6562V69.7586C29.2462 69.8328 29.2239 69.8922 29.1794 69.9367C29.1348 69.9813 29.0754 70.0035 29.0012 70.0035H21.5743L21.4629 74.8806H28.4667C28.541 74.8806 28.6004 74.9028 28.6449 74.9474C28.6894 74.9919 28.7117 75.0513 28.7117 75.1255V76.2279C28.7117 76.3021 28.6894 76.3615 28.6449 76.406C28.6004 76.4506 28.541 76.4729 28.4667 76.4729H21.4629L21.5743 82.4077H29.1794C29.3427 82.4077 29.4243 82.4894 29.4243 82.6527V83.755ZM36.1252 84.2561C34.9895 84.2561 34.017 84.0148 33.2079 83.5323C32.4062 83.0424 31.7938 82.3483 31.3707 81.4501C30.955 80.5519 30.7471 79.5015 30.7471 78.299C30.7471 77.089 30.955 76.0312 31.3707 75.1255C31.7938 74.2199 32.4136 73.5184 33.2302 73.0211C34.0467 72.5237 35.0266 72.275 36.1698 72.275C37.0903 72.275 37.8957 72.4383 38.586 72.765C39.2764 73.0916 39.8257 73.5555 40.234 74.1568C40.6423 74.7507 40.8947 75.4447 40.9912 76.239V76.2836C40.9912 76.4246 40.9132 76.4951 40.7573 76.4951H39.3432C39.1947 76.4951 39.1094 76.4209 39.0871 76.2724C38.9386 75.4336 38.6009 74.7989 38.0738 74.3684C37.5542 73.9304 36.9195 73.7114 36.1698 73.7114C35.0637 73.7188 34.236 74.116 33.6867 74.9028C33.1448 75.6897 32.8739 76.818 32.8739 78.2878C32.8739 79.7799 33.1448 80.9119 33.6867 81.684C34.236 82.4485 35.0674 82.8308 36.1809 82.8308C37.0123 82.8308 37.699 82.5785 38.2409 82.0737C38.7902 81.5689 39.1131 80.8563 39.2096 79.9358C39.2319 79.7799 39.3172 79.702 39.4657 79.702H40.9021C41.0802 79.702 41.1619 79.7762 41.147 79.9247C41.058 80.7709 40.8019 81.5206 40.3787 82.1739C39.9556 82.8271 39.3803 83.3393 38.6528 83.7105C37.9254 84.0742 37.0828 84.2561 36.1252 84.2561ZM42.4345 84.167C42.1673 84.167 41.9149 84.1336 41.6773 84.0668C41.5437 84.0371 41.4769 83.948 41.4769 83.7996V82.8642C41.4769 82.7158 41.54 82.6416 41.6662 82.6416C41.733 82.6416 41.7961 82.649 41.8555 82.6638C41.9223 82.6712 41.9891 82.675 42.0559 82.675C42.3603 82.675 42.6015 82.6081 42.7797 82.4745C42.9578 82.3335 43.0952 82.0959 43.1917 81.7619C43.2956 81.4279 43.3773 80.9528 43.4366 80.3366C43.5034 79.6092 43.5703 78.5254 43.6371 77.0853C43.7039 75.6452 43.7595 74.2088 43.8041 72.7761C43.8115 72.7019 43.8375 72.6425 43.882 72.5979C43.9266 72.5534 43.986 72.5311 44.0602 72.5311H51.6096C51.7729 72.5311 51.8546 72.6128 51.8546 72.7761L51.8212 78.1876L51.9214 83.755C51.9214 83.9183 51.8397 84 51.6764 84L50.073 84.0111C49.9097 84.0111 49.828 83.9295 49.828 83.7662L49.8614 78.1876L49.7946 74.0232H45.5523C45.4112 77.1855 45.2962 79.3382 45.2071 80.4814C45.1328 81.3276 45.0066 82.0143 44.8285 82.5413C44.6503 83.0684 44.372 83.473 43.9934 83.755C43.6148 84.0297 43.0952 84.167 42.4345 84.167ZM54.4579 84C54.302 84 54.224 83.9183 54.224 83.755L54.2908 78.0763L54.2129 72.7761C54.2129 72.6128 54.2908 72.5311 54.4467 72.5311H56.0501C56.2134 72.5311 56.2951 72.6128 56.2951 72.7761L56.2617 77.8647L56.206 81.7619L61.5173 72.7093C61.5693 72.5905 61.6695 72.5311 61.818 72.5311H63.7888C63.9522 72.5311 64.0338 72.6128 64.0338 72.7761L63.9559 78.0763L64.0338 83.755C64.0338 83.9183 63.9522 84 63.7888 84H62.1966C62.0332 84 61.9516 83.9183 61.9516 83.755L61.9961 78.3546L62.0295 74.836L56.7628 83.8218C56.696 83.9406 56.5957 84 56.4621 84H54.4579ZM79.4333 72.5311C79.5075 72.5311 79.5669 72.5534 79.6114 72.5979C79.656 72.6425 79.6782 72.7019 79.6782 72.7761V73.7894C79.6782 73.9527 79.5966 74.0343 79.4333 74.0343H75.7365L75.6808 78.0763L75.7588 83.755C75.7588 83.9183 75.6771 84 75.5138 84H73.877C73.7137 84 73.632 83.9183 73.632 83.755L73.71 78.0763L73.6543 74.0343H69.9687C69.8944 74.0343 69.835 74.0121 69.7905 73.9675C69.746 73.923 69.7237 73.8636 69.7237 73.7894V72.7761C69.7237 72.6128 69.8054 72.5311 69.9687 72.5311H79.4333ZM85.4038 84.2561C84.2309 84.2561 83.2325 84.0074 82.4085 83.5101C81.592 83.0127 80.9721 82.3149 80.549 81.4167C80.1259 80.5185 79.9143 79.4793 79.9143 78.299C79.9143 77.1038 80.1259 76.0534 80.549 75.1478C80.9796 74.2422 81.5994 73.537 82.4085 73.0322C83.2177 72.5274 84.179 72.275 85.2924 72.275C86.3911 72.275 87.3338 72.5126 88.1207 72.9877C88.915 73.4627 89.5237 74.1494 89.9468 75.0476C90.3774 75.9458 90.6075 77.0185 90.6372 78.2656C90.6372 78.4363 90.5555 78.5217 90.3922 78.5217H82.0077C82.0745 81.3945 83.2139 82.8308 85.4261 82.8308C86.2575 82.8308 86.9256 82.6119 87.4303 82.1739C87.9425 81.7285 88.284 81.0827 88.4547 80.2364C88.4919 80.088 88.5809 80.0137 88.722 80.0137H90.1918C90.2734 80.0137 90.3365 80.0323 90.3811 80.0694C90.4256 80.1065 90.4442 80.1622 90.4367 80.2364C90.3105 81.0307 90.0322 81.7322 89.6016 82.3409C89.1785 82.9422 88.6106 83.4136 87.898 83.755C87.1854 84.0891 86.354 84.2561 85.4038 84.2561ZM88.4213 77.1298C88.3991 76.4914 88.2654 75.9124 88.0205 75.3928C87.7755 74.8657 87.4229 74.45 86.9627 74.1457C86.5024 73.8413 85.9494 73.6892 85.3036 73.6892C84.3608 73.6892 83.6185 73.9898 83.0766 74.5911C82.5347 75.1849 82.197 76.0312 82.0633 77.1298H88.4213ZM97.9787 73.0211C98.9808 73.0211 99.8308 73.2586 100.529 73.7337C101.234 74.2088 101.761 74.862 102.11 75.6934C102.459 76.5248 102.633 77.4713 102.633 78.5328C102.633 79.6686 102.421 80.667 101.998 81.5281C101.575 82.3817 100.967 83.0461 100.172 83.5212C99.3779 83.9889 98.4389 84.2227 97.3551 84.2227C96.2119 84.2227 95.2506 83.948 94.4712 83.3987C93.6918 82.8494 93.1053 82.0588 92.7119 81.027C92.3259 79.9952 92.1329 78.7592 92.1329 77.3191C92.1329 74.914 92.5115 73.0396 93.2686 71.696C94.0258 70.3524 95.2395 69.5062 96.9097 69.1573C97.2141 69.0905 97.5964 69.0237 98.0566 68.9568C98.5243 68.89 98.9882 68.8307 99.4485 68.7787C100.562 68.6451 101.349 68.5337 101.809 68.4446H101.854C102.002 68.4446 102.076 68.5226 102.076 68.6785V69.792C102.076 69.9478 102.006 70.0369 101.865 70.0592C101.323 70.178 100.488 70.3005 99.3594 70.4266C98.3127 70.5528 97.589 70.6605 97.1881 70.7496C96.0895 70.9945 95.2878 71.5327 94.783 72.3641C94.2782 73.1881 93.9738 74.3053 93.8699 75.7157C94.2262 74.8843 94.7459 74.2273 95.4288 73.7448C96.1117 73.2623 96.9617 73.0211 97.9787 73.0211ZM97.3663 82.7974C98.3758 82.7974 99.1553 82.4337 99.7046 81.7062C100.261 80.9713 100.54 79.9543 100.54 78.6553C100.54 77.3488 100.272 76.3244 99.738 75.5821C99.2109 74.8323 98.4538 74.4575 97.4665 74.4575C96.8132 74.4575 96.2453 74.6208 95.7628 74.9474C95.2803 75.274 94.9055 75.7528 94.6382 76.3838C94.3784 77.0148 94.2485 77.7719 94.2485 78.6553C94.2485 79.4867 94.3673 80.2142 94.6048 80.8377C94.8424 81.4538 95.195 81.9363 95.6626 82.2852C96.1303 82.6267 96.6982 82.7974 97.3663 82.7974ZM109.599 84.2561C108.426 84.2561 107.427 84.0074 106.603 83.5101C105.787 83.0127 105.167 82.3149 104.744 81.4167C104.321 80.5185 104.109 79.4793 104.109 78.299C104.109 77.1038 104.321 76.0534 104.744 75.1478C105.174 74.2422 105.794 73.537 106.603 73.0322C107.412 72.5274 108.374 72.275 109.487 72.275C110.586 72.275 111.529 72.5126 112.315 72.9877C113.11 73.4627 113.718 74.1494 114.142 75.0476C114.572 75.9458 114.802 77.0185 114.832 78.2656C114.832 78.4363 114.75 78.5217 114.587 78.5217H106.202C106.269 81.3945 107.409 82.8308 109.621 82.8308C110.452 82.8308 111.12 82.6119 111.625 82.1739C112.137 81.7285 112.479 81.0827 112.649 80.2364C112.687 80.088 112.776 80.0137 112.917 80.0137H114.387C114.468 80.0137 114.531 80.0323 114.576 80.0694C114.62 80.1065 114.639 80.1622 114.631 80.2364C114.505 81.0307 114.227 81.7322 113.796 82.3409C113.373 82.9422 112.805 83.4136 112.093 83.755C111.38 84.0891 110.549 84.2561 109.599 84.2561ZM112.616 77.1298C112.594 76.4914 112.46 75.9124 112.215 75.3928C111.97 74.8657 111.618 74.45 111.157 74.1457C110.697 73.8413 110.144 73.6892 109.498 73.6892C108.556 73.6892 107.813 73.9898 107.271 74.5911C106.729 75.1849 106.392 76.0312 106.258 77.1298H112.616ZM129.579 72.5311C129.653 72.5311 129.713 72.5534 129.757 72.5979C129.802 72.6425 129.824 72.7019 129.824 72.7761V73.7894C129.824 73.9527 129.742 74.0343 129.579 74.0343H125.882L125.827 78.0763L125.905 83.755C125.905 83.9183 125.823 84 125.66 84H124.023C123.86 84 123.778 83.9183 123.778 83.755L123.856 78.0763L123.8 74.0343H120.115C120.04 74.0343 119.981 74.0121 119.936 73.9675C119.892 73.923 119.87 73.8636 119.87 73.7894V72.7761C119.87 72.6128 119.951 72.5311 120.115 72.5311H129.579ZM130.84 84C130.699 84 130.629 83.948 130.629 83.8441C130.629 83.7996 130.644 83.7513 130.673 83.6994L133.357 79.3122C132.451 79.1267 131.753 78.7592 131.263 78.2099C130.781 77.6531 130.54 76.9071 130.54 75.9718C130.54 74.8212 130.937 73.9601 131.731 73.3885C132.533 72.8169 133.706 72.5311 135.25 72.5311H139.592C139.748 72.5311 139.826 72.6128 139.826 72.7761L139.759 78.0985L139.826 83.755C139.826 83.9183 139.748 84 139.592 84H137.933C137.77 84 137.688 83.9183 137.688 83.755L137.744 79.5349H135.183L133.735 82.0625L132.733 83.833C132.666 83.9443 132.57 84 132.444 84H130.84ZM137.766 78.1097L137.711 73.9453H135.15C134.348 73.9453 133.724 74.1271 133.279 74.4909C132.841 74.8472 132.622 75.3482 132.622 75.9941C132.622 76.6918 132.841 77.2189 133.279 77.5752C133.717 77.9315 134.344 78.1097 135.161 78.1097H137.766ZM156.21 72.5311C156.277 72.5311 156.329 72.546 156.366 72.5757C156.403 72.6054 156.422 72.6425 156.422 72.687C156.422 72.7241 156.4 72.7724 156.355 72.8318L152.903 77.5529L156.856 83.6994C156.886 83.7365 156.901 83.781 156.901 83.833C156.901 83.8849 156.882 83.9258 156.845 83.9555C156.808 83.9852 156.756 84 156.689 84H154.863C154.729 84 154.629 83.9443 154.562 83.833L153.605 82.185L151.266 78.5551H150.019L150.075 83.755C150.075 83.9183 149.997 84 149.841 84H148.193C148.03 84 147.948 83.9183 147.948 83.755L148.015 78.5551H146.757L144.419 82.185L143.461 83.833C143.394 83.9443 143.294 84 143.16 84H141.334C141.267 84 141.215 83.9852 141.178 83.9555C141.141 83.9258 141.123 83.8849 141.123 83.833C141.123 83.781 141.137 83.7365 141.167 83.6994L145.12 77.5529L141.668 72.8318C141.624 72.7724 141.601 72.7241 141.601 72.687C141.601 72.6425 141.62 72.6054 141.657 72.5757C141.694 72.546 141.746 72.5311 141.813 72.5311H143.372C143.491 72.5311 143.591 72.5831 143.673 72.687L146.757 77.0741H148.004L147.948 72.7761C147.948 72.6128 148.03 72.5311 148.193 72.5311H149.841C149.997 72.5311 150.075 72.6128 150.075 72.7761L150.019 77.0741H151.266L154.351 72.687C154.432 72.5831 154.533 72.5311 154.651 72.5311H156.21ZM162.354 84.2561C161.181 84.2561 160.183 84.0074 159.359 83.5101C158.542 83.0127 157.922 82.3149 157.499 81.4167C157.076 80.5185 156.865 79.4793 156.865 78.299C156.865 77.1038 157.076 76.0534 157.499 75.1478C157.93 74.2422 158.55 73.537 159.359 73.0322C160.168 72.5274 161.129 72.275 162.243 72.275C163.341 72.275 164.284 72.5126 165.071 72.9877C165.865 73.4627 166.474 74.1494 166.897 75.0476C167.328 75.9458 167.558 77.0185 167.588 78.2656C167.588 78.4363 167.506 78.5217 167.343 78.5217H158.958C159.025 81.3945 160.164 82.8308 162.376 82.8308C163.208 82.8308 163.876 82.6119 164.381 82.1739C164.893 81.7285 165.234 81.0827 165.405 80.2364C165.442 80.088 165.531 80.0137 165.672 80.0137H167.142C167.224 80.0137 167.287 80.0323 167.331 80.0694C167.376 80.1065 167.395 80.1622 167.387 80.2364C167.261 81.0307 166.983 81.7322 166.552 82.3409C166.129 82.9422 165.561 83.4136 164.848 83.755C164.136 84.0891 163.304 84.2561 162.354 84.2561ZM165.372 77.1298C165.349 76.4914 165.216 75.9124 164.971 75.3928C164.726 74.8657 164.373 74.45 163.913 74.1457C163.453 73.8413 162.9 73.6892 162.254 73.6892C161.311 73.6892 160.569 73.9898 160.027 74.5911C159.485 75.1849 159.147 76.0312 159.014 77.1298H165.372ZM168.683 84.167C168.415 84.167 168.163 84.1336 167.925 84.0668C167.792 84.0371 167.725 83.948 167.725 83.7996V82.8642C167.725 82.7158 167.788 82.6416 167.914 82.6416C167.981 82.6416 168.044 82.649 168.104 82.6638C168.17 82.6712 168.237 82.675 168.304 82.675C168.608 82.675 168.85 82.6081 169.028 82.4745C169.206 82.3335 169.343 82.0959 169.44 81.7619C169.544 81.4279 169.625 80.9528 169.685 80.3366C169.751 79.6092 169.818 78.5254 169.885 77.0853C169.952 75.6452 170.008 74.2088 170.052 72.7761C170.06 72.7019 170.086 72.6425 170.13 72.5979C170.175 72.5534 170.234 72.5311 170.308 72.5311H177.858C178.021 72.5311 178.103 72.6128 178.103 72.7761L178.069 78.1876L178.169 83.755C178.169 83.9183 178.088 84 177.924 84L176.321 84.0111C176.158 84.0111 176.076 83.9295 176.076 83.7662L176.109 78.1876L176.043 74.0232H171.8C171.659 77.1855 171.544 79.3382 171.455 80.4814C171.381 81.3276 171.255 82.0143 171.077 82.5413C170.898 83.0684 170.62 83.473 170.241 83.755C169.863 84.0297 169.343 84.167 168.683 84.167ZM185.472 84.2561C184.321 84.2561 183.337 84.0111 182.521 83.5212C181.704 83.0313 181.081 82.3372 180.65 81.439C180.227 80.5408 180.016 79.4904 180.016 78.2878C180.016 77.0778 180.227 76.0238 180.65 75.1255C181.081 74.2199 181.704 73.5184 182.521 73.0211C183.345 72.5237 184.328 72.275 185.472 72.275C186.615 72.275 187.595 72.52 188.411 73.0099C189.228 73.4999 189.848 74.1976 190.271 75.1033C190.694 76.0015 190.905 77.0519 190.905 78.2544C190.905 79.4644 190.694 80.5222 190.271 81.4279C189.848 82.3261 189.228 83.0238 188.411 83.5212C187.595 84.0111 186.615 84.2561 185.472 84.2561ZM185.472 82.8308C186.57 82.8308 187.394 82.4411 187.944 81.6617C188.5 80.8822 188.779 79.7576 188.779 78.2878C188.779 76.8255 188.497 75.6971 187.932 74.9028C187.376 74.1011 186.552 73.7003 185.46 73.7003C184.354 73.7077 183.523 74.1086 182.966 74.9028C182.41 75.6971 182.131 76.8292 182.131 78.299C182.131 79.7613 182.413 80.8822 182.977 81.6617C183.542 82.4411 184.373 82.8308 185.472 82.8308ZM27.164 91.7872C27.1565 91.7056 27.1751 91.6425 27.2196 91.5979C27.2642 91.5534 27.3273 91.5311 27.4089 91.5311H29.0012C29.1645 91.5311 29.2462 91.6128 29.2462 91.7761L29.1571 97.1431L29.2462 102.755C29.2462 102.918 29.1645 103 29.0012 103H27.4201C27.3384 103 27.2753 102.978 27.2308 102.933C27.1862 102.889 27.1677 102.829 27.1751 102.755L27.2085 101.029C26.8299 101.727 26.3326 102.265 25.7164 102.644C25.1003 103.022 24.3803 103.212 23.5563 103.212C22.5541 103.212 21.6968 102.955 20.9841 102.443C20.2715 101.924 19.7296 101.218 19.3584 100.328C18.9947 99.4294 18.8128 98.4162 18.8128 97.2878C18.8128 96.1744 19.0021 95.1648 19.3807 94.2592C19.7593 93.3461 20.3086 92.6261 21.0287 92.099C21.7561 91.572 22.6098 91.3084 23.5897 91.3084C24.4062 91.3084 25.1189 91.4829 25.7276 91.8318C26.3437 92.1807 26.8373 92.6966 27.2085 93.3795L27.164 91.7872ZM24.0573 101.786C25.0669 101.786 25.8538 101.408 26.4179 100.651C26.9821 99.886 27.2642 98.7613 27.2642 97.2767C27.2642 95.8292 26.9858 94.712 26.4291 93.9251C25.8723 93.1308 25.0892 92.7337 24.0796 92.7337C23.0255 92.7337 22.2312 93.1308 21.6968 93.9251C21.1623 94.7194 20.8951 95.7921 20.8951 97.1431C20.8951 98.5683 21.1623 99.7004 21.6968 100.539C22.2312 101.371 23.0181 101.786 24.0573 101.786ZM30.8506 105.728C30.7764 105.728 30.717 105.706 30.6725 105.661C30.6279 105.617 30.6057 105.557 30.6057 105.483V101.764C30.6057 101.69 30.6279 101.63 30.6725 101.586C30.717 101.541 30.7764 101.519 30.8506 101.519H31.5076C31.8045 101.2 32.0346 100.792 32.1979 100.294C32.3687 99.7969 32.4986 99.1696 32.5877 98.4125C32.6767 97.6553 32.7547 96.6717 32.8215 95.4617C32.8957 94.2443 32.9514 93.0158 32.9885 91.7761C32.9959 91.7019 33.0219 91.6425 33.0665 91.5979C33.111 91.5534 33.1704 91.5311 33.2446 91.5311H40.6716C40.8349 91.5311 40.9165 91.6128 40.9165 91.7761L40.9277 96.9092L41.0724 101.519L42.2638 101.508C42.4346 101.508 42.5199 101.59 42.5199 101.753V105.483C42.5199 105.557 42.4977 105.617 42.4531 105.661C42.4086 105.706 42.3455 105.728 42.2638 105.728H40.9388C40.8646 105.728 40.8052 105.706 40.7606 105.661C40.7161 105.617 40.6938 105.557 40.6938 105.483L40.6381 103H32.5097L32.454 105.483C32.454 105.557 32.4318 105.617 32.3872 105.661C32.3427 105.706 32.2833 105.728 32.2091 105.728H30.8506ZM39.0236 101.519L39.0125 96.9092L38.9234 93.0343H34.7256C34.6365 95.3726 34.514 97.1802 34.3581 98.457C34.2764 99.1845 34.1651 99.7783 34.0241 100.239C33.8904 100.699 33.7123 101.126 33.4896 101.519H39.0236ZM51.4675 91.7872C51.46 91.7056 51.4786 91.6425 51.5231 91.5979C51.5677 91.5534 51.6308 91.5311 51.7124 91.5311H53.3047C53.468 91.5311 53.5497 91.6128 53.5497 91.7761L53.4606 97.1431L53.5497 102.755C53.5497 102.918 53.468 103 53.3047 103H51.7236C51.6419 103 51.5788 102.978 51.5343 102.933C51.4897 102.889 51.4712 102.829 51.4786 102.755L51.512 101.029C51.1334 101.727 50.6361 102.265 50.0199 102.644C49.4038 103.022 48.6838 103.212 47.8598 103.212C46.8576 103.212 46.0003 102.955 45.2876 102.443C44.575 101.924 44.0331 101.218 43.6619 100.328C43.2982 99.4294 43.1163 98.4162 43.1163 97.2878C43.1163 96.1744 43.3056 95.1648 43.6842 94.2592C44.0628 93.3461 44.6121 92.6261 45.3322 92.099C46.0596 91.572 46.9133 91.3084 47.8932 91.3084C48.7097 91.3084 49.4224 91.4829 50.0311 91.8318C50.6472 92.1807 51.1408 92.6966 51.512 93.3795L51.4675 91.7872ZM48.3608 101.786C49.3704 101.786 50.1573 101.408 50.7214 100.651C51.2856 99.886 51.5677 98.7613 51.5677 97.2767C51.5677 95.8292 51.2893 94.712 50.7326 93.9251C50.1758 93.1308 49.3927 92.7337 48.3831 92.7337C47.329 92.7337 46.5347 93.1308 46.0003 93.9251C45.4658 94.7194 45.1986 95.7921 45.1986 97.1431C45.1986 98.5683 45.4658 99.7004 46.0003 100.539C46.5347 101.371 47.3216 101.786 48.3608 101.786ZM65.0753 91.5311C65.2386 91.5311 65.3202 91.6128 65.3202 91.7761L65.2423 97.0763L65.3202 102.755C65.3202 102.918 65.2386 103 65.0753 103H63.4273C63.2714 103 63.1935 102.918 63.1935 102.755L63.2603 97.0763L63.2157 93.0343H57.9267L57.871 97.0763L57.949 102.755C57.949 102.918 57.8673 103 57.704 103H56.0561C55.9002 103 55.8222 102.918 55.8222 102.755L55.889 97.0763L55.8222 91.7761C55.8222 91.6128 55.9002 91.5311 56.0561 91.5311H65.0753ZM76.546 91.5311C76.6203 91.5311 76.6797 91.5534 76.7242 91.5979C76.7687 91.6425 76.791 91.7019 76.791 91.7761V92.7894C76.791 92.9527 76.7094 93.0343 76.546 93.0343H72.8493L72.7936 97.0763L72.8716 102.755C72.8716 102.918 72.7899 103 72.6266 103H70.9898C70.8265 103 70.7448 102.918 70.7448 102.755L70.8227 97.0763L70.7671 93.0343H67.0814C67.0072 93.0343 66.9478 93.0121 66.9033 92.9675C66.8587 92.923 66.8365 92.8636 66.8365 92.7894V91.7761C66.8365 91.6128 66.9181 91.5311 67.0814 91.5311H76.546ZM78.5874 103C78.4315 103 78.3535 102.918 78.3535 102.755L78.4203 97.0763L78.3424 91.7761C78.3424 91.6128 78.4203 91.5311 78.5762 91.5311H80.1796C80.343 91.5311 80.4246 91.6128 80.4246 91.7761L80.3912 96.8647L80.3355 100.762L85.6468 91.7093C85.6988 91.5905 85.799 91.5311 85.9475 91.5311H87.9184C88.0817 91.5311 88.1633 91.6128 88.1633 91.7761L88.0854 97.0763L88.1633 102.755C88.1633 102.918 88.0817 103 87.9184 103H86.3261C86.1628 103 86.0811 102.918 86.0811 102.755L86.1256 97.3546L86.1591 93.836L80.8923 102.822C80.8255 102.941 80.7253 103 80.5916 103H78.5874ZM96.1183 91.2973C97.1204 91.2973 97.9778 91.5571 98.6904 92.0767C99.4031 92.5889 99.9412 93.2941 100.305 94.1924C100.676 95.0906 100.862 96.1038 100.862 97.2322C100.862 98.3456 100.669 99.3589 100.283 100.272C99.9041 101.178 99.3548 101.898 98.6348 102.432C97.9147 102.959 97.0647 103.223 96.0849 103.223C95.2757 103.223 94.5705 103.052 93.9693 102.71C93.368 102.362 92.8818 101.857 92.5106 101.196L92.5551 106.541C92.5551 106.704 92.4735 106.786 92.3102 106.786H90.6622C90.4989 106.786 90.4173 106.704 90.4173 106.541L90.5063 97.9782L90.4284 91.7761C90.4284 91.6128 90.5063 91.5311 90.6622 91.5311H92.2656C92.4289 91.5311 92.5106 91.6165 92.5106 91.7872L92.4549 93.4575C92.8409 92.7745 93.342 92.2438 93.9581 91.8652C94.5817 91.4866 95.3017 91.2973 96.1183 91.2973ZM95.5504 101.786C96.6119 101.786 97.4136 101.389 97.9555 100.595C98.5048 99.8006 98.7795 98.7279 98.7795 97.3769C98.7795 95.9591 98.5086 94.8345 97.9667 94.0031C97.4322 93.1642 96.6416 92.7448 95.5949 92.7448C94.5928 92.7448 93.8097 93.1271 93.2455 93.8917C92.6813 94.6563 92.3993 95.7698 92.3993 97.2322C92.3993 98.6797 92.6739 99.8006 93.2232 100.595C93.78 101.389 94.5557 101.786 95.5504 101.786ZM107.787 103.256C106.636 103.256 105.653 103.011 104.836 102.521C104.02 102.031 103.396 101.337 102.966 100.439C102.543 99.5408 102.331 98.4904 102.331 97.2878C102.331 96.0778 102.543 95.0238 102.966 94.1255C103.396 93.2199 104.02 92.5184 104.836 92.0211C105.66 91.5237 106.644 91.275 107.787 91.275C108.93 91.275 109.91 91.52 110.727 92.0099C111.543 92.4999 112.163 93.1976 112.586 94.1033C113.009 95.0015 113.221 96.0519 113.221 97.2544C113.221 98.4644 113.009 99.5222 112.586 100.428C112.163 101.326 111.543 102.024 110.727 102.521C109.91 103.011 108.93 103.256 107.787 103.256ZM107.787 101.831C108.886 101.831 109.71 101.441 110.259 100.662C110.816 99.8822 111.094 98.7576 111.094 97.2878C111.094 95.8255 110.812 94.6971 110.248 93.9028C109.691 93.1011 108.867 92.7003 107.776 92.7003C106.67 92.7077 105.838 93.1086 105.282 93.9028C104.725 94.6971 104.447 95.8292 104.447 97.299C104.447 98.7613 104.729 99.8822 105.293 100.662C105.857 101.441 106.688 101.831 107.787 101.831ZM121.862 96.8647C122.812 97.0726 123.503 97.4177 123.933 97.9002C124.364 98.3753 124.579 98.9989 124.579 99.7709C124.579 100.966 124.115 101.805 123.187 102.287C122.259 102.762 121.157 103 119.88 103H115.292C115.137 103 115.059 102.918 115.059 102.755L115.125 97.0763L115.07 91.7761C115.07 91.6128 115.148 91.5311 115.304 91.5311H119.858C121.268 91.5311 122.348 91.7687 123.098 92.2438C123.855 92.7114 124.234 93.4166 124.234 94.3594C124.234 95.0275 124.026 95.5656 123.61 95.9739C123.202 96.3822 122.619 96.6717 121.862 96.8424V96.8647ZM117.163 92.9453L117.13 96.2634H119.835C121.394 96.2634 122.174 95.7104 122.174 94.6043C122.174 94.0624 121.966 93.6505 121.55 93.3684C121.135 93.0863 120.559 92.9453 119.824 92.9453H117.163ZM117.119 97.6441L117.152 101.586H119.835C120.674 101.586 121.328 101.426 121.795 101.107C122.263 100.78 122.497 100.279 122.497 99.6039C122.497 98.9581 122.244 98.4718 121.74 98.1452C121.242 97.8112 120.611 97.6441 119.847 97.6441H117.119ZM134.29 91.7872C134.282 91.7056 134.301 91.6425 134.345 91.5979C134.39 91.5534 134.453 91.5311 134.535 91.5311H136.127C136.29 91.5311 136.372 91.6128 136.372 91.7761L136.283 97.1431L136.372 102.755C136.372 102.918 136.29 103 136.127 103H134.546C134.464 103 134.401 102.978 134.356 102.933C134.312 102.889 134.293 102.829 134.301 102.755L134.334 101.029C133.956 101.727 133.458 102.265 132.842 102.644C132.226 103.022 131.506 103.212 130.682 103.212C129.68 103.212 128.822 102.955 128.11 102.443C127.397 101.924 126.855 101.218 126.484 100.328C126.12 99.4294 125.939 98.4162 125.939 97.2878C125.939 96.1744 126.128 95.1648 126.506 94.2592C126.885 93.3461 127.434 92.6261 128.154 92.099C128.882 91.572 129.736 91.3084 130.715 91.3084C131.532 91.3084 132.245 91.4829 132.853 91.8318C133.469 92.1807 133.963 92.6966 134.334 93.3795L134.29 91.7872ZM131.183 101.786C132.193 101.786 132.979 101.408 133.544 100.651C134.108 99.886 134.39 98.7613 134.39 97.2767C134.39 95.8292 134.112 94.712 133.555 93.9251C132.998 93.1308 132.215 92.7337 131.205 92.7337C130.151 92.7337 129.357 93.1308 128.822 93.9251C128.288 94.7194 128.021 95.7921 128.021 97.1431C128.021 98.5683 128.288 99.7004 128.822 100.539C129.357 101.371 130.144 101.786 131.183 101.786ZM147.608 91.5311C147.682 91.5311 147.742 91.5534 147.786 91.5979C147.831 91.6425 147.853 91.7019 147.853 91.7761V92.7894C147.853 92.9527 147.771 93.0343 147.608 93.0343H143.911L143.856 97.0763L143.933 102.755C143.933 102.918 143.852 103 143.689 103H142.052C141.888 103 141.807 102.918 141.807 102.755L141.885 97.0763L141.829 93.0343H138.143C138.069 93.0343 138.01 93.0121 137.965 92.9675C137.921 92.923 137.898 92.8636 137.898 92.7894V91.7761C137.898 91.6128 137.98 91.5311 138.143 91.5311H147.608ZM151.475 95.8403H153.457C156.701 95.8403 158.323 97.0206 158.323 99.3812C158.323 101.794 156.701 103 153.457 103H149.638C149.482 103 149.404 102.918 149.404 102.755L149.471 97.466L149.404 91.7761C149.404 91.6128 149.482 91.5311 149.638 91.5311H151.286C151.449 91.5311 151.531 91.6128 151.531 91.7761L151.475 95.8403ZM151.464 97.2544L151.509 101.586H153.457C154.356 101.586 155.042 101.419 155.517 101.085C155.992 100.743 156.23 100.198 156.23 99.448C156.23 98.7131 156 98.1638 155.54 97.8C155.087 97.4363 154.393 97.2544 153.457 97.2544H151.464ZM164.966 103.256C163.831 103.256 162.858 103.015 162.049 102.532C161.247 102.042 160.635 101.348 160.212 100.45C159.796 99.5519 159.588 98.5015 159.588 97.299C159.588 96.089 159.796 95.0312 160.212 94.1255C160.635 93.2199 161.255 92.5184 162.071 92.0211C162.888 91.5237 163.868 91.275 165.011 91.275C165.931 91.275 166.737 91.4383 167.427 91.765C168.118 92.0916 168.667 92.5555 169.075 93.1568C169.484 93.7507 169.736 94.4447 169.832 95.239V95.2836C169.832 95.4246 169.754 95.4951 169.599 95.4951H168.184C168.036 95.4951 167.951 95.4209 167.928 95.2724C167.78 94.4336 167.442 93.7989 166.915 93.3684C166.395 92.9304 165.761 92.7114 165.011 92.7114C163.905 92.7188 163.077 93.116 162.528 93.9028C161.986 94.6897 161.715 95.818 161.715 97.2878C161.715 98.7799 161.986 99.9119 162.528 100.684C163.077 101.449 163.909 101.831 165.022 101.831C165.854 101.831 166.54 101.578 167.082 101.074C167.631 100.569 167.954 99.8563 168.051 98.9358C168.073 98.7799 168.158 98.702 168.307 98.702H169.743C169.921 98.702 170.003 98.7762 169.988 98.9247C169.899 99.7709 169.643 100.521 169.22 101.174C168.797 101.827 168.222 102.339 167.494 102.71C166.767 103.074 165.924 103.256 164.966 103.256ZM171.52 103C171.379 103 171.308 102.948 171.308 102.844C171.308 102.8 171.323 102.751 171.353 102.699L174.036 98.3122C173.131 98.1267 172.433 97.7592 171.943 97.2099C171.46 96.6531 171.219 95.9071 171.219 94.9718C171.219 93.8212 171.616 92.9601 172.411 92.3885C173.212 91.8169 174.385 91.5311 175.929 91.5311H180.272C180.428 91.5311 180.506 91.6128 180.506 91.7761L180.439 97.0985L180.506 102.755C180.506 102.918 180.428 103 180.272 103H178.613C178.449 103 178.368 102.918 178.368 102.755L178.423 98.5349H175.862L174.415 101.063L173.413 102.833C173.346 102.944 173.249 103 173.123 103H171.52ZM178.446 97.1097L178.39 92.9453H175.829C175.027 92.9453 174.404 93.1271 173.958 93.4909C173.52 93.8472 173.301 94.3482 173.301 94.9941C173.301 95.6918 173.52 96.2189 173.958 96.5752C174.396 96.9315 175.024 97.1097 175.84 97.1097H178.446ZM27.8655 109.531C27.9323 109.531 27.9842 109.546 28.0213 109.576C28.0585 109.605 28.077 109.642 28.077 109.687C28.077 109.739 28.0585 109.787 28.0213 109.832L24.6364 114.508L28.567 120.699C28.5966 120.736 28.6115 120.781 28.6115 120.833C28.6115 120.885 28.5929 120.926 28.5558 120.955C28.5187 120.985 28.4667 121 28.3999 121H26.5515C26.4254 121 26.3251 120.941 26.2509 120.822L25.3267 119.207L22.9995 115.588H21.3182L21.385 120.755C21.385 120.918 21.3033 121 21.14 121H19.4921C19.3362 121 19.2582 120.918 19.2582 120.755L19.325 115.076L19.2582 109.776C19.2582 109.613 19.3362 109.531 19.4921 109.531H21.14C21.3033 109.531 21.385 109.613 21.385 109.776L21.3293 114.085H23.0218L26.0393 109.698C26.121 109.587 26.2212 109.531 26.34 109.531H27.8655ZM38.8167 121.256C37.681 121.256 36.7085 121.015 35.8994 120.532C35.0977 120.042 34.4853 119.348 34.0622 118.45C33.6465 117.552 33.4386 116.502 33.4386 115.299C33.4386 114.089 33.6465 113.031 34.0622 112.126C34.4853 111.22 35.1051 110.518 35.9217 110.021C36.7382 109.524 37.7181 109.275 38.8613 109.275C39.7817 109.275 40.5872 109.438 41.2775 109.765C41.9679 110.092 42.5172 110.556 42.9255 111.157C43.3338 111.751 43.5861 112.445 43.6826 113.239V113.284C43.6826 113.425 43.6047 113.495 43.4488 113.495H42.0347C41.8862 113.495 41.8009 113.421 41.7786 113.272C41.6301 112.434 41.2924 111.799 40.7653 111.368C40.2457 110.93 39.611 110.711 38.8613 110.711C37.7552 110.719 36.9275 111.116 36.3782 111.903C35.8363 112.69 35.5654 113.818 35.5654 115.288C35.5654 116.78 35.8363 117.912 36.3782 118.684C36.9275 119.449 37.7589 119.831 38.8724 119.831C39.7038 119.831 40.3905 119.578 40.9323 119.074C41.4817 118.569 41.8046 117.856 41.9011 116.936C41.9233 116.78 42.0087 116.702 42.1572 116.702H43.5936C43.7717 116.702 43.8534 116.776 43.8385 116.925C43.7495 117.771 43.4934 118.521 43.0702 119.174C42.6471 119.827 42.0718 120.339 41.3443 120.71C40.6169 121.074 39.7743 121.256 38.8167 121.256ZM53.8902 109.531C53.9644 109.531 54.0238 109.553 54.0683 109.598C54.1128 109.642 54.1351 109.702 54.1351 109.776V110.789C54.1351 110.953 54.0535 111.034 53.8902 111.034H50.1934L50.1377 115.076L50.2157 120.755C50.2157 120.918 50.134 121 49.9707 121H48.3339C48.1706 121 48.0889 120.918 48.0889 120.755L48.1669 115.076L48.1112 111.034H44.4256C44.3513 111.034 44.2919 111.012 44.2474 110.968C44.2029 110.923 44.1806 110.864 44.1806 110.789V109.776C44.1806 109.613 44.2622 109.531 44.4256 109.531H53.8902ZM59.4433 121.033L54.956 109.821L54.9337 109.72C54.9337 109.661 54.9523 109.616 54.9894 109.587C55.0339 109.55 55.0896 109.531 55.1564 109.531H56.9602C57.1013 109.531 57.1941 109.598 57.2386 109.732L60.4566 118.361L63.2069 109.743C63.244 109.602 63.3331 109.531 63.4741 109.531H65.0887C65.2371 109.531 65.3114 109.594 65.3114 109.72L65.2891 109.821L60.1448 124.585C60.1003 124.719 60.0112 124.786 59.8776 124.786H58.4189C58.3447 124.786 58.289 124.767 58.2519 124.73C58.2148 124.7 58.1962 124.656 58.1962 124.597C58.1962 124.574 58.2036 124.541 58.2185 124.496L59.4433 121.033ZM64.6039 123.728C64.5297 123.728 64.4703 123.706 64.4258 123.661C64.3812 123.617 64.359 123.557 64.359 123.483V119.764C64.359 119.69 64.3812 119.63 64.4258 119.586C64.4703 119.541 64.5297 119.519 64.6039 119.519H65.2609C65.5578 119.2 65.7879 118.792 65.9513 118.294C66.122 117.797 66.2519 117.17 66.341 116.412C66.4301 115.655 66.508 114.672 66.5748 113.462C66.649 112.244 66.7047 111.016 66.7418 109.776C66.7493 109.702 66.7752 109.642 66.8198 109.598C66.8643 109.553 66.9237 109.531 66.9979 109.531H74.4249C74.5882 109.531 74.6698 109.613 74.6698 109.776L74.681 114.909L74.8257 119.519L76.0171 119.508C76.1879 119.508 76.2732 119.59 76.2732 119.753V123.483C76.2732 123.557 76.251 123.617 76.2064 123.661C76.1619 123.706 76.0988 123.728 76.0171 123.728H74.6921C74.6179 123.728 74.5585 123.706 74.5139 123.661C74.4694 123.617 74.4471 123.557 74.4471 123.483L74.3915 121H66.263L66.2074 123.483C66.2074 123.557 66.1851 123.617 66.1405 123.661C66.096 123.706 66.0366 123.728 65.9624 123.728H64.6039ZM72.7769 119.519L72.7658 114.909L72.6767 111.034H68.4789C68.3898 113.373 68.2673 115.18 68.1114 116.457C68.0298 117.184 67.9184 117.778 67.7774 118.239C67.6438 118.699 67.4656 119.126 67.2429 119.519H72.7769ZM82.3591 121.256C81.1863 121.256 80.1878 121.007 79.3639 120.51C78.5473 120.013 77.9275 119.315 77.5043 118.417C77.0812 117.519 76.8697 116.479 76.8697 115.299C76.8697 114.104 77.0812 113.053 77.5043 112.148C77.9349 111.242 78.5547 110.537 79.3639 110.032C80.173 109.527 81.1343 109.275 82.2478 109.275C83.3464 109.275 84.2892 109.513 85.076 109.988C85.8703 110.463 86.479 111.149 86.9021 112.048C87.3327 112.946 87.5628 114.018 87.5925 115.266C87.5925 115.436 87.5108 115.522 87.3475 115.522H78.963C79.0298 118.394 80.1693 119.831 82.3814 119.831C83.2128 119.831 83.8809 119.612 84.3857 119.174C84.8979 118.728 85.2393 118.083 85.4101 117.236C85.4472 117.088 85.5363 117.014 85.6773 117.014H87.1471C87.2288 117.014 87.2918 117.032 87.3364 117.069C87.3809 117.107 87.3995 117.162 87.3921 117.236C87.2659 118.031 86.9875 118.732 86.5569 119.341C86.1338 119.942 85.5659 120.414 84.8533 120.755C84.1407 121.089 83.3093 121.256 82.3591 121.256ZM85.3767 114.13C85.3544 113.491 85.2208 112.912 84.9758 112.393C84.7308 111.866 84.3782 111.45 83.918 111.146C83.4578 110.841 82.9047 110.689 82.2589 110.689C81.3162 110.689 80.5738 110.99 80.0319 111.591C79.49 112.185 79.1523 113.031 79.0187 114.13H85.3767ZM96.951 109.776C96.951 109.613 97.0289 109.531 97.1848 109.531H98.7882C98.9515 109.531 99.0332 109.613 99.0332 109.776L98.9552 115.076L99.0332 120.755C99.0332 120.918 98.9515 121 98.7882 121H97.1848C97.0289 121 96.951 120.918 96.951 120.755L97.0066 115.678H91.4169L91.4838 120.755C91.4838 120.918 91.4021 121 91.2388 121H89.6354C89.4795 121 89.4015 120.918 89.4015 120.755L89.4684 115.076L89.4015 109.776C89.4015 109.613 89.4795 109.531 89.6354 109.531H91.2388C91.4021 109.531 91.4838 109.613 91.4838 109.776L91.4281 114.174H97.0066L96.951 109.776ZM107.739 109.776C107.739 109.613 107.821 109.531 107.984 109.531H109.632C109.788 109.531 109.866 109.613 109.866 109.776L109.799 115.076L109.866 120.755C109.866 120.918 109.788 121 109.632 121H107.984C107.821 121 107.739 120.918 107.739 120.755L107.806 116.09C106.618 116.32 105.601 116.435 104.755 116.435C103.656 116.435 102.81 116.271 102.216 115.945C101.63 115.611 101.232 115.158 101.025 114.586C100.824 114.015 100.72 113.295 100.713 112.426L100.702 109.776C100.702 109.702 100.724 109.642 100.768 109.598C100.813 109.553 100.876 109.531 100.958 109.531H102.55C102.624 109.531 102.684 109.553 102.728 109.598C102.773 109.642 102.795 109.702 102.795 109.776V112.426C102.795 112.983 102.854 113.443 102.973 113.807C103.099 114.171 103.337 114.456 103.686 114.664C104.042 114.865 104.554 114.965 105.222 114.965C105.638 114.965 106.072 114.939 106.525 114.887C106.985 114.835 107.412 114.761 107.806 114.664L107.739 109.776ZM117.205 121.256C116.032 121.256 115.034 121.007 114.21 120.51C113.393 120.013 112.773 119.315 112.35 118.417C111.927 117.519 111.716 116.479 111.716 115.299C111.716 114.104 111.927 113.053 112.35 112.148C112.781 111.242 113.401 110.537 114.21 110.032C115.019 109.527 115.98 109.275 117.094 109.275C118.192 109.275 119.135 109.513 119.922 109.988C120.716 110.463 121.325 111.149 121.748 112.048C122.179 112.946 122.409 114.018 122.438 115.266C122.438 115.436 122.357 115.522 122.193 115.522H113.809C113.876 118.394 115.015 119.831 117.227 119.831C118.059 119.831 118.727 119.612 119.232 119.174C119.744 118.728 120.085 118.083 120.256 117.236C120.293 117.088 120.382 117.014 120.523 117.014H121.993C122.075 117.014 122.138 117.032 122.182 117.069C122.227 117.107 122.245 117.162 122.238 117.236C122.112 118.031 121.833 118.732 121.403 119.341C120.98 119.942 120.412 120.414 119.699 120.755C118.987 121.089 118.155 121.256 117.205 121.256ZM120.223 114.13C120.2 113.491 120.067 112.912 119.822 112.393C119.577 111.866 119.224 111.45 118.764 111.146C118.304 110.841 117.751 110.689 117.105 110.689C116.162 110.689 115.42 110.99 114.878 111.591C114.336 112.185 113.998 113.031 113.865 114.13H120.223ZM129.289 121.256C128.153 121.256 127.181 121.015 126.372 120.532C125.57 120.042 124.957 119.348 124.534 118.45C124.119 117.552 123.911 116.502 123.911 115.299C123.911 114.089 124.119 113.031 124.534 112.126C124.957 111.22 125.577 110.518 126.394 110.021C127.21 109.524 128.19 109.275 129.333 109.275C130.254 109.275 131.059 109.438 131.75 109.765C132.44 110.092 132.989 110.556 133.398 111.157C133.806 111.751 134.058 112.445 134.155 113.239V113.284C134.155 113.425 134.077 113.495 133.921 113.495H132.507C132.358 113.495 132.273 113.421 132.251 113.272C132.102 112.434 131.765 111.799 131.238 111.368C130.718 110.93 130.083 110.711 129.333 110.711C128.227 110.719 127.4 111.116 126.85 111.903C126.309 112.69 126.038 113.818 126.038 115.288C126.038 116.78 126.309 117.912 126.85 118.684C127.4 119.449 128.231 119.831 129.345 119.831C130.176 119.831 130.863 119.578 131.405 119.074C131.954 118.569 132.277 117.856 132.373 116.936C132.396 116.78 132.481 116.702 132.629 116.702H134.066C134.244 116.702 134.326 116.776 134.311 116.925C134.222 117.771 133.966 118.521 133.542 119.174C133.119 119.827 132.544 120.339 131.817 120.71C131.089 121.074 130.247 121.256 129.289 121.256ZM144.615 109.531C144.682 109.531 144.734 109.546 144.771 109.576C144.808 109.605 144.827 109.642 144.827 109.687C144.827 109.739 144.808 109.787 144.771 109.832L141.386 114.508L145.316 120.699C145.346 120.736 145.361 120.781 145.361 120.833C145.361 120.885 145.342 120.926 145.305 120.955C145.268 120.985 145.216 121 145.149 121H143.301C143.175 121 143.075 120.941 143 120.822L142.076 119.207L139.749 115.588H138.068L138.135 120.755C138.135 120.918 138.053 121 137.89 121H136.242C136.086 121 136.008 120.918 136.008 120.755L136.075 115.076L136.008 109.776C136.008 109.613 136.086 109.531 136.242 109.531H137.89C138.053 109.531 138.135 109.613 138.135 109.776L138.079 114.085H139.771L142.789 109.698C142.871 109.587 142.971 109.531 143.09 109.531H144.615ZM150.778 121.256C149.627 121.256 148.644 121.011 147.827 120.521C147.011 120.031 146.387 119.337 145.957 118.439C145.533 117.541 145.322 116.49 145.322 115.288C145.322 114.078 145.533 113.024 145.957 112.126C146.387 111.22 147.011 110.518 147.827 110.021C148.651 109.524 149.635 109.275 150.778 109.275C151.921 109.275 152.901 109.52 153.718 110.01C154.534 110.5 155.154 111.198 155.577 112.103C156 113.001 156.212 114.052 156.212 115.254C156.212 116.464 156 117.522 155.577 118.428C155.154 119.326 154.534 120.024 153.718 120.521C152.901 121.011 151.921 121.256 150.778 121.256ZM150.778 119.831C151.877 119.831 152.701 119.441 153.25 118.662C153.807 117.882 154.085 116.758 154.085 115.288C154.085 113.825 153.803 112.697 153.239 111.903C152.682 111.101 151.858 110.7 150.767 110.7C149.661 110.708 148.829 111.109 148.273 111.903C147.716 112.697 147.437 113.829 147.437 115.299C147.437 116.761 147.72 117.882 148.284 118.662C148.848 119.441 149.679 119.831 150.778 119.831ZM158.294 121C158.139 121 158.061 120.918 158.061 120.755L158.127 115.076L158.049 109.776C158.049 109.613 158.127 109.531 158.283 109.531H159.887C160.05 109.531 160.132 109.613 160.132 109.776L160.098 114.865L160.043 118.762L165.354 109.709C165.406 109.591 165.506 109.531 165.655 109.531H167.625C167.789 109.531 167.87 109.613 167.87 109.776L167.792 115.076L167.87 120.755C167.87 120.918 167.789 121 167.625 121H166.033C165.87 121 165.788 120.918 165.788 120.755L165.833 115.355L165.866 111.836L160.599 120.822C160.533 120.941 160.432 121 160.299 121H158.294ZM162.993 108.251C163.684 108.251 164.285 108.124 164.797 107.872C165.309 107.62 165.703 107.263 165.977 106.803C166.252 106.343 166.389 105.808 166.389 105.2H164.742C164.727 105.756 164.571 106.198 164.274 106.525C163.984 106.851 163.569 107.015 163.027 107.015C162.47 107.015 162.047 106.851 161.757 106.525C161.475 106.198 161.334 105.756 161.334 105.2H159.686C159.686 105.808 159.82 106.343 160.087 106.803C160.354 107.263 160.737 107.62 161.234 107.872C161.731 108.124 162.318 108.251 162.993 108.251ZM188.403 109.531C188.47 109.531 188.522 109.546 188.559 109.576C188.596 109.605 188.615 109.642 188.615 109.687C188.615 109.724 188.592 109.772 188.548 109.832L185.096 114.553L189.049 120.699C189.079 120.736 189.093 120.781 189.093 120.833C189.093 120.885 189.075 120.926 189.038 120.955C189.001 120.985 188.949 121 188.882 121H187.056C186.922 121 186.822 120.944 186.755 120.833L185.797 119.185L183.459 115.555H182.212L182.268 120.755C182.268 120.918 182.19 121 182.034 121H180.386C180.223 121 180.141 120.918 180.141 120.755L180.208 115.555H178.95L176.611 119.185L175.654 120.833C175.587 120.944 175.487 121 175.353 121H173.527C173.46 121 173.408 120.985 173.371 120.955C173.334 120.926 173.315 120.885 173.315 120.833C173.315 120.781 173.33 120.736 173.36 120.699L177.313 114.553L173.861 109.832C173.816 109.772 173.794 109.724 173.794 109.687C173.794 109.642 173.813 109.605 173.85 109.576C173.887 109.546 173.939 109.531 174.006 109.531H175.565C175.683 109.531 175.784 109.583 175.865 109.687L178.95 114.074H180.197L180.141 109.776C180.141 109.613 180.223 109.531 180.386 109.531H182.034C182.19 109.531 182.268 109.613 182.268 109.776L182.212 114.074H183.459L186.544 109.687C186.625 109.583 186.725 109.531 186.844 109.531H188.403ZM190.639 121C190.483 121 190.406 120.918 190.406 120.755L190.472 115.076L190.394 109.776C190.394 109.613 190.472 109.531 190.628 109.531H192.232C192.395 109.531 192.477 109.613 192.477 109.776L192.443 114.865L192.388 118.762L197.699 109.709C197.751 109.591 197.851 109.531 198 109.531H199.97C200.134 109.531 200.215 109.613 200.215 109.776L200.137 115.076L200.215 120.755C200.215 120.918 200.134 121 199.97 121H198.378C198.215 121 198.133 120.918 198.133 120.755L198.178 115.355L198.211 111.836L192.944 120.822C192.877 120.941 192.777 121 192.644 121H190.639ZM209.806 117.671C209.806 116.988 209.554 116.483 209.049 116.156C208.552 115.822 207.898 115.655 207.089 115.655H205.697C205.534 115.655 205.452 115.574 205.452 115.41V114.542C205.452 114.46 205.475 114.397 205.519 114.353C205.564 114.308 205.623 114.286 205.697 114.286H207.089C207.861 114.286 208.451 114.141 208.86 113.851C209.275 113.555 209.483 113.109 209.483 112.515C209.483 111.951 209.268 111.509 208.837 111.19C208.407 110.864 207.817 110.7 207.067 110.7C206.265 110.7 205.616 110.875 205.118 111.224C204.621 111.573 204.335 112.088 204.261 112.771C204.246 112.92 204.161 112.994 204.005 112.994H202.568C202.487 112.994 202.424 112.972 202.379 112.927C202.342 112.883 202.327 112.823 202.335 112.749C202.424 111.613 202.899 110.756 203.76 110.177C204.621 109.591 205.742 109.297 207.123 109.297C208.488 109.297 209.565 109.561 210.352 110.088C211.146 110.607 211.543 111.354 211.543 112.326C211.543 113.009 211.332 113.558 210.908 113.974C210.493 114.39 209.914 114.679 209.171 114.842V114.865C210.107 115.073 210.793 115.414 211.231 115.889C211.669 116.364 211.888 116.991 211.888 117.771C211.888 118.535 211.662 119.178 211.209 119.697C210.764 120.217 210.166 120.603 209.416 120.855C208.674 121.1 207.857 121.223 206.967 121.223C205.423 121.223 204.22 120.889 203.359 120.221C202.498 119.545 202.041 118.55 201.989 117.236C201.989 117.073 202.071 116.991 202.234 116.991H203.738C203.886 116.991 203.968 117.073 203.983 117.236C204.079 118.951 205.089 119.809 207.011 119.809C207.857 119.809 208.533 119.623 209.038 119.252C209.55 118.881 209.806 118.354 209.806 117.671ZM221.116 109.776C221.116 109.613 221.194 109.531 221.35 109.531H222.954C223.117 109.531 223.199 109.613 223.199 109.776L223.121 115.076L223.199 120.755C223.199 120.918 223.117 121 222.954 121H221.35C221.194 121 221.116 120.918 221.116 120.755L221.172 115.678H215.582L215.649 120.755C215.649 120.918 215.568 121 215.404 121H213.801C213.645 121 213.567 120.918 213.567 120.755L213.634 115.076L213.567 109.776C213.567 109.613 213.645 109.531 213.801 109.531H215.404C215.568 109.531 215.649 109.613 215.649 109.776L215.594 114.174H221.172L221.116 109.776ZM225.725 121C225.569 121 225.491 120.918 225.491 120.755L225.558 115.076L225.48 109.776C225.48 109.613 225.558 109.531 225.713 109.531H227.317C227.48 109.531 227.562 109.613 227.562 109.776L227.528 114.865L227.473 118.762L232.784 109.709C232.836 109.591 232.936 109.531 233.085 109.531H235.056C235.219 109.531 235.3 109.613 235.3 109.776L235.223 115.076L235.3 120.755C235.3 120.918 235.219 121 235.056 121H233.463C233.3 121 233.218 120.918 233.218 120.755L233.263 115.355L233.296 111.836L228.029 120.822C227.963 120.941 227.862 121 227.729 121H225.725ZM18.5901 142.728C18.5159 142.728 18.4565 142.706 18.412 142.661C18.3674 142.617 18.3452 142.557 18.3452 142.483V138.764C18.3452 138.69 18.3674 138.63 18.412 138.586C18.4565 138.541 18.5159 138.519 18.5901 138.519H19.2471C19.544 138.2 19.7741 137.792 19.9375 137.294C20.1082 136.797 20.2381 136.17 20.3272 135.412C20.4163 134.655 20.4942 133.672 20.561 132.462C20.6352 131.244 20.6909 130.016 20.728 128.776C20.7355 128.702 20.7614 128.642 20.806 128.598C20.8505 128.553 20.9099 128.531 20.9841 128.531H28.4111C28.5744 128.531 28.656 128.613 28.656 128.776L28.6672 133.909L28.8119 138.519L30.0033 138.508C30.1741 138.508 30.2594 138.59 30.2594 138.753V142.483C30.2594 142.557 30.2372 142.617 30.1926 142.661C30.1481 142.706 30.085 142.728 30.0033 142.728H28.6783C28.6041 142.728 28.5447 142.706 28.5001 142.661C28.4556 142.617 28.4333 142.557 28.4333 142.483L28.3777 140H20.2492L20.1936 142.483C20.1936 142.557 20.1713 142.617 20.1268 142.661C20.0822 142.706 20.0228 142.728 19.9486 142.728H18.5901ZM26.7631 138.519L26.752 133.909L26.6629 130.034H22.4651C22.376 132.373 22.2535 134.18 22.0976 135.457C22.016 136.184 21.9046 136.778 21.7636 137.239C21.63 137.699 21.4518 138.126 21.2291 138.519H26.7631ZM31.9812 140C31.8253 140 31.7473 139.918 31.7473 139.755L31.8141 134.076L31.7362 128.776C31.7362 128.613 31.8141 128.531 31.97 128.531H33.5734C33.7368 128.531 33.8184 128.613 33.8184 128.776L33.785 133.865L33.7293 137.762L39.0406 128.709C39.0926 128.591 39.1928 128.531 39.3413 128.531H41.3122C41.4755 128.531 41.5571 128.613 41.5571 128.776L41.4792 134.076L41.5571 139.755C41.5571 139.918 41.4755 140 41.3122 140H39.7199C39.5566 140 39.4749 139.918 39.4749 139.755L39.5194 134.355L39.5528 130.836L34.2861 139.822C34.2193 139.941 34.1191 140 33.9854 140H31.9812ZM51.1479 136.671C51.1479 135.988 50.8955 135.483 50.3907 135.156C49.8933 134.822 49.2401 134.655 48.431 134.655H47.0391C46.8758 134.655 46.7941 134.574 46.7941 134.41V133.542C46.7941 133.46 46.8164 133.397 46.8609 133.353C46.9055 133.308 46.9649 133.286 47.0391 133.286H48.431C49.203 133.286 49.7931 133.141 50.2014 132.851C50.6171 132.555 50.8249 132.109 50.8249 131.515C50.8249 130.951 50.6097 130.509 50.1791 130.19C49.7486 129.864 49.1584 129.7 48.4087 129.7C47.607 129.7 46.9574 129.875 46.4601 130.224C45.9627 130.573 45.6769 131.088 45.6027 131.771C45.5879 131.92 45.5025 131.994 45.3466 131.994H43.9102C43.8286 131.994 43.7655 131.972 43.7209 131.927C43.6838 131.883 43.669 131.823 43.6764 131.749C43.7655 130.613 44.2406 129.756 45.1016 129.177C45.9627 128.591 47.0836 128.297 48.4644 128.297C49.8302 128.297 50.9066 128.561 51.6935 129.088C52.4877 129.607 52.8849 130.354 52.8849 131.326C52.8849 132.009 52.6733 132.558 52.2502 132.974C51.8345 133.39 51.2555 133.679 50.5132 133.842V133.865C51.4485 134.073 52.1351 134.414 52.5731 134.889C53.0111 135.364 53.2301 135.991 53.2301 136.771C53.2301 137.535 53.0037 138.178 52.5508 138.697C52.1055 139.217 51.5079 139.603 50.7581 139.855C50.0158 140.1 49.1993 140.223 48.3085 140.223C46.7644 140.223 45.5619 139.889 44.7008 139.221C43.8397 138.545 43.3832 137.55 43.3312 136.236C43.3312 136.073 43.4129 135.991 43.5762 135.991H45.0794C45.2278 135.991 45.3095 136.073 45.3243 136.236C45.4208 137.951 46.4304 138.809 48.353 138.809C49.1993 138.809 49.8748 138.623 50.3796 138.252C50.8918 137.881 51.1479 137.354 51.1479 136.671ZM62.9233 128.787C62.9159 128.706 62.9344 128.642 62.979 128.598C63.0235 128.553 63.0866 128.531 63.1682 128.531H64.7605C64.9238 128.531 65.0055 128.613 65.0055 128.776L64.9164 134.143L65.0055 139.755C65.0055 139.918 64.9238 140 64.7605 140H63.1794C63.0977 140 63.0346 139.978 62.9901 139.933C62.9456 139.889 62.927 139.829 62.9344 139.755L62.9678 138.029C62.5892 138.727 62.0919 139.265 61.4758 139.644C60.8596 140.022 60.1396 140.212 59.3156 140.212C58.3135 140.212 57.4561 139.955 56.7435 139.443C56.0308 138.924 55.4889 138.218 55.1178 137.328C54.754 136.429 54.5722 135.416 54.5722 134.288C54.5722 133.174 54.7615 132.165 55.14 131.259C55.5186 130.346 56.0679 129.626 56.788 129.099C57.5155 128.572 58.3691 128.308 59.349 128.308C60.1656 128.308 60.8782 128.483 61.4869 128.832C62.103 129.181 62.5967 129.697 62.9678 130.38L62.9233 128.787ZM59.8167 138.786C60.8262 138.786 61.6131 138.408 62.1772 137.651C62.7414 136.886 63.0235 135.761 63.0235 134.277C63.0235 132.829 62.7451 131.712 62.1884 130.925C61.6316 130.131 60.8485 129.734 59.8389 129.734C58.7848 129.734 57.9906 130.131 57.4561 130.925C56.9216 131.719 56.6544 132.792 56.6544 134.143C56.6544 135.568 56.9216 136.7 57.4561 137.539C57.9906 138.371 58.7774 138.786 59.8167 138.786ZM67.523 140C67.3671 140 67.2892 139.918 67.2892 139.755L67.356 134.076L67.278 128.776C67.278 128.613 67.356 128.531 67.5119 128.531H69.1153C69.2786 128.531 69.3603 128.613 69.3603 128.776L69.3268 133.865L69.2712 137.762L74.5825 128.709C74.6344 128.591 74.7347 128.531 74.8831 128.531H76.854C77.0173 128.531 77.099 128.613 77.099 128.776L77.021 134.076L77.099 139.755C77.099 139.918 77.0173 140 76.854 140H75.2617C75.0984 140 75.0167 139.918 75.0167 139.755L75.0613 134.355L75.0947 130.836L69.8279 139.822C69.7611 139.941 69.6609 140 69.5273 140H67.523ZM72.2219 127.251C72.9123 127.251 73.5135 127.124 74.0257 126.872C74.5379 126.62 74.9314 126.263 75.206 125.803C75.4807 125.343 75.618 124.808 75.618 124.2H73.9701C73.9552 124.756 73.7993 125.198 73.5024 125.525C73.2129 125.851 72.7972 126.015 72.2553 126.015C71.6986 126.015 71.2754 125.851 70.9859 125.525C70.7039 125.198 70.5628 124.756 70.5628 124.2H68.9149C68.9149 124.808 69.0485 125.343 69.3157 125.803C69.583 126.263 69.9652 126.62 70.4626 126.872C70.96 127.124 71.5464 127.251 72.2219 127.251ZM86.9357 128.776C86.9357 128.613 87.0137 128.531 87.1695 128.531H88.773C88.9363 128.531 89.0179 128.613 89.0179 128.776L88.94 134.076L89.0179 139.755C89.0179 139.918 88.9363 140 88.773 140H87.1695C87.0137 140 86.9357 139.918 86.9357 139.755L86.9914 134.678H81.4017L81.4685 139.755C81.4685 139.918 81.3869 140 81.2235 140H79.6201C79.4642 140 79.3863 139.918 79.3863 139.755L79.4531 134.076L79.3863 128.776C79.3863 128.613 79.4642 128.531 79.6201 128.531H81.2235C81.3869 128.531 81.4685 128.613 81.4685 128.776L81.4128 133.174H86.9914L86.9357 128.776ZM96.3429 140.256C95.17 140.256 94.1716 140.007 93.3476 139.51C92.5311 139.013 91.9112 138.315 91.4881 137.417C91.065 136.519 90.8534 135.479 90.8534 134.299C90.8534 133.104 91.065 132.053 91.4881 131.148C91.9187 130.242 92.5385 129.537 93.3476 129.032C94.1568 128.527 95.1181 128.275 96.2315 128.275C97.3302 128.275 98.2729 128.513 99.0598 128.988C99.8541 129.463 100.463 130.149 100.886 131.048C101.316 131.946 101.547 133.018 101.576 134.266C101.576 134.436 101.495 134.522 101.331 134.522H92.9468C93.0136 137.394 94.153 138.831 96.3652 138.831C97.1966 138.831 97.8647 138.612 98.3694 138.174C98.8816 137.728 99.2231 137.083 99.3938 136.236C99.431 136.088 99.52 136.014 99.6611 136.014H101.131C101.213 136.014 101.276 136.032 101.32 136.069C101.365 136.107 101.383 136.162 101.376 136.236C101.25 137.031 100.971 137.732 100.541 138.341C100.118 138.942 99.5497 139.414 98.8371 139.755C98.1245 140.089 97.2931 140.256 96.3429 140.256ZM99.3604 133.13C99.3382 132.491 99.2045 131.912 98.9596 131.393C98.7146 130.866 98.362 130.45 97.9018 130.146C97.4415 129.841 96.8885 129.689 96.2427 129.689C95.2999 129.689 94.5576 129.99 94.0157 130.591C93.4738 131.185 93.1361 132.031 93.0024 133.13H99.3604ZM109.053 128.297C110.055 128.297 110.912 128.557 111.625 129.077C112.338 129.589 112.876 130.294 113.24 131.192C113.611 132.091 113.796 133.104 113.796 134.232C113.796 135.346 113.603 136.359 113.217 137.272C112.839 138.178 112.289 138.898 111.569 139.432C110.849 139.959 109.999 140.223 109.02 140.223C108.21 140.223 107.505 140.052 106.904 139.71C106.303 139.362 105.816 138.857 105.445 138.196L105.49 143.541C105.49 143.704 105.408 143.786 105.245 143.786H103.597C103.434 143.786 103.352 143.704 103.352 143.541L103.441 134.978L103.363 128.776C103.363 128.613 103.441 128.531 103.597 128.531H105.2C105.364 128.531 105.445 128.616 105.445 128.787L105.39 130.457C105.776 129.775 106.277 129.244 106.893 128.865C107.516 128.487 108.236 128.297 109.053 128.297ZM108.485 138.786C109.547 138.786 110.348 138.389 110.89 137.595C111.44 136.801 111.714 135.728 111.714 134.377C111.714 132.959 111.443 131.834 110.901 131.003C110.367 130.164 109.576 129.745 108.53 129.745C107.527 129.745 106.744 130.127 106.18 130.892C105.616 131.656 105.334 132.77 105.334 134.232C105.334 135.68 105.609 136.801 106.158 137.595C106.715 138.389 107.49 138.786 108.485 138.786ZM123.617 128.787C123.609 128.706 123.628 128.642 123.672 128.598C123.717 128.553 123.78 128.531 123.862 128.531H125.454C125.617 128.531 125.699 128.613 125.699 128.776L125.61 134.143L125.699 139.755C125.699 139.918 125.617 140 125.454 140H123.873C123.791 140 123.728 139.978 123.684 139.933C123.639 139.889 123.62 139.829 123.628 139.755L123.661 138.029C123.283 138.727 122.785 139.265 122.169 139.644C121.553 140.022 120.833 140.212 120.009 140.212C119.007 140.212 118.15 139.955 117.437 139.443C116.724 138.924 116.182 138.218 115.811 137.328C115.448 136.429 115.266 135.416 115.266 134.288C115.266 133.174 115.455 132.165 115.834 131.259C116.212 130.346 116.761 129.626 117.481 129.099C118.209 128.572 119.063 128.308 120.043 128.308C120.859 128.308 121.572 128.483 122.18 128.832C122.797 129.181 123.29 129.697 123.661 130.38L123.617 128.787ZM120.51 138.786C121.52 138.786 122.307 138.408 122.871 137.651C123.435 136.886 123.717 135.761 123.717 134.277C123.717 132.829 123.439 131.712 122.882 130.925C122.325 130.131 121.542 129.734 120.532 129.734C119.478 129.734 118.684 130.131 118.15 130.925C117.615 131.719 117.348 132.792 117.348 134.143C117.348 135.568 117.615 136.7 118.15 137.539C118.684 138.371 119.471 138.786 120.51 138.786Z" fill="#787878"/>
<path d="M29.608 48.4529C27.2931 48.4529 25.2857 47.9553 23.5859 46.96C21.8861 45.9647 20.5777 44.55 19.6607 42.716C18.7549 40.882 18.3019 38.7405 18.3019 36.2914C18.3019 33.8199 18.7604 31.6672 19.6775 29.8332C20.6056 27.988 21.9197 26.5677 23.6195 25.5724C25.3193 24.566 27.3099 24.0627 29.5912 24.0627C32.2304 24.0627 34.4391 24.7169 36.2172 26.0253C37.9953 27.3226 39.1695 29.4362 39.7398 32.3661L39.7566 32.4332C39.7566 32.4891 39.7342 32.5339 39.6895 32.5674C39.6448 32.601 39.5944 32.6177 39.5385 32.6177H35.9655C35.8313 32.6177 35.7531 32.5506 35.7307 32.4165C35.3952 30.7054 34.6907 29.4138 33.6171 28.5415C32.5547 27.6693 31.196 27.2331 29.5409 27.2331C28.0535 27.2331 26.7843 27.6022 25.7331 28.3402C24.693 29.0671 23.899 30.1072 23.3511 31.4603C22.8143 32.8134 22.5459 34.4182 22.5459 36.2746C22.5459 38.2093 22.8199 39.8532 23.3679 41.2063C23.9158 42.5483 24.7098 43.5659 25.7498 44.2593C26.7899 44.9414 28.0424 45.2825 29.5073 45.2825C31.319 45.2825 32.756 44.7961 33.8184 43.8231C34.892 42.8502 35.5574 41.4356 35.8146 39.5792C35.8481 39.4338 35.9376 39.3611 36.083 39.3611H39.7063C39.7957 39.3611 39.8572 39.3891 39.8908 39.445C39.9243 39.5009 39.9299 39.5736 39.9076 39.6631C39.382 42.6601 38.2357 44.8743 36.4688 46.3058C34.713 47.7372 32.4261 48.4529 29.608 48.4529ZM56.4997 30.7222C56.5668 30.7222 56.6227 30.7446 56.6674 30.7893C56.7121 30.8229 56.7345 30.8788 56.7345 30.9571V33.3726C56.7345 33.4509 56.7121 33.5124 56.6674 33.5571C56.6227 33.5907 56.5668 33.6074 56.4997 33.6074H50.8802L50.8467 39.2269L50.9137 47.7652C50.9137 47.9217 50.8355 48 50.6789 48H47.0556C46.899 48 46.8208 47.9217 46.8208 47.7652L46.8711 39.2269L46.8375 33.6074H41.2516C41.0951 33.6074 41.0168 33.5292 41.0168 33.3726V30.9571C41.0168 30.8005 41.0951 30.7222 41.2516 30.7222H56.4997ZM64.4618 48.1006L57.5843 30.9906C57.5731 30.9682 57.5675 30.9347 57.5675 30.89C57.5675 30.7781 57.6346 30.7222 57.7688 30.7222H61.8114C61.9456 30.7222 62.0407 30.7837 62.0966 30.9067L66.4412 42.9509L70.1148 30.9067C70.1484 30.7837 70.2323 30.7222 70.3665 30.7222H74.0065C74.1966 30.7222 74.2581 30.8117 74.191 30.9906L66.4077 53.5188C66.3517 53.6418 66.2623 53.7033 66.1393 53.7033H62.7844C62.5942 53.7033 62.5327 53.6139 62.5998 53.435L64.4618 48.1006ZM72.6355 52.1433C72.4789 52.1433 72.4006 52.065 72.4006 51.9085V45.3999C72.4006 45.2434 72.4789 45.1651 72.6355 45.1651H73.8097C74.2458 44.7178 74.5925 44.1307 74.8497 43.4038C75.1181 42.6657 75.3138 41.7711 75.4368 40.7198C75.7052 38.7069 75.9065 35.4526 76.0407 30.9571C76.0407 30.8005 76.119 30.7222 76.2755 30.7222H88.4874C88.5545 30.7222 88.6104 30.7446 88.6552 30.7893C88.6999 30.8229 88.7223 30.8788 88.7223 30.9571L88.739 38.9921L88.8564 45.1483L90.9029 45.1316C90.9812 45.1316 91.0371 45.1539 91.0707 45.1987C91.1154 45.2434 91.1378 45.2993 91.1378 45.3664V51.9085C91.1378 52.065 91.0595 52.1433 90.9029 52.1433H87.8332C87.6766 52.1433 87.5984 52.065 87.5984 51.9085L87.4977 48H76.091L75.9904 51.9085C75.9904 52.065 75.9121 52.1433 75.7555 52.1433H72.6355ZM84.8473 45.1651V38.9753L84.7802 33.6074H79.3956C79.2502 36.8282 79.0881 39.2101 78.9091 40.7534C78.7749 41.7375 78.6072 42.5762 78.4059 43.2696C78.2046 43.9517 77.9474 44.5836 77.6343 45.1651H84.8473ZM99.7835 48.4026C97.9607 48.4026 96.4062 48.028 95.1202 47.2787C93.8341 46.5182 92.8612 45.4615 92.2014 44.1083C91.5416 42.7552 91.2117 41.1895 91.2117 39.4114C91.2117 37.5998 91.5472 36.0118 92.2182 34.6475C92.9003 33.272 93.8789 32.2096 95.1537 31.4603C96.4286 30.6999 97.9271 30.3196 99.6493 30.3196C101.416 30.3196 102.926 30.6999 104.178 31.4603C105.442 32.2207 106.409 33.3111 107.08 34.7313C107.751 36.1516 108.098 37.8458 108.12 39.814C108.12 39.9706 108.042 40.0489 107.886 40.0489H95.2711C95.3494 41.9612 95.7688 43.3814 96.5292 44.3096C97.2897 45.2266 98.3912 45.6851 99.8338 45.6851C102.015 45.6851 103.345 44.55 103.826 42.2799C103.849 42.1457 103.927 42.0786 104.061 42.0786H107.5C107.567 42.0786 107.623 42.0954 107.668 42.1289C107.723 42.1625 107.746 42.2016 107.735 42.2463C107.589 43.4094 107.181 44.4606 106.51 45.3999C105.839 46.3281 104.928 47.0606 103.776 47.5974C102.624 48.1342 101.293 48.4026 99.7835 48.4026ZM103.776 37.432C103.72 36.6157 103.53 35.8776 103.205 35.2178C102.892 34.5468 102.434 34.0156 101.83 33.6242C101.237 33.2216 100.516 33.0203 99.6661 33.0203C98.4583 33.0203 97.491 33.4006 96.7641 34.161C96.0484 34.9103 95.5899 36.0006 95.3886 37.432H103.776ZM120.988 30.9571C120.988 30.8005 121.067 30.7222 121.223 30.7222H124.846C125.003 30.7222 125.081 30.8005 125.081 30.9571L125.031 39.2269L125.081 47.7652C125.081 47.9217 125.003 48 124.846 48H121.223C121.067 48 120.988 47.9217 120.988 47.7652L121.039 40.334H113.742L113.792 47.7652C113.792 47.9217 113.714 48 113.557 48H109.934C109.777 48 109.699 47.9217 109.699 47.7652L109.766 39.2269L109.699 30.9571C109.699 30.8005 109.777 30.7222 109.934 30.7222H113.557C113.714 30.7222 113.792 30.8005 113.792 30.9571L113.742 37.4488H121.039L120.988 30.9571ZM141.925 30.7222C141.992 30.7222 142.048 30.7446 142.093 30.7893C142.138 30.8229 142.16 30.8788 142.16 30.9571V33.3726C142.16 33.4509 142.138 33.5124 142.093 33.5571C142.048 33.5907 141.992 33.6074 141.925 33.6074H136.306L136.272 39.2269L136.339 47.7652C136.339 47.9217 136.261 48 136.105 48H132.481C132.325 48 132.246 47.9217 132.246 47.7652L132.297 39.2269L132.263 33.6074H126.677C126.521 33.6074 126.442 33.5292 126.442 33.3726V30.9571C126.442 30.8005 126.521 30.7222 126.677 30.7222H141.925ZM143.809 48.0168C143.653 48.0168 143.574 47.9441 143.574 47.7987L143.642 39.294L143.608 30.9235C143.608 30.7781 143.686 30.7054 143.843 30.7054H147.466C147.623 30.7054 147.701 30.7781 147.701 30.9235L147.651 36.8617H150.167C152.717 36.8617 154.64 37.3146 155.937 38.2204C157.235 39.1263 157.883 40.513 157.883 42.3805C157.883 46.1268 155.311 48 150.167 48L143.809 48.0168ZM159.275 48C159.119 48 159.041 47.9217 159.041 47.7652L159.108 39.5289L159.041 30.9571C159.041 30.8005 159.119 30.7222 159.275 30.7222H162.899C163.055 30.7222 163.134 30.8005 163.134 30.9571L163.083 39.5289L163.134 47.7652C163.134 47.9217 163.055 48 162.899 48H159.275ZM147.634 39.5456L147.651 45.3161H150.184C152.577 45.3161 153.773 44.3767 153.773 42.498C153.773 41.525 153.483 40.7925 152.901 40.3005C152.331 39.7972 151.425 39.5456 150.184 39.5456H147.634Z" fill="#1A0000"/>
<rect x="14.5" y="243.5" width="92" height="42" rx="21" fill="#1A0000" stroke="black"/>
<path d="M30.1132 275.232C30.1387 275.283 30.1514 275.33 30.1514 275.372C30.1514 275.499 30.0708 275.563 29.9096 275.563H28.6116C28.4589 275.563 28.3444 275.495 28.2681 275.359C27.4028 273.612 26.7453 271.852 26.2957 270.079C25.8545 268.297 25.634 266.392 25.634 264.365C25.634 260.539 26.5035 256.959 28.2426 253.625C28.319 253.489 28.4335 253.421 28.5862 253.421H29.8842C30.0453 253.421 30.1259 253.485 30.1259 253.612C30.1259 253.655 30.1132 253.701 30.0878 253.752C28.5607 257.171 27.7972 260.709 27.7972 264.365C27.7972 268.115 28.5692 271.737 30.1132 275.232ZM44.0424 263.907C44.0424 264.068 43.9703 264.183 43.8261 264.25L32.8952 269.213C32.8443 269.239 32.7977 269.251 32.7553 269.251C32.6365 269.251 32.5771 269.171 32.5771 269.01V267.712C32.5771 267.55 32.645 267.44 32.7807 267.381L42.1337 263.22L32.7807 259.084C32.645 259.025 32.5771 258.914 32.5771 258.753V257.455C32.5771 257.294 32.6365 257.213 32.7553 257.213C32.7977 257.213 32.8443 257.226 32.8952 257.252L43.8261 262.214C43.9703 262.282 44.0424 262.397 44.0424 262.558V263.907ZM52.7774 272.318C51.488 272.318 50.3597 271.953 49.3926 271.224C48.4255 270.494 47.6747 269.438 47.1402 268.055C46.6142 266.672 46.3513 265.022 46.3513 263.105C46.3513 261.154 46.6142 259.487 47.1402 258.104C47.6662 256.713 48.4127 255.661 49.3798 254.948C50.3554 254.227 51.4922 253.867 52.7902 253.867C54.0881 253.867 55.2164 254.223 56.175 254.936C57.1422 255.648 57.8887 256.7 58.4147 258.091C58.9491 259.483 59.2164 261.158 59.2164 263.118C59.2164 265.035 58.9491 266.685 58.4147 268.068C57.8887 269.451 57.1422 270.507 56.175 271.236C55.2079 271.958 54.0754 272.318 52.7774 272.318ZM52.7902 270.422C54.0372 270.422 55.0043 269.803 55.6915 268.564C56.3787 267.326 56.7222 265.51 56.7222 263.118C56.7222 261.523 56.5653 260.178 56.2514 259.084C55.9375 257.981 55.4837 257.154 54.8898 256.603C54.3045 256.043 53.6003 255.763 52.7774 255.763C51.5134 255.763 50.5378 256.386 49.8507 257.633C49.172 258.88 48.8327 260.709 48.8327 263.118C48.8327 264.704 48.9896 266.045 49.3035 267.139C49.6259 268.225 50.0797 269.044 50.6651 269.595C51.2589 270.146 51.9673 270.422 52.7902 270.422ZM68.1987 272.318C66.9092 272.318 65.7809 271.953 64.8138 271.224C63.8467 270.494 63.0959 269.438 62.5615 268.055C62.0355 266.672 61.7725 265.022 61.7725 263.105C61.7725 261.154 62.0355 259.487 62.5615 258.104C63.0874 256.713 63.834 255.661 64.8011 254.948C65.7767 254.227 66.9135 253.867 68.2114 253.867C69.5094 253.867 70.6377 254.223 71.5963 254.936C72.5634 255.648 73.31 256.7 73.8359 258.091C74.3704 259.483 74.6376 261.158 74.6376 263.118C74.6376 265.035 74.3704 266.685 73.8359 268.068C73.31 269.451 72.5634 270.507 71.5963 271.236C70.6292 271.958 69.4967 272.318 68.1987 272.318ZM68.2114 270.422C69.4585 270.422 70.4256 269.803 71.1127 268.564C71.7999 267.326 72.1435 265.51 72.1435 263.118C72.1435 261.523 71.9865 260.178 71.6727 259.084C71.3588 257.981 70.9049 257.154 70.3111 256.603C69.7257 256.043 69.0216 255.763 68.1987 255.763C66.9347 255.763 65.9591 256.386 65.2719 257.633C64.5932 258.88 64.2539 260.709 64.2539 263.118C64.2539 264.704 64.4109 266.045 64.7247 267.139C65.0471 268.225 65.501 269.044 66.0863 269.595C66.6802 270.146 67.3885 270.422 68.2114 270.422ZM88.4173 263.907C88.4173 264.068 88.3452 264.183 88.201 264.25L77.2701 269.213C77.2192 269.239 77.1726 269.251 77.1301 269.251C77.0114 269.251 76.952 269.171 76.952 269.01V267.712C76.952 267.55 77.0199 267.44 77.1556 267.381L86.5085 263.22L77.1556 259.084C77.0199 259.025 76.952 258.914 76.952 258.753V257.455C76.952 257.294 77.0114 257.213 77.1301 257.213C77.1726 257.213 77.2192 257.226 77.2701 257.252L88.201 262.214C88.3452 262.282 88.4173 262.397 88.4173 262.558V263.907ZM92.724 275.359C92.6476 275.495 92.5331 275.563 92.3804 275.563H91.0824C90.9212 275.563 90.8407 275.499 90.8407 275.372C90.8407 275.33 90.8534 275.283 90.8788 275.232C92.4228 271.737 93.1948 268.115 93.1948 264.365C93.1948 260.709 92.4313 257.171 90.9043 253.752C90.8788 253.701 90.8661 253.655 90.8661 253.612C90.8661 253.485 90.9467 253.421 91.1079 253.421H92.4058C92.5585 253.421 92.6731 253.489 92.7494 253.625C94.497 256.976 95.3708 260.556 95.3708 264.365C95.3708 266.384 95.146 268.284 94.6964 270.066C94.2467 271.847 93.5893 273.612 92.724 275.359Z" fill="white"/>
</svg>
