<svg width="451" height="235" viewBox="0 0 451 235" fill="none" xmlns="http://www.w3.org/2000/svg">
<rect y="15" width="451" height="220" rx="30" fill="black"/>
<rect x="0.5" y="0.5" width="450" height="219" rx="29.5" fill="white" stroke="black"/>
<path d="M31.326 40.196C30.8593 40.196 30.402 40.1447 29.954 40.042C29.8327 40.014 29.772 39.944 29.772 39.832V37.606C29.772 37.5407 29.7907 37.494 29.828 37.466C29.8747 37.438 29.9307 37.4333 29.996 37.452C30.388 37.5267 30.7473 37.564 31.074 37.564C31.7087 37.564 32.2687 37.4147 32.754 37.116C33.2393 36.8173 33.6827 36.3787 34.084 35.8L26.776 20.624C26.7573 20.5867 26.748 20.5587 26.748 20.54C26.748 20.4467 26.8087 20.4 26.93 20.4H30.374C30.4953 20.4 30.57 20.4467 30.598 20.54L35.722 32.174L35.862 31.824C35.9087 31.6747 35.974 31.5113 36.058 31.334L40.09 20.554C40.1367 20.4513 40.216 20.4 40.328 20.4H43.296C43.3707 20.4 43.422 20.4233 43.45 20.47C43.478 20.5073 43.478 20.5587 43.45 20.624L38.172 33.812C37.5467 35.38 36.9167 36.626 36.282 37.55C35.6567 38.4647 34.9473 39.1367 34.154 39.566C33.37 39.986 32.4273 40.196 31.326 40.196ZM49.2285 40.336C47.7538 40.336 46.4845 40.0327 45.4205 39.426C44.3658 38.81 43.5585 37.9373 42.9985 36.808C42.4478 35.6787 42.1725 34.3533 42.1725 32.832C42.1725 31.3107 42.4525 29.9807 43.0125 28.842C43.5725 27.694 44.3845 26.8073 45.4485 26.182C46.5218 25.5567 47.8052 25.244 49.2985 25.244C50.4932 25.244 51.5432 25.4587 52.4485 25.888C53.3538 26.3173 54.0725 26.924 54.6045 27.708C55.1365 28.4827 55.4538 29.388 55.5565 30.424V30.452C55.5565 30.5733 55.4912 30.634 55.3605 30.634H52.6305C52.5745 30.634 52.5278 30.62 52.4905 30.592C52.4532 30.5547 52.4298 30.508 52.4205 30.452C52.2618 29.5093 51.9072 28.7907 51.3565 28.296C50.8058 27.792 50.1198 27.54 49.2985 27.54C48.0665 27.5493 47.1425 28.002 46.5265 28.898C45.9198 29.7847 45.6165 31.0913 45.6165 32.818C45.6165 34.5727 45.9198 35.8887 46.5265 36.766C47.1425 37.634 48.0712 38.068 49.3125 38.068C50.2365 38.068 50.9832 37.774 51.5525 37.186C52.1312 36.598 52.4672 35.7767 52.5605 34.722C52.5792 34.5913 52.6445 34.526 52.7565 34.526H55.5565C55.6218 34.526 55.6732 34.5447 55.7105 34.582C55.7478 34.61 55.7618 34.652 55.7525 34.708C55.6592 35.8 55.3325 36.7707 54.7725 37.62C54.2125 38.4693 53.4565 39.1367 52.5045 39.622C51.5525 40.098 50.4605 40.336 49.2285 40.336ZM70.2171 25.58C70.3478 25.58 70.4131 25.6453 70.4131 25.776L70.3711 32.678L70.4131 39.804C70.4131 39.9347 70.3478 40 70.2171 40H67.1931C67.0625 40 66.9971 39.9347 66.9971 39.804L67.0531 32.678L67.0251 27.988H61.2011L61.1871 32.678L61.2291 39.804C61.2291 39.9347 61.1638 40 61.0331 40H58.0091C57.8785 40 57.8131 39.9347 57.8131 39.804L57.8691 32.678L57.8131 25.776C57.8131 25.6453 57.8785 25.58 58.0091 25.58H70.2171ZM79.7437 40.336C78.2224 40.336 76.925 40.0233 75.8517 39.398C74.7784 38.7633 73.9664 37.8813 73.4157 36.752C72.865 35.6227 72.5897 34.316 72.5897 32.832C72.5897 31.32 72.8697 29.9947 73.4297 28.856C73.999 27.708 74.8157 26.8213 75.8797 26.196C76.9437 25.5613 78.1944 25.244 79.6317 25.244C81.1064 25.244 82.3664 25.5613 83.4117 26.196C84.4664 26.8307 85.2737 27.7407 85.8337 28.926C86.3937 30.1113 86.683 31.5253 86.7017 33.168C86.7017 33.2987 86.6364 33.364 86.5057 33.364H75.9777C76.043 34.96 76.393 36.1453 77.0277 36.92C77.6624 37.6853 78.5817 38.068 79.7857 38.068C81.6057 38.068 82.7164 37.1207 83.1177 35.226C83.1364 35.114 83.2017 35.058 83.3137 35.058H86.1837C86.2397 35.058 86.2864 35.072 86.3237 35.1C86.3704 35.128 86.389 35.1607 86.3797 35.198C86.2584 36.1687 85.9177 37.046 85.3577 37.83C84.7977 38.6047 84.037 39.216 83.0757 39.664C82.1144 40.112 81.0037 40.336 79.7437 40.336ZM83.0757 31.18C83.029 30.4987 82.8704 29.8827 82.5997 29.332C82.3384 28.772 81.9557 28.3287 81.4517 28.002C80.957 27.666 80.355 27.498 79.6457 27.498C78.6377 27.498 77.8304 27.8153 77.2237 28.45C76.6264 29.0753 76.2437 29.9853 76.0757 31.18H83.0757ZM104.889 25.776C104.889 25.6453 104.955 25.58 105.085 25.58H108.109C108.24 25.58 108.305 25.6453 108.305 25.776L108.263 32.93L108.305 39.804C108.305 39.9347 108.24 40 108.109 40H89.0552C88.9246 40 88.8592 39.9347 88.8592 39.804L88.9152 32.93L88.8592 25.776C88.8592 25.6453 88.9246 25.58 89.0552 25.58H92.0792C92.2099 25.58 92.2752 25.6453 92.2752 25.776L92.2332 32.93L92.2472 37.592H96.9092L96.9232 32.93L96.8812 25.776C96.8812 25.6453 96.9466 25.58 97.0772 25.58H100.101C100.232 25.58 100.297 25.6453 100.297 25.776L100.241 32.93L100.255 37.592H104.917L104.945 32.93L104.889 25.776ZM120.271 25.776C120.271 25.6453 120.336 25.58 120.467 25.58H123.491C123.622 25.58 123.687 25.6453 123.687 25.776L123.645 32.678L123.687 39.804C123.687 39.9347 123.622 40 123.491 40H120.467C120.336 40 120.271 39.9347 120.271 39.804L120.313 33.602H114.223L114.265 39.804C114.265 39.9347 114.2 40 114.069 40H111.045C110.914 40 110.849 39.9347 110.849 39.804L110.905 32.678L110.849 25.776C110.849 25.6453 110.914 25.58 111.045 25.58H114.069C114.2 25.58 114.265 25.6453 114.265 25.776L114.223 31.194H120.313L120.271 25.776ZM126.39 40.014C126.26 40.014 126.194 39.9533 126.194 39.832L126.25 32.734L126.222 25.748C126.222 25.6267 126.288 25.566 126.418 25.566H129.442C129.573 25.566 129.638 25.6267 129.638 25.748L129.596 30.704H131.696C133.824 30.704 135.43 31.082 136.512 31.838C137.595 32.594 138.136 33.7513 138.136 35.31C138.136 38.4367 135.99 40 131.696 40L126.39 40.014ZM139.298 40C139.168 40 139.102 39.9347 139.102 39.804L139.158 32.93L139.102 25.776C139.102 25.6453 139.168 25.58 139.298 25.58H142.322C142.453 25.58 142.518 25.6453 142.518 25.776L142.476 32.93L142.518 39.804C142.518 39.9347 142.453 40 142.322 40H139.298ZM129.582 32.944L129.596 37.76H131.71C133.708 37.76 134.706 36.976 134.706 35.408C134.706 34.596 134.464 33.9847 133.978 33.574C133.502 33.154 132.746 32.944 131.71 32.944H129.582ZM145.236 40C145.105 40 145.04 39.9347 145.04 39.804L145.096 32.468L145.04 25.776C145.04 25.6453 145.105 25.58 145.236 25.58H148.218C148.348 25.58 148.414 25.6453 148.414 25.776L148.372 32.692L148.302 36.36L154.196 25.72C154.233 25.6267 154.308 25.58 154.42 25.58H157.976C158.106 25.58 158.172 25.6453 158.172 25.776L158.13 32.678L158.172 39.804C158.172 39.9347 158.106 40 157.976 40H155.022C154.891 40 154.826 39.9347 154.826 39.804L154.868 32.678L154.938 29.304L149.072 39.86C149.034 39.9533 148.96 40 148.848 40H145.236ZM151.676 24.362C152.656 24.362 153.505 24.1893 154.224 23.844C154.942 23.4987 155.493 23.004 155.876 22.36C156.268 21.716 156.464 20.9647 156.464 20.106H153.86C153.841 20.8247 153.645 21.3893 153.272 21.8C152.898 22.2013 152.38 22.402 151.718 22.402C151.036 22.402 150.514 22.2013 150.15 21.8C149.795 21.3893 149.618 20.8247 149.618 20.106H147C147 20.9647 147.186 21.716 147.56 22.36C147.942 23.004 148.484 23.4987 149.184 23.844C149.893 24.1893 150.724 24.362 151.676 24.362ZM176.375 25.776C176.375 25.6453 176.44 25.58 176.571 25.58H179.595C179.726 25.58 179.791 25.6453 179.791 25.776L179.749 32.678L179.791 39.804C179.791 39.9347 179.726 40 179.595 40H176.571C176.44 40 176.375 39.9347 176.375 39.804L176.417 33.602H170.327L170.369 39.804C170.369 39.9347 170.304 40 170.173 40H167.149C167.018 40 166.953 39.9347 166.953 39.804L167.009 32.678L166.953 25.776C166.953 25.6453 167.018 25.58 167.149 25.58H170.173C170.304 25.58 170.369 25.6453 170.369 25.776L170.327 31.194H176.417L176.375 25.776ZM189.102 40.336C187.581 40.336 186.284 40.0233 185.21 39.398C184.137 38.7633 183.325 37.8813 182.774 36.752C182.224 35.6227 181.948 34.316 181.948 32.832C181.948 31.32 182.228 29.9947 182.788 28.856C183.358 27.708 184.174 26.8213 185.238 26.196C186.302 25.5613 187.553 25.244 188.99 25.244C190.465 25.244 191.725 25.5613 192.77 26.196C193.825 26.8307 194.632 27.7407 195.192 28.926C195.752 30.1113 196.042 31.5253 196.06 33.168C196.06 33.2987 195.995 33.364 195.864 33.364H185.336C185.402 34.96 185.752 36.1453 186.386 36.92C187.021 37.6853 187.94 38.068 189.144 38.068C190.964 38.068 192.075 37.1207 192.476 35.226C192.495 35.114 192.56 35.058 192.672 35.058H195.542C195.598 35.058 195.645 35.072 195.682 35.1C195.729 35.128 195.748 35.1607 195.738 35.198C195.617 36.1687 195.276 37.046 194.716 37.83C194.156 38.6047 193.396 39.216 192.434 39.664C191.473 40.112 190.362 40.336 189.102 40.336ZM192.434 31.18C192.388 30.4987 192.229 29.8827 191.958 29.332C191.697 28.772 191.314 28.3287 190.81 28.002C190.316 27.666 189.714 27.498 189.004 27.498C187.996 27.498 187.189 27.8153 186.582 28.45C185.985 29.0753 185.602 29.9853 185.434 31.18H192.434ZM209.597 25.58C209.653 25.58 209.699 25.5987 209.737 25.636C209.774 25.664 209.793 25.7107 209.793 25.776V27.792C209.793 27.8573 209.774 27.9087 209.737 27.946C209.699 27.974 209.653 27.988 209.597 27.988H204.907L204.879 32.678L204.935 39.804C204.935 39.9347 204.869 40 204.739 40H201.715C201.584 40 201.519 39.9347 201.519 39.804L201.561 32.678L201.533 27.988H196.871C196.74 27.988 196.675 27.9227 196.675 27.792V25.776C196.675 25.6453 196.74 25.58 196.871 25.58H209.597ZM221.025 32.3C222.21 32.552 223.074 32.9813 223.615 33.588C224.156 34.1853 224.427 34.974 224.427 35.954C224.427 37.5127 223.806 38.5767 222.565 39.146C221.324 39.7153 219.9 40 218.295 40H212.009C211.878 40 211.813 39.9347 211.813 39.804L211.869 32.678L211.827 25.776C211.827 25.6453 211.892 25.58 212.023 25.58H218.239C220.115 25.58 221.543 25.874 222.523 26.462C223.503 27.0407 223.993 27.9367 223.993 29.15C223.993 29.9807 223.732 30.6573 223.209 31.18C222.696 31.6933 221.968 32.0573 221.025 32.272V32.3ZM215.131 27.82L215.117 31.376H218.211C218.986 31.376 219.583 31.2313 220.003 30.942C220.423 30.6433 220.633 30.1907 220.633 29.584C220.633 29.0053 220.414 28.5667 219.975 28.268C219.546 27.9693 218.958 27.82 218.211 27.82H215.131ZM215.117 33.56L215.131 37.76H218.225C219.093 37.76 219.774 37.5873 220.269 37.242C220.764 36.8967 221.011 36.374 221.011 35.674C221.011 34.9647 220.754 34.4373 220.241 34.092C219.728 33.7373 219.06 33.56 218.239 33.56H215.117ZM233.292 40.336C231.799 40.336 230.516 40.028 229.442 39.412C228.378 38.796 227.566 37.9233 227.006 36.794C226.446 35.6647 226.166 34.3393 226.166 32.818C226.166 31.2967 226.446 29.9667 227.006 28.828C227.566 27.6893 228.378 26.8073 229.442 26.182C230.516 25.5567 231.799 25.244 233.292 25.244C234.786 25.244 236.06 25.552 237.114 26.168C238.178 26.784 238.986 27.6567 239.536 28.786C240.096 29.9153 240.376 31.2407 240.376 32.762C240.376 34.2833 240.096 35.6133 239.536 36.752C238.986 37.8907 238.178 38.7727 237.114 39.398C236.05 40.0233 234.776 40.336 233.292 40.336ZM233.292 38.068C234.515 38.068 235.425 37.634 236.022 36.766C236.629 35.8887 236.932 34.5727 236.932 32.818C236.932 31.082 236.624 29.766 236.008 28.87C235.402 27.9647 234.487 27.512 233.264 27.512C230.819 27.54 229.596 29.318 229.596 32.846C229.596 36.3273 230.828 38.068 233.292 38.068ZM250.3 25.286C251.588 25.286 252.69 25.6127 253.604 26.266C254.528 26.91 255.224 27.7967 255.69 28.926C256.166 30.0553 256.404 31.3293 256.404 32.748C256.404 34.148 256.157 35.422 255.662 36.57C255.168 37.7087 254.454 38.614 253.52 39.286C252.587 39.9487 251.495 40.28 250.244 40.28C249.302 40.28 248.466 40.098 247.738 39.734C247.01 39.3607 246.408 38.8193 245.932 38.11L245.974 44.564C245.974 44.6947 245.909 44.76 245.778 44.76H242.754C242.624 44.76 242.558 44.6947 242.558 44.564L242.614 33.91L242.558 25.776C242.558 25.6453 242.624 25.58 242.754 25.58H245.75C245.89 25.58 245.951 25.6453 245.932 25.776L245.876 27.652C246.371 26.896 246.992 26.3127 247.738 25.902C248.494 25.4913 249.348 25.286 250.3 25.286ZM249.32 37.984C250.524 37.984 251.434 37.5453 252.05 36.668C252.666 35.7813 252.974 34.54 252.974 32.944C252.974 31.2547 252.671 29.9433 252.064 29.01C251.458 28.0767 250.566 27.61 249.39 27.61C248.242 27.61 247.356 28.0487 246.73 28.926C246.105 29.8033 245.792 31.0867 245.792 32.776C245.792 34.4373 246.096 35.7207 246.702 36.626C247.318 37.5313 248.191 37.984 249.32 37.984ZM270.669 25.58C270.772 25.58 270.823 25.6173 270.823 25.692C270.823 25.7293 270.809 25.7713 270.781 25.818L266.623 31.754L271.481 39.762C271.5 39.818 271.509 39.8553 271.509 39.874C271.509 39.958 271.453 40 271.341 40H267.855C267.743 40 267.664 39.958 267.617 39.874L266.273 37.396L263.963 33.532H261.961L262.003 39.804C262.003 39.9347 261.938 40 261.807 40H258.783C258.653 40 258.587 39.9347 258.587 39.804L258.643 32.678L258.587 25.776C258.587 25.6453 258.653 25.58 258.783 25.58H261.807C261.938 25.58 262.003 25.6453 262.003 25.776L261.961 31.124H263.977L267.491 25.706C267.538 25.622 267.617 25.58 267.729 25.58H270.669ZM273.39 40C273.26 40 273.194 39.9347 273.194 39.804L273.25 32.468L273.194 25.776C273.194 25.6453 273.26 25.58 273.39 25.58H276.372C276.503 25.58 276.568 25.6453 276.568 25.776L276.526 32.692L276.456 36.36L282.35 25.72C282.388 25.6267 282.462 25.58 282.574 25.58H286.13C286.261 25.58 286.326 25.6453 286.326 25.776L286.284 32.678L286.326 39.804C286.326 39.9347 286.261 40 286.13 40H283.176C283.046 40 282.98 39.9347 282.98 39.804L283.022 32.678L283.092 29.304L277.226 39.86C277.189 39.9533 277.114 40 277.002 40H273.39ZM298.262 25.776C298.262 25.6453 298.328 25.58 298.458 25.58H301.482C301.613 25.58 301.678 25.6453 301.678 25.776L301.636 32.678L301.678 39.804C301.678 39.9347 301.613 40 301.482 40H298.458C298.328 40 298.262 39.9347 298.262 39.804L298.304 33.602H292.214L292.256 39.804C292.256 39.9347 292.191 40 292.06 40H289.036C288.906 40 288.84 39.9347 288.84 39.804L288.896 32.678L288.84 25.776C288.84 25.6453 288.906 25.58 289.036 25.58H292.06C292.191 25.58 292.256 25.6453 292.256 25.776L292.214 31.194H298.304L298.262 25.776ZM304.382 40C304.251 40 304.186 39.9347 304.186 39.804L304.242 32.678L304.186 25.776C304.186 25.6453 304.251 25.58 304.382 25.58H313.496C313.626 25.58 313.692 25.6453 313.692 25.776V27.792C313.692 27.9227 313.626 27.988 313.496 27.988H307.574L307.56 32.678L307.602 39.804C307.602 39.9347 307.536 40 307.406 40H304.382ZM27.196 69.458C27.0653 69.458 27 69.3927 27 69.262V63.83C27 63.6993 27.0653 63.634 27.196 63.634H28.176C28.54 63.2607 28.8293 62.7707 29.044 62.164C29.268 61.548 29.4313 60.8013 29.534 59.924C29.758 58.244 29.926 55.528 30.038 51.776C30.038 51.6453 30.1033 51.58 30.234 51.58H40.426C40.482 51.58 40.5287 51.5987 40.566 51.636C40.6033 51.664 40.622 51.7107 40.622 51.776L40.636 58.482L40.734 63.62L42.442 63.606C42.5073 63.606 42.554 63.6247 42.582 63.662C42.6193 63.6993 42.638 63.746 42.638 63.802V69.262C42.638 69.3927 42.5727 69.458 42.442 69.458H39.88C39.7493 69.458 39.684 69.3927 39.684 69.262L39.6 66H30.08L29.996 69.262C29.996 69.3927 29.9307 69.458 29.8 69.458H27.196ZM37.388 63.634V58.468L37.332 53.988H32.838C32.7167 56.676 32.5813 58.664 32.432 59.952C32.32 60.7733 32.18 61.4733 32.012 62.052C31.844 62.6213 31.6293 63.1487 31.368 63.634H37.388ZM46.0315 66.252C45.6115 66.252 45.1775 66.1913 44.7295 66.07C44.6268 66.0233 44.5755 65.9487 44.5755 65.846V63.956C44.5755 63.8907 44.5941 63.844 44.6315 63.816C44.6781 63.788 44.7341 63.7787 44.7995 63.788C44.9861 63.8347 45.1681 63.858 45.3455 63.858C45.7281 63.858 46.0361 63.774 46.2695 63.606C46.5028 63.4287 46.6848 63.1347 46.8155 62.724C46.9461 62.304 47.0441 61.716 47.1095 60.96C47.1935 60.008 47.2775 58.6593 47.3615 56.914C47.4455 55.1687 47.5155 53.4467 47.5715 51.748C47.5715 51.6267 47.6368 51.566 47.7675 51.566H58.0855C58.2161 51.566 58.2815 51.6267 58.2815 51.748L58.2675 58.86L58.3515 65.79C58.3515 65.9207 58.2861 65.986 58.1555 65.986L55.1175 66.014C54.9868 66.014 54.9215 65.9533 54.9215 65.832L54.9355 58.86L54.8655 53.96H50.3715C50.2221 57.2733 50.0775 59.7327 49.9375 61.338C49.8441 62.43 49.6668 63.3307 49.4055 64.04C49.1535 64.7493 48.7568 65.2953 48.2155 65.678C47.6741 66.0607 46.9461 66.252 46.0315 66.252ZM60.8656 66C60.7536 66 60.6976 65.958 60.6976 65.874C60.6976 65.8367 60.7116 65.7993 60.7396 65.762L64.0856 60.4C63.0029 60.1107 62.1722 59.6113 61.5936 58.902C61.0242 58.1833 60.7396 57.25 60.7396 56.102C60.7396 53.0873 62.8582 51.58 67.0956 51.58H72.9056C73.0362 51.58 73.1016 51.6453 73.1016 51.776L73.0596 58.664L73.1016 65.804C73.1016 65.9347 73.0362 66 72.9056 66H69.8956C69.7649 66 69.6996 65.9347 69.6996 65.804L69.7416 60.778H67.0256L65.6536 63.172L64.1276 65.874C64.0902 65.958 64.0156 66 63.9036 66H60.8656ZM69.7556 58.524L69.7416 53.82H67.0116C66.0969 53.82 65.3922 54.0253 64.8976 54.436C64.4029 54.8467 64.1556 55.416 64.1556 56.144C64.1556 56.9187 64.4029 57.5113 64.8976 57.922C65.3922 58.3233 66.1016 58.524 67.0256 58.524H69.7556ZM82.1099 66C81.9792 66 81.9139 65.9347 81.9139 65.804L81.9699 58.468L81.9139 51.776C81.9139 51.6453 81.9792 51.58 82.1099 51.58H85.0919C85.2226 51.58 85.2879 51.6453 85.2879 51.776L85.2459 58.692L85.1759 62.36L91.0699 51.72C91.1072 51.6267 91.1819 51.58 91.2939 51.58H94.8499C94.9806 51.58 95.0459 51.6453 95.0459 51.776L95.0039 58.678L95.0459 65.804C95.0459 65.9347 94.9806 66 94.8499 66H91.8959C91.7652 66 91.6999 65.9347 91.6999 65.804L91.7419 58.678L91.8119 55.304L85.9459 65.86C85.9086 65.9533 85.8339 66 85.7219 66H82.1099ZM106.982 51.776C106.982 51.6453 107.047 51.58 107.178 51.58H110.202C110.333 51.58 110.398 51.6453 110.398 51.776L110.356 58.678L110.398 65.804C110.398 65.9347 110.333 66 110.202 66H107.178C107.047 66 106.982 65.9347 106.982 65.804L107.024 59.602H100.934L100.976 65.804C100.976 65.9347 100.911 66 100.78 66H97.756C97.6253 66 97.56 65.9347 97.56 65.804L97.616 58.678L97.56 51.776C97.56 51.6453 97.6253 51.58 97.756 51.58H100.78C100.911 51.58 100.976 51.6453 100.976 51.776L100.934 57.194H107.024L106.982 51.776ZM125.296 51.58C125.352 51.58 125.399 51.5987 125.436 51.636C125.473 51.664 125.492 51.7107 125.492 51.776V53.792C125.492 53.8573 125.473 53.9087 125.436 53.946C125.399 53.974 125.352 53.988 125.296 53.988H120.606L120.578 58.678L120.634 65.804C120.634 65.9347 120.569 66 120.438 66H117.414C117.283 66 117.218 65.9347 117.218 65.804L117.26 58.678L117.232 53.988H112.57C112.439 53.988 112.374 53.9227 112.374 53.792V51.776C112.374 51.6453 112.439 51.58 112.57 51.58H125.296ZM135.254 51.286C136.542 51.286 137.644 51.6127 138.558 52.266C139.482 52.91 140.178 53.7967 140.644 54.926C141.12 56.0553 141.358 57.3293 141.358 58.748C141.358 60.148 141.111 61.422 140.616 62.57C140.122 63.7087 139.408 64.614 138.474 65.286C137.541 65.9487 136.449 66.28 135.198 66.28C134.256 66.28 133.42 66.098 132.692 65.734C131.964 65.3607 131.362 64.8193 130.886 64.11L130.928 70.564C130.928 70.6947 130.863 70.76 130.732 70.76H127.708C127.578 70.76 127.512 70.6947 127.512 70.564L127.568 59.91L127.512 51.776C127.512 51.6453 127.578 51.58 127.708 51.58H130.704C130.844 51.58 130.905 51.6453 130.886 51.776L130.83 53.652C131.325 52.896 131.946 52.3127 132.692 51.902C133.448 51.4913 134.302 51.286 135.254 51.286ZM134.274 63.984C135.478 63.984 136.388 63.5453 137.004 62.668C137.62 61.7813 137.928 60.54 137.928 58.944C137.928 57.2547 137.625 55.9433 137.018 55.01C136.412 54.0767 135.52 53.61 134.344 53.61C133.196 53.61 132.31 54.0487 131.684 54.926C131.059 55.8033 130.746 57.0867 130.746 58.776C130.746 60.4373 131.05 61.7207 131.656 62.626C132.272 63.5313 133.145 63.984 134.274 63.984ZM150.468 66.336C148.975 66.336 147.691 66.028 146.618 65.412C145.554 64.796 144.742 63.9233 144.182 62.794C143.622 61.6647 143.342 60.3393 143.342 58.818C143.342 57.2967 143.622 55.9667 144.182 54.828C144.742 53.6893 145.554 52.8073 146.618 52.182C147.691 51.5567 148.975 51.244 150.468 51.244C151.961 51.244 153.235 51.552 154.29 52.168C155.354 52.784 156.161 53.6567 156.712 54.786C157.272 55.9153 157.552 57.2407 157.552 58.762C157.552 60.2833 157.272 61.6133 156.712 62.752C156.161 63.8907 155.354 64.7727 154.29 65.398C153.226 66.0233 151.952 66.336 150.468 66.336ZM150.468 64.068C151.691 64.068 152.601 63.634 153.198 62.766C153.805 61.8887 154.108 60.5727 154.108 58.818C154.108 57.082 153.8 55.766 153.184 54.87C152.577 53.9647 151.663 53.512 150.44 53.512C147.995 53.54 146.772 55.318 146.772 58.846C146.772 62.3273 148.004 64.068 150.468 64.068ZM168.946 58.3C170.132 58.552 170.995 58.9813 171.536 59.588C172.078 60.1853 172.348 60.974 172.348 61.954C172.348 63.5127 171.728 64.5767 170.486 65.146C169.245 65.7153 167.822 66 166.216 66H159.93C159.8 66 159.734 65.9347 159.734 65.804L159.79 58.678L159.748 51.776C159.748 51.6453 159.814 51.58 159.944 51.58H166.16C168.036 51.58 169.464 51.874 170.444 52.462C171.424 53.0407 171.914 53.9367 171.914 55.15C171.914 55.9807 171.653 56.6573 171.13 57.18C170.617 57.6933 169.889 58.0573 168.946 58.272V58.3ZM163.052 53.82L163.038 57.376H166.132C166.907 57.376 167.504 57.2313 167.924 56.942C168.344 56.6433 168.554 56.1907 168.554 55.584C168.554 55.0053 168.335 54.5667 167.896 54.268C167.467 53.9693 166.879 53.82 166.132 53.82H163.052ZM163.038 59.56L163.052 63.76H166.146C167.014 63.76 167.696 63.5873 168.19 63.242C168.685 62.8967 168.932 62.374 168.932 61.674C168.932 60.9647 168.676 60.4373 168.162 60.092C167.649 59.7373 166.982 59.56 166.16 59.56H163.038ZM181.227 66.336C179.706 66.336 178.409 66.0233 177.335 65.398C176.262 64.7633 175.45 63.8813 174.899 62.752C174.349 61.6227 174.073 60.316 174.073 58.832C174.073 57.32 174.353 55.9947 174.913 54.856C175.483 53.708 176.299 52.8213 177.363 52.196C178.427 51.5613 179.678 51.244 181.115 51.244C182.59 51.244 183.85 51.5613 184.895 52.196C185.95 52.8307 186.757 53.7407 187.317 54.926C187.877 56.1113 188.167 57.5253 188.185 59.168C188.185 59.2987 188.12 59.364 187.989 59.364H177.461C177.527 60.96 177.877 62.1453 178.511 62.92C179.146 63.6853 180.065 64.068 181.269 64.068C183.089 64.068 184.2 63.1207 184.601 61.226C184.62 61.114 184.685 61.058 184.797 61.058H187.667C187.723 61.058 187.77 61.072 187.807 61.1C187.854 61.128 187.873 61.1607 187.863 61.198C187.742 62.1687 187.401 63.046 186.841 63.83C186.281 64.6047 185.521 65.216 184.559 65.664C183.598 66.112 182.487 66.336 181.227 66.336ZM184.559 57.18C184.513 56.4987 184.354 55.8827 184.083 55.332C183.822 54.772 183.439 54.3287 182.935 54.002C182.441 53.666 181.839 53.498 181.129 53.498C180.121 53.498 179.314 53.8153 178.707 54.45C178.11 55.0753 177.727 55.9853 177.559 57.18H184.559ZM198.085 51.286C199.373 51.286 200.474 51.6127 201.389 52.266C202.313 52.91 203.008 53.7967 203.475 54.926C203.951 56.0553 204.189 57.3293 204.189 58.748C204.189 60.148 203.941 61.422 203.447 62.57C202.952 63.7087 202.238 64.614 201.305 65.286C200.371 65.9487 199.279 66.28 198.029 66.28C197.086 66.28 196.251 66.098 195.523 65.734C194.795 65.3607 194.193 64.8193 193.717 64.11L193.759 70.564C193.759 70.6947 193.693 70.76 193.563 70.76H190.539C190.408 70.76 190.343 70.6947 190.343 70.564L190.399 59.91L190.343 51.776C190.343 51.6453 190.408 51.58 190.539 51.58H193.535C193.675 51.58 193.735 51.6453 193.717 51.776L193.661 53.652C194.155 52.896 194.776 52.3127 195.523 51.902C196.279 51.4913 197.133 51.286 198.085 51.286ZM197.105 63.984C198.309 63.984 199.219 63.5453 199.835 62.668C200.451 61.7813 200.759 60.54 200.759 58.944C200.759 57.2547 200.455 55.9433 199.849 55.01C199.242 54.0767 198.351 53.61 197.175 53.61C196.027 53.61 195.14 54.0487 194.515 54.926C193.889 55.8033 193.577 57.0867 193.577 58.776C193.577 60.4373 193.88 61.7207 194.487 62.626C195.103 63.5313 195.975 63.984 197.105 63.984ZM217.887 51.58C217.943 51.58 217.99 51.5987 218.027 51.636C218.065 51.664 218.083 51.7107 218.083 51.776V53.792C218.083 53.8573 218.065 53.9087 218.027 53.946C217.99 53.974 217.943 53.988 217.887 53.988H213.197L213.169 58.678L213.225 65.804C213.225 65.9347 213.16 66 213.029 66H210.005C209.875 66 209.809 65.9347 209.809 65.804L209.851 58.678L209.823 53.988H205.161C205.031 53.988 204.965 53.9227 204.965 53.792V51.776C204.965 51.6453 205.031 51.58 205.161 51.58H217.887ZM226.019 66.336C224.525 66.336 223.242 66.028 222.169 65.412C221.105 64.796 220.293 63.9233 219.733 62.794C219.173 61.6647 218.893 60.3393 218.893 58.818C218.893 57.2967 219.173 55.9667 219.733 54.828C220.293 53.6893 221.105 52.8073 222.169 52.182C223.242 51.5567 224.525 51.244 226.019 51.244C227.512 51.244 228.786 51.552 229.841 52.168C230.905 52.784 231.712 53.6567 232.263 54.786C232.823 55.9153 233.103 57.2407 233.103 58.762C233.103 60.2833 232.823 61.6133 232.263 62.752C231.712 63.8907 230.905 64.7727 229.841 65.398C228.777 66.0233 227.503 66.336 226.019 66.336ZM226.019 64.068C227.241 64.068 228.151 63.634 228.749 62.766C229.355 61.8887 229.659 60.5727 229.659 58.818C229.659 57.082 229.351 55.766 228.735 54.87C228.128 53.9647 227.213 53.512 225.991 53.512C223.545 53.54 222.323 55.318 222.323 58.846C222.323 62.3273 223.555 64.068 226.019 64.068ZM244.497 58.3C245.682 58.552 246.546 58.9813 247.087 59.588C247.628 60.1853 247.899 60.974 247.899 61.954C247.899 63.5127 247.278 64.5767 246.037 65.146C244.796 65.7153 243.372 66 241.767 66H235.481C235.35 66 235.285 65.9347 235.285 65.804L235.341 58.678L235.299 51.776C235.299 51.6453 235.364 51.58 235.495 51.58H241.711C243.587 51.58 245.015 51.874 245.995 52.462C246.975 53.0407 247.465 53.9367 247.465 55.15C247.465 55.9807 247.204 56.6573 246.681 57.18C246.168 57.6933 245.44 58.0573 244.497 58.272V58.3ZM238.603 53.82L238.589 57.376H241.683C242.458 57.376 243.055 57.2313 243.475 56.942C243.895 56.6433 244.105 56.1907 244.105 55.584C244.105 55.0053 243.886 54.5667 243.447 54.268C243.018 53.9693 242.43 53.82 241.683 53.82H238.603ZM238.589 59.56L238.603 63.76H241.697C242.565 63.76 243.246 63.5873 243.741 63.242C244.236 62.8967 244.483 62.374 244.483 61.674C244.483 60.9647 244.226 60.4373 243.713 60.092C243.2 59.7373 242.532 59.56 241.711 59.56H238.589Z" fill="black" fill-opacity="0.8"/>
<rect x="23.5" y="167.5" width="125" height="32" rx="16" fill="black"/>
<rect x="23.5" y="167.5" width="125" height="32" rx="16" stroke="black"/>
<path d="M41.4079 180.196C41.5332 180.196 41.5959 180.259 41.5959 180.384L41.5361 184.453L41.5959 188.812C41.5959 188.937 41.5332 189 41.4079 189H40.1429C40.0232 189 39.9634 188.937 39.9634 188.812L40.0147 184.453L39.9805 181.35H35.9205L35.8778 184.453L35.9376 188.812C35.9376 188.937 35.875 189 35.7496 189H34.4846C34.3649 189 34.3051 188.937 34.3051 188.812L34.3564 184.453L34.3051 180.384C34.3051 180.259 34.3649 180.196 34.4846 180.196H41.4079ZM47.8707 180.017C48.6399 180.017 49.2981 180.216 49.8451 180.615C50.3921 181.008 50.8052 181.55 51.0844 182.239C51.3693 182.929 51.5118 183.706 51.5118 184.573C51.5118 185.427 51.3636 186.205 51.0673 186.906C50.7767 187.601 50.3551 188.154 49.8023 188.564C49.2496 188.969 48.5972 189.171 47.845 189.171C47.2239 189.171 46.6826 189.04 46.221 188.778C45.7595 188.51 45.3863 188.122 45.1014 187.615L45.1355 191.718C45.1355 191.843 45.0729 191.906 44.9475 191.906H43.6825C43.5572 191.906 43.4945 191.843 43.4945 191.718L43.5628 185.145L43.503 180.384C43.503 180.259 43.5628 180.196 43.6825 180.196H44.9133C45.0387 180.196 45.1014 180.262 45.1014 180.393L45.0586 181.675C45.3549 181.151 45.7395 180.743 46.2125 180.453C46.6911 180.162 47.2439 180.017 47.8707 180.017ZM47.4348 188.068C48.2496 188.068 48.865 187.763 49.281 187.154C49.7026 186.544 49.9135 185.721 49.9135 184.684C49.9135 183.595 49.7055 182.732 49.2895 182.094C48.8792 181.45 48.2724 181.128 47.4689 181.128C46.6997 181.128 46.0985 181.421 45.6655 182.008C45.2324 182.595 45.0159 183.45 45.0159 184.573C45.0159 185.684 45.2267 186.544 45.6484 187.154C46.0757 187.763 46.6712 188.068 47.4348 188.068ZM56.9987 189.197C56.1155 189.197 55.3605 189.009 54.7337 188.632C54.1069 188.256 53.6283 187.724 53.2978 187.034C52.973 186.345 52.8106 185.538 52.8106 184.615C52.8106 183.686 52.973 182.877 53.2978 182.188C53.6283 181.493 54.1069 180.954 54.7337 180.572C55.3662 180.191 56.1212 180 56.9987 180C57.8762 180 58.6284 180.188 59.2552 180.564C59.882 180.94 60.3578 181.476 60.6826 182.171C61.0074 182.86 61.1698 183.667 61.1698 184.59C61.1698 185.518 61.0074 186.33 60.6826 187.026C60.3578 187.715 59.882 188.251 59.2552 188.632C58.6284 189.009 57.8762 189.197 56.9987 189.197ZM56.9987 188.103C57.8421 188.103 58.4745 187.803 58.8962 187.205C59.3236 186.607 59.5373 185.743 59.5373 184.615C59.5373 183.493 59.3207 182.627 58.8877 182.017C58.4603 181.401 57.8278 181.094 56.9902 181.094C56.1411 181.099 55.503 181.407 55.0756 182.017C54.6482 182.627 54.4345 183.496 54.4345 184.624C54.4345 185.746 54.6511 186.607 55.0841 187.205C55.5172 187.803 56.1554 188.103 56.9987 188.103ZM61.6042 191.094C61.5472 191.094 61.5017 191.077 61.4675 191.043C61.4333 191.009 61.4162 190.963 61.4162 190.906V188.051C61.4162 187.994 61.4333 187.949 61.4675 187.914C61.5017 187.88 61.5472 187.863 61.6042 187.863H62.1085C62.3364 187.618 62.5131 187.305 62.6384 186.923C62.7695 186.541 62.8692 186.06 62.9376 185.479C63.006 184.897 63.0658 184.142 63.1171 183.214C63.1741 182.279 63.2168 181.336 63.2453 180.384C63.251 180.327 63.2709 180.282 63.3051 180.248C63.3393 180.213 63.3849 180.196 63.4419 180.196H69.1429C69.2683 180.196 69.3309 180.259 69.3309 180.384L69.3395 184.325L69.4506 187.863L70.3651 187.855C70.4962 187.855 70.5617 187.917 70.5617 188.043V190.906C70.5617 190.963 70.5446 191.009 70.5105 191.043C70.4763 191.077 70.4278 191.094 70.3651 191.094H69.348C69.291 191.094 69.2455 191.077 69.2113 191.043C69.1771 191.009 69.16 190.963 69.16 190.906L69.1172 189H62.8778L62.835 190.906C62.835 190.963 62.8179 191.009 62.7837 191.043C62.7496 191.077 62.704 191.094 62.647 191.094H61.6042ZM67.8779 187.863L67.8694 184.325L67.801 181.35H64.5787C64.5103 183.145 64.4163 184.533 64.2966 185.513C64.2339 186.071 64.1484 186.527 64.0402 186.88C63.9376 187.234 63.8009 187.561 63.6299 187.863H67.8779ZM77.0886 184.29C77.818 184.45 78.3479 184.715 78.6784 185.085C79.0089 185.45 79.1742 185.929 79.1742 186.521C79.1742 187.439 78.818 188.083 78.1058 188.453C77.3935 188.818 76.5473 189 75.5672 189H72.0458C71.9261 189 71.8663 188.937 71.8663 188.812L71.9175 184.453L71.8748 180.384C71.8748 180.259 71.9346 180.196 72.0543 180.196H75.5501C76.6328 180.196 77.4619 180.379 78.0374 180.743C78.6186 181.102 78.9092 181.644 78.9092 182.367C78.9092 182.88 78.7496 183.293 78.4305 183.607C78.1171 183.92 77.6698 184.142 77.0886 184.273V184.29ZM73.4817 181.282L73.456 183.829H75.533C76.7296 183.829 77.328 183.404 77.328 182.555C77.328 182.139 77.1684 181.823 76.8493 181.607C76.5302 181.39 76.0886 181.282 75.5245 181.282H73.4817ZM73.4475 184.889L73.4731 187.914H75.533C76.1769 187.914 76.6784 187.792 77.0373 187.547C77.3963 187.296 77.5758 186.912 77.5758 186.393C77.5758 185.897 77.3821 185.524 76.9946 185.273C76.6128 185.017 76.1285 184.889 75.5416 184.889H73.4475ZM80.8353 189C80.7156 189 80.6558 188.937 80.6558 188.812L80.7071 184.453L80.6472 180.384C80.6472 180.259 80.7071 180.196 80.8267 180.196H82.0575C82.1829 180.196 82.2456 180.259 82.2456 180.384L82.2199 184.29L82.1772 187.282L86.2542 180.333C86.2941 180.242 86.371 180.196 86.485 180.196H87.9979C88.1232 180.196 88.1859 180.259 88.1859 180.384L88.1261 184.453L88.1859 188.812C88.1859 188.937 88.1232 189 87.9979 189H86.7756C86.6502 189 86.5876 188.937 86.5876 188.812L86.6217 184.667L86.6474 181.966L82.6045 188.863C82.5533 188.954 82.4763 189 82.3738 189H80.8353ZM100.933 180.196C100.985 180.196 101.025 180.208 101.053 180.231C101.082 180.253 101.096 180.282 101.096 180.316C101.096 180.344 101.079 180.382 101.045 180.427L98.3949 184.051L101.429 188.769C101.452 188.798 101.463 188.832 101.463 188.872C101.463 188.912 101.449 188.943 101.421 188.966C101.392 188.989 101.352 189 101.301 189H99.8992C99.7967 189 99.7197 188.957 99.6685 188.872L98.9334 187.607L97.1385 184.82H96.1812L96.2239 188.812C96.2239 188.937 96.1641 189 96.0444 189H94.7794C94.6541 189 94.5914 188.937 94.5914 188.812L94.6427 184.82H93.6768L91.8819 187.607L91.1468 188.872C91.0956 188.957 91.0186 189 90.9161 189H89.5143C89.463 189 89.4232 188.989 89.3947 188.966C89.3662 188.943 89.3519 188.912 89.3519 188.872C89.3519 188.832 89.3633 188.798 89.3861 188.769L92.4204 184.051L89.7707 180.427C89.7365 180.382 89.7195 180.344 89.7195 180.316C89.7195 180.282 89.7337 180.253 89.7622 180.231C89.7907 180.208 89.8306 180.196 89.8819 180.196H91.0785C91.1696 180.196 91.2466 180.236 91.3092 180.316L93.6768 183.684H94.6341L94.5914 180.384C94.5914 180.259 94.6541 180.196 94.7794 180.196H96.0444C96.1641 180.196 96.2239 180.259 96.2239 180.384L96.1812 183.684H97.1385L99.5061 180.316C99.5687 180.236 99.6457 180.196 99.7368 180.196H100.933ZM105.82 189.197C104.92 189.197 104.154 189.006 103.521 188.624C102.894 188.242 102.419 187.707 102.094 187.017C101.769 186.328 101.607 185.53 101.607 184.624C101.607 183.706 101.769 182.9 102.094 182.205C102.424 181.51 102.9 180.968 103.521 180.581C104.142 180.193 104.88 180 105.735 180C106.578 180 107.302 180.182 107.906 180.547C108.516 180.911 108.983 181.439 109.308 182.128C109.638 182.817 109.815 183.641 109.838 184.598C109.838 184.729 109.775 184.795 109.65 184.795H103.214C103.265 187 104.14 188.103 105.838 188.103C106.476 188.103 106.989 187.934 107.376 187.598C107.769 187.256 108.031 186.761 108.162 186.111C108.191 185.997 108.259 185.94 108.368 185.94H109.496C109.558 185.94 109.607 185.954 109.641 185.983C109.675 186.011 109.69 186.054 109.684 186.111C109.587 186.721 109.373 187.259 109.043 187.726C108.718 188.188 108.282 188.55 107.735 188.812C107.188 189.068 106.55 189.197 105.82 189.197ZM108.137 183.726C108.12 183.236 108.017 182.792 107.829 182.393C107.641 181.988 107.37 181.669 107.017 181.436C106.664 181.202 106.239 181.085 105.744 181.085C105.02 181.085 104.45 181.316 104.034 181.778C103.618 182.233 103.359 182.883 103.256 183.726H108.137ZM117.192 180.384C117.192 180.259 117.252 180.196 117.372 180.196H118.603C118.728 180.196 118.791 180.259 118.791 180.384L118.731 184.453L118.791 188.812C118.791 188.937 118.728 189 118.603 189H117.372C117.252 189 117.192 188.937 117.192 188.812L117.235 184.914H112.944L112.996 188.812C112.996 188.937 112.933 189 112.808 189H111.577C111.457 189 111.397 188.937 111.397 188.812L111.449 184.453L111.397 180.384C111.397 180.259 111.457 180.196 111.577 180.196H112.808C112.933 180.196 112.996 180.259 112.996 180.384L112.953 183.761H117.235L117.192 180.384ZM120.9 189C120.781 189 120.721 188.937 120.721 188.812L120.772 184.453L120.712 180.384C120.712 180.259 120.772 180.196 120.892 180.196H122.123C122.248 180.196 122.311 180.259 122.311 180.384L122.285 184.29L122.242 187.282L126.319 180.333C126.359 180.242 126.436 180.196 126.55 180.196H128.063C128.188 180.196 128.251 180.259 128.251 180.384L128.191 184.453L128.251 188.812C128.251 188.937 128.188 189 128.063 189H126.841C126.715 189 126.653 188.937 126.653 188.812L126.687 184.667L126.713 181.966L122.67 188.863C122.618 188.954 122.542 189 122.439 189H120.9ZM134.05 189.197C133.149 189.197 132.383 189.006 131.751 188.624C131.124 188.242 130.648 187.707 130.323 187.017C129.998 186.328 129.836 185.53 129.836 184.624C129.836 183.706 129.998 182.9 130.323 182.205C130.654 181.51 131.129 180.968 131.751 180.581C132.372 180.193 133.11 180 133.964 180C134.808 180 135.531 180.182 136.135 180.547C136.745 180.911 137.212 181.439 137.537 182.128C137.868 182.817 138.044 183.641 138.067 184.598C138.067 184.729 138.004 184.795 137.879 184.795H131.443C131.494 187 132.369 188.103 134.067 188.103C134.705 188.103 135.218 187.934 135.605 187.598C135.999 187.256 136.261 186.761 136.392 186.111C136.42 185.997 136.489 185.94 136.597 185.94H137.725C137.788 185.94 137.836 185.954 137.87 185.983C137.905 186.011 137.919 186.054 137.913 186.111C137.816 186.721 137.603 187.259 137.272 187.726C136.947 188.188 136.511 188.55 135.964 188.812C135.417 189.068 134.779 189.197 134.05 189.197ZM136.366 183.726C136.349 183.236 136.246 182.792 136.058 182.393C135.87 181.988 135.6 181.669 135.246 181.436C134.893 181.202 134.469 181.085 133.973 181.085C133.249 181.085 132.679 181.316 132.263 181.778C131.847 182.233 131.588 182.883 131.486 183.726H136.366Z" fill="white"/>
<rect x="161.5" y="167.5" width="120" height="32" rx="16" fill="white"/>
<rect x="161.5" y="167.5" width="120" height="32" rx="16" stroke="black"/>
<path d="M182.725 179.726C182.788 179.726 182.834 179.746 182.862 179.786C182.891 179.82 182.902 179.869 182.896 179.931L182.777 180.726C182.771 180.846 182.705 180.906 182.58 180.906H180.229L179.631 185.06H181.973C182.036 185.06 182.081 185.08 182.11 185.12C182.144 185.154 182.155 185.202 182.144 185.265L182.007 186.06C181.99 186.179 181.922 186.239 181.802 186.239H179.469L179.093 188.821C179.076 188.94 179.01 189 178.896 189H177.802C177.739 189 177.691 188.983 177.657 188.949C177.628 188.909 177.62 188.858 177.631 188.795L177.99 186.239H175.614L175.246 188.821C175.229 188.94 175.161 189 175.041 189H173.947C173.885 189 173.836 188.983 173.802 188.949C173.773 188.909 173.765 188.858 173.776 188.795L174.144 186.239H171.802C171.739 186.239 171.691 186.222 171.657 186.188C171.628 186.148 171.62 186.097 171.631 186.034L171.768 185.239C171.785 185.12 171.853 185.06 171.973 185.06H174.306L174.905 180.906H172.58C172.517 180.906 172.471 180.889 172.443 180.854C172.414 180.815 172.403 180.763 172.409 180.701L172.528 179.906C172.54 179.786 172.605 179.726 172.725 179.726H175.067L175.434 177.213C175.452 177.094 175.517 177.034 175.631 177.034H176.725C176.856 177.034 176.913 177.102 176.896 177.239L176.546 179.726H178.922L179.281 177.213C179.298 177.094 179.366 177.034 179.486 177.034H180.58C180.711 177.034 180.768 177.102 180.751 177.239L180.4 179.726H182.725ZM178.751 180.906H176.375L175.785 185.06H178.161L178.751 180.906ZM189.815 180.384C189.815 180.259 189.875 180.196 189.994 180.196H191.225C191.351 180.196 191.413 180.259 191.413 180.384L191.353 184.453L191.413 188.812C191.413 188.937 191.351 189 191.225 189H189.994C189.875 189 189.815 188.937 189.815 188.812L189.858 184.914H185.567L185.618 188.812C185.618 188.937 185.556 189 185.43 189H184.199C184.08 189 184.02 188.937 184.02 188.812L184.071 184.453L184.02 180.384C184.02 180.259 184.08 180.196 184.199 180.196H185.43C185.556 180.196 185.618 180.259 185.618 180.384L185.576 183.761H189.858L189.815 180.384ZM197.207 189.197C196.307 189.197 195.54 189.006 194.908 188.624C194.281 188.242 193.805 187.707 193.48 187.017C193.156 186.328 192.993 185.53 192.993 184.624C192.993 183.706 193.156 182.9 193.48 182.205C193.811 181.51 194.287 180.968 194.908 180.581C195.529 180.193 196.267 180 197.122 180C197.965 180 198.689 180.182 199.293 180.547C199.902 180.911 200.369 181.439 200.694 182.128C201.025 182.817 201.201 183.641 201.224 184.598C201.224 184.729 201.162 184.795 201.036 184.795H194.6C194.651 187 195.526 188.103 197.224 188.103C197.862 188.103 198.375 187.934 198.763 187.598C199.156 187.256 199.418 186.761 199.549 186.111C199.577 185.997 199.646 185.94 199.754 185.94H200.882C200.945 185.94 200.993 185.954 201.028 185.983C201.062 186.011 201.076 186.054 201.07 186.111C200.973 186.721 200.76 187.259 200.429 187.726C200.105 188.188 199.669 188.55 199.122 188.812C198.575 189.068 197.936 189.197 197.207 189.197ZM199.523 183.726C199.506 183.236 199.404 182.792 199.216 182.393C199.028 181.988 198.757 181.669 198.404 181.436C198.05 181.202 197.626 181.085 197.13 181.085C196.406 181.085 195.837 181.316 195.421 181.778C195.005 182.233 194.745 182.883 194.643 183.726H199.523ZM208.93 180.196C208.987 180.196 209.032 180.213 209.067 180.248C209.101 180.282 209.118 180.327 209.118 180.384V181.162C209.118 181.288 209.055 181.35 208.93 181.35H206.092L206.049 184.453L206.109 188.812C206.109 188.937 206.047 189 205.921 189H204.665C204.539 189 204.477 188.937 204.477 188.812L204.537 184.453L204.494 181.35H201.665C201.608 181.35 201.562 181.333 201.528 181.299C201.494 181.265 201.477 181.219 201.477 181.162V180.384C201.477 180.259 201.539 180.196 201.665 180.196H208.93ZM215.702 184.29C216.431 184.45 216.961 184.715 217.292 185.085C217.622 185.45 217.788 185.929 217.788 186.521C217.788 187.439 217.431 188.083 216.719 188.453C216.007 188.818 215.161 189 214.181 189H210.659C210.539 189 210.48 188.937 210.48 188.812L210.531 184.453L210.488 180.384C210.488 180.259 210.548 180.196 210.668 180.196H214.164C215.246 180.196 216.075 180.379 216.651 180.743C217.232 181.102 217.523 181.644 217.523 182.367C217.523 182.88 217.363 183.293 217.044 183.607C216.731 183.92 216.283 184.142 215.702 184.273V184.29ZM212.095 181.282L212.069 183.829H214.146C215.343 183.829 215.941 183.404 215.941 182.555C215.941 182.139 215.782 181.823 215.463 181.607C215.144 181.39 214.702 181.282 214.138 181.282H212.095ZM212.061 184.889L212.087 187.914H214.146C214.79 187.914 215.292 187.792 215.651 187.547C216.01 187.296 216.189 186.912 216.189 186.393C216.189 185.897 215.995 185.524 215.608 185.273C215.226 185.017 214.742 184.889 214.155 184.889H212.061ZM223.19 189.197C222.307 189.197 221.552 189.009 220.925 188.632C220.299 188.256 219.82 187.724 219.489 187.034C219.165 186.345 219.002 185.538 219.002 184.615C219.002 183.686 219.165 182.877 219.489 182.188C219.82 181.493 220.299 180.954 220.925 180.572C221.558 180.191 222.313 180 223.19 180C224.068 180 224.82 180.188 225.447 180.564C226.074 180.94 226.549 181.476 226.874 182.171C227.199 182.86 227.361 183.667 227.361 184.59C227.361 185.518 227.199 186.33 226.874 187.026C226.549 187.715 226.074 188.251 225.447 188.632C224.82 189.009 224.068 189.197 223.19 189.197ZM223.19 188.103C224.034 188.103 224.666 187.803 225.088 187.205C225.515 186.607 225.729 185.743 225.729 184.615C225.729 183.493 225.512 182.627 225.079 182.017C224.652 181.401 224.019 181.094 223.182 181.094C222.333 181.099 221.695 181.407 221.267 182.017C220.84 182.627 220.626 183.496 220.626 184.624C220.626 185.746 220.843 186.607 221.276 187.205C221.709 187.803 222.347 188.103 223.19 188.103ZM233.294 180.017C234.063 180.017 234.721 180.216 235.268 180.615C235.815 181.008 236.228 181.55 236.507 182.239C236.792 182.929 236.935 183.706 236.935 184.573C236.935 185.427 236.787 186.205 236.49 186.906C236.2 187.601 235.778 188.154 235.225 188.564C234.673 188.969 234.02 189.171 233.268 189.171C232.647 189.171 232.106 189.04 231.644 188.778C231.182 188.51 230.809 188.122 230.524 187.615L230.558 191.718C230.558 191.843 230.496 191.906 230.37 191.906H229.105C228.98 191.906 228.917 191.843 228.917 191.718L228.986 185.145L228.926 180.384C228.926 180.259 228.986 180.196 229.105 180.196H230.336C230.462 180.196 230.524 180.262 230.524 180.393L230.482 181.675C230.778 181.151 231.162 180.743 231.635 180.453C232.114 180.162 232.667 180.017 233.294 180.017ZM232.858 188.068C233.673 188.068 234.288 187.763 234.704 187.154C235.126 186.544 235.336 185.721 235.336 184.684C235.336 183.595 235.128 182.732 234.712 182.094C234.302 181.45 233.695 181.128 232.892 181.128C232.123 181.128 231.521 181.421 231.088 182.008C230.655 182.595 230.439 183.45 230.439 184.573C230.439 185.684 230.65 186.544 231.071 187.154C231.499 187.763 232.094 188.068 232.858 188.068ZM245.132 180.196C245.184 180.196 245.224 180.208 245.252 180.231C245.28 180.253 245.295 180.282 245.295 180.316C245.295 180.356 245.28 180.393 245.252 180.427L242.654 184.017L245.671 188.769C245.694 188.798 245.705 188.832 245.705 188.872C245.705 188.912 245.691 188.943 245.662 188.966C245.634 188.989 245.594 189 245.543 189H244.124C244.027 189 243.95 188.954 243.893 188.863L243.184 187.624L241.397 184.846H240.107L240.158 188.812C240.158 188.937 240.095 189 239.97 189H238.705C238.585 189 238.525 188.937 238.525 188.812L238.577 184.453L238.525 180.384C238.525 180.259 238.585 180.196 238.705 180.196H239.97C240.095 180.196 240.158 180.259 240.158 180.384L240.115 183.692H241.414L243.731 180.325C243.793 180.239 243.87 180.196 243.961 180.196H245.132ZM247.06 189C246.941 189 246.881 188.937 246.881 188.812L246.932 184.453L246.872 180.384C246.872 180.259 246.932 180.196 247.052 180.196H248.283C248.408 180.196 248.471 180.259 248.471 180.384L248.445 184.29L248.402 187.282L252.479 180.333C252.519 180.242 252.596 180.196 252.71 180.196H254.223C254.348 180.196 254.411 180.259 254.411 180.384L254.351 184.453L254.411 188.812C254.411 188.937 254.348 189 254.223 189H253.001C252.875 189 252.813 188.937 252.813 188.812L252.847 184.667L252.872 181.966L248.83 188.863C248.778 188.954 248.701 189 248.599 189H247.06ZM262.133 180.384C262.133 180.259 262.193 180.196 262.312 180.196H263.543C263.668 180.196 263.731 180.259 263.731 180.384L263.671 184.453L263.731 188.812C263.731 188.937 263.668 189 263.543 189H262.312C262.193 189 262.133 188.937 262.133 188.812L262.175 184.914H257.885L257.936 188.812C257.936 188.937 257.873 189 257.748 189H256.517C256.397 189 256.338 188.937 256.338 188.812L256.389 184.453L256.338 180.384C256.338 180.259 256.397 180.196 256.517 180.196H257.748C257.873 180.196 257.936 180.259 257.936 180.384L257.893 183.761H262.175L262.133 180.384ZM265.832 189C265.713 189 265.653 188.937 265.653 188.812L265.704 184.453L265.653 180.384C265.653 180.259 265.713 180.196 265.832 180.196H270.952C271.009 180.196 271.055 180.213 271.089 180.248C271.123 180.282 271.14 180.327 271.14 180.384V181.162C271.14 181.288 271.077 181.35 270.952 181.35H267.268L267.226 184.453L267.285 188.812C267.285 188.937 267.223 189 267.097 189H265.832Z" fill="black"/>
</svg>
