<svg width="1039" height="321" viewBox="0 0 1039 321" fill="none" xmlns="http://www.w3.org/2000/svg">
<path d="M947.102 142.276C960.544 142.276 971.372 140.409 979.587 136.675C992.602 130.808 1000.71 120.246 1003.91 104.991C1007.22 89.6287 1003.22 79.2806 991.908 73.9466C985.401 70.9595 975.213 69.466 961.344 69.466H904.536L889.174 142.276H947.102ZM934.78 250.771C954.303 250.771 969.398 245.117 980.067 233.808C986.787 226.661 991.268 218.02 993.508 207.885C997.136 190.816 991.962 179.188 977.986 173C970.625 169.693 960.277 168.039 946.942 168.039H883.733L866.131 250.771H934.78ZM879.093 42.9023H980.067C1007.59 42.9023 1025.41 51.1168 1033.51 67.5457C1038.31 77.2537 1039.33 88.4552 1036.55 101.15C1033.46 115.979 1026.69 128.141 1016.23 137.635C1010.79 142.649 1003.54 147.237 994.469 151.397C1005.46 155.984 1013.35 161.158 1018.15 166.919C1026.58 177.161 1028.87 191.296 1025.03 209.325C1021.83 224.474 1014.15 238.182 1001.99 250.451C983.96 268.8 959.477 277.974 928.54 277.974H829.166L879.093 42.9023Z" fill="#050505"/>
<path d="M49.9268 42.9023H87.5319L165.783 233.328L206.268 42.9023H236.512L186.585 277.974H150.901L70.7296 87.7084L30.4041 277.974H0L49.9268 42.9023Z" fill="#050505"/>
<path d="M766.833 75.9273C778.035 96.7302 780.168 123.347 773.234 155.778C765.766 190.876 750.671 220.054 727.948 243.31C701.171 270.621 668.42 284.276 629.694 284.276C593.53 284.276 567.659 272.327 552.084 248.431C538.535 225.388 535.495 196.264 542.963 161.059C549.684 129.268 563.339 102.064 583.928 79.4478C610.385 50.4305 643.456 35.9219 683.142 35.9219C724.641 35.9219 752.538 49.257 766.833 75.9273ZM740.43 156.258C746.297 128.628 743.79 106.385 732.909 89.5292C722.134 72.6735 704.211 64.2457 679.141 64.2457C654.818 64.2457 633.162 72.6202 614.172 89.3692C595.29 106.011 582.381 130.601 575.447 163.139C569.9 189.169 571.82 211.146 581.208 229.068C590.596 246.884 610.065 255.792 639.616 255.792C667.673 255.792 690.076 245.764 706.825 225.708C723.681 205.545 734.882 182.395 740.43 156.258Z" fill="#050505"/>
<path d="M518.316 75.9273C529.517 96.7302 531.651 123.347 524.716 155.778C517.249 190.876 502.153 220.054 479.43 243.31C452.653 270.62 419.902 284.276 381.177 284.276C345.012 284.276 319.142 272.327 303.566 248.431C290.018 225.388 286.977 196.264 294.445 161.059C301.166 129.268 314.821 102.064 335.411 79.4478C361.868 50.4305 394.939 35.9219 434.624 35.9219C476.123 35.9219 504.02 49.257 518.316 75.9273ZM491.912 156.258C497.779 128.628 495.272 106.385 484.391 89.5292C473.616 72.6735 455.694 64.2457 430.624 64.2457C406.3 64.2457 384.644 72.6202 365.655 89.3692C346.772 106.011 333.864 130.601 326.93 163.139C321.382 189.169 323.302 211.146 332.69 229.068C342.078 246.884 361.548 255.792 391.098 255.792C419.155 255.792 441.558 245.764 458.307 225.708C475.163 205.545 486.365 182.395 491.912 156.258Z" fill="#050505"/>
<ellipse cx="699.951" cy="112.752" rx="49.3907" ry="46.8962" fill="#050505"/>
<ellipse cx="472.455" cy="112.752" rx="49.3907" ry="46.8962" fill="#050505"/>
<path d="M301.626 320.623C260.633 301.957 236.477 254.376 236.477 197.644C236.477 119.685 284.79 16.4704 368.606 0L370.802 13.5423C297.6 32.9407 265.025 142.377 265.025 210.089C265.025 256.938 280.398 292.074 308.946 308.911L301.626 320.623Z" fill="#050505"/>
<path d="M697.08 307.081C770.282 287.682 802.856 178.246 802.856 110.534C802.856 63.6854 787.484 28.5486 758.935 11.7123L766.255 0C807.248 18.6664 831.771 66.2475 831.771 122.979C831.771 200.938 783.092 304.153 699.276 320.623L697.08 307.081Z" fill="#050505"/>
</svg>
