<svg width="451" height="235" viewBox="0 0 451 235" fill="none" xmlns="http://www.w3.org/2000/svg">
<rect y="15" width="451" height="220" rx="30" fill="black"/>
<rect x="0.5" y="0.5" width="450" height="219" rx="29.5" fill="white" stroke="black"/>
<path d="M30.78 39.804C30.78 39.8693 30.7613 39.9207 30.724 39.958C30.6867 39.986 30.64 40 30.584 40H27.854C27.7233 40 27.658 39.9347 27.658 39.804L27.714 30.298L27.672 20.596C27.672 20.4653 27.7373 20.4 27.868 20.4H32.068C32.18 20.4 32.2593 20.4513 32.306 20.554L38.06 35.73L43.59 20.554C43.6367 20.4513 43.716 20.4 43.828 20.4H47.762C47.8927 20.4 47.958 20.4653 47.958 20.596L47.916 30.298L47.972 39.804C47.972 39.9347 47.9067 40 47.776 40H44.738C44.6073 40 44.542 39.9347 44.542 39.804L44.556 30.9L44.668 25.048L39.25 39.846C39.2033 39.9487 39.124 40 39.012 40H36.632C36.52 40 36.4407 39.9487 36.394 39.846L30.626 24.656L30.766 30.9L30.78 39.804ZM57.3789 40.336C55.8856 40.336 54.6022 40.028 53.5289 39.412C52.4649 38.796 51.6529 37.9233 51.0929 36.794C50.5329 35.6647 50.2529 34.3393 50.2529 32.818C50.2529 31.2967 50.5329 29.9667 51.0929 28.828C51.6529 27.6893 52.4649 26.8073 53.5289 26.182C54.6022 25.5567 55.8856 25.244 57.3789 25.244C58.8722 25.244 60.1462 25.552 61.2009 26.168C62.2649 26.784 63.0722 27.6567 63.6229 28.786C64.1829 29.9153 64.4629 31.2407 64.4629 32.762C64.4629 34.2833 64.1829 35.6133 63.6229 36.752C63.0722 37.8907 62.2649 38.7727 61.2009 39.398C60.1369 40.0233 58.8629 40.336 57.3789 40.336ZM57.3789 38.068C58.6016 38.068 59.5116 37.634 60.1089 36.766C60.7156 35.8887 61.0189 34.5727 61.0189 32.818C61.0189 31.082 60.7109 29.766 60.0949 28.87C59.4882 27.9647 58.5736 27.512 57.3509 27.512C54.9056 27.54 53.6829 29.318 53.6829 32.846C53.6829 36.3273 54.9149 38.068 57.3789 38.068ZM75.7872 35.73C75.7872 34.9927 75.5212 34.4513 74.9892 34.106C74.4665 33.7513 73.7618 33.574 72.8752 33.574H71.0552C70.9245 33.574 70.8592 33.5087 70.8592 33.378V31.614C70.8592 31.4833 70.9245 31.418 71.0552 31.418H72.8752C73.6965 31.418 74.3218 31.2547 74.7512 30.928C75.1805 30.6013 75.3952 30.1113 75.3952 29.458C75.3952 28.87 75.1665 28.3987 74.7092 28.044C74.2518 27.6893 73.6312 27.512 72.8472 27.512C71.9512 27.512 71.2418 27.7127 70.7192 28.114C70.1965 28.506 69.8885 29.0753 69.7952 29.822C69.7858 29.9433 69.7158 30.004 69.5852 30.004H66.8412C66.7758 30.004 66.7245 29.99 66.6872 29.962C66.6498 29.9247 66.6358 29.8733 66.6452 29.808C66.7385 28.324 67.3498 27.1993 68.4792 26.434C69.6085 25.6687 71.1018 25.286 72.9592 25.286C74.1352 25.286 75.1572 25.4353 76.0252 25.734C76.9025 26.0233 77.5792 26.4573 78.0552 27.036C78.5312 27.6147 78.7692 28.3147 78.7692 29.136C78.7692 29.9853 78.5032 30.6667 77.9712 31.18C77.4485 31.6933 76.7205 32.0573 75.7872 32.272V32.3C76.9632 32.552 77.8218 32.972 78.3632 33.56C78.9138 34.148 79.1892 34.9227 79.1892 35.884C79.1892 36.892 78.8858 37.7273 78.2792 38.39C77.6725 39.0433 76.8792 39.524 75.8992 39.832C74.9192 40.1307 73.8458 40.28 72.6792 40.28C70.6538 40.28 69.0765 39.8553 67.9472 39.006C66.8178 38.1473 66.2298 36.8873 66.1832 35.226C66.1832 35.0953 66.2485 35.03 66.3792 35.03H69.2632C69.3192 35.03 69.3658 35.0487 69.4032 35.086C69.4405 35.114 69.4592 35.1607 69.4592 35.226C69.4965 36.1687 69.7952 36.8733 70.3552 37.34C70.9245 37.8067 71.7225 38.04 72.7492 38.04C73.6732 38.04 74.4105 37.8393 74.9612 37.438C75.5118 37.0367 75.7872 36.4673 75.7872 35.73ZM81.4482 40C81.3175 40 81.2522 39.9347 81.2522 39.804L81.3082 32.678L81.2522 25.776C81.2522 25.6453 81.3175 25.58 81.4482 25.58H90.5622C90.6929 25.58 90.7582 25.6453 90.7582 25.776V27.792C90.7582 27.9227 90.6929 27.988 90.5622 27.988H84.6402L84.6262 32.678L84.6682 39.804C84.6682 39.9347 84.6029 40 84.4722 40H81.4482ZM98.6844 40.336C97.191 40.336 95.9077 40.028 94.8344 39.412C93.7704 38.796 92.9584 37.9233 92.3984 36.794C91.8384 35.6647 91.5584 34.3393 91.5584 32.818C91.5584 31.2967 91.8384 29.9667 92.3984 28.828C92.9584 27.6893 93.7704 26.8073 94.8344 26.182C95.9077 25.5567 97.191 25.244 98.6844 25.244C100.178 25.244 101.452 25.552 102.506 26.168C103.57 26.784 104.378 27.6567 104.928 28.786C105.488 29.9153 105.768 31.2407 105.768 32.762C105.768 34.2833 105.488 35.6133 104.928 36.752C104.378 37.8907 103.57 38.7727 102.506 39.398C101.442 40.0233 100.168 40.336 98.6844 40.336ZM98.6844 38.068C99.907 38.068 100.817 37.634 101.414 36.766C102.021 35.8887 102.324 34.5727 102.324 32.818C102.324 31.082 102.016 29.766 101.4 28.87C100.794 27.9647 99.879 27.512 98.6564 27.512C96.211 27.54 94.9884 29.318 94.9884 32.846C94.9884 36.3273 96.2204 38.068 98.6844 38.068ZM117.163 32.3C118.348 32.552 119.211 32.9813 119.753 33.588C120.294 34.1853 120.565 34.974 120.565 35.954C120.565 37.5127 119.944 38.5767 118.703 39.146C117.461 39.7153 116.038 40 114.433 40H108.147C108.016 40 107.951 39.9347 107.951 39.804L108.007 32.678L107.965 25.776C107.965 25.6453 108.03 25.58 108.161 25.58H114.377C116.253 25.58 117.681 25.874 118.661 26.462C119.641 27.0407 120.131 27.9367 120.131 29.15C120.131 29.9807 119.869 30.6573 119.347 31.18C118.833 31.6933 118.105 32.0573 117.163 32.272V32.3ZM111.269 27.82L111.255 31.376H114.349C115.123 31.376 115.721 31.2313 116.141 30.942C116.561 30.6433 116.771 30.1907 116.771 29.584C116.771 29.0053 116.551 28.5667 116.113 28.268C115.683 27.9693 115.095 27.82 114.349 27.82H111.269ZM111.255 33.56L111.269 37.76H114.363C115.231 37.76 115.912 37.5873 116.407 37.242C116.901 36.8967 117.149 36.374 117.149 35.674C117.149 34.9647 116.892 34.4373 116.379 34.092C115.865 33.7373 115.198 33.56 114.377 33.56H111.255ZM129.43 40.336C127.936 40.336 126.653 40.028 125.58 39.412C124.516 38.796 123.704 37.9233 123.144 36.794C122.584 35.6647 122.304 34.3393 122.304 32.818C122.304 31.2967 122.584 29.9667 123.144 28.828C123.704 27.6893 124.516 26.8073 125.58 26.182C126.653 25.5567 127.936 25.244 129.43 25.244C130.923 25.244 132.197 25.552 133.252 26.168C134.316 26.784 135.123 27.6567 135.674 28.786C136.234 29.9153 136.514 31.2407 136.514 32.762C136.514 34.2833 136.234 35.6133 135.674 36.752C135.123 37.8907 134.316 38.7727 133.252 39.398C132.188 40.0233 130.914 40.336 129.43 40.336ZM129.43 38.068C130.652 38.068 131.562 37.634 132.16 36.766C132.766 35.8887 133.07 34.5727 133.07 32.818C133.07 31.082 132.762 29.766 132.146 28.87C131.539 27.9647 130.624 27.512 129.402 27.512C126.956 27.54 125.734 29.318 125.734 32.846C125.734 36.3273 126.966 38.068 129.43 38.068ZM138.892 40C138.761 40 138.696 39.9347 138.696 39.804L138.752 32.468L138.696 25.776C138.696 25.6453 138.761 25.58 138.892 25.58H141.874C142.005 25.58 142.07 25.6453 142.07 25.776L142.028 32.692L141.958 36.36L147.852 25.72C147.889 25.6267 147.964 25.58 148.076 25.58H151.632C151.763 25.58 151.828 25.6453 151.828 25.776L151.786 32.678L151.828 39.804C151.828 39.9347 151.763 40 151.632 40H148.678C148.547 40 148.482 39.9347 148.482 39.804L148.524 32.678L148.594 29.304L142.728 39.86C142.691 39.9533 142.616 40 142.504 40H138.892ZM145.332 24.362C146.312 24.362 147.161 24.1893 147.88 23.844C148.599 23.4987 149.149 23.004 149.532 22.36C149.924 21.716 150.12 20.9647 150.12 20.106H147.516C147.497 20.8247 147.301 21.3893 146.928 21.8C146.555 22.2013 146.037 22.402 145.374 22.402C144.693 22.402 144.17 22.2013 143.806 21.8C143.451 21.3893 143.274 20.8247 143.274 20.106H140.656C140.656 20.9647 140.843 21.716 141.216 22.36C141.599 23.004 142.14 23.4987 142.84 23.844C143.549 24.1893 144.38 24.362 145.332 24.362ZM176.639 25.776C176.639 25.6453 176.705 25.58 176.835 25.58H179.859C179.99 25.58 180.055 25.6453 180.055 25.776L180.013 32.93L180.055 39.804C180.055 39.9347 179.99 40 179.859 40H160.805C160.675 40 160.609 39.9347 160.609 39.804L160.665 32.93L160.609 25.776C160.609 25.6453 160.675 25.58 160.805 25.58H163.829C163.96 25.58 164.025 25.6453 164.025 25.776L163.983 32.93L163.997 37.592H168.659L168.673 32.93L168.631 25.776C168.631 25.6453 168.697 25.58 168.827 25.58H171.851C171.982 25.58 172.047 25.6453 172.047 25.776L171.991 32.93L172.005 37.592H176.667L176.695 32.93L176.639 25.776ZM194.99 25.58C195.046 25.58 195.092 25.5987 195.13 25.636C195.167 25.664 195.186 25.7107 195.186 25.776V27.792C195.186 27.8573 195.167 27.9087 195.13 27.946C195.092 27.974 195.046 27.988 194.99 27.988H190.3L190.272 32.678L190.328 39.804C190.328 39.9347 190.262 40 190.132 40H187.108C186.977 40 186.912 39.9347 186.912 39.804L186.954 32.678L186.926 27.988H182.264C182.133 27.988 182.068 27.9227 182.068 27.792V25.776C182.068 25.6453 182.133 25.58 182.264 25.58H194.99ZM202.475 40.084L196.735 25.804C196.726 25.7853 196.721 25.7573 196.721 25.72C196.721 25.6267 196.777 25.58 196.889 25.58H200.263C200.375 25.58 200.454 25.6313 200.501 25.734L204.127 35.786L207.193 25.734C207.221 25.6313 207.291 25.58 207.403 25.58H210.441C210.6 25.58 210.651 25.6547 210.595 25.804L204.099 44.606C204.052 44.7087 203.978 44.76 203.875 44.76H201.075C200.916 44.76 200.865 44.6853 200.921 44.536L202.475 40.084ZM219.993 25.286C221.281 25.286 222.382 25.6127 223.297 26.266C224.221 26.91 224.916 27.7967 225.383 28.926C225.859 30.0553 226.097 31.3293 226.097 32.748C226.097 34.148 225.849 35.422 225.355 36.57C224.86 37.7087 224.146 38.614 223.213 39.286C222.279 39.9487 221.187 40.28 219.937 40.28C218.994 40.28 218.159 40.098 217.431 39.734C216.703 39.3607 216.101 38.8193 215.625 38.11L215.667 44.564C215.667 44.6947 215.601 44.76 215.471 44.76H212.447C212.316 44.76 212.251 44.6947 212.251 44.564L212.307 33.91L212.251 25.776C212.251 25.6453 212.316 25.58 212.447 25.58H215.443C215.583 25.58 215.643 25.6453 215.625 25.776L215.569 27.652C216.063 26.896 216.684 26.3127 217.431 25.902C218.187 25.4913 219.041 25.286 219.993 25.286ZM219.013 37.984C220.217 37.984 221.127 37.5453 221.743 36.668C222.359 35.7813 222.667 34.54 222.667 32.944C222.667 31.2547 222.363 29.9433 221.757 29.01C221.15 28.0767 220.259 27.61 219.083 27.61C217.935 27.61 217.048 28.0487 216.423 28.926C215.797 29.8033 215.485 31.0867 215.485 32.776C215.485 34.4373 215.788 35.7207 216.395 36.626C217.011 37.5313 217.883 37.984 219.013 37.984ZM228.476 40C228.345 40 228.28 39.9347 228.28 39.804L228.336 32.86L228.294 25.776C228.294 25.6453 228.359 25.58 228.49 25.58H232.186C232.288 25.58 232.363 25.6313 232.41 25.734L236.302 36.248L240.208 25.734C240.254 25.6313 240.334 25.58 240.446 25.58H244.17C244.3 25.58 244.366 25.6453 244.366 25.776L244.338 32.86L244.366 39.804C244.366 39.9347 244.3 40 244.17 40H241.342C241.286 40 241.239 39.986 241.202 39.958C241.164 39.9207 241.146 39.8693 241.146 39.804L241.16 33.308L241.23 29.234L237.31 39.846C237.263 39.9487 237.188 40 237.086 40H235.07C234.958 40 234.878 39.9487 234.832 39.846L230.842 29.08L230.954 33.308L230.968 39.804C230.968 39.8693 230.949 39.9207 230.912 39.958C230.874 39.986 230.828 40 230.772 40H228.476ZM250.239 39.804C250.239 39.8693 250.22 39.9207 250.183 39.958C250.145 39.986 250.099 40 250.043 40H246.837C246.706 40 246.641 39.9347 246.641 39.804V36.794C246.641 36.6633 246.706 36.598 246.837 36.598H250.043C250.099 36.598 250.145 36.6167 250.183 36.654C250.22 36.682 250.239 36.7287 250.239 36.794V39.804ZM250.239 28.786C250.239 28.8513 250.22 28.9027 250.183 28.94C250.145 28.968 250.099 28.982 250.043 28.982H246.837C246.706 28.982 246.641 28.9167 246.641 28.786V25.776C246.641 25.6453 246.706 25.58 246.837 25.58H250.043C250.099 25.58 250.145 25.5987 250.183 25.636C250.22 25.664 250.239 25.7107 250.239 25.776V28.786ZM39.978 51.58C40.034 51.58 40.0807 51.5987 40.118 51.636C40.1553 51.664 40.174 51.7107 40.174 51.776V53.792C40.174 53.8573 40.1553 53.9087 40.118 53.946C40.0807 53.974 40.034 53.988 39.978 53.988H35.288L35.26 58.678L35.316 65.804C35.316 65.9347 35.2507 66 35.12 66H32.096C31.9653 66 31.9 65.9347 31.9 65.804L31.942 58.678L31.914 53.988H27.252C27.1213 53.988 27.056 53.9227 27.056 53.792V51.776C27.056 51.6453 27.1213 51.58 27.252 51.58H39.978ZM48.1234 66.336C46.602 66.336 45.3047 66.0233 44.2314 65.398C43.158 64.7633 42.346 63.8813 41.7954 62.752C41.2447 61.6227 40.9694 60.316 40.9694 58.832C40.9694 57.32 41.2494 55.9947 41.8094 54.856C42.3787 53.708 43.1954 52.8213 44.2594 52.196C45.3234 51.5613 46.574 51.244 48.0114 51.244C49.486 51.244 50.746 51.5613 51.7914 52.196C52.846 52.8307 53.6534 53.7407 54.2134 54.926C54.7734 56.1113 55.0627 57.5253 55.0814 59.168C55.0814 59.2987 55.016 59.364 54.8854 59.364H44.3574C44.4227 60.96 44.7727 62.1453 45.4074 62.92C46.042 63.6853 46.9614 64.068 48.1654 64.068C49.9854 64.068 51.096 63.1207 51.4974 61.226C51.516 61.114 51.5814 61.058 51.6934 61.058H54.5634C54.6194 61.058 54.666 61.072 54.7034 61.1C54.75 61.128 54.7687 61.1607 54.7594 61.198C54.638 62.1687 54.2974 63.046 53.7374 63.83C53.1774 64.6047 52.4167 65.216 51.4554 65.664C50.494 66.112 49.3834 66.336 48.1234 66.336ZM51.4554 57.18C51.4087 56.4987 51.25 55.8827 50.9794 55.332C50.718 54.772 50.3354 54.3287 49.8314 54.002C49.3367 53.666 48.7347 53.498 48.0254 53.498C47.0174 53.498 46.21 53.8153 45.6034 54.45C45.006 55.0753 44.6234 55.9853 44.4554 57.18H51.4554ZM63.9764 58.552L68.4564 65.762C68.4751 65.818 68.4844 65.8553 68.4844 65.874C68.4844 65.958 68.4284 66 68.3164 66H64.9424C64.8304 66 64.7511 65.958 64.7044 65.874L61.6244 60.512L58.5304 65.874C58.4931 65.958 58.4184 66 58.3064 66H55.2404C55.1937 66 55.1564 65.9907 55.1284 65.972C55.1004 65.944 55.0864 65.9113 55.0864 65.874L55.1144 65.762L59.6224 58.328L55.4084 51.818C55.3804 51.7713 55.3664 51.734 55.3664 51.706C55.3664 51.6687 55.3804 51.6407 55.4084 51.622C55.4457 51.594 55.4924 51.58 55.5484 51.58H58.8944C58.9971 51.58 59.0764 51.622 59.1324 51.706L62.0304 56.662L64.7604 51.72C64.7977 51.6267 64.8724 51.58 64.9844 51.58H67.9524C68.0644 51.58 68.1204 51.622 68.1204 51.706C68.1204 51.7247 68.1111 51.762 68.0924 51.818L63.9764 58.552ZM79.5726 51.776C79.5726 51.6453 79.638 51.58 79.7686 51.58H82.7926C82.9233 51.58 82.9886 51.6453 82.9886 51.776L82.9466 58.678L82.9886 65.804C82.9886 65.9347 82.9233 66 82.7926 66H79.7686C79.638 66 79.5726 65.9347 79.5726 65.804L79.6146 59.602H73.5246L73.5666 65.804C73.5666 65.9347 73.5013 66 73.3706 66H70.3466C70.216 66 70.1506 65.9347 70.1506 65.804L70.2066 58.678L70.1506 51.776C70.1506 51.6453 70.216 51.58 70.3466 51.58H73.3706C73.5013 51.58 73.5666 51.6453 73.5666 51.776L73.5246 57.194H79.6146L79.5726 51.776ZM85.6919 66C85.5613 66 85.4959 65.9347 85.4959 65.804L85.5519 58.468L85.4959 51.776C85.4959 51.6453 85.5613 51.58 85.6919 51.58H88.6739C88.8046 51.58 88.8699 51.6453 88.8699 51.776L88.8279 58.692L88.7579 62.36L94.6519 51.72C94.6893 51.6267 94.7639 51.58 94.8759 51.58H98.4319C98.5626 51.58 98.6279 51.6453 98.6279 51.776L98.5859 58.678L98.6279 65.804C98.6279 65.9347 98.5626 66 98.4319 66H95.4779C95.3473 66 95.2819 65.9347 95.2819 65.804L95.3239 58.678L95.3939 55.304L89.5279 65.86C89.4906 65.9533 89.4159 66 89.3039 66H85.6919ZM113.224 51.58C113.327 51.58 113.378 51.6173 113.378 51.692C113.378 51.7293 113.364 51.7713 113.336 51.818L109.178 57.754L114.036 65.762C114.055 65.818 114.064 65.8553 114.064 65.874C114.064 65.958 114.008 66 113.896 66H110.41C110.298 66 110.219 65.958 110.172 65.874L108.828 63.396L106.518 59.532H104.516L104.558 65.804C104.558 65.9347 104.493 66 104.362 66H101.338C101.207 66 101.142 65.9347 101.142 65.804L101.198 58.678L101.142 51.776C101.142 51.6453 101.207 51.58 101.338 51.58H104.362C104.493 51.58 104.558 51.6453 104.558 51.776L104.516 57.124H106.532L110.046 51.706C110.093 51.622 110.172 51.58 110.284 51.58H113.224ZM115.945 66C115.814 66 115.749 65.9347 115.749 65.804L115.805 58.468L115.749 51.776C115.749 51.6453 115.814 51.58 115.945 51.58H118.927C119.058 51.58 119.123 51.6453 119.123 51.776L119.081 58.692L119.011 62.36L124.905 51.72C124.942 51.6267 125.017 51.58 125.129 51.58H128.685C128.816 51.58 128.881 51.6453 128.881 51.776L128.839 58.678L128.881 65.804C128.881 65.9347 128.816 66 128.685 66H125.731C125.6 66 125.535 65.9347 125.535 65.804L125.577 58.678L125.647 55.304L119.781 65.86C119.744 65.9533 119.669 66 119.557 66H115.945ZM137.858 66C137.728 66 137.662 65.9347 137.662 65.804L137.718 58.468L137.662 51.776C137.662 51.6453 137.728 51.58 137.858 51.58H140.84C140.971 51.58 141.036 51.6453 141.036 51.776L140.994 58.692L140.924 62.36L146.818 51.72C146.856 51.6267 146.93 51.58 147.042 51.58H150.598C150.729 51.58 150.794 51.6453 150.794 51.776L150.752 58.678L150.794 65.804C150.794 65.9347 150.729 66 150.598 66H147.644C147.514 66 147.448 65.9347 147.448 65.804L147.49 58.678L147.56 55.304L141.694 65.86C141.657 65.9533 141.582 66 141.47 66H137.858ZM159.772 66C159.641 66 159.576 65.9347 159.576 65.804L159.632 58.468L159.576 51.776C159.576 51.6453 159.641 51.58 159.772 51.58H162.754C162.884 51.58 162.95 51.6453 162.95 51.776L162.908 58.692L162.838 62.36L168.732 51.72C168.769 51.6267 168.844 51.58 168.956 51.58H172.512C172.642 51.58 172.708 51.6453 172.708 51.776L172.666 58.678L172.708 65.804C172.708 65.9347 172.642 66 172.512 66H169.558C169.427 66 169.362 65.9347 169.362 65.804L169.404 58.678L169.474 55.304L163.608 65.86C163.57 65.9533 163.496 66 163.384 66H159.772ZM184.644 51.776C184.644 51.6453 184.709 51.58 184.84 51.58H187.864C187.994 51.58 188.06 51.6453 188.06 51.776L188.018 58.678L188.06 65.804C188.06 65.9347 187.994 66 187.864 66H184.84C184.709 66 184.644 65.9347 184.644 65.804L184.686 59.602H178.596L178.638 65.804C178.638 65.9347 178.572 66 178.442 66H175.418C175.287 66 175.222 65.9347 175.222 65.804L175.278 58.678L175.222 51.776C175.222 51.6453 175.287 51.58 175.418 51.58H178.442C178.572 51.58 178.638 51.6453 178.638 51.776L178.596 57.194H184.686L184.644 51.776ZM197.273 66.336C195.798 66.336 194.529 66.0327 193.465 65.426C192.41 64.81 191.603 63.9373 191.043 62.808C190.492 61.6787 190.217 60.3533 190.217 58.832C190.217 57.3107 190.497 55.9807 191.057 54.842C191.617 53.694 192.429 52.8073 193.493 52.182C194.566 51.5567 195.85 51.244 197.343 51.244C198.538 51.244 199.588 51.4587 200.493 51.888C201.398 52.3173 202.117 52.924 202.649 53.708C203.181 54.4827 203.498 55.388 203.601 56.424V56.452C203.601 56.5733 203.536 56.634 203.405 56.634H200.675C200.619 56.634 200.572 56.62 200.535 56.592C200.498 56.5547 200.474 56.508 200.465 56.452C200.306 55.5093 199.952 54.7907 199.401 54.296C198.85 53.792 198.164 53.54 197.343 53.54C196.111 53.5493 195.187 54.002 194.571 54.898C193.964 55.7847 193.661 57.0913 193.661 58.818C193.661 60.5727 193.964 61.8887 194.571 62.766C195.187 63.634 196.116 64.068 197.357 64.068C198.281 64.068 199.028 63.774 199.597 63.186C200.176 62.598 200.512 61.7767 200.605 60.722C200.624 60.5913 200.689 60.526 200.801 60.526H203.601C203.666 60.526 203.718 60.5447 203.755 60.582C203.792 60.61 203.806 60.652 203.797 60.708C203.704 61.8 203.377 62.7707 202.817 63.62C202.257 64.4693 201.501 65.1367 200.549 65.622C199.597 66.098 198.505 66.336 197.273 66.336ZM217.674 51.58C217.73 51.58 217.777 51.5987 217.814 51.636C217.851 51.664 217.87 51.7107 217.87 51.776V53.792C217.87 53.8573 217.851 53.9087 217.814 53.946C217.777 53.974 217.73 53.988 217.674 53.988H212.984L212.956 58.678L213.012 65.804C213.012 65.9347 212.947 66 212.816 66H209.792C209.661 66 209.596 65.9347 209.596 65.804L209.638 58.678L209.61 53.988H204.948C204.817 53.988 204.752 53.9227 204.752 53.792V51.776C204.752 51.6453 204.817 51.58 204.948 51.58H217.674ZM227.632 51.286C228.92 51.286 230.022 51.6127 230.936 52.266C231.86 52.91 232.556 53.7967 233.022 54.926C233.498 56.0553 233.736 57.3293 233.736 58.748C233.736 60.148 233.489 61.422 232.994 62.57C232.5 63.7087 231.786 64.614 230.852 65.286C229.919 65.9487 228.827 66.28 227.576 66.28C226.634 66.28 225.798 66.098 225.07 65.734C224.342 65.3607 223.74 64.8193 223.264 64.11L223.306 70.564C223.306 70.6947 223.241 70.76 223.11 70.76H220.086C219.956 70.76 219.89 70.6947 219.89 70.564L219.946 59.91L219.89 51.776C219.89 51.6453 219.956 51.58 220.086 51.58H223.082C223.222 51.58 223.283 51.6453 223.264 51.776L223.208 53.652C223.703 52.896 224.324 52.3127 225.07 51.902C225.826 51.4913 226.68 51.286 227.632 51.286ZM226.652 63.984C227.856 63.984 228.766 63.5453 229.382 62.668C229.998 61.7813 230.306 60.54 230.306 58.944C230.306 57.2547 230.003 55.9433 229.396 55.01C228.79 54.0767 227.898 53.61 226.722 53.61C225.574 53.61 224.688 54.0487 224.062 54.926C223.437 55.8033 223.124 57.0867 223.124 58.776C223.124 60.4373 223.428 61.7207 224.034 62.626C224.65 63.5313 225.523 63.984 226.652 63.984ZM240.012 66.084L234.272 51.804C234.263 51.7853 234.258 51.7573 234.258 51.72C234.258 51.6267 234.314 51.58 234.426 51.58H237.8C237.912 51.58 237.992 51.6313 238.038 51.734L241.664 61.786L244.73 51.734C244.758 51.6313 244.828 51.58 244.94 51.58H247.978C248.137 51.58 248.188 51.6547 248.132 51.804L241.636 70.606C241.59 70.7087 241.515 70.76 241.412 70.76H238.612C238.454 70.76 238.402 70.6853 238.458 70.536L240.012 66.084ZM249.984 66C249.853 66 249.788 65.9347 249.788 65.804L249.844 58.86L249.802 51.776C249.802 51.6453 249.867 51.58 249.998 51.58H253.694C253.797 51.58 253.871 51.6313 253.918 51.734L257.81 62.248L261.716 51.734C261.763 51.6313 261.842 51.58 261.954 51.58H265.678C265.809 51.58 265.874 51.6453 265.874 51.776L265.846 58.86L265.874 65.804C265.874 65.9347 265.809 66 265.678 66H262.85C262.794 66 262.747 65.986 262.71 65.958C262.673 65.9207 262.654 65.8693 262.654 65.804L262.668 59.308L262.738 55.234L258.818 65.846C258.771 65.9487 258.697 66 258.594 66H256.578C256.466 66 256.387 65.9487 256.34 65.846L252.35 55.08L252.462 59.308L252.476 65.804C252.476 65.8693 252.457 65.9207 252.42 65.958C252.383 65.986 252.336 66 252.28 66H249.984ZM275.191 66.336C273.67 66.336 272.373 66.0233 271.299 65.398C270.226 64.7633 269.414 63.8813 268.863 62.752C268.313 61.6227 268.037 60.316 268.037 58.832C268.037 57.32 268.317 55.9947 268.877 54.856C269.447 53.708 270.263 52.8213 271.327 52.196C272.391 51.5613 273.642 51.244 275.079 51.244C276.554 51.244 277.814 51.5613 278.859 52.196C279.914 52.8307 280.721 53.7407 281.281 54.926C281.841 56.1113 282.131 57.5253 282.149 59.168C282.149 59.2987 282.084 59.364 281.953 59.364H271.425C271.491 60.96 271.841 62.1453 272.475 62.92C273.11 63.6853 274.029 64.068 275.233 64.068C277.053 64.068 278.164 63.1207 278.565 61.226C278.584 61.114 278.649 61.058 278.761 61.058H281.631C281.687 61.058 281.734 61.072 281.771 61.1C281.818 61.128 281.837 61.1607 281.827 61.198C281.706 62.1687 281.365 63.046 280.805 63.83C280.245 64.6047 279.485 65.216 278.523 65.664C277.562 66.112 276.451 66.336 275.191 66.336ZM278.523 57.18C278.477 56.4987 278.318 55.8827 278.047 55.332C277.786 54.772 277.403 54.3287 276.899 54.002C276.405 53.666 275.803 53.498 275.093 53.498C274.085 53.498 273.278 53.8153 272.671 54.45C272.074 55.0753 271.691 55.9853 271.523 57.18H278.523ZM293.729 51.776C293.729 51.6453 293.794 51.58 293.925 51.58H296.949C297.08 51.58 297.145 51.6453 297.145 51.776L297.103 58.678L297.145 65.804C297.145 65.9347 297.08 66 296.949 66H293.925C293.794 66 293.729 65.9347 293.729 65.804L293.771 59.602H287.681L287.723 65.804C287.723 65.9347 287.658 66 287.527 66H284.503C284.372 66 284.307 65.9347 284.307 65.804L284.363 58.678L284.307 51.776C284.307 51.6453 284.372 51.58 284.503 51.58H287.527C287.658 51.58 287.723 51.6453 287.723 51.776L287.681 57.194H293.771L293.729 51.776ZM312.043 51.58C312.099 51.58 312.146 51.5987 312.183 51.636C312.22 51.664 312.239 51.7107 312.239 51.776V53.792C312.239 53.8573 312.22 53.9087 312.183 53.946C312.146 53.974 312.099 53.988 312.043 53.988H307.353L307.325 58.678L307.381 65.804C307.381 65.9347 307.316 66 307.185 66H304.161C304.03 66 303.965 65.9347 303.965 65.804L304.007 58.678L303.979 53.988H299.317C299.186 53.988 299.121 53.9227 299.121 53.792V51.776C299.121 51.6453 299.186 51.58 299.317 51.58H312.043ZM314.455 66.014C314.325 66.014 314.259 65.9533 314.259 65.832L314.315 58.734L314.287 51.748C314.287 51.6267 314.353 51.566 314.483 51.566H317.507C317.638 51.566 317.703 51.6267 317.703 51.748L317.661 56.704H319.761C321.889 56.704 323.495 57.082 324.577 57.838C325.66 58.594 326.201 59.7513 326.201 61.31C326.201 64.4367 324.055 66 319.761 66L314.455 66.014ZM327.363 66C327.233 66 327.167 65.9347 327.167 65.804L327.223 58.93L327.167 51.776C327.167 51.6453 327.233 51.58 327.363 51.58H330.387C330.518 51.58 330.583 51.6453 330.583 51.776L330.541 58.93L330.583 65.804C330.583 65.9347 330.518 66 330.387 66H327.363ZM317.647 58.944L317.661 63.76H319.775C321.773 63.76 322.771 62.976 322.771 61.408C322.771 60.596 322.529 59.9847 322.043 59.574C321.567 59.154 320.811 58.944 319.775 58.944H317.647ZM27.196 95.458C27.0653 95.458 27 95.3927 27 95.262V89.83C27 89.6993 27.0653 89.634 27.196 89.634H28.176C28.54 89.2607 28.8293 88.7707 29.044 88.164C29.268 87.548 29.4313 86.8013 29.534 85.924C29.758 84.244 29.926 81.528 30.038 77.776C30.038 77.6453 30.1033 77.58 30.234 77.58H40.426C40.482 77.58 40.5287 77.5987 40.566 77.636C40.6033 77.664 40.622 77.7107 40.622 77.776L40.636 84.482L40.734 89.62L42.442 89.606C42.5073 89.606 42.554 89.6247 42.582 89.662C42.6193 89.6993 42.638 89.746 42.638 89.802V95.262C42.638 95.3927 42.5727 95.458 42.442 95.458H39.88C39.7493 95.458 39.684 95.3927 39.684 95.262L39.6 92H30.08L29.996 95.262C29.996 95.3927 29.9307 95.458 29.8 95.458H27.196ZM37.388 89.634V84.468L37.332 79.988H32.838C32.7167 82.676 32.5813 84.664 32.432 85.952C32.32 86.7733 32.18 87.4733 32.012 88.052C31.844 88.6213 31.6293 89.1487 31.368 89.634H37.388ZM46.0315 92.252C45.6115 92.252 45.1775 92.1913 44.7295 92.07C44.6268 92.0233 44.5755 91.9487 44.5755 91.846V89.956C44.5755 89.8907 44.5941 89.844 44.6315 89.816C44.6781 89.788 44.7341 89.7787 44.7995 89.788C44.9861 89.8347 45.1681 89.858 45.3455 89.858C45.7281 89.858 46.0361 89.774 46.2695 89.606C46.5028 89.4287 46.6848 89.1347 46.8155 88.724C46.9461 88.304 47.0441 87.716 47.1095 86.96C47.1935 86.008 47.2775 84.6593 47.3615 82.914C47.4455 81.1687 47.5155 79.4467 47.5715 77.748C47.5715 77.6267 47.6368 77.566 47.7675 77.566H58.0855C58.2161 77.566 58.2815 77.6267 58.2815 77.748L58.2675 84.86L58.3515 91.79C58.3515 91.9207 58.2861 91.986 58.1555 91.986L55.1175 92.014C54.9868 92.014 54.9215 91.9533 54.9215 91.832L54.9355 84.86L54.8655 79.96H50.3715C50.2221 83.2733 50.0775 85.7327 49.9375 87.338C49.8441 88.43 49.6668 89.3307 49.4055 90.04C49.1535 90.7493 48.7568 91.2953 48.2155 91.678C47.6741 92.0607 46.9461 92.252 46.0315 92.252ZM60.8656 92C60.7536 92 60.6976 91.958 60.6976 91.874C60.6976 91.8367 60.7116 91.7993 60.7396 91.762L64.0856 86.4C63.0029 86.1107 62.1722 85.6113 61.5936 84.902C61.0242 84.1833 60.7396 83.25 60.7396 82.102C60.7396 79.0873 62.8582 77.58 67.0956 77.58H72.9056C73.0362 77.58 73.1016 77.6453 73.1016 77.776L73.0596 84.664L73.1016 91.804C73.1016 91.9347 73.0362 92 72.9056 92H69.8956C69.7649 92 69.6996 91.9347 69.6996 91.804L69.7416 86.778H67.0256L65.6536 89.172L64.1276 91.874C64.0902 91.958 64.0156 92 63.9036 92H60.8656ZM69.7556 84.524L69.7416 79.82H67.0116C66.0969 79.82 65.3922 80.0253 64.8976 80.436C64.4029 80.8467 64.1556 81.416 64.1556 82.144C64.1556 82.9187 64.4029 83.5113 64.8976 83.922C65.3922 84.3233 66.1016 84.524 67.0256 84.524H69.7556ZM82.1099 92C81.9792 92 81.9139 91.9347 81.9139 91.804L81.9699 84.678L81.9139 77.776C81.9139 77.6453 81.9792 77.58 82.1099 77.58H91.2239C91.3546 77.58 91.4199 77.6453 91.4199 77.776V79.792C91.4199 79.9227 91.3546 79.988 91.2239 79.988H85.3019L85.2879 84.678L85.3299 91.804C85.3299 91.9347 85.2646 92 85.1339 92H82.1099ZM99.3601 92.336C97.8388 92.336 96.5414 92.0233 95.4681 91.398C94.3948 90.7633 93.5828 89.8813 93.0321 88.752C92.4814 87.6227 92.2061 86.316 92.2061 84.832C92.2061 83.32 92.4861 81.9947 93.0461 80.856C93.6154 79.708 94.4321 78.8213 95.4961 78.196C96.5601 77.5613 97.8108 77.244 99.2481 77.244C100.723 77.244 101.983 77.5613 103.028 78.196C104.083 78.8307 104.89 79.7407 105.45 80.926C106.01 82.1113 106.299 83.5253 106.318 85.168C106.318 85.2987 106.253 85.364 106.122 85.364H95.5941C95.6594 86.96 96.0094 88.1453 96.6441 88.92C97.2788 89.6853 98.1981 90.068 99.4021 90.068C101.222 90.068 102.333 89.1207 102.734 87.226C102.753 87.114 102.818 87.058 102.93 87.058H105.8C105.856 87.058 105.903 87.072 105.94 87.1C105.987 87.128 106.005 87.1607 105.996 87.198C105.875 88.1687 105.534 89.046 104.974 89.83C104.414 90.6047 103.653 91.216 102.692 91.664C101.731 92.112 100.62 92.336 99.3601 92.336ZM102.692 83.18C102.645 82.4987 102.487 81.8827 102.216 81.332C101.955 80.772 101.572 80.3287 101.068 80.002C100.573 79.666 99.9714 79.498 99.2621 79.498C98.2541 79.498 97.4468 79.8153 96.8401 80.45C96.2428 81.0753 95.8601 81.9853 95.6921 83.18H102.692ZM117.898 77.776C117.898 77.6453 117.963 77.58 118.094 77.58H121.118C121.248 77.58 121.314 77.6453 121.314 77.776L121.272 84.678L121.314 91.804C121.314 91.9347 121.248 92 121.118 92H118.094C117.963 92 117.898 91.9347 117.898 91.804L117.94 85.602H111.85L111.892 91.804C111.892 91.9347 111.826 92 111.696 92H108.672C108.541 92 108.476 91.9347 108.476 91.804L108.532 84.678L108.476 77.776C108.476 77.6453 108.541 77.58 108.672 77.58H111.696C111.826 77.58 111.892 77.6453 111.892 77.776L111.85 83.194H117.94L117.898 77.776ZM130.625 92.336C129.104 92.336 127.806 92.0233 126.733 91.398C125.66 90.7633 124.848 89.8813 124.297 88.752C123.746 87.6227 123.471 86.316 123.471 84.832C123.471 83.32 123.751 81.9947 124.311 80.856C124.88 79.708 125.697 78.8213 126.761 78.196C127.825 77.5613 129.076 77.244 130.513 77.244C131.988 77.244 133.248 77.5613 134.293 78.196C135.348 78.8307 136.155 79.7407 136.715 80.926C137.275 82.1113 137.564 83.5253 137.583 85.168C137.583 85.2987 137.518 85.364 137.387 85.364H126.859C126.924 86.96 127.274 88.1453 127.909 88.92C128.544 89.6853 129.463 90.068 130.667 90.068C132.487 90.068 133.598 89.1207 133.999 87.226C134.018 87.114 134.083 87.058 134.195 87.058H137.065C137.121 87.058 137.168 87.072 137.205 87.1C137.252 87.128 137.27 87.1607 137.261 87.198C137.14 88.1687 136.799 89.046 136.239 89.83C135.679 90.6047 134.918 91.216 133.957 91.664C132.996 92.112 131.885 92.336 130.625 92.336ZM133.957 83.18C133.91 82.4987 133.752 81.8827 133.481 81.332C133.22 80.772 132.837 80.3287 132.333 80.002C131.838 79.666 131.236 79.498 130.527 79.498C129.519 79.498 128.712 79.8153 128.105 80.45C127.508 81.0753 127.125 81.9853 126.957 83.18H133.957ZM147.482 77.286C148.77 77.286 149.872 77.6127 150.786 78.266C151.71 78.91 152.406 79.7967 152.872 80.926C153.348 82.0553 153.586 83.3293 153.586 84.748C153.586 86.148 153.339 87.422 152.844 88.57C152.35 89.7087 151.636 90.614 150.702 91.286C149.769 91.9487 148.677 92.28 147.426 92.28C146.484 92.28 145.648 92.098 144.92 91.734C144.192 91.3607 143.59 90.8193 143.114 90.11L143.156 96.564C143.156 96.6947 143.091 96.76 142.96 96.76H139.936C139.806 96.76 139.74 96.6947 139.74 96.564L139.796 85.91L139.74 77.776C139.74 77.6453 139.806 77.58 139.936 77.58H142.932C143.072 77.58 143.133 77.6453 143.114 77.776L143.058 79.652C143.553 78.896 144.174 78.3127 144.92 77.902C145.676 77.4913 146.53 77.286 147.482 77.286ZM146.502 89.984C147.706 89.984 148.616 89.5453 149.232 88.668C149.848 87.7813 150.156 86.54 150.156 84.944C150.156 83.2547 149.853 81.9433 149.246 81.01C148.64 80.0767 147.748 79.61 146.572 79.61C145.424 79.61 144.538 80.0487 143.912 80.926C143.287 81.8033 142.974 83.0867 142.974 84.776C142.974 86.4373 143.278 87.7207 143.884 88.626C144.5 89.5313 145.373 89.984 146.502 89.984ZM166.028 77.776C166.028 77.6453 166.089 77.58 166.21 77.58H169.206C169.337 77.58 169.402 77.6453 169.402 77.776L169.346 84.72L169.402 91.804C169.402 91.9347 169.337 92 169.206 92H166.238C166.107 92 166.042 91.9347 166.042 91.804L166.098 89.928C165.603 90.6747 164.983 91.2533 164.236 91.664C163.489 92.0653 162.631 92.266 161.66 92.266C160.363 92.266 159.257 91.944 158.342 91.3C157.427 90.6467 156.732 89.76 156.256 88.64C155.789 87.5107 155.556 86.2367 155.556 84.818C155.556 83.418 155.803 82.1487 156.298 81.01C156.793 79.8713 157.507 78.9707 158.44 78.308C159.373 77.636 160.465 77.3 161.716 77.3C162.677 77.3 163.527 77.4913 164.264 77.874C165.001 78.2567 165.608 78.812 166.084 79.54L166.028 77.776ZM162.542 89.998C163.709 89.998 164.605 89.5593 165.23 88.682C165.855 87.8047 166.168 86.5073 166.168 84.79C166.168 83.1287 165.86 81.85 165.244 80.954C164.637 80.0487 163.769 79.5913 162.64 79.582C161.445 79.5633 160.535 80.002 159.91 80.898C159.294 81.7847 158.986 83.026 158.986 84.622C158.986 86.3207 159.289 87.6413 159.896 88.584C160.503 89.5267 161.385 89.998 162.542 89.998ZM183.555 95.458C183.424 95.458 183.359 95.3927 183.359 95.262L183.275 92H172.131C172 92 171.935 91.9347 171.935 91.804L171.991 84.678L171.935 77.776C171.935 77.6453 172 77.58 172.131 77.58H175.155C175.286 77.58 175.351 77.6453 175.351 77.776L175.309 84.678L175.323 89.606H181.091L181.105 84.678L181.063 77.776C181.063 77.6453 181.128 77.58 181.259 77.58H184.283C184.414 77.58 184.479 77.6453 184.479 77.776L184.423 84.678L184.451 89.606H186.117C186.182 89.606 186.229 89.6247 186.257 89.662C186.294 89.6993 186.313 89.746 186.313 89.802V95.262C186.313 95.3927 186.248 95.458 186.117 95.458H183.555ZM188.488 92C188.357 92 188.292 91.9347 188.292 91.804L188.348 84.468L188.292 77.776C188.292 77.6453 188.357 77.58 188.488 77.58H191.47C191.601 77.58 191.666 77.6453 191.666 77.776L191.624 84.692L191.554 88.36L197.448 77.72C197.485 77.6267 197.56 77.58 197.672 77.58H201.228C201.359 77.58 201.424 77.6453 201.424 77.776L201.382 84.678L201.424 91.804C201.424 91.9347 201.359 92 201.228 92H198.274C198.143 92 198.078 91.9347 198.078 91.804L198.12 84.678L198.19 81.304L192.324 91.86C192.287 91.9533 192.212 92 192.1 92H188.488ZM204.134 92C204.003 92 203.938 91.9347 203.938 91.804L203.994 84.468L203.938 77.776C203.938 77.6453 204.003 77.58 204.134 77.58H207.116C207.247 77.58 207.312 77.6453 207.312 77.776L207.27 84.692L207.2 88.36L213.094 77.72C213.131 77.6267 213.206 77.58 213.318 77.58H216.874C217.005 77.58 217.07 77.6453 217.07 77.776L217.028 84.678L217.07 91.804C217.07 91.9347 217.005 92 216.874 92H213.92C213.789 92 213.724 91.9347 213.724 91.804L213.766 84.678L213.836 81.304L207.97 91.86C207.933 91.9533 207.858 92 207.746 92H204.134ZM226.047 92C225.917 92 225.851 91.9347 225.851 91.804L225.907 84.468L225.851 77.776C225.851 77.6453 225.917 77.58 226.047 77.58H229.029C229.16 77.58 229.225 77.6453 229.225 77.776L229.183 84.692L229.113 88.36L235.007 77.72C235.045 77.6267 235.119 77.58 235.231 77.58H238.787C238.918 77.58 238.983 77.6453 238.983 77.776L238.941 84.678L238.983 91.804C238.983 91.9347 238.918 92 238.787 92H235.833C235.703 92 235.637 91.9347 235.637 91.804L235.679 84.678L235.749 81.304L229.883 91.86C229.846 91.9533 229.771 92 229.659 92H226.047ZM241.161 95.458C241.03 95.458 240.965 95.3927 240.965 95.262V89.83C240.965 89.6993 241.03 89.634 241.161 89.634H242.141C242.505 89.2607 242.794 88.7707 243.009 88.164C243.233 87.548 243.396 86.8013 243.499 85.924C243.723 84.244 243.891 81.528 244.003 77.776C244.003 77.6453 244.068 77.58 244.199 77.58H254.391C254.447 77.58 254.494 77.5987 254.531 77.636C254.568 77.664 254.587 77.7107 254.587 77.776L254.601 84.482L254.699 89.62L256.407 89.606C256.472 89.606 256.519 89.6247 256.547 89.662C256.584 89.6993 256.603 89.746 256.603 89.802V95.262C256.603 95.3927 256.538 95.458 256.407 95.458H253.845C253.714 95.458 253.649 95.3927 253.649 95.262L253.565 92H244.045L243.961 95.262C243.961 95.3927 243.896 95.458 243.765 95.458H241.161ZM251.353 89.634V84.468L251.297 79.988H246.803C246.682 82.676 246.546 84.664 246.397 85.952C246.285 86.7733 246.145 87.4733 245.977 88.052C245.809 88.6213 245.594 89.1487 245.333 89.634H251.353ZM264.659 92.336C263.137 92.336 261.84 92.0233 260.767 91.398C259.693 90.7633 258.881 89.8813 258.331 88.752C257.78 87.6227 257.505 86.316 257.505 84.832C257.505 83.32 257.785 81.9947 258.345 80.856C258.914 79.708 259.731 78.8213 260.795 78.196C261.859 77.5613 263.109 77.244 264.547 77.244C266.021 77.244 267.281 77.5613 268.327 78.196C269.381 78.8307 270.189 79.7407 270.749 80.926C271.309 82.1113 271.598 83.5253 271.617 85.168C271.617 85.2987 271.551 85.364 271.421 85.364H260.893C260.958 86.96 261.308 88.1453 261.943 88.92C262.577 89.6853 263.497 90.068 264.701 90.068C266.521 90.068 267.631 89.1207 268.033 87.226C268.051 87.114 268.117 87.058 268.229 87.058H271.099C271.155 87.058 271.201 87.072 271.239 87.1C271.285 87.128 271.304 87.1607 271.295 87.198C271.173 88.1687 270.833 89.046 270.273 89.83C269.713 90.6047 268.952 91.216 267.991 91.664C267.029 92.112 265.919 92.336 264.659 92.336ZM267.991 83.18C267.944 82.4987 267.785 81.8827 267.515 81.332C267.253 80.772 266.871 80.3287 266.367 80.002C265.872 79.666 265.27 79.498 264.561 79.498C263.553 79.498 262.745 79.8153 262.139 80.45C261.541 81.0753 261.159 81.9853 260.991 83.18H267.991ZM273.97 92C273.839 92 273.774 91.9347 273.774 91.804L273.83 84.468L273.774 77.776C273.774 77.6453 273.839 77.58 273.97 77.58H276.952C277.083 77.58 277.148 77.6453 277.148 77.776L277.106 84.692L277.036 88.36L282.93 77.72C282.967 77.6267 283.042 77.58 283.154 77.58H286.71C286.841 77.58 286.906 77.6453 286.906 77.776L286.864 84.678L286.906 91.804C286.906 91.9347 286.841 92 286.71 92H283.756C283.625 92 283.56 91.9347 283.56 91.804L283.602 84.678L283.672 81.304L277.806 91.86C277.769 91.9533 277.694 92 277.582 92H273.97ZM280.41 76.362C281.39 76.362 282.239 76.1893 282.958 75.844C283.677 75.4987 284.227 75.004 284.61 74.36C285.002 73.716 285.198 72.9647 285.198 72.106H282.594C282.575 72.8247 282.379 73.3893 282.006 73.8C281.633 74.2013 281.115 74.402 280.452 74.402C279.771 74.402 279.248 74.2013 278.884 73.8C278.529 73.3893 278.352 72.8247 278.352 72.106H275.734C275.734 72.9647 275.921 73.716 276.294 74.36C276.677 75.004 277.218 75.4987 277.918 75.844C278.627 76.1893 279.458 76.362 280.41 76.362Z" fill="black" fill-opacity="0.8"/>
<rect x="27.5" y="167.5" width="74" height="32" rx="16" fill="black"/>
<rect x="27.5" y="167.5" width="74" height="32" rx="16" stroke="black"/>
<path d="M45.0436 180.196C45.1006 180.196 45.1462 180.213 45.1803 180.248C45.2145 180.282 45.2316 180.327 45.2316 180.384V181.162C45.2316 181.288 45.169 181.35 45.0436 181.35H42.2059L42.1632 184.453L42.223 188.812C42.223 188.937 42.1603 189 42.035 189H40.7785C40.6532 189 40.5905 188.937 40.5905 188.812L40.6503 184.453L40.6076 181.35H37.7784C37.7215 181.35 37.6759 181.333 37.6417 181.299C37.6075 181.265 37.5904 181.219 37.5904 181.162V180.384C37.5904 180.259 37.6531 180.196 37.7784 180.196H45.0436ZM49.7976 189.197C48.8973 189.197 48.1309 189.006 47.4984 188.624C46.8716 188.242 46.3958 187.707 46.071 187.017C45.7462 186.328 45.5838 185.53 45.5838 184.624C45.5838 183.706 45.7462 182.9 46.071 182.205C46.4015 181.51 46.8773 180.968 47.4984 180.581C48.1195 180.193 48.8574 180 49.7121 180C50.5555 180 51.2791 180.182 51.8831 180.547C52.4928 180.911 52.9601 181.439 53.2849 182.128C53.6154 182.817 53.792 183.641 53.8148 184.598C53.8148 184.729 53.7521 184.795 53.6268 184.795H47.1907C47.242 187 48.1166 188.103 49.8147 188.103C50.4529 188.103 50.9657 187.934 51.3532 187.598C51.7464 187.256 52.0085 186.761 52.1395 186.111C52.168 185.997 52.2364 185.94 52.3447 185.94H53.4729C53.5356 185.94 53.584 185.954 53.6182 185.983C53.6524 186.011 53.6667 186.054 53.661 186.111C53.5641 186.721 53.3504 187.259 53.0199 187.726C52.6951 188.188 52.2592 188.55 51.7122 188.812C51.1652 189.068 50.527 189.197 49.7976 189.197ZM52.1139 183.726C52.0968 183.236 51.9942 182.792 51.8062 182.393C51.6182 181.988 51.3475 181.669 50.9942 181.436C50.6409 181.202 50.2164 181.085 49.7207 181.085C48.997 181.085 48.4272 181.316 48.0112 181.778C47.5953 182.233 47.336 182.883 47.2334 183.726H52.1139ZM59.3041 189.197C58.4209 189.197 57.6659 189.009 57.0391 188.632C56.4123 188.256 55.9337 187.724 55.6032 187.034C55.2784 186.345 55.116 185.538 55.116 184.615C55.116 183.686 55.2784 182.877 55.6032 182.188C55.9337 181.493 56.4123 180.954 57.0391 180.572C57.6716 180.191 58.4266 180 59.3041 180C60.1817 180 60.9338 180.188 61.5606 180.564C62.1874 180.94 62.6632 181.476 62.988 182.171C63.3128 182.86 63.4752 183.667 63.4752 184.59C63.4752 185.518 63.3128 186.33 62.988 187.026C62.6632 187.715 62.1874 188.251 61.5606 188.632C60.9338 189.009 60.1817 189.197 59.3041 189.197ZM59.3041 188.103C60.1475 188.103 60.78 187.803 61.2016 187.205C61.629 186.607 61.8427 185.743 61.8427 184.615C61.8427 183.493 61.6261 182.627 61.1931 182.017C60.7657 181.401 60.1332 181.094 59.2956 181.094C58.4466 181.099 57.8084 181.407 57.381 182.017C56.9537 182.627 56.74 183.496 56.74 184.624C56.74 185.746 56.9565 186.607 57.3896 187.205C57.8226 187.803 58.4608 188.103 59.3041 188.103ZM69.4074 180.017C70.1766 180.017 70.8348 180.216 71.3818 180.615C71.9288 181.008 72.3419 181.55 72.6212 182.239C72.9061 182.929 73.0485 183.706 73.0485 184.573C73.0485 185.427 72.9004 186.205 72.6041 186.906C72.3135 187.601 71.8918 188.154 71.3391 188.564C70.7863 188.969 70.1339 189.171 69.3817 189.171C68.7606 189.171 68.2193 189.04 67.7578 188.778C67.2962 188.51 66.923 188.122 66.6381 187.615L66.6723 191.718C66.6723 191.843 66.6096 191.906 66.4842 191.906H65.2192C65.0939 191.906 65.0312 191.843 65.0312 191.718L65.0996 185.145L65.0397 180.384C65.0397 180.259 65.0996 180.196 65.2192 180.196H66.45C66.5754 180.196 66.6381 180.262 66.6381 180.393L66.5953 181.675C66.8916 181.151 67.2763 180.743 67.7492 180.453C68.2279 180.162 68.7806 180.017 69.4074 180.017ZM68.9715 188.068C69.7863 188.068 70.4017 187.763 70.8177 187.154C71.2394 186.544 71.4502 185.721 71.4502 184.684C71.4502 183.595 71.2422 182.732 70.8262 182.094C70.416 181.45 69.8091 181.128 69.0057 181.128C68.2364 181.128 67.6353 181.421 67.2022 182.008C66.7691 182.595 66.5526 183.45 66.5526 184.573C66.5526 185.684 66.7634 186.544 67.1851 187.154C67.6125 187.763 68.2079 188.068 68.9715 188.068ZM74.8271 189C74.7075 189 74.6477 188.937 74.6477 188.812L74.6989 184.453L74.6391 180.384C74.6391 180.259 74.6989 180.196 74.8186 180.196H76.0494C76.1748 180.196 76.2374 180.259 76.2374 180.384L76.2118 184.29L76.1691 187.282L80.2461 180.333C80.286 180.242 80.3629 180.196 80.4769 180.196H81.9897C82.1151 180.196 82.1778 180.259 82.1778 180.384L82.1179 184.453L82.1778 188.812C82.1778 188.937 82.1151 189 81.9897 189H80.7675C80.6421 189 80.5794 188.937 80.5794 188.812L80.6136 184.667L80.6393 181.966L76.5964 188.863C76.5451 188.954 76.4682 189 76.3657 189H74.8271ZM83.9441 189C83.8359 189 83.7817 188.96 83.7817 188.88C83.7817 188.846 83.7931 188.809 83.8159 188.769L85.8758 185.402C85.1806 185.259 84.645 184.977 84.2689 184.555C83.8985 184.128 83.7133 183.555 83.7133 182.837C83.7133 181.954 84.0182 181.293 84.6279 180.854C85.2433 180.416 86.1436 180.196 87.3288 180.196H90.6623C90.7819 180.196 90.8417 180.259 90.8417 180.384L90.7905 184.47L90.8417 188.812C90.8417 188.937 90.7819 189 90.6623 189H89.3887C89.2634 189 89.2007 188.937 89.2007 188.812L89.2434 185.573H87.2775L86.1664 187.513L85.3972 188.872C85.3459 188.957 85.2718 189 85.1749 189H83.9441ZM89.2605 184.479L89.2178 181.282H87.2519C86.6365 181.282 86.1579 181.421 85.816 181.701C85.4798 181.974 85.3117 182.359 85.3117 182.855C85.3117 183.39 85.4798 183.795 85.816 184.068C86.1522 184.342 86.6337 184.479 87.2605 184.479H89.2605Z" fill="white"/>
<rect x="113.5" y="167.5" width="69" height="32" rx="16" fill="white"/>
<rect x="113.5" y="167.5" width="69" height="32" rx="16" stroke="black"/>
<path d="M134.608 179.726C134.671 179.726 134.717 179.746 134.745 179.786C134.774 179.82 134.785 179.869 134.779 179.931L134.66 180.726C134.654 180.846 134.588 180.906 134.463 180.906H132.112L131.514 185.06H133.856C133.919 185.06 133.964 185.08 133.993 185.12C134.027 185.154 134.038 185.202 134.027 185.265L133.89 186.06C133.873 186.179 133.805 186.239 133.685 186.239H131.352L130.976 188.821C130.959 188.94 130.893 189 130.779 189H129.685C129.622 189 129.574 188.983 129.54 188.949C129.511 188.909 129.503 188.858 129.514 188.795L129.873 186.239H127.497L127.129 188.821C127.112 188.94 127.044 189 126.924 189H125.83C125.768 189 125.719 188.983 125.685 188.949C125.656 188.909 125.648 188.858 125.659 188.795L126.027 186.239H123.685C123.622 186.239 123.574 186.222 123.54 186.188C123.511 186.148 123.503 186.097 123.514 186.034L123.651 185.239C123.668 185.12 123.736 185.06 123.856 185.06H126.189L126.788 180.906H124.463C124.4 180.906 124.354 180.889 124.326 180.854C124.297 180.815 124.286 180.763 124.292 180.701L124.411 179.906C124.423 179.786 124.488 179.726 124.608 179.726H126.95L127.317 177.213C127.335 177.094 127.4 177.034 127.514 177.034H128.608C128.739 177.034 128.796 177.102 128.779 177.239L128.429 179.726H130.805L131.164 177.213C131.181 177.094 131.249 177.034 131.369 177.034H132.463C132.594 177.034 132.651 177.102 132.634 177.239L132.283 179.726H134.608ZM130.634 180.906H128.258L127.668 185.06H130.044L130.634 180.906ZM136.091 189C135.971 189 135.911 188.937 135.911 188.812L135.963 184.453L135.903 180.384C135.903 180.259 135.963 180.196 136.082 180.196H137.313C137.439 180.196 137.501 180.259 137.501 180.384L137.476 184.29L137.433 187.282L141.51 180.333C141.55 180.242 141.627 180.196 141.741 180.196H143.254C143.379 180.196 143.442 180.259 143.442 180.384L143.382 184.453L143.442 188.812C143.442 188.937 143.379 189 143.254 189H142.031C141.906 189 141.843 188.937 141.843 188.812L141.877 184.667L141.903 181.966L137.86 188.863C137.809 188.954 137.732 189 137.629 189H136.091ZM144.772 191.094C144.715 191.094 144.669 191.077 144.635 191.043C144.601 191.009 144.584 190.963 144.584 190.906V188.051C144.584 187.994 144.601 187.949 144.635 187.914C144.669 187.88 144.715 187.863 144.772 187.863H145.276C145.504 187.618 145.681 187.305 145.806 186.923C145.937 186.541 146.037 186.06 146.105 185.479C146.174 184.897 146.234 184.142 146.285 183.214C146.342 182.279 146.385 181.336 146.413 180.384C146.419 180.327 146.439 180.282 146.473 180.248C146.507 180.213 146.553 180.196 146.61 180.196H152.311C152.436 180.196 152.499 180.259 152.499 180.384L152.507 184.325L152.618 187.863L153.533 187.855C153.664 187.855 153.73 187.917 153.73 188.043V190.906C153.73 190.963 153.712 191.009 153.678 191.043C153.644 191.077 153.596 191.094 153.533 191.094H152.516C152.459 191.094 152.413 191.077 152.379 191.043C152.345 191.009 152.328 190.963 152.328 190.906L152.285 189H146.046L146.003 190.906C146.003 190.963 145.986 191.009 145.952 191.043C145.917 191.077 145.872 191.094 145.815 191.094H144.772ZM151.046 187.863L151.037 184.325L150.969 181.35H147.746C147.678 183.145 147.584 184.533 147.464 185.513C147.402 186.071 147.316 186.527 147.208 186.88C147.105 187.234 146.969 187.561 146.798 187.863H151.046ZM158.572 189.197C157.672 189.197 156.905 189.006 156.273 188.624C155.646 188.242 155.17 187.707 154.845 187.017C154.521 186.328 154.358 185.53 154.358 184.624C154.358 183.706 154.521 182.9 154.845 182.205C155.176 181.51 155.652 180.968 156.273 180.581C156.894 180.193 157.632 180 158.487 180C159.33 180 160.054 180.182 160.658 180.547C161.267 180.911 161.735 181.439 162.059 182.128C162.39 182.817 162.566 183.641 162.589 184.598C162.589 184.729 162.527 184.795 162.401 184.795H155.965C156.016 187 156.891 188.103 158.589 188.103C159.227 188.103 159.74 187.934 160.128 187.598C160.521 187.256 160.783 186.761 160.914 186.111C160.943 185.997 161.011 185.94 161.119 185.94H162.247C162.31 185.94 162.359 185.954 162.393 185.983C162.427 186.011 162.441 186.054 162.435 186.111C162.339 186.721 162.125 187.259 161.794 187.726C161.47 188.188 161.034 188.55 160.487 188.812C159.94 189.068 159.301 189.197 158.572 189.197ZM160.888 183.726C160.871 183.236 160.769 182.792 160.581 182.393C160.393 181.988 160.122 181.669 159.769 181.436C159.415 181.202 158.991 181.085 158.495 181.085C157.771 181.085 157.202 181.316 156.786 181.778C156.37 182.233 156.11 182.883 156.008 183.726H160.888ZM164.337 189C164.217 189 164.157 188.937 164.157 188.812L164.209 184.453L164.149 180.384C164.149 180.259 164.209 180.196 164.328 180.196H165.559C165.685 180.196 165.747 180.259 165.747 180.384L165.722 184.29L165.679 187.282L169.756 180.333C169.796 180.242 169.873 180.196 169.987 180.196H171.5C171.625 180.196 171.688 180.259 171.688 180.384L171.628 184.453L171.688 188.812C171.688 188.937 171.625 189 171.5 189H170.277C170.152 189 170.089 188.937 170.089 188.812L170.123 184.667L170.149 181.966L166.106 188.863C166.055 188.954 165.978 189 165.875 189H164.337Z" fill="black"/>
</svg>
