<svg width="436" height="117" viewBox="0 0 436 117" fill="none" xmlns="http://www.w3.org/2000/svg">
<path d="M123.157 104.001H106.618L78.7425 44.5145L68.2057 104.001H51L66.6051 15.4382H85.6781L111.42 72.3903L121.423 15.4382H138.762L123.157 104.001Z" fill="white"/>
<path d="M173.55 91.1965C189.555 91.1965 203.826 78.7924 203.826 52.3837C203.826 35.0447 197.158 28.9093 184.487 28.9093C164.88 28.9093 153.677 44.9146 153.677 68.9225C153.677 85.7281 160.879 91.1965 173.55 91.1965ZM170.749 107.068C147.675 107.068 135.271 93.9975 135.271 70.9232C135.271 36.3784 154.877 12.5039 187.421 12.5039C210.362 12.5039 222.366 26.5085 222.366 49.9829C222.366 85.8614 203.693 107.068 170.749 107.068Z" fill="white"/>
<path d="M351.713 65.0546H327.972L323.837 88.9291H347.311C356.914 88.9291 363.317 82.2603 363.317 74.1242C363.317 66.9219 359.048 65.0546 351.713 65.0546ZM356.381 30.7766H334.107L330.639 49.9829H353.98C362.516 49.9829 367.184 45.7149 367.184 38.2457C367.184 32.2437 363.85 30.7766 356.381 30.7766ZM343.177 104.001H303.297L318.902 15.4382H362.516C377.721 15.4382 385.457 23.0407 385.457 35.1781C385.457 45.7149 378.788 53.184 371.186 56.1183C377.054 58.5191 381.456 63.454 381.456 72.9238C381.456 91.3299 368.652 104.001 343.177 104.001Z" fill="white"/>
<path d="M301.191 74.5546C298.879 79.4451 296.078 83.891 292.788 87.8924C289.587 91.8937 286.075 95.317 282.251 98.1624C278.517 101.008 274.56 103.186 270.381 104.698C266.29 106.21 262.156 106.965 257.976 106.965C253.531 106.965 249.307 106.032 245.306 104.164C240.504 101.853 236.547 98.5181 233.435 94.1611C230.323 89.8041 228.144 84.8247 226.9 79.2228C225.744 73.621 225.566 67.619 226.366 61.2169C227.166 54.8148 229.034 48.5016 231.968 42.2773C234.28 37.2979 237.036 32.852 240.237 28.9396C243.438 24.9383 246.906 21.5594 250.641 18.8029C254.464 15.9575 258.466 13.779 262.645 12.2674C266.824 10.7558 270.959 10 275.049 10C279.495 10 283.763 10.9336 287.853 12.8009C292.655 15.0239 296.611 18.3139 299.724 22.6708C302.836 27.0278 304.97 32.0073 306.126 37.6091C307.282 43.211 307.459 49.2129 306.659 55.615C305.948 62.0172 304.125 68.3304 301.191 74.5546ZM299.057 73.621C301.902 67.4856 303.68 61.3947 304.392 55.3483C305.192 49.2129 305.014 43.4777 303.858 38.1426C302.702 32.8075 300.657 28.0949 297.723 24.0046C294.878 19.9144 291.232 16.8467 286.786 14.8016C285.008 13.9124 283.14 13.29 281.184 12.9343C279.228 12.4897 277.227 12.2674 275.182 12.2674C271.359 12.2674 267.491 12.9788 263.578 14.4015C259.666 15.8241 255.887 17.8693 252.241 20.5368C248.596 23.2044 245.217 26.4499 242.105 30.2734C238.992 34.0968 236.325 38.4094 234.102 43.211C231.257 49.3463 229.434 55.4817 228.633 61.617C227.922 67.6635 228.144 73.3542 229.3 78.6893C230.456 84.0244 232.457 88.7371 235.302 92.8273C238.237 96.9176 241.882 99.9852 246.239 102.03C249.885 103.72 253.842 104.565 258.11 104.565C261.933 104.565 265.801 103.853 269.714 102.43C273.626 101.008 277.361 98.9627 280.917 96.2951C284.563 93.6276 287.942 90.3821 291.054 86.5586C294.166 82.7351 296.834 78.4226 299.057 73.621ZM277.183 43.4777C277.005 43.2999 276.694 43.211 276.249 43.211C275.36 43.211 274.249 43.7 272.915 44.6781C271.581 45.5673 270.247 46.5899 268.913 47.7458C267.58 48.9017 266.379 50.0577 265.312 51.2136C264.245 52.2806 263.578 53.0364 263.312 53.481C262.956 53.9256 262.2 54.9037 261.044 56.4153C259.977 57.838 258.91 59.4385 257.843 61.2169C256.865 62.9063 256.109 64.5069 255.576 66.0185C255.042 67.5301 255.087 68.5526 255.709 69.0862C256.332 69.6197 257.977 69.1306 260.644 67.619C263.312 66.0185 266.379 63.1286 269.847 58.9495C273.315 54.9482 275.538 51.5248 276.516 48.6794C277.583 45.7451 277.805 44.0112 277.183 43.4777ZM278.783 41.8772C279.584 42.4996 279.939 43.5222 279.85 44.9449C279.761 46.2786 279.361 47.8347 278.65 49.6131C277.939 51.3025 276.961 53.1253 275.716 55.0815C274.471 56.9488 273.048 58.7716 271.448 60.55C270.203 61.9727 268.869 63.3954 267.446 64.8181C266.113 66.1519 264.779 67.3078 263.445 68.2859C262.111 69.264 260.822 70.0643 259.577 70.6867C258.421 71.3091 257.354 71.6203 256.376 71.6203C255.665 71.6203 254.998 71.398 254.375 70.9534C253.486 70.2421 253.086 69.2195 253.175 67.8858C253.264 66.4631 253.664 64.907 254.375 63.2176C255.087 61.4392 256.065 59.6164 257.31 57.7491C258.554 55.7929 259.933 53.9256 261.444 52.1472C264.023 49.124 266.69 46.5454 269.447 44.4114C272.203 42.1884 274.56 41.0769 276.516 41.0769C277.405 41.0769 278.161 41.3437 278.783 41.8772Z" fill="white"/>
<path d="M23.7412 116.839C8.8029 110.036 0 92.6973 0 72.0238C0 43.6144 17.6058 6.00198 48.1492 0L48.9495 4.93496C22.274 12.004 10.4034 51.8838 10.4034 76.5586C10.4034 93.6309 16.0053 106.435 26.4087 112.57L23.7412 116.839Z" fill="white"/>
<path d="M386.917 111.904C413.593 104.835 425.463 64.9548 425.463 40.28C425.463 23.2077 419.861 10.4034 409.458 4.26808L412.125 0C427.064 6.80224 436 24.1413 436 44.8148C436 73.2242 418.261 110.837 387.717 116.839L386.917 111.904Z" fill="white"/>
</svg>
