<svg width="93" height="50" viewBox="0 0 93 50" fill="none" xmlns="http://www.w3.org/2000/svg">
<path d="M10.1598 50C3.76711 47.089 0 39.6689 0 30.8219C0 18.6644 7.53426 2.56849 20.605 0L20.9475 2.11187C9.53197 5.13699 4.45204 22.2032 4.45204 32.7626C4.45204 40.0685 6.84932 45.5479 11.3014 48.1735L10.1598 50Z" fill="black"/>
<path d="M71.8301 47.8881C83.2456 44.863 88.3255 27.7968 88.3255 17.2374C88.3255 9.93151 85.9283 4.45205 81.4762 1.82648L82.6177 0C89.0104 2.91096 92.8347 10.3311 92.8347 19.1781C92.8347 31.3356 85.2433 47.4315 72.1725 50L71.8301 47.8881Z" fill="black"/>
<path d="M35.3314 26.7031L14.1621 36.8808V32.8721L31.4561 24.8101L14.1621 16.7704V12.7617L35.3314 22.9617V26.7031Z" fill="black"/>
<path d="M70.6428 25.0496C70.6428 28.3152 67.8214 30.9625 64.3409 30.9625C60.8605 30.9625 58.0391 28.3152 58.0391 25.0496C58.0391 21.784 60.8605 19.1367 64.3409 19.1367C67.8214 19.1367 70.6428 21.784 70.6428 25.0496Z" fill="black"/>
<path d="M83.8244 12.2597C85.3828 15.1532 85.6797 18.8553 84.7149 23.3662C83.676 28.248 81.5759 32.3063 78.4146 35.5411C74.6893 39.3397 70.1328 41.239 64.7452 41.239C59.7138 41.239 56.1146 39.5771 53.9477 36.2533C52.0628 33.0482 51.6398 28.9973 52.6787 24.1007C53.6138 19.6789 55.5135 15.8951 58.378 12.7494C62.0588 8.71333 66.6598 6.69531 72.181 6.69531C77.9545 6.69531 81.8356 8.55011 83.8244 12.2597ZM80.1511 23.433C80.9674 19.5898 80.6186 16.496 79.1047 14.1516C77.6057 11.8071 75.1123 10.6349 71.6244 10.6349C68.2405 10.6349 65.2276 11.7997 62.5857 14.1293C59.9587 16.4441 58.1628 19.8643 57.1981 24.39C56.4263 28.0106 56.6935 31.0673 57.9996 33.5601C59.3056 36.0381 62.0143 37.2771 66.1255 37.2771C70.0289 37.2771 73.1457 35.8823 75.4759 33.0927C77.8209 30.2883 79.3793 27.0684 80.1511 23.433Z" fill="black"/>
<path d="M32.063 34.9239L31.8054 34.6461L31.7307 35.0175L31.5003 36.1618L31.4826 36.2497L31.5382 36.3202C33.0198 38.1989 34.1709 39.5202 34.9884 40.2753C36.2587 41.4584 37.777 42.4299 39.5409 43.1911L39.541 43.1911C40.2179 43.4829 40.9341 43.7206 41.6893 43.9046C42.4474 44.0957 43.2313 44.2039 44.0407 44.2297L44.0408 44.2297C44.6885 44.2501 45.2105 44.2342 45.6023 44.1795C45.9921 44.127 47.011 43.9382 48.6499 43.6154L48.777 43.5904L48.8026 43.4634L49.0274 42.3468L49.0796 42.0871L48.8163 42.1157C46.9972 42.3132 45.6336 42.3743 44.7178 42.3035L44.7171 42.3035C43.2268 42.1933 41.6374 41.7777 39.9478 41.052C38.2571 40.3191 36.8303 39.472 35.6646 38.5125C34.8948 37.8785 33.6957 36.685 32.063 34.9239Z" fill="black" stroke="black" stroke-width="0.387897"/>
</svg>
